<?xml version="1.0" encoding="utf-8"?>
<!-- Generator: Adobe Illustrator 25.2.1, SVG Export Plug-In . SVG Version: 6.00 Build 0)  -->
<svg version="1.1" id="Layer_1" xmlns="http://www.w3.org/2000/svg" xmlns:xlink="http://www.w3.org/1999/xlink" x="0px" y="0px"
	 viewBox="0 0 185 185" style="enable-background:new 0 0 185 185;" xml:space="preserve">
<style type="text/css">
	.st0{display:none;}
	.st1{display:inline;fill:#F7941D;}
	.st2{display:inline;}
	.st3{fill:#FFFFFF;stroke:#231F20;stroke-width:2;stroke-miterlimit:10;}
	.st4{display:inline;fill:#F7941D;stroke:#231F20;stroke-width:2;stroke-miterlimit:10;}
	.st5{display:inline;fill:#FFFFFF;stroke:#231F20;stroke-width:2;stroke-miterlimit:10;}
	.st6{display:inline;fill:#DA1C5C;}
	.st7{fill:none;stroke:#231F20;stroke-width:2;stroke-miterlimit:10;}
	.st8{fill:none;stroke:#231F20;stroke-width:2;stroke-linejoin:round;stroke-miterlimit:10;}
	.st9{fill:#FFFFFF;stroke:#231F20;stroke-width:2;stroke-linecap:round;stroke-linejoin:round;stroke-miterlimit:10;}
	.st10{fill:#231F20;}
	.st11{fill:none;stroke:#231F20;stroke-width:2;stroke-linecap:round;stroke-linejoin:round;stroke-miterlimit:10;}
	.st12{fill:#DA1C5C;}
</style>
<g class="st0">
	<circle class="st1" cx="92.4" cy="92.3" r="92.3"/>
	<g class="st2">
		<path class="st3" d="M155.3,133.3c-0.1,1-0.2,1.9-0.4,2.9c-0.1,1-0.7,1.7-1.7,2.1c-2.3,0.9-4.5,1.9-6.7,2.9
			c-2.6,1.2-3.1,2.1-2.4,4.9c0.1,0.4,0.2,0.9,0.4,1.3c0.4,1.4-0.2,2.4-1.5,2.9c-0.1,0.1-0.3,0.1-0.4,0.2h-0.3
			c-0.2-0.1-0.4-0.2-0.7-0.2c-3.8-0.2-7.6-0.4-11.5-0.7c-4.4-0.2-8.9-0.6-13.2-1.5c-3.6-0.8-5.7-3.1-6.2-6.8
			c-0.1-1.1-0.3-2.2-0.6-3.2c-0.3-1.2-0.8-1.4-1.8-0.8c-1.7,0.9-3.4,1.9-5.2,2.7c-6.4,2.6-12.6,1.8-18.3-2c-1-0.7-1.8-1.9-2.8-2.6
			c-1.9-1.4-4-2.6-6-3.8c-0.4-0.2-0.8-0.5-1.1-0.7c-1.2-0.8-1.9-1.9-2.2-3.3c-0.3-1.3-0.7-2.6-1.3-3.7c-1.6-2.9-3.6-5.5-6.1-7.8
			c-1.1-1-2.3-1.4-3.8-0.9c-0.8,0.3-1.6,0.4-2.4,0.5c-2.7,0.6-5-1.2-5.8-3.4c-0.4-1.1-0.4-2.2-0.7-3.3c-0.1-0.3-0.1-0.8-0.4-1
			c-1.3-1.1-1.5-2.6-1.3-4.1c0.1-0.8,0.3-1.7,0.6-2.5c0.3-0.7,0.1-1.2-0.4-1.8c-1.4-1.4-2.8-2.9-4.3-4.4c-2.1-2.2-4.3-4.4-6.4-6.8
			c-3.6-4.1-3.4-7.8-0.1-11.9c1-1.2,2-2.5,3-3.7c0.4-0.5,0.5-1-0.2-1.3c-3.9-1.4-5.4-4.7-6.5-8.2c-1.1-3.5-2.1-7-2.8-10.6
			c-0.6-3.2-0.1-6.4,0.9-9.5c0.4-1.4,0.8-2.9,1.4-4.2c0.9-2,3.2-2.2,4.5-0.4c0.4,0.5,0.6,1.1,0.9,1.6c0.6,1.2,1.3,2.3,1.9,3.5
			c0.9,2,2.6,2.1,4.4,1.8c1.1-0.2,2.1-0.7,3.1-1.3c1.9-1.3,4-2.4,6-3.6c1-0.6,2-0.3,2.8,0.6c0.6,0.6,1.1,1.3,1.6,2
			c0.9,1.4,0.7,2.8,0.1,4.2c-0.3,0.7-0.7,1.3-1.2,2c0.5,0.2,1,0.5,1.5,0.7c1.8,0.7,2.6,1.9,2.7,3.7c0,0.8-0.2,1.7,0.2,2.2
			c0.4,0.5,1.3,0.6,2,0.8c1.6,0.6,3,1.6,4.2,2.7c0.7,0.6,1.3,1.2,2,1.8c1.6,1.6,3.6,2.1,5.8,2.2c3,0.1,5.9-0.3,8.7-1
			c0.2-0.1,0.5-0.1,0.7-0.1c1.1-0.1,1.8-0.5,2-1.7c0.1-1.1,1.2-1.7,2.2-1.5c1.3,0.3,2.1-0.4,3-1.2c0.7-0.7,1.4-1.4,2.1-2
			c1.6-1.3,3.4-2.1,5.5-2.2c0.3,0,0.7-0.3,0.9-0.5c0.5-0.9,1.3-1.3,2.3-1.3c1.7-0.1,3.3-0.2,5-0.2c1.1,0,2,0.4,2.6,1.4
			c0.2,0.5,0.6,0.7,1.1,0.9c0.5,0.2,1,0.6,1.3,1c0.5,0.7,1.1,1.2,2,1.3c3.9,0.5,7.4,2.1,10.3,4.8c1.2,1.1,2.3,1.4,3.8,1
			c0.6-0.2,1.4-0.1,2,0c1.6,0.3,2.5,1.2,3.1,2.7c0.9,2.9,1.4,5.8,1.1,8.8c-0.3,3.4-1.6,6.3-3.9,8.9c-0.3,0.3-0.5,0.8-0.5,1.2
			c0.1,1.1,0.2,2.2,0.4,3.3c0.3,1.3,0.3,2.6-0.2,3.9c-0.1,0.4-0.1,0.9,0,1.2c0.4,0.9,0.9,1.8,1.3,2.7c0.6,1.2,1.2,2.4,1,3.9
			c0,0.2,0.3,0.5,0.6,0.6c1.3,0.5,2.6,0.9,3.9,1.3c1.1,0.3,1.7,1,2,2.2c1,4.5,1.1,3.2-1.1,6.9c-0.8,1.2-1.5,2.5-2.1,3.8
			c-0.2,0.3-0.1,0.9,0.1,1.2c1.2,2.1,2.4,4.2,3.6,6.2c0.2,0.3,0.6,0.7,1,0.8c1.6,0.5,3.3,1,4.9,1.5c1.1,0.3,1.7,1.1,1.9,2.2
			c0.3,1.4,0.5,2.8,0.8,4.2c0.1,0.3,0.1,0.7,0.6,0.7C154.9,130.4,155.5,131.1,155.3,133.3z"/>
	</g>
	<path class="st4" d="M113.9,60.6c0,12.9-23.4,38.2-23.4,38.2S67.2,73.5,67.2,60.6s10.5-23.4,23.4-23.4S113.9,47.7,113.9,60.6z"/>
	<circle class="st5" cx="90.6" cy="59.8" r="10.5"/>
</g>
<g class="st0">
	<circle class="st6" cx="92.4" cy="92.3" r="92.3"/>
	<g class="st2">
		<path class="st3" d="M134.4,134.9c2.5,2.4,2.3,6.4-0.4,8.6c-2.5,2-5.2,3.9-8,5.6c-9.8,5.9-21.3,9.2-33.6,9.2
			c-36.4,0-65.9-29.5-65.9-65.9c0-11.9,3.2-23.1,8.7-32.7c1.6-2.8,3.4-5.5,5.4-8c2.1-2.7,6.1-2.8,8.5-0.4l6.6,6.4
			c2,2,2.4,5.2,0.6,7.5c-2.2,3-4.1,6.2-5.6,9.7c-2.1,5-3.3,10.5-3.5,16.2c-0.6,23.6,17.5,44.2,41,46.3c7.9,0.7,15.5-0.6,22.3-3.6
			c3.5-1.5,6.8-3.5,9.8-5.9c2.2-1.8,5.4-1.5,7.5,0.5L134.4,134.9z"/>
		<path class="st7" d="M52.4,40c11.1-8.5,24.9-13.5,40-13.5c36.4,0,65.9,29.5,65.9,65.9c0,13.7-4.2,26.3-11.3,36.8"/>
		<path class="st7" d="M131.7,114.7c3.8-6.6,5.9-14.2,5.9-22.4c0-25-20.3-45.2-45.2-45.2c-9.1,0-17.6,2.7-24.7,7.3"/>
		<line class="st7" x1="50.7" y1="74.9" x2="35.2" y2="59.6"/>
		<line class="st7" x1="126" y1="149" x2="110.5" y2="133.7"/>
		<path class="st7" d="M52.4,40"/>
		<path class="st7" d="M67.7,54.4"/>
		<path class="st8" d="M67.7,82.7c0.1-0.5,1-6.2,6.2-8.6c0.7-0.3,4.7-2.1,8.7,0c0.3,0.2,4.1,2.2,4.9,6c0.6,3-1.4,5-9.1,15
			c-2,2.6-7.8,10.1-9.9,12.5c-0.1,0.1,19.3,0,19.9,0h0"/>
		<polyline class="st8" points="111.2,109.2 111.2,73.5 93.9,96.7 93.9,99.4 117.1,99.4 		"/>
	</g>
</g>
<g class="st0">
	<circle class="st6" cx="92.4" cy="92.3" r="92.3"/>
	<g class="st2">
		<path class="st9" d="M126.7,50.2V131c0,10.9-8.8,19.7-19.7,19.7H77.8c-10.9,0-19.7-8.8-19.7-19.7V50.2c0,4.8,3.9,8.6,8.6,8.6
			c4.3,0,7.9-3.2,8.6-7.4c-0.1-0.4-0.1-0.8-0.1-1.3V34h34.4v16.2c0,0.4,0,0.8-0.1,1.2c0.6,4.2,4.2,7.4,8.6,7.4
			C122.8,58.8,126.7,55,126.7,50.2z"/>
		<g>
			<path class="st9" d="M75.3,51.5c-0.6,4.2-4.2,7.4-8.6,7.4c-4.8,0-8.6-3.9-8.6-8.6V37.6c0-2,1.6-3.7,3.7-3.7h13.4v16.2
				C75.2,50.6,75.2,51.1,75.3,51.5z"/>
			<path class="st9" d="M75.4,34v16.2c0,0.4,0,0.9-0.1,1.3c-0.1-0.4-0.1-0.8-0.1-1.3V34H75.4z"/>
			<path class="st9" d="M92.5,34v16.2c0,0.4,0,0.8-0.1,1.2c0,0,0,0,0,0c-0.6,4.2-4.2,7.4-8.6,7.4s-7.9-3.2-8.6-7.4
				c-0.1-0.4-0.1-0.8-0.1-1.3V34H92.5z"/>
			<path class="st9" d="M109.6,34v16.2c0,0.4,0,0.8-0.1,1.2c-0.6,4.2-4.2,7.4-8.6,7.4c-4.3,0-7.9-3.2-8.6-7.4
				c-0.1-0.4-0.1-0.8-0.1-1.3V34H109.6z"/>
			<path class="st9" d="M126.7,37.6v12.6c0,4.8-3.9,8.6-8.6,8.6c-4.4,0-8-3.2-8.6-7.4c0.1-0.4,0.1-0.8,0.1-1.2V34H123
				C125.1,34,126.7,35.6,126.7,37.6z"/>
			<path class="st9" d="M109.6,34v16.2c0,0.4,0,0.8-0.1,1.2c-0.1-0.4-0.1-0.8-0.1-1.2V34H109.6z"/>
		</g>
		<line class="st9" x1="89.2" y1="139.4" x2="95.6" y2="139.4"/>
	</g>
	<polygon class="st6" points="103.1,112.4 104.6,107.2 107.1,91.1 77.4,90.9 81.1,111.7 82.4,112.4 	"/>
	<g class="st2">
		<g>
			<line class="st10" x1="111.5" y1="91.1" x2="73.3" y2="91.1"/>
			<g>
				<path class="st10" d="M111.5,90.6c-12.7,0-25.5,0-38.2,0c-0.8,0-0.8,1.2,0,1.2c12.7,0,25.5,0,38.2,0
					C112.3,91.7,112.3,90.6,111.5,90.6L111.5,90.6z"/>
			</g>
		</g>
		<g>
			<g>
				<path class="st10" d="M106.4,91.5c-0.7,4.2-1.3,8.4-2,12.6c-0.3,2.1-0.5,4.3-1,6.4c-0.4,1.5-1.2,1.7-2.7,1.7
					c-5.1,0-10.3,0-15.4,0c-1.4,0-3.1,0.5-3.8-1.1c-0.6-1.5-0.6-3.7-0.8-5.3c-0.7-4.8-1.5-9.6-2.2-14.4c-0.1-0.7-1.2-0.4-1.1,0.3
					c0.7,4.6,1.4,9.2,2.1,13.7c0.3,2,0.4,4.1,0.9,6c0.4,1.6,1.6,1.9,3.1,1.9c5.4,0,10.8,0,16.2,0c1.4,0,3.5,0.4,4.4-1
					c0.8-1.1,0.7-3.1,0.9-4.4c0.8-5.4,1.7-10.7,2.5-16.1C107.6,91.1,106.5,90.8,106.4,91.5L106.4,91.5z"/>
			</g>
		</g>
		<g>
			<g>
				<path class="st10" d="M102.4,90.3c-0.9-3.8-1.9-7.5-2.8-11.3c-0.2-0.7-1.3-0.4-1.1,0.3c0.9,3.8,1.9,7.5,2.8,11.3
					C101.5,91.4,102.6,91.1,102.4,90.3L102.4,90.3z"/>
			</g>
		</g>
		<g>
			<g>
				<path class="st10" d="M83.5,90.7c0.9-3.8,1.9-7.5,2.8-11.3c0.2-0.7-0.9-1-1.1-0.3c-0.9,3.8-1.9,7.5-2.8,11.3
					C82.2,91.1,83.3,91.4,83.5,90.7L83.5,90.7z"/>
			</g>
		</g>
		<g>
			<g>
				<path class="st10" d="M98.2,96.8c0,3.7,0,7.5,0,11.2c0,0.8,1.2,0.8,1.2,0c0-3.7,0-7.5,0-11.2C99.4,96,98.2,96,98.2,96.8
					L98.2,96.8z"/>
			</g>
		</g>
		<g>
			<g>
				<path class="st10" d="M91.8,96.8c0,3.7,0,7.5,0,11.2c0,0.8,1.2,0.8,1.2,0c0-3.7,0-7.5,0-11.2C93,96,91.8,96,91.8,96.8L91.8,96.8
					z"/>
			</g>
		</g>
		<g>
			<g>
				<path class="st10" d="M85.4,96.8c0,3.7,0,7.5,0,11.2c0,0.8,1.2,0.8,1.2,0c0-3.7,0-7.5,0-11.2C86.6,96,85.4,96,85.4,96.8
					L85.4,96.8z"/>
			</g>
		</g>
	</g>
</g>
<g class="st0">
	<circle class="st1" cx="92.4" cy="92.3" r="92.3"/>
	<g class="st2">
		<path class="st3" d="M125.6,128.2h-13.4V56.5c0-3.5,2.8-6.3,6.3-6.3h0.9c3.5,0,6.3,2.8,6.3,6.3V128.2z"/>
		<path class="st3" d="M105.2,128.2H91.8V80.5c0-3.5,2.8-6.3,6.3-6.3h0.9c3.5,0,6.3,2.8,6.3,6.3V128.2z"/>
		<path class="st3" d="M84.9,128.2H71.5v-35c0-3.5,2.8-6.3,6.3-6.3h0.9c3.5,0,6.3,2.8,6.3,6.3V128.2z"/>
		<path class="st3" d="M64.1,128.2H51.5v-14.8c0-3.3,2.6-5.9,5.9-5.9h0.8c3.3,0,5.9,2.6,5.9,5.9V128.2z"/>
		<line class="st7" x1="134.1" y1="128.2" x2="42.1" y2="128.2"/>
		<g>
			<line class="st11" x1="123.9" y1="36.1" x2="39.7" y2="100.4"/>
			<polyline class="st11" points="116.3,36.9 124.4,35.8 121,43.1 			"/>
		</g>
	</g>
</g>
<g>
	<circle class="st12" cx="92.4" cy="92.3" r="92.3"/>
	<path class="st11" d="M68.2,107.4c7.3,0,11.9-1.9,14.7-4.3c4.9-4.2,4.6-9.9,4.6-9.9c23.5,0,21.3-12.3,21.3-12.3H73.2h-5"/>
	<path class="st9" d="M148.7,58.9v36.9c0,4.1-3.3,7.3-7.4,7.3H82.9c4.9-4.2,4.6-9.9,4.6-9.9c23.5,0,21.3-12.3,21.3-12.3H73.2V58.9
		c0-4.1,3.3-7.3,7.4-7.3h60.8C145.4,51.5,148.7,54.8,148.7,58.9z"/>
	<line class="st11" x1="73.2" y1="66.5" x2="55.2" y2="79.2"/>
	<path class="st11" d="M50.5,123.4h-7.8c-3.6,0-6.5-2.9-6.5-6.5V83.2c0-3.6,2.9-6.5,6.5-6.5h7.8c3.6,0,6.5,2.9,6.5,6.5v33.6
		C57,120.5,54.1,123.4,50.5,123.4z"/>
	<path class="st11" d="M135,103.1c0,0-0.1,8.3-6.7,8.3c-6.6,0-11.8,0-11.8,0"/>
	<path class="st11" d="M57,117.6c0,0,0,5.8,10.8,5.8s58,0,58,0s8-1.6,3.5-11.5"/>
	<g>
		<path class="st11" d="M128.5,64c0-0.2,0.5-3,3-4.2c0.3-0.2,2.3-1,4.3,0c0.2,0.1,2,1.1,2.4,2.9c0.3,1.5-0.7,2.5-4.4,7.3
			c-1,1.3-3.8,4.9-4.8,6.1c-0.1,0.1,9.4,0,9.7,0h0"/>
		<path class="st11" d="M118,76.2L118,76.2c0-4.9,1.7-9.6,4.9-13.3l2.6-3.1h-12.6"/>
	</g>
</g>
</svg>
