<svg xmlns="http://www.w3.org/2000/svg" viewBox="0 0 45.91 52.74"><defs><style>.a{fill:#575756;}</style></defs><path class="a" d="M30.52,52.74H15.39a1,1,0,1,1,0-2H30.52a1,1,0,1,1,0,2Z"/><path class="a" d="M23,48.69a1,1,0,0,1-1-1V39.28a1,1,0,0,1,2,0v8.41A1,1,0,0,1,23,48.69Z"/><path class="a" d="M23,33.56A16.79,16.79,0,0,1,9.28,7.05a1,1,0,1,1,1.63,1.16,14.81,14.81,0,1,0,5.46-4.66A1,1,0,0,1,15,3.1a1,1,0,0,1,.45-1.34A16.51,16.51,0,0,1,23,0a16.78,16.78,0,0,1,0,33.56Z"/><path class="a" d="M23,39.73A23,23,0,0,1,0,16.78a1,1,0,0,1,2,0,21,21,0,0,0,41.91,0,1,1,0,0,1,2,0A23,23,0,0,1,23,39.73Z"/><path class="a" d="M6.63,18.33H1a1,1,0,0,1-1-1V14.81a1,1,0,0,1,2,0v1.52H6.63a1,1,0,0,1,0,2Z"/><path class="a" d="M44.91,17.78H42.67a1,1,0,1,1,0-2h1.24V14.27a1,1,0,1,1,2,0v2.51A1,1,0,0,1,44.91,17.78Z"/><path class="a" d="M19.15,17a1,1,0,0,1-.71-.29,1,1,0,0,1,0-1.42L22,11.75a1,1,0,0,1,1.41,1.41l-3.52,3.53A1,1,0,0,1,19.15,17Z"/><path class="a" d="M20.4,23.2a1,1,0,0,1-.7-.29,1,1,0,0,1,0-1.41l8-8a1,1,0,0,1,1.42,0,1,1,0,0,1,0,1.41l-8,8A1,1,0,0,1,20.4,23.2Z"/></svg>