<svg xmlns="http://www.w3.org/2000/svg" viewBox="0 0 51.95 52.74"><defs><style>.a{fill:#575756;}</style></defs><path class="a" d="M32,52.74H20a1,1,0,0,1,0-2H32a1,1,0,1,1,0,2Z"/><path class="a" d="M47.55,27.25H4.4a4.4,4.4,0,1,1,0-8.79H47.55a4.4,4.4,0,1,1,0,8.79Zm-9.73-2h9.73a2.4,2.4,0,1,0,0-4.79H4.4a2.4,2.4,0,1,0,0,4.79Z"/><path class="a" d="M39,20.46a1,1,0,0,1-.62-.22,1,1,0,0,1-.16-1.41l4.38-5.44a1,1,0,0,1,.91-.36,7,7,0,0,0,.7.07,5.55,5.55,0,1,0-5.55-5.55A5.44,5.44,0,0,0,38.84,9a1,1,0,0,1-.36,1.05L25.91,19.83a1,1,0,0,1-1.4-.17,1,1,0,0,1,.17-1.41L36.75,8.86a6.68,6.68,0,0,1-.13-1.31,7.55,7.55,0,1,1,7.55,7.55l-.4,0-4,5A1,1,0,0,1,39,20.46Z"/><path class="a" d="M34.92,47.65H17A11.73,11.73,0,0,1,5.47,38l-1-5.74a1,1,0,0,1,2-.35l1,5.73a9.74,9.74,0,0,0,9.59,8H34.92a9.74,9.74,0,0,0,9.59-8l2.05-11.43a1,1,0,0,1,1.17-.81,1,1,0,0,1,.8,1.17L46.48,38A11.73,11.73,0,0,1,34.92,47.65Z"/></svg>