<svg xmlns="http://www.w3.org/2000/svg" viewBox="0 0 56.38 52.86"><defs><style>.a{fill:#575756;}</style></defs><path class="a" d="M36.22,13.58H10.6a1,1,0,0,1,0-2H36.22a1,1,0,0,1,0,2Z"/><path class="a" d="M45.28,31.64a1,1,0,0,1-1-1V12.58a1,1,0,1,1,2,0V30.64A1,1,0,0,1,45.28,31.64Z"/><path class="a" d="M31.3,45.68H6.92A6.92,6.92,0,0,1,0,38.76V18.5a1,1,0,0,1,2,0V38.76a4.93,4.93,0,0,0,4.92,4.92H31.3a1,1,0,0,1,0,2Z"/><path class="a" d="M27.54,37.38a1.66,1.66,0,0,1-1.62-1.31A1.45,1.45,0,0,0,25.14,35c-.22-.13-.45-.23-.68-.34A8.48,8.48,0,0,1,23,33.78a3.78,3.78,0,0,1-1.54-2.46,4.35,4.35,0,0,1-2-1.15,4.6,4.6,0,0,1-.92-4.81,1,1,0,0,1,1.87.72,2.43,2.43,0,0,0,2.1,3.42,1,1,0,0,1,.71.39,1,1,0,0,1,.19.78,1.32,1.32,0,0,0,0,.33,1.78,1.78,0,0,0,.76,1.18,7.07,7.07,0,0,0,1.13.62c.27.12.54.25.8.39a3.26,3.26,0,0,1,1.42,1.45,3.22,3.22,0,0,1,1.2-1.32,10.64,10.64,0,0,1,1.06-.55,6.73,6.73,0,0,0,1.07-.57,1.9,1.9,0,0,0,.78-1.13,1.07,1.07,0,0,0,0-.39,1,1,0,0,1,.9-1.18,2.5,2.5,0,0,0,1.68-.79,1,1,0,1,1,1.49,1.34,4.33,4.33,0,0,1-2.06,1.27v0A3.75,3.75,0,0,1,32,33.82a8.76,8.76,0,0,1-1.39.77,7.75,7.75,0,0,0-.86.44,1.45,1.45,0,0,0-.64,1A1.65,1.65,0,0,1,27.54,37.38Zm.33-1.78h0Z"/><path class="a" d="M55.38,52.86h-31a1,1,0,0,1-.92-.61,1,1,0,0,1,.22-1.09l31-31A1,1,0,0,1,55.76,20a1,1,0,0,1,.62.93v25a1,1,0,0,1-2,0V23.3L26.82,50.86H55.38a1,1,0,1,1,0,2Z"/><path class="a" d="M47.83,46H39.89a1,1,0,0,1,0-2h6.94V37a1,1,0,1,1,2,0V45A1,1,0,0,1,47.83,46Z"/><path class="a" d="M1,39.82a1,1,0,0,1-1-1V12A6.93,6.93,0,0,1,6.92,5H10.6a1,1,0,0,1,1,1V29.67a1,1,0,0,1-2,0V7H6.92A4.93,4.93,0,0,0,2,12V34A6.91,6.91,0,0,1,6.92,31.9a1,1,0,1,1,0,2A4.93,4.93,0,0,0,2,38.82,1,1,0,0,1,1,39.82Z"/><path class="a" d="M26.9,26.72H16.11a1,1,0,0,1,0-2H26.9a1,1,0,0,1,0,2Z"/><path class="a" d="M27.66,26.4a1,1,0,0,1-.95-1.32l2.12-6.42a1.1,1.1,0,0,1,.24-.4L46.31,1.17A4,4,0,0,1,49.13,0h0A4,4,0,0,1,52,6.82L34.72,23.92a1,1,0,0,1-.38.24L28,26.34A.87.87,0,0,1,27.66,26.4Zm3-6.88-1.41,4.27,4.23-1.45L50.54,5.4a2,2,0,0,0,0-2.81,2,2,0,0,0-2.82,0ZM34,23.21h0Z"/></svg>