<?xml version="1.0" encoding="utf-8"?>
<!-- Generator: Adobe Illustrator 25.2.1, SVG Export Plug-In . SVG Version: 6.00 Build 0)  -->
<svg version="1.1" id="Layer_1" xmlns="http://www.w3.org/2000/svg" xmlns:xlink="http://www.w3.org/1999/xlink" x="0px" y="0px"
	 viewBox="0 0 102 102" style="enable-background:new 0 0 102 102;" xml:space="preserve">
<style type="text/css">
	.st0{fill:#FEC827;}
	.st1{fill:#EFAF11;}
	.st2{fill:#FC9D2B;}
	.st3{fill:#414042;}
</style>
<g>
	<polygon class="st0" points="54.6,72.8 25.5,101.8 22.6,80.1 0,77.7 27.7,50.1 	"/>
	<polygon class="st0" points="80,22.8 101.8,25.6 72.7,54.7 50,27.9 77.7,0.3 	"/>
	<g>
		<path class="st1" d="M19.4,58.4L46.3,81l-4.3,4.3c-6.6-1.6-12.8-4.9-17.9-10.1c-3.8-3.8-6.7-8.3-8.5-13L19.4,58.4z"/>
	</g>
	<g>
		<path class="st1" d="M75.7,23.8c5.1,5.1,8.5,11.3,10.1,17.9l-4.3,4.2L58.8,19.1l3.9-3.8C67.4,17.1,71.8,20,75.7,23.8z"/>
	</g>
	<g>
		<path class="st2" d="M49.6,81c-8.4,0-16.3-3.3-22.2-9.2c-5.9-5.9-9.2-13.8-9.2-22.1s3.3-16.2,9.2-22.1c5.9-5.9,13.8-9.2,22.2-9.2
			c8.4,0,16.3,3.3,22.2,9.2c5.9,5.9,9.2,13.8,9.2,22.1S77.8,66,71.8,71.9C65.9,77.8,58,81,49.6,81z"/>
		<g>
			<path class="st3" d="M49.6,21c7.7,0,15,3,20.4,8.4c5.5,5.4,8.5,12.7,8.5,20.3s-3,14.9-8.5,20.3c-5.5,5.4-12.7,8.4-20.4,8.4
				c-7.7,0-15-3-20.4-8.4c-5.5-5.4-8.5-12.7-8.5-20.3s3-14.9,8.5-20.3C34.7,24,41.9,21,49.6,21 M49.6,16c-8.7,0-17.3,3.3-24,9.9
				c-13.2,13.2-13.2,34.6,0,47.8c6.6,6.6,15.3,9.9,24,9.9s17.3-3.3,24-9.9c13.2-13.2,13.2-34.6,0-47.8C67,19.3,58.3,16,49.6,16
				L49.6,16z"/>
		</g>
	</g>
	<g>
		<g>
			<path class="st0" d="M50.2,69.7c-9.3,0.3-17.1-6.8-17.4-15.9c-0.3-8.9,6.7-16.4,15.7-17c-0.2-0.2-0.3-0.5-0.5-0.7
				c-1.2-1.6-2.4-2.7-3-3.2c-0.3-0.3-0.4-0.7-0.1-1l0.7-1c0.3-0.4,0.8-0.5,1.1-0.2c1,0.8,2.8,2.5,4.5,5.2c1.5-2.4,2.3-4.4,2.6-5.5
				c0.1-0.4,0.6-0.6,1-0.5l1.1,0.3c0.5,0.1,0.7,0.6,0.6,1.1c-0.4,1.1-1.3,3.4-2.9,6c1.8,0.4,3.5,1.1,5.1,2.1
				c0.4,0.3,0.5,0.8,0.2,1.2L57.5,42c-0.2,0.3-0.7,0.3-1,0.2c-0.9-0.5-1.8-0.9-2.8-1.2c0.6,1.6,1.1,3.5,1.4,5.5
				c0.1,0.4-0.2,0.8-0.7,0.9l-1.2,0.1c-0.4,0-0.8-0.2-0.9-0.7c-0.3-2-0.8-3.8-1.5-5.6c-1.4,1.8-3.1,3.6-5.2,5.4
				c-0.3,0.3-0.9,0.3-1.2-0.1l-0.7-0.9c-0.3-0.3-0.2-0.8,0.1-1.1c1.5-1.3,2.9-2.7,4-4.1c-6.7,0.9-11.8,6.6-11.5,13.2
				c0.2,7.1,6.4,12.7,13.7,12.5c7.3-0.2,13.1-6.2,12.9-13.4c-0.1-2.5-0.9-4.7-2.2-6.6c-0.2-0.3-0.2-0.7,0.1-1l1.4-1.4
				c0.3-0.3,0.9-0.3,1.2,0.1c1.8,2.5,2.9,5.5,3,8.8C66.8,61.7,59.5,69.4,50.2,69.7z"/>
		</g>
	</g>
</g>
</svg>
