<svg xmlns="http://www.w3.org/2000/svg" viewBox="0 0 55.54 52.74"><defs><style>.a{fill:#575756;}</style></defs><path class="a" d="M54.53,9H46.12a1,1,0,0,1,0-2h8.41a1,1,0,1,1,0,2Z"/><path class="a" d="M54.53,23.56H46.12a1,1,0,0,1,0-2h8.41a1,1,0,1,1,0,2Z"/><path class="a" d="M54.53,16.27h-5a1,1,0,0,1,0-2h5a1,1,0,1,1,0,2Z"/><path class="a" d="M54.53,38.15H46.12a1,1,0,0,1,0-2h8.41a1,1,0,1,1,0,2Z"/><path class="a" d="M54.53,30.86h-5a1,1,0,0,1,0-2h5a1,1,0,1,1,0,2Z"/><path class="a" d="M54.53,52.74H46.12a1,1,0,0,1,0-2h8.41a1,1,0,1,1,0,2Z"/><path class="a" d="M54.53,45.44h-5a1,1,0,0,1,0-2h5a1,1,0,1,1,0,2Z"/><path class="a" d="M15,45.6a1,1,0,0,1-1-1c0-1.89,1.69-3,2.26-3.3l.94-.57c.76-.45,1.52-.89,2.24-1.41l.2-.15a5.52,5.52,0,0,0,1.7-1.57,2.58,2.58,0,0,0,.25-.77,1,1,0,0,1,.46-.68,1,1,0,0,1,.82-.1,4.47,4.47,0,0,0,4.17-.7,8.74,8.74,0,0,0,1.81-2.3c.23-.37.46-.74.7-1.09a5.51,5.51,0,0,1,3.75-2,1.11,1.11,0,0,0,0-.23,5.41,5.41,0,0,1-4-2.43l-.35-.56A9.13,9.13,0,0,0,27,24.27a4.44,4.44,0,0,0-4.14-.7,1,1,0,0,1-.82-.1,1,1,0,0,1-.47-.68,2.17,2.17,0,0,0-.21-.69,4.91,4.91,0,0,0-1.57-1.54,36.79,36.79,0,0,0-3.19-2l-.17-.11C15.73,18,13.92,17,14,15a1,1,0,0,1,1-1,1,1,0,0,1,1,1c0,.53.43,1,1.45,1.64l.18.11A37.45,37.45,0,0,1,21,19a6.63,6.63,0,0,1,2.17,2.23l.12.25a6.45,6.45,0,0,1,5,1.27,10.78,10.78,0,0,1,2.38,3l.33.54a3.49,3.49,0,0,0,2.67,1.56,2.13,2.13,0,0,1,0,4.14,3.47,3.47,0,0,0-2.45,1.22c-.23.33-.44.67-.65,1A10.18,10.18,0,0,1,28.23,37a6.44,6.44,0,0,1-5,1.27,3.54,3.54,0,0,1-.19.39,7.21,7.21,0,0,1-2.28,2.23l-.19.13c-.79.57-1.6,1.05-2.39,1.51l-.92.55c-1.18.73-1.3,1.23-1.29,1.55a1,1,0,0,1-1,1Z"/><path class="a" d="M8,52.74a8,8,0,0,1-8-8V8A8,8,0,0,1,13.38,2.11a8.18,8.18,0,0,1,.76.8A1,1,0,0,1,12.6,4.19,5.58,5.58,0,0,0,12,3.58,6,6,0,0,0,2,8V44.76a6,6,0,1,0,12,0V8a1,1,0,0,1,2,0V44.76A8,8,0,0,1,8,52.74Z"/><path class="a" d="M8,52.74a8,8,0,1,1,8-8A8,8,0,0,1,8,52.74Zm0-14a6,6,0,1,0,6,6A6,6,0,0,0,8,38.78Z"/><path class="a" d="M46.12,52.74H17.83a1,1,0,1,1,0-2H45.12V9H15.21a1,1,0,0,1,0-2H46.12a1,1,0,0,1,1,1V51.74A1,1,0,0,1,46.12,52.74Z"/><circle class="a" cx="7.98" cy="44.76" r="1.1"/></svg>