<svg xmlns="http://www.w3.org/2000/svg" viewBox="0 0 56.47 51.19"><defs><style>.a{fill:#575756;}</style></defs><path class="a" d="M28.24,41.42a1.57,1.57,0,0,1-1.58-1.27A1.44,1.44,0,0,0,26,39l-.29-.18A6.2,6.2,0,0,1,24,37.42a3.92,3.92,0,0,1-.82-2.73,4.34,4.34,0,0,1-1.23-1.23c-.44-.61-.81-1.23-1.19-1.86s-.54-.67-.55-.67h0A1.81,1.81,0,0,1,19,28a1.57,1.57,0,0,1,1.23-.52s.14,0,.43-.49l.3-.49c.27-.46.53-.91.84-1.34a4.73,4.73,0,0,1,1.38-1.44A4,4,0,0,1,24,21a5.8,5.8,0,0,1,1.65-1.34c.18-.11.36-.22.53-.34a1.53,1.53,0,0,0,.47-1A1.55,1.55,0,0,1,28.21,17h0a1.55,1.55,0,0,1,1.58,1.27,1.44,1.44,0,0,0,.65,1.14l.29.18A6.35,6.35,0,0,1,32.46,21a4,4,0,0,1,.82,2.74A4.21,4.21,0,0,1,34.51,25a20,20,0,0,1,1.18,1.85c.4.67.56.67.56.67h0a1.56,1.56,0,0,1,1.22.53,1.59,1.59,0,0,1,.38,1.19,1.59,1.59,0,0,1-.38,1.19,1.53,1.53,0,0,1-1.22.53s-.15,0-.44.49l-.3.49c-.26.45-.53.9-.84,1.34a4.73,4.73,0,0,1-1.38,1.44,4,4,0,0,1-.82,2.75,6,6,0,0,1-1.66,1.34l-.53.34a1.57,1.57,0,0,0-.47,1,1.57,1.57,0,0,1-1.57,1.27Zm-7-12.21a3.39,3.39,0,0,1,1.16,1.27c.41.67.74,1.24,1.14,1.79a2.5,2.5,0,0,0,.68.72,1,1,0,0,0,.25.07,1,1,0,0,1,.68.47,1,1,0,0,1,.1.82,1.94,1.94,0,0,0,.3,1.83,4.43,4.43,0,0,0,1.22.94l.31.19a3.3,3.3,0,0,1,1.14,1.24,2.72,2.72,0,0,1,.91-1.08l.62-.4a4.39,4.39,0,0,0,1.13-.88,2,2,0,0,0,.31-1.85,1,1,0,0,1,.1-.82,1,1,0,0,1,.68-.47.72.72,0,0,0,.27-.08,2.73,2.73,0,0,0,.72-.8c.35-.49.58-.89.82-1.29l.31-.52a3.36,3.36,0,0,1,1.11-1.16A3.42,3.42,0,0,1,34,27.94a20.78,20.78,0,0,0-1.14-1.79,2.68,2.68,0,0,0-.68-.73,1.28,1.28,0,0,0-.26-.07,1,1,0,0,1-.67-.47,1,1,0,0,1-.1-.81,1.94,1.94,0,0,0-.3-1.83,4.43,4.43,0,0,0-1.22-.94l-.31-.2a3.18,3.18,0,0,1-1.13-1.23A2.84,2.84,0,0,1,27.31,21c-.2.14-.41.27-.62.4a4.16,4.16,0,0,0-1.13.87,2,2,0,0,0-.31,1.86,1,1,0,0,1-.1.82,1,1,0,0,1-.68.46,1.06,1.06,0,0,0-.27.09,2.66,2.66,0,0,0-.71.79c-.35.49-.59.89-.83,1.3l-.31.51A3.17,3.17,0,0,1,21.25,29.21Z"/><path class="a" d="M28.24,51.19a29.44,29.44,0,0,1-5.76-.56l-12.09-2.4a1,1,0,0,1-.81-1l.07-23.12a1,1,0,0,1,1-1h0a1,1,0,0,1,1,1l-.06,22.3,11.28,2.23a27.34,27.34,0,0,0,10.74,0L45.7,46.27a1,1,0,0,1,1.17.78,1,1,0,0,1-.78,1.18L34,50.63A29.51,29.51,0,0,1,28.24,51.19Z"/><path class="a" d="M45.88,42.58a1,1,0,0,1-1-1l-.06-17.45a1,1,0,0,1,.31-.72l8.81-8.52a53.45,53.45,0,0,1-6.25-5.47c-.47-.49-.92-1-1.37-1.5a23.89,23.89,0,0,0-3.26-3.26A14.37,14.37,0,0,0,37.6,2.21a9.88,9.88,0,0,1-9.32,8.2,9.9,9.9,0,0,1-9.41-8.2,14.44,14.44,0,0,0-5.46,2.45,23.88,23.88,0,0,0-3.22,3.22c-.46.52-.93,1-1.4,1.54a54.36,54.36,0,0,1-6.26,5.47l4.34,4.2a1,1,0,0,1,0,1.41,1,1,0,0,1-1.42,0l-5.17-5A1,1,0,0,1,0,14.75,1,1,0,0,1,.39,14a57.43,57.43,0,0,0,7-6c.46-.48.9-1,1.35-1.49A25.63,25.63,0,0,1,12.2,3.07a17.1,17.1,0,0,1,7.36-3,1,1,0,0,1,.8.2,1,1,0,0,1,.38.73,7.89,7.89,0,0,0,7.54,7.46A7.86,7.86,0,0,0,35.73,1a1,1,0,0,1,.38-.73,1,1,0,0,1,.8-.2,17.14,17.14,0,0,1,7.37,3.05,25.57,25.57,0,0,1,3.5,3.48c.48.53.91,1,1.36,1.49a57.34,57.34,0,0,0,6.94,6,1,1,0,0,1,.09,1.52l-9.34,9,.05,17a1,1,0,0,1-1,1Z"/><path class="a" d="M10.65,32.79a1,1,0,0,1-1-1V17.29a1,1,0,0,1,2,0v14.5A1,1,0,0,1,10.65,32.79Z"/><path class="a" d="M45.8,32.79a1,1,0,0,1-1-1V17.29a1,1,0,0,1,2,0v14.5A1,1,0,0,1,45.8,32.79Z"/></svg>