<?xml version="1.0" encoding="utf-8"?>
<!-- Generator: Adobe Illustrator 25.2.1, SVG Export Plug-In . SVG Version: 6.00 Build 0)  -->
<svg version="1.1" id="Layer_1" xmlns="http://www.w3.org/2000/svg" xmlns:xlink="http://www.w3.org/1999/xlink" x="0px" y="0px"
	 viewBox="0 0 115 36" style="enable-background:new 0 0 115 36;" xml:space="preserve">
<style type="text/css">
	.st0{fill:#333333;}
	.st1{fill:#2E3192;stroke:#2E3192;stroke-width:0.5;stroke-miterlimit:10;}
</style>
<g>
	<path class="st0" d="M84.01,15.38v10.9h-7.44c-3.12,0-5.66-2.53-5.66-5.66V7.1h2.62v13.74c0,1.56,1.27,2.83,2.83,2.83h5.03v-8.28
		H84.01z"/>
	<rect x="81.39" y="28.94" class="st0" width="2.62" height="2.62"/>
	<rect x="65.68" y="10.14" class="st0" width="2.62" height="2.62"/>
	<rect x="36.86" y="10.14" class="st0" width="2.62" height="2.62"/>
	<rect x="25.03" y="10.14" class="st0" width="2.62" height="2.62"/>
	<path class="st0" d="M68.3,15.4v7.86c0,3.12-2.53,5.66-5.66,5.66h-2.2V26.3h2.41c1.56,0,2.83-1.27,2.83-2.83V15.4H68.3z"/>
	<path class="st0" d="M52.59,15.4v7.86c0,3.12-2.53,5.66-5.66,5.66h-2.2V26.3h2.41c1.56,0,2.83-1.27,2.83-2.83V15.4H52.59z"/>
	<path class="st0" d="M39.53,15.38v10.9h-4.91c-3.12,0-5.66-2.53-5.66-5.66v-2.61h2.62v2.82c0,1.56,1.27,2.83,2.83,2.83h2.51v-8.28
		H39.53z"/>
	<path class="st0" d="M18.51,7.03V22.4c0,5.06-4.1,9.16-9.16,9.16h0c-5.06,0-9.16-4.1-9.16-9.16v-0.47c0-5.06,4.1-9.16,9.16-9.16
		h1.28v2.62H9.35c-3.62,0-6.55,2.93-6.55,6.55v0.47c0,3.62,2.93,6.55,6.55,6.55h0c3.62,0,6.55-2.93,6.55-6.55V7.03H18.51z"/>
	<path class="st0" d="M31.6,15.39v5.23c0,3.12-2.53,5.66-5.66,5.66h-9.4v-2.62h9.53c1.56,0,2.83-1.27,2.83-2.83v-2.82H21.1v-2.62
		H31.6z"/>
	<rect x="55.21" y="7.1" class="st0" width="2.62" height="19.21"/>
</g>
<g>
	<g>
		<path class="st1" d="M112.14,14.56l-0.99,0.95c-0.19,0.18-0.22,0.47-0.08,0.69c0.89,1.31,1.42,2.87,1.48,4.55
			c0.17,4.88-3.78,8.98-8.79,9.15c-5.01,0.17-9.23-3.66-9.4-8.53c-0.17-4.88,3.78-8.98,8.79-9.15c1.82-0.06,3.53,0.4,4.99,1.25
			c0.22,0.13,0.5,0.08,0.67-0.11l0.92-1.03c0.22-0.25,0.17-0.64-0.12-0.82c-1.89-1.17-4.14-1.82-6.55-1.73
			C96.73,10,91.73,15.23,91.94,21.45c0.21,6.22,5.55,11.1,11.91,10.88s11.35-5.45,11.14-11.67c-0.08-2.24-0.82-4.31-2.03-6.02
			C112.77,14.37,112.38,14.33,112.14,14.56z"/>
	</g>
	<g>
		<path class="st1" d="M99.95,16.46l-0.5-0.6c-0.19-0.24-0.16-0.58,0.07-0.78c4.43-3.82,6.29-8.24,6.81-9.7
			c0.1-0.28,0.39-0.43,0.68-0.35l0.76,0.21c0.31,0.09,0.48,0.42,0.38,0.72c-0.57,1.63-2.54,6.4-7.4,10.57
			C100.51,16.73,100.15,16.7,99.95,16.46z"/>
	</g>
	<g>
		<path class="st1" d="M105.92,17.11c-0.29,0.03-0.55-0.17-0.59-0.45c-0.4-2.74-1.4-5.2-2.98-7.32c-0.83-1.11-1.63-1.85-2.08-2.23
			c-0.21-0.18-0.25-0.48-0.1-0.71l0.47-0.69c0.18-0.26,0.53-0.31,0.78-0.11c1.29,1.06,4.89,4.51,5.79,10.82
			c0.04,0.3-0.17,0.57-0.47,0.6L105.92,17.11z"/>
	</g>
</g>
</svg>
