<?xml version="1.0" encoding="utf-8"?>
<!-- Generator: Adobe Illustrator 25.2.1, SVG Export Plug-In . SVG Version: 6.00 Build 0)  -->
<svg version="1.1" id="Layer_1" xmlns="http://www.w3.org/2000/svg" xmlns:xlink="http://www.w3.org/1999/xlink" x="0px" y="0px"
	 viewBox="0 0 553 208" style="enable-background:new 0 0 553 208;" xml:space="preserve">
<style type="text/css">
	.st0{fill:url(#SVGID_1_);}
	.st1{fill:url(#SVGID_2_);}
	.st2{fill:#0C4E81;}
	.st3{fill:#49345A;}
</style>
<g>
	
		<radialGradient id="SVGID_1_" cx="486.396" cy="99.6969" r="32.1543" gradientTransform="matrix(1 0 0 -1 0 208.5354)" gradientUnits="userSpaceOnUse">
		<stop  offset="0.3787" style="stop-color:#DC4E9C"/>
		<stop  offset="0.5525" style="stop-color:#DB4A9A"/>
		<stop  offset="0.7703" style="stop-color:#D73894"/>
		<stop  offset="1" style="stop-color:#CD1B86"/>
	</radialGradient>
	<path class="st0" d="M450.3,133.2c0.1-0.1,0.1-0.3,0.3-0.4c0.3-0.3,0.4-0.7,0.7-1c8.4-9.7,21.5,4.5,26.5-1.3
		c2.3-2.6,0.1-6.6,0.9-7.8s3-2.3,3-3.5c-0.1-1.2-3.2-1.7-2.9-2.2c0.3-0.4,5.2-1.2,4.5-2.7c-1.2-2.6-2.7-2.9-2.4-4.2
		c0.6-2,4.2-1.4,5.9-3.3c2.2-2.4-0.7-2.2-3.9-6.9c-2.2-3.2-5-7.6-3.2-11.2c0.9-1.6-0.1-4.6-0.1-6.3c0-9.4-8.2-18.2-19.6-17
		c-9.4,1-28.5,35-23.1,48.8c5.5,13.8,12.1,19.5,12.1,19.5L450.3,133.2z"/>
	
		<radialGradient id="SVGID_2_" cx="473.2018" cy="102.9705" r="51.0147" gradientTransform="matrix(1 0 0 -1 0 208.5354)" gradientUnits="userSpaceOnUse">
		<stop  offset="0.3787" style="stop-color:#E458A0"/>
		<stop  offset="0.538" style="stop-color:#E3549E"/>
		<stop  offset="0.7377" style="stop-color:#E14799"/>
		<stop  offset="0.9582" style="stop-color:#E02A91"/>
		<stop  offset="1" style="stop-color:#DF228F"/>
	</radialGradient>
	<path class="st1" d="M490.2,154.1c-5.6,2.3-11.8,3.6-18.3,3.6c-26.7,0-48.3-21.6-48.3-48.3s21.6-48.3,48.3-48.3
		c3,0,5.9,0.3,8.8,0.9c2.9,1.6,4.2,8.9,1.6,13.7c-1,1.9-5.2,4.6-7.2,6.5c-10.1,8.8-20.9,11.4-18.9,21.9c1.9,10.5,14.7,43.4,38,47.4
		C497.5,152,489,153.1,490.2,154.1z"/>
	<g>
		<g>
			<path class="st2" d="M476.5,168.3c-33.4,1.2-61.7-24.6-62.8-57.3c-1-32.1,24.2-59.2,56.6-61.4c-0.6-0.9-1.2-1.7-1.7-2.4
				c-4.3-5.9-8.5-9.8-10.9-11.7c-1.2-0.9-1.3-2.6-0.6-3.7l2.4-3.6c0.9-1.3,2.9-1.6,4-0.6c3.5,2.9,10.1,8.9,16.3,18.6
				c5.5-8.9,8.4-16.3,9.8-19.9c0.6-1.4,2-2.3,3.6-1.9l4,1.2c1.6,0.4,2.6,2.2,2,3.7c-1.4,4.2-4.6,12.1-10.4,21.8
				c6.5,1.6,12.7,4,18.2,7.5c1.4,0.9,1.7,3,0.6,4.3l-4.9,5.3c-0.9,1.2-2.3,1.3-3.6,0.7c-3-1.9-6.5-3.3-9.9-4.5
				c2.2,5.9,3.9,12.5,4.9,19.9c0.3,1.6-0.9,3-2.4,3.2l-4.3,0.6c-1.4,0.1-2.9-0.9-3.2-2.4c-1-7.1-2.9-13.8-5.5-20.3
				c-5,6.5-11.2,13.1-18.7,19.6c-1.3,1-3.2,0.9-4.2-0.4l-2.6-3.2c-1-1.3-0.9-3,0.3-4.2c5.6-4.8,10.4-9.8,14.4-14.7
				c-24.1,3.2-42.4,23.8-41.6,47.8c0.9,25.6,23.1,45.8,49.6,45c26.4-0.9,47.3-22.5,46.4-48.3c-0.3-8.8-3.2-17-7.8-23.9
				c-0.7-1.2-0.6-2.7,0.4-3.6l5.2-5c1.3-1.2,3.3-1,4.3,0.4c6.3,9.1,10.4,19.9,10.7,31.7C536.3,139.5,510.1,167.2,476.5,168.3z"/>
		</g>
	</g>
	<g>
		<path class="st3" d="M391.7,84.8v48.6h-33.2c-13.9,0-25.2-11.3-25.2-25.2V47.8H345v61.2c0,7,5.6,12.6,12.6,12.6H380V84.8H391.7z"
			/>
		<rect x="380" y="145.3" class="st3" width="11.7" height="11.7"/>
		<rect x="310" y="61.4" class="st3" width="11.7" height="11.7"/>
		<rect x="181.5" y="61.4" class="st3" width="11.7" height="11.7"/>
		<rect x="128.7" y="61.4" class="st3" width="11.7" height="11.7"/>
		<path class="st3" d="M321.7,84.9v35c0,13.9-11.3,25.2-25.2,25.2h-9.8v-11.7h10.7c7,0,12.6-5.6,12.6-12.6v-36H321.7z"/>
		<path class="st3" d="M251.6,84.9v35c0,13.9-11.3,25.2-25.2,25.2h-9.8v-11.7h10.7c7,0,12.6-5.6,12.6-12.6v-36H251.6z"/>
		<path class="st3" d="M193.4,84.8v48.6h-21.9c-13.9,0-25.2-11.3-25.2-25.2V96.5h11.7v12.6c0,7,5.6,12.6,12.6,12.6h11.2V84.8H193.4z
			"/>
		<path class="st3" d="M99.7,47.5v68.5c0,22.6-18.3,40.9-40.9,40.9h0c-22.6,0-40.9-18.3-40.9-40.9V114c0-22.6,18.3-40.9,40.9-40.9
			h5.7v11.7h-5.7c-16.1,0-29.2,13.1-29.2,29.2v2.1c0,16.1,13.1,29.2,29.2,29.2h0c16.1,0,29.2-13.1,29.2-29.2V47.5H99.7z"/>
		<path class="st3" d="M158,84.8v23.3c0,13.9-11.3,25.2-25.2,25.2H90.9v-11.7h42.5c7,0,12.6-5.6,12.6-12.6V96.5h-34.7V84.8H158z"/>
		<rect x="263.3" y="47.8" class="st3" width="11.7" height="85.6"/>
	</g>
</g>
</svg>
