<?xml version="1.0" encoding="utf-8"?>
<!-- Generator: Adobe Illustrator 25.2.1, SVG Export Plug-In . SVG Version: 6.00 Build 0)  -->
<svg version="1.1" id="Layer_1" xmlns="http://www.w3.org/2000/svg" xmlns:xlink="http://www.w3.org/1999/xlink" x="0px" y="0px"
	 viewBox="0 0 205 50" style="enable-background:new 0 0 205 50;" xml:space="preserve">
<style type="text/css">
	.st0{fill:#0E4D80;}
</style>
<g>
	<g>
		<path class="st0" d="M150.7,19v19.9h-13.6c-5.7,0-10.3-4.6-10.3-10.3V3.8h4.8V29c0,2.9,2.3,5.2,5.2,5.2h9.2V19H150.7z"/>
		<rect x="145.9" y="43.8" class="st0" width="4.8" height="4.8"/>
		<rect x="117.1" y="9.4" class="st0" width="4.8" height="4.8"/>
		<rect x="68.7" y="9.4" class="st0" width="4.8" height="4.8"/>
		<rect x="47.1" y="9.4" class="st0" width="4.8" height="4.8"/>
		<path class="st0" d="M121.9,19v14.4c0,5.7-4.6,10.3-10.3,10.3h-4V39h4.4c2.9,0,5.2-2.3,5.2-5.2V19H121.9z"/>
		<path class="st0" d="M93.2,19v14.4c0,5.7-4.6,10.3-10.3,10.3h-4V39h4.4c2.9,0,5.2-2.3,5.2-5.2V19H93.2z"/>
		<path class="st0" d="M73.6,19v19.9h-9c-5.7,0-10.3-4.6-10.3-10.3v-4.8H59V29c0,2.9,2.3,5.2,5.2,5.2h4.6V19H73.6z"/>
		<path class="st0" d="M35.1,3.7v28.1c0,9.3-7.5,16.8-16.8,16.8h0c-9.3,0-16.8-7.5-16.8-16.8V31c0-9.3,7.5-16.8,16.8-16.8h2.3V19
			h-2.3c-6.6,0-12,5.4-12,12v0.9c0,6.6,5.4,12,12,12h0c6.6,0,12-5.4,12-12V3.7H35.1z"/>
		<path class="st0" d="M59.1,19v9.6c0,5.7-4.6,10.3-10.3,10.3H31.5v-4.8H49c2.9,0,5.2-2.3,5.2-5.2v-5.2H39.9V19H59.1z"/>
		<rect x="98" y="3.8" class="st0" width="4.8" height="35.1"/>
	</g>
	<g>
		<g>
			<path class="st0" d="M198.2,17.5l-1.8,1.7c-0.3,0.3-0.4,0.9-0.1,1.3c1.6,2.4,2.6,5.2,2.7,8.3c0.3,8.9-6.9,16.4-16.1,16.7
				c-9.2,0.3-16.9-6.7-17.2-15.6c-0.3-8.9,6.9-16.4,16.1-16.7c3.3-0.1,6.5,0.7,9.1,2.3c0.4,0.2,0.9,0.2,1.2-0.2l1.7-1.9
				c0.4-0.5,0.3-1.2-0.2-1.5c-3.5-2.1-7.6-3.3-12-3.2c-11.6,0.4-20.8,10-20.4,21.3c0.4,11.4,10.2,20.3,21.8,19.9
				c11.6-0.4,20.8-10,20.4-21.3c-0.1-4.1-1.5-7.9-3.7-11C199.3,17.1,198.6,17.1,198.2,17.5z"/>
		</g>
		<g>
			<path class="st0" d="M175.9,21l-0.9-1.1c-0.4-0.4-0.3-1.1,0.1-1.4c8.1-7,11.5-15.1,12.5-17.7c0.2-0.5,0.7-0.8,1.2-0.6l1.4,0.4
				c0.6,0.2,0.9,0.8,0.7,1.3c-1,3-4.7,11.7-13.5,19.3C176.9,21.5,176.2,21.4,175.9,21z"/>
		</g>
		<g>
			<path class="st0" d="M186.8,22.1c-0.5,0.1-1-0.3-1.1-0.8c-0.7-5-2.6-9.5-5.5-13.4c-1.5-2-3-3.4-3.8-4.1c-0.4-0.3-0.5-0.9-0.2-1.3
				l0.9-1.3c0.3-0.5,1-0.6,1.4-0.2c2.4,1.9,8.9,8.3,10.6,19.8c0.1,0.5-0.3,1-0.9,1.1L186.8,22.1z"/>
		</g>
	</g>
</g>
</svg>
