<?xml version="1.0" encoding="utf-8"?>
<!-- Generator: Adobe Illustrator 25.2.1, SVG Export Plug-In . SVG Version: 6.00 Build 0)  -->
<svg version="1.1" id="Layer_1" xmlns="http://www.w3.org/2000/svg" xmlns:xlink="http://www.w3.org/1999/xlink" x="0px" y="0px"
	 viewBox="0 0 115 36" style="enable-background:new 0 0 115 36;" xml:space="preserve">
<style type="text/css">
	.st0{fill:#333333;}
	.st1{display:none;}
	.st2{display:inline;}
	.st3{fill:#2E3192;stroke:#2E3192;stroke-width:0.5;stroke-miterlimit:10;}
</style>
<g>
	<path class="st0" d="M115,13.78v14.93h-10.19c-4.28,0-7.75-3.47-7.75-7.75V2.44h3.59v18.81c0,2.14,1.73,3.87,3.87,3.87h6.89V13.78
		H115z"/>
	<rect x="111.41" y="32.36" class="st0" width="3.59" height="3.59"/>
	<rect x="89.89" y="6.61" class="st0" width="3.59" height="3.59"/>
	<rect x="50.42" y="6.61" class="st0" width="3.59" height="3.59"/>
	<rect x="34.22" y="6.61" class="st0" width="3.59" height="3.59"/>
	<path class="st0" d="M93.48,13.82v10.77c0,4.28-3.47,7.75-7.75,7.75h-3.01v-3.58h3.3c2.14,0,3.87-1.73,3.87-3.87V13.82H93.48z"/>
	<path class="st0" d="M71.96,13.82v10.77c0,4.28-3.47,7.75-7.75,7.75H61.2v-3.58h3.3c2.14,0,3.87-1.73,3.87-3.87V13.82H71.96z"/>
	<path class="st0" d="M54.08,13.78v14.93h-6.73c-4.28,0-7.75-3.47-7.75-7.75v-3.58h3.59v3.86c0,2.14,1.73,3.87,3.87,3.87h3.43V13.78
		H54.08z"/>
	<path class="st0" d="M25.29,2.35V23.4c0,6.93-5.62,12.55-12.55,12.55h0c-6.93,0-12.55-5.62-12.55-12.55v-0.65
		c0-6.93,5.62-12.55,12.55-12.55h1.75v3.59h-1.75c-4.95,0-8.97,4.01-8.97,8.97v0.65c0,4.95,4.01,8.97,8.97,8.97h0
		c4.95,0,8.97-4.01,8.97-8.97V2.35H25.29z"/>
	<path class="st0" d="M43.21,13.8v7.16c0,4.28-3.47,7.75-7.75,7.75H22.59v-3.58h13.05c2.14,0,3.87-1.73,3.87-3.87v-3.87H28.84V13.8
		H43.21z"/>
	<rect x="75.55" y="2.44" class="st0" width="3.59" height="26.31"/>
</g>
<g class="st1">
	<g class="st2">
		<path class="st3" d="M112.14,14.56l-0.99,0.95c-0.19,0.18-0.22,0.47-0.08,0.69c0.89,1.31,1.42,2.87,1.48,4.55
			c0.17,4.88-3.78,8.98-8.79,9.15c-5.01,0.17-9.23-3.66-9.4-8.53c-0.17-4.88,3.78-8.98,8.79-9.15c1.82-0.06,3.53,0.4,4.99,1.25
			c0.22,0.13,0.5,0.08,0.67-0.11l0.92-1.03c0.22-0.25,0.17-0.64-0.12-0.82c-1.89-1.17-4.14-1.82-6.55-1.73
			C96.73,10,91.73,15.23,91.94,21.45c0.21,6.22,5.55,11.1,11.91,10.88s11.35-5.45,11.14-11.67c-0.08-2.24-0.82-4.31-2.03-6.02
			C112.77,14.37,112.38,14.33,112.14,14.56z"/>
	</g>
	<g class="st2">
		<path class="st3" d="M99.95,16.46l-0.5-0.6c-0.19-0.24-0.16-0.58,0.07-0.78c4.43-3.82,6.29-8.24,6.81-9.7
			c0.1-0.28,0.39-0.43,0.68-0.35l0.76,0.21c0.31,0.09,0.48,0.42,0.38,0.72c-0.57,1.63-2.54,6.4-7.4,10.57
			C100.51,16.73,100.15,16.7,99.95,16.46z"/>
	</g>
	<g class="st2">
		<path class="st3" d="M105.92,17.11c-0.29,0.03-0.55-0.17-0.59-0.45c-0.4-2.74-1.4-5.2-2.98-7.32c-0.83-1.11-1.63-1.85-2.08-2.23
			c-0.21-0.18-0.25-0.48-0.1-0.71l0.47-0.69c0.18-0.26,0.53-0.31,0.78-0.11c1.29,1.06,4.89,4.51,5.79,10.82
			c0.04,0.3-0.17,0.57-0.47,0.6L105.92,17.11z"/>
	</g>
</g>
</svg>
