<?xml version="1.0" encoding="utf-8"?>
<!-- Generator: Adobe Illustrator 25.2.1, SVG Export Plug-In . SVG Version: 6.00 Build 0)  -->
<svg version="1.1" id="Layer_1" xmlns="http://www.w3.org/2000/svg" xmlns:xlink="http://www.w3.org/1999/xlink" x="0px" y="0px"
	 viewBox="0 0 500 500" style="enable-background:new 0 0 500 500;" xml:space="preserve">
<style type="text/css">
	.st0{fill:#BE1E2D;}
</style>
<g>
	<path class="st0" d="M249.4,500c-66.6,0-129.3-25.9-176.4-73.1S0,317.2,0,250.6c0-66.6,25.9-129.3,73.1-176.4
		C120.2,27.1,182.8,1.1,249.4,1.1s129.3,25.9,176.4,73.1c47.1,47.1,73.1,109.8,73.1,176.4c0,66.6-25.9,129.3-73.1,176.4
		C378.7,474.1,316.1,500,249.4,500z M249.4,40.6c-115.8,0-210,94.2-210,210c0,115.8,94.2,209.9,210,209.9s210-94.2,210-209.9
		C459.4,134.8,365.2,40.6,249.4,40.6z"/>
</g>
<g>
	<path d="M82.4,273.5L80.5,259h33.5c0.6,0,1.1-0.1,1.4-0.4c0.3-0.3,0.5-0.7,0.5-1.1c0-0.6-0.3-1.2-0.8-1.7l-22.7-24.2l10.2-10.4
		l22.7,23.8c2,2,3.4,4.3,4.2,6.7c0.9,2.4,1.3,4.8,1.3,7c0,2-0.4,3.8-1.1,5.6c-0.7,1.8-1.8,3.4-3.2,4.7c-1.4,1.4-3.2,2.4-5.2,3.2
		c-2.1,0.8-4.5,1.2-7.1,1.2H82.4z"/>
	<path d="M182.9,273.5c-0.3,3.4-1.2,6.6-2.8,9.5c-1.6,2.9-3.6,5.4-6,7.6c-2.4,2.1-5.2,3.8-8.3,5c-3.1,1.2-6.2,1.8-9.5,1.8h-10.8
		l-1.9-14.3h11c3.1,0,5.9-0.8,8.5-2.3c2.6-1.5,4.2-3.9,4.8-7.2c-3.7-0.1-7-0.5-10-1.2c-3-0.7-5.5-1.8-7.7-3.5
		c-2.1-1.6-3.8-3.8-4.9-6.4c-1.2-2.6-1.7-6-1.7-10c0-7.5,1.6-13.2,4.7-17.2c3.1-4,8-6,14.7-6c2.9,0,5.6,0.5,8,1.5
		c2.4,1,4.5,2.5,6.3,4.5c1.7,2,3.1,4.6,4.1,7.7c1,3.1,1.5,6.8,1.5,11.2v4.7h5.2v14.6H182.9z M168.1,258.9v-8.1
		c0-2.5-0.6-4.2-1.8-5.3c-1.2-1.1-2.4-1.6-3.7-1.6c-2,0-3.3,0.6-4.1,1.9c-0.8,1.3-1.2,2.8-1.2,4.6c0,2.7,0.7,4.8,2.2,6.3
		c1.5,1.5,3.8,2.2,7,2.2H168.1z"/>
	<path d="M185.1,259.8c0-0.3,0.3-0.6,1-0.7c0.7-0.1,1.4-0.2,2-0.2h8.4c3.2,0,6.1-0.2,8.6-0.5c2.5-0.3,4.7-0.9,6.7-1.8
		c0.5-0.2,2.2-1,4.9-2.5c2.8-1.5,6.7-3.6,11.7-6.3c-0.3-1.2-1.1-2.2-2.2-3.1c-1.2-0.9-3.3-1.3-6.5-1.3h-21.9l-2-14.5h26.6
		c7.3,0,12.8,2.2,16.4,6.7c3.6,4.4,5.4,10.7,5.4,18.7l-21.5,11.9c-4.3,2.5-8.2,4.3-11.8,5.5c-3.6,1.2-7.6,1.8-11.9,1.8h-10.9
		c-0.7,0-1.4-0.1-2-0.3c-0.7-0.2-1-0.4-1-0.8V259.8z M207,292.7c0-2.1,0.7-3.9,2.2-5.4c1.5-1.5,3.3-2.2,5.4-2.2c2.1,0,4,0.7,5.5,2.2
		c1.5,1.5,2.3,3.3,2.3,5.4c0,2.1-0.8,4-2.3,5.5c-1.5,1.5-3.4,2.3-5.5,2.3c-2.1,0-3.9-0.8-5.4-2.3C207.7,296.6,207,294.8,207,292.7z"
		/>
	<path d="M296.2,273.5c-0.3,3.4-1.2,6.6-2.8,9.5c-1.6,2.9-3.6,5.4-6,7.6c-2.4,2.1-5.2,3.8-8.3,5c-3.1,1.2-6.2,1.8-9.5,1.8H259
		l-1.9-14.3h11c3.1,0,5.9-0.8,8.5-2.3c2.6-1.5,4.2-3.9,4.8-7.2c-3.7-0.1-7-0.5-10-1.2c-3-0.7-5.5-1.8-7.7-3.5
		c-2.1-1.6-3.8-3.8-4.9-6.4c-1.2-2.6-1.7-6-1.7-10c0-7.5,1.6-13.2,4.7-17.2c3.1-4,8-6,14.7-6c2.9,0,5.6,0.5,8,1.5
		c2.4,1,4.5,2.5,6.3,4.5c1.7,2,3.1,4.6,4.1,7.7c1,3.1,1.5,6.8,1.5,11.2v4.7h5.2v14.6H296.2z M281.4,258.9v-8.1
		c0-2.5-0.6-4.2-1.8-5.3c-1.2-1.1-2.4-1.6-3.7-1.6c-2,0-3.3,0.6-4.1,1.9c-0.8,1.3-1.2,2.8-1.2,4.6c0,2.7,0.7,4.8,2.2,6.3
		c1.4,1.5,3.8,2.2,7,2.2H281.4z"/>
	<path d="M298.4,259.8c0-0.3,0.3-0.6,1-0.7c0.7-0.1,1.4-0.2,2-0.2h1.3c2.4,0,4.2-0.6,5.3-1.7c1.2-1.1,1.7-3,1.7-5.6
		c0-2.8,0.4-5.6,1.3-8.3c0.9-2.7,2.2-5.2,3.8-7.4c1.7-2.2,3.7-3.9,6-5.2c2.3-1.3,4.9-2,7.7-2c3.1,0,5.8,0.7,8.3,2.1
		c2.5,1.4,4.6,3.2,6.3,5.5c1.7,2.3,3,4.8,4,7.6c0.9,2.8,1.4,5.5,1.4,8.3c0,3-0.5,5.8-1.5,8.4c-1,2.6-2.3,4.9-4.1,6.8
		c-1.8,1.9-3.9,3.4-6.3,4.5c-2.5,1.1-5.2,1.7-8.1,1.7c-6.1,0-10.5-1.9-13.3-5.8c-2.5,3.8-6.4,5.8-11.9,5.8h-2c-0.7,0-1.4-0.1-2-0.3
		c-0.7-0.2-1-0.4-1-0.8V259.8z M329,243.1c-2,0-3.6,0.6-4.9,1.9c-1.3,1.3-2,3.3-2,6.1c0,2.5,0.7,4.4,2,5.7c1.4,1.3,3,2,4.9,2
		c2.3,0,4.1-0.7,5.4-2.2c1.3-1.5,1.9-3.3,1.9-5.5c0-2-0.6-3.8-1.9-5.5C333.2,244,331.4,243.1,329,243.1z"/>
	<path d="M375.6,273.5c-4.9,0-8.4-1.5-10.7-4.5c-2.3-3-3.4-7.2-3.4-12.6v-48.6h14.6v45.8c0,2.4,0.3,3.9,1,4.5
		c0.7,0.6,2.1,0.9,4.4,0.9h2.2v14.6H375.6z"/>
	<path d="M380.6,259.8c0-0.3,0.3-0.6,1-0.7c0.7-0.1,1.4-0.2,2-0.2H398c3,0,4.5-1.5,4.5-4.6v-15.7h14.6v17c0,2.3-0.4,4.5-1.2,6.7
		c-0.8,2.1-1.9,4-3.3,5.7s-3.1,3-5,4c-1.9,1-4,1.5-6.3,1.5h-17.5c-0.7,0-1.4-0.1-2-0.3c-0.7-0.2-1-0.4-1-0.8V259.8z M392.6,221.2
		c0-2.1,0.7-4,2.2-5.5c1.5-1.5,3.3-2.3,5.4-2.3c2.1,0,4,0.8,5.5,2.3c1.5,1.5,2.3,3.4,2.3,5.5c0,2.1-0.8,3.9-2.3,5.4
		c-1.5,1.5-3.4,2.2-5.5,2.2c-2.1,0-3.9-0.7-5.4-2.2C393.4,225.2,392.6,223.4,392.6,221.2z"/>
</g>
</svg>
