<svg xmlns="http://www.w3.org/2000/svg" viewBox="0 0 49.2 52.74"><defs><style>.a{fill:#575756;}</style></defs><path class="a" d="M34.6,52.74H31.52c-4.19,0-11.24.1-14.52-5.07C13.29,41.82,18.34,37,23.78,33a11.13,11.13,0,0,0,4.52-7.83,1,1,0,1,1,2,.25A13.24,13.24,0,0,1,25,34.57c-6.82,5-8.58,8.39-6.27,12,2.68,4.23,9,4.17,12.81,4.14h1.92c3.79,0,10.13.09,12.82-4.14,2.3-3.63.54-7-6.28-12-7.15-5.25-5.26-13.82-5.18-14.18a1,1,0,0,1,1.95.45c-.07.31-1.66,7.65,4.42,12.12,5.43,4,10.48,8.86,6.78,14.7C44.94,52.37,38.84,52.74,34.6,52.74Z"/><path class="a" d="M36.38,21.62H28.54A3.66,3.66,0,0,1,24.89,18v-.19a3.65,3.65,0,0,1,3.65-3.64h7.84A3.65,3.65,0,0,1,40,17.78V18a1,1,0,0,1-2,0v-.19a1.65,1.65,0,0,0-1.65-1.64H28.54a1.65,1.65,0,0,0-1.65,1.64V18a1.65,1.65,0,0,0,1.65,1.65h7.84a1,1,0,0,1,0,2Z"/><path class="a" d="M9.8,49a.92.92,0,0,1-.36-.07,1,1,0,0,1-.57-1.29c1-2.72-.75-5.59-3-9.23A44,44,0,0,1,1.1,29.06c-3-8.9.57-14.95,4.41-19.7C8.34,5.87,5,1.82,4.81,1.65A1,1,0,0,1,4.66.58,1,1,0,0,1,5.56,0H25.72a1,1,0,0,1,.91.58,1,1,0,0,1-.15,1.07c-.14.17-3.53,4.22-.7,7.72.3.37.61.76.91,1.15a1,1,0,1,1-1.59,1.22c-.29-.39-.59-.76-.88-1.11-2.4-3-1.61-6.37-.38-8.63H7.45c1.23,2.26,2,5.65-.38,8.62C3.57,14.94.35,20.44,3,28.43a41.65,41.65,0,0,0,4.55,8.9c2.46,4,4.59,7.36,3.19,11A1,1,0,0,1,9.8,49Z"/><path class="a" d="M7.4,28.46a1,1,0,0,1-.92-.61,12.09,12.09,0,0,1,.33-10.79,1,1,0,0,1,1.36-.42A1,1,0,0,1,8.58,18a10,10,0,0,0-.25,9.07,1,1,0,0,1-.54,1.31A.91.91,0,0,1,7.4,28.46Z"/><path class="a" d="M13.45,49H7a1,1,0,1,1,0-2h6.48a1,1,0,0,1,0,2Z"/></svg>