<?xml version="1.0" encoding="utf-8"?>
<!-- Generator: Adobe Illustrator 25.2.1, SVG Export Plug-In . SVG Version: 6.00 Build 0)  -->
<svg version="1.1" id="Layer_1" xmlns="http://www.w3.org/2000/svg" xmlns:xlink="http://www.w3.org/1999/xlink" x="0px" y="0px"
	 viewBox="0 0 102 102" style="enable-background:new 0 0 102 102;" xml:space="preserve">
<style type="text/css">
	.st0{display:none;}
	.st1{display:inline;fill:#FEC827;}
	.st2{display:inline;}
	.st3{fill:#EFAF11;}
	.st4{fill:#FC9D2B;}
	.st5{fill:#414042;}
	.st6{fill:#FEC827;}
	.st7{fill:#C3D1D3;}
	.st8{fill:#ACBBBD;}
	.st9{fill:#9CB3B6;}
	.st10{fill:#EB6D3A;}
	.st11{fill:#DA441C;}
	.st12{fill:#FFA272;}
</style>
<g class="st0">
	<polygon class="st1" points="54.7,72.7 25.5,101.8 22.7,80 0.1,77.7 27.8,50.1 	"/>
	<polygon class="st1" points="80.1,22.8 101.9,25.6 72.8,54.7 50.1,27.9 77.8,0.2 	"/>
	<g class="st2">
		<path class="st3" d="M19.5,58.4L46.3,81L42,85.4c-6.6-1.6-12.8-4.9-17.9-10.1c-3.8-3.8-6.7-8.3-8.5-13L19.5,58.4z"/>
	</g>
	<g class="st2">
		<path class="st3" d="M75.7,23.8c5.1,5.1,8.5,11.3,10.1,17.9l-4.3,4.2L58.8,19.1l3.9-3.8C67.5,17.1,71.9,20,75.7,23.8z"/>
	</g>
	<g class="st2">
		<path class="st4" d="M49.7,81c-8.4,0-16.3-3.3-22.2-9.2c-5.9-5.9-9.2-13.8-9.2-22.1c0-8.4,3.3-16.2,9.2-22.1
			c5.9-5.9,13.8-9.2,22.2-9.2c8.4,0,16.3,3.3,22.2,9.2c5.9,5.9,9.2,13.8,9.2,22.1s-3.3,16.2-9.2,22.1C66,77.8,58.1,81,49.7,81z"/>
		<g>
			<path class="st5" d="M49.7,21c7.7,0,15,3,20.4,8.4c5.5,5.4,8.5,12.7,8.5,20.3s-3,14.9-8.5,20.3c-5.5,5.4-12.7,8.4-20.4,8.4
				c-7.7,0-15-3-20.4-8.4c-5.5-5.4-8.5-12.7-8.5-20.3s3-14.9,8.5-20.3C34.8,24,42,21,49.7,21 M49.7,16c-8.7,0-17.3,3.3-24,9.9
				c-13.2,13.2-13.2,34.6,0,47.8c6.6,6.6,15.3,9.9,24,9.9s17.3-3.3,24-9.9c13.2-13.2,13.2-34.6,0-47.8C67.1,19.3,58.4,16,49.7,16
				L49.7,16z"/>
		</g>
	</g>
	<g class="st2">
		<g>
			<path class="st6" d="M50.3,69.7C41,70,33.2,62.9,32.9,53.8c-0.3-8.9,6.7-16.4,15.7-17c-0.2-0.2-0.3-0.5-0.5-0.7
				c-1.2-1.6-2.4-2.7-3-3.2c-0.3-0.3-0.4-0.7-0.1-1l0.7-1c0.3-0.4,0.8-0.5,1.1-0.2c1,0.8,2.8,2.5,4.5,5.2c1.5-2.4,2.3-4.4,2.6-5.5
				c0.1-0.4,0.6-0.6,1-0.5l1.1,0.3c0.5,0.1,0.7,0.6,0.6,1.1c-0.4,1.1-1.3,3.4-2.9,6c1.8,0.4,3.5,1.1,5.1,2.1
				c0.4,0.3,0.5,0.8,0.2,1.2L57.6,42c-0.2,0.3-0.7,0.3-1,0.2c-0.9-0.5-1.8-0.9-2.8-1.2c0.6,1.6,1.1,3.5,1.4,5.5
				c0.1,0.4-0.2,0.8-0.7,0.9l-1.2,0.1c-0.4,0-0.8-0.2-0.9-0.7c-0.3-2-0.8-3.8-1.5-5.6c-1.4,1.8-3.1,3.6-5.2,5.4
				c-0.3,0.3-0.9,0.3-1.2-0.1l-0.7-0.9c-0.3-0.3-0.2-0.8,0.1-1.1c1.5-1.3,2.9-2.7,4-4.1c-6.7,0.9-11.8,6.6-11.5,13.2
				c0.2,7.1,6.4,12.7,13.7,12.5c7.3-0.2,13.1-6.2,12.9-13.4c-0.1-2.5-0.9-4.7-2.2-6.6c-0.2-0.3-0.2-0.7,0.1-1l1.4-1.4
				c0.3-0.3,0.9-0.3,1.2,0.1c1.8,2.5,2.9,5.5,3,8.8C66.9,61.7,59.6,69.4,50.3,69.7z"/>
		</g>
	</g>
</g>
<g>
	<polygon class="st7" points="54.7,72.8 25.5,102 22.7,80.2 0,77.8 27.8,50.1 	"/>
	<polygon class="st7" points="80.2,22.7 102,25.5 72.8,54.7 50.1,27.8 77.8,0 	"/>
	<g>
		<path class="st8" d="M19.4,58.4l26.9,22.8L42,85.5c-6.6-1.6-12.8-5-17.9-10.1c-3.8-3.8-6.7-8.3-8.6-13.1L19.4,58.4z"/>
	</g>
	<g>
		<path class="st8" d="M75.8,23.7c5.1,5.1,8.5,11.4,10.1,17.9l-4.3,4.3L58.9,19l3.9-3.9C67.5,17,71.9,19.8,75.8,23.7z"/>
	</g>
	<g>
		<path class="st9" d="M49.7,81.2c-8.4,0-16.3-3.3-22.2-9.2c-12.3-12.3-12.3-32.2,0-44.5c5.9-5.9,13.8-9.2,22.2-9.2S66,21.6,72,27.5
			C84.2,39.8,84.2,59.7,72,72C66,77.9,58.1,81.2,49.7,81.2z"/>
		<g>
			<path class="st5" d="M49.7,20.8c7.7,0,15,3,20.5,8.5c5.5,5.5,8.5,12.7,8.5,20.5s-3,15-8.5,20.5c-5.5,5.5-12.7,8.5-20.5,8.5
				c-7.7,0-15-3-20.5-8.5c-5.5-5.5-8.5-12.7-8.5-20.5s3-15,8.5-20.5C34.7,23.8,42,20.8,49.7,20.8 M49.7,15.8c-8.7,0-17.4,3.3-24,9.9
				c-13.3,13.3-13.3,34.7,0,48c6.6,6.6,15.3,9.9,24,9.9s17.4-3.3,24-9.9C87,60.5,87,39,73.7,25.7C67.1,19.1,58.4,15.8,49.7,15.8
				L49.7,15.8z"/>
		</g>
	</g>
	<g>
		<g>
			<g>
				<path class="st7" d="M50.3,69.8c-9.3,0.3-17.1-6.8-17.5-15.9c-0.3-8.9,6.7-16.5,15.7-17.1c-0.2-0.2-0.3-0.5-0.5-0.7
					c-1.2-1.6-2.4-2.7-3-3.3c-0.3-0.3-0.4-0.7-0.1-1l0.7-1c0.3-0.4,0.8-0.5,1.1-0.2c1,0.8,2.8,2.5,4.5,5.2c1.5-2.4,2.3-4.5,2.7-5.5
					c0.1-0.4,0.6-0.6,1-0.5L56,30c0.5,0.1,0.7,0.6,0.6,1.1c-0.4,1.1-1.3,3.4-2.9,6.1c1.8,0.4,3.5,1.1,5.1,2.1
					c0.4,0.3,0.5,0.8,0.2,1.2l-1.3,1.5c-0.2,0.3-0.7,0.3-1,0.2c-0.9-0.5-1.8-0.9-2.8-1.2c0.6,1.6,1.1,3.5,1.4,5.5
					c0.1,0.4-0.2,0.8-0.7,0.9l-1.2,0.1c-0.4,0-0.8-0.2-0.9-0.7c-0.3-2-0.8-3.9-1.5-5.6c-1.4,1.8-3.1,3.7-5.2,5.5
					c-0.3,0.3-0.9,0.3-1.2-0.1l-0.7-0.9c-0.3-0.3-0.2-0.9,0.1-1.1c1.5-1.3,2.9-2.7,4-4.1c-6.7,0.9-11.8,6.6-11.6,13.3
					c0.2,7.1,6.4,12.8,13.8,12.5c7.3-0.2,13.1-6.3,12.9-13.4c-0.1-2.5-0.9-4.7-2.2-6.7c-0.2-0.3-0.2-0.7,0.1-1l1.4-1.4
					c0.3-0.3,0.9-0.3,1.2,0.1c1.8,2.5,2.9,5.5,3,8.8C66.9,61.8,59.6,69.4,50.3,69.8z"/>
			</g>
		</g>
	</g>
</g>
<g class="st0">
	<g class="st2">
		<g>
			<polygon class="st10" points="54.7,72.8 25.6,101.9 22.7,80.1 0.1,77.8 27.8,50.1 			"/>
		</g>
		<g>
			<polygon class="st10" points="80.1,22.7 101.9,25.6 72.8,54.7 50.1,27.8 77.8,0.1 			"/>
		</g>
		<g>
			<path class="st11" d="M19.5,58.4l26.9,22.7L42,85.4c-6.6-1.6-12.8-5-17.9-10.1c-3.8-3.8-6.7-8.3-8.5-13L19.5,58.4z"/>
		</g>
		<g>
			<path class="st11" d="M75.7,23.7c5.1,5.1,8.5,11.3,10.1,17.9l-4.3,4.3L58.8,19l3.9-3.9C67.4,17,71.9,19.9,75.7,23.7z"/>
		</g>
		<g>
			<path class="st10" d="M49.7,81.1c-8.4,0-16.3-3.3-22.2-9.2c-5.9-5.9-9.2-13.8-9.2-22.2c0-8.4,3.3-16.3,9.2-22.2
				c5.9-5.9,13.8-9.2,22.2-9.2c8.4,0,16.3,3.3,22.2,9.2c12.2,12.2,12.2,32.1,0,44.4C66,77.8,58.1,81.1,49.7,81.1z"/>
			<g>
				<path class="st5" d="M49.7,20.9c7.7,0,15,3,20.4,8.5c11.3,11.3,11.3,29.6,0,40.8c-5.5,5.5-12.7,8.5-20.4,8.5
					c-7.7,0-15-3-20.4-8.5c-5.5-5.5-8.5-12.7-8.5-20.4s3-15,8.5-20.4C34.8,23.9,42,20.9,49.7,20.9 M49.7,15.9
					c-8.7,0-17.3,3.3-23.9,9.9c-13.2,13.2-13.2,34.7,0,47.9c6.6,6.6,15.3,9.9,23.9,9.9s17.3-3.3,23.9-9.9
					c13.2-13.2,13.2-34.7,0-47.9C67.1,19.2,58.4,15.9,49.7,15.9L49.7,15.9z"/>
			</g>
		</g>
		<g>
			<g>
				<g>
					<path class="st12" d="M50.3,69.7C41,70,33.2,62.9,32.9,53.8c-0.3-8.9,6.7-16.4,15.7-17c-0.2-0.2-0.3-0.5-0.5-0.7
						c-1.2-1.6-2.4-2.7-3-3.3c-0.3-0.3-0.4-0.7-0.1-1l0.7-1c0.3-0.4,0.8-0.5,1.1-0.2c1,0.8,2.8,2.5,4.5,5.2c1.5-2.4,2.3-4.5,2.6-5.5
						c0.1-0.4,0.6-0.6,1-0.5l1.1,0.3c0.5,0.1,0.7,0.6,0.6,1.1c-0.4,1.1-1.3,3.4-2.9,6c1.8,0.4,3.5,1.1,5.1,2.1
						c0.4,0.3,0.5,0.8,0.2,1.2L57.6,42c-0.2,0.3-0.7,0.3-1,0.2c-0.9-0.5-1.8-0.9-2.8-1.2c0.6,1.6,1.1,3.5,1.4,5.5
						c0.1,0.4-0.2,0.8-0.7,0.9l-1.2,0.1c-0.4,0-0.8-0.2-0.9-0.7c-0.3-2-0.8-3.9-1.5-5.6c-1.4,1.8-3.1,3.7-5.2,5.4
						c-0.3,0.3-0.9,0.3-1.2-0.1l-0.7-0.9c-0.3-0.3-0.2-0.9,0.1-1.1c1.5-1.3,2.9-2.7,4-4.1c-6.7,0.9-11.8,6.6-11.5,13.3
						c0.2,7.1,6.4,12.7,13.7,12.5c7.3-0.2,13.1-6.3,12.9-13.4c-0.1-2.5-0.9-4.7-2.2-6.7c-0.2-0.3-0.2-0.7,0.1-1l1.4-1.4
						c0.3-0.3,0.9-0.3,1.2,0.1c1.8,2.5,2.9,5.5,3,8.8C66.9,61.7,59.6,69.4,50.3,69.7z"/>
				</g>
			</g>
		</g>
	</g>
</g>
</svg>
