<?xml version="1.0" encoding="utf-8"?>
<!-- Generator: Adobe Illustrator 25.2.1, SVG Export Plug-In . SVG Version: 6.00 Build 0)  -->
<svg version="1.1" id="Layer_1" xmlns="http://www.w3.org/2000/svg" xmlns:xlink="http://www.w3.org/1999/xlink" x="0px" y="0px"
	 viewBox="0 0 400 40" style="enable-background:new 0 0 400 40;" xml:space="preserve">
<style type="text/css">
	.st0{fill:#BCBEC0;}
</style>
<path class="st0" d="M8.4,28.1L8.4,28.1c-1.1,0-2.1-0.9-2.1-2.1V15.7c0-1.1,0.9-2.1,2.1-2.1h0c1.1,0,2.1,0.9,2.1,2.1v10.4
	C10.5,27.2,9.6,28.1,8.4,28.1z"/>
<path class="st0" d="M15.7,30.5L15.7,30.5c-1.1,0-2.1-0.9-2.1-2.1v-15c0-1.1,0.9-2.1,2.1-2.1h0c1.1,0,2.1,0.9,2.1,2.1v15
	C17.7,29.6,16.8,30.5,15.7,30.5z"/>
<path class="st0" d="M66.4,30.5L66.4,30.5c-1.1,0-2.1-0.9-2.1-2.1v-15c0-1.1,0.9-2.1,2.1-2.1l0,0c1.1,0,2.1,0.9,2.1,2.1v15
	C68.5,29.6,67.5,30.5,66.4,30.5z"/>
<path class="st0" d="M22.9,37.8L22.9,37.8c-1.1,0-2.1-0.9-2.1-2.1V6.3c0-1.1,0.9-2.1,2.1-2.1h0c1.1,0,2.1,0.9,2.1,2.1v29.5
	C25,36.9,24.1,37.8,22.9,37.8z"/>
<path class="st0" d="M30.2,36.5L30.2,36.5c-1.1,0-2.1-0.9-2.1-2.1V7.7c0-1.1,0.9-2.1,2.1-2.1h0c1.1,0,2.1,0.9,2.1,2.1v26.7
	C32.2,35.6,31.3,36.5,30.2,36.5z"/>
<path class="st0" d="M37.7,37.3h-0.5c-1.1,0-2.1-0.9-2.1-2.1V4.9c0-1.1,0.9-2.1,2.1-2.1h0.5c1.1,0,2.1,0.9,2.1,2.1v30.4
	C39.7,36.4,38.8,37.3,37.7,37.3z"/>
<path class="st0" d="M44.9,35.6h-0.5c-1.1,0-2.1-0.9-2.1-2.1V6.7c0-1.1,0.9-2.1,2.1-2.1h0.5C46,4.7,47,5.6,47,6.7v26.7
	C47,34.6,46,35.6,44.9,35.6z"/>
<path class="st0" d="M52.1,32.6h-0.5c-1.1,0-2.1-0.9-2.1-2.1V9.8c0-1.1,0.9-2.1,2.1-2.1h0.5c1.1,0,2.1,0.9,2.1,2.1v20.7
	C54.2,31.7,53.3,32.6,52.1,32.6z"/>
<path class="st0" d="M59.4,32.6h-0.5c-1.1,0-2.1-0.9-2.1-2.1V9.9c0-1.1,0.9-2.1,2.1-2.1h0.5c1.1,0,2.1,0.9,2.1,2.1v20.7
	C61.5,31.7,60.5,32.6,59.4,32.6z"/>
<path class="st0" d="M131.6,28.4L131.6,28.4c1.1,0,2.1-0.9,2.1-2.1V15.9c0-1.1-0.9-2.1-2.1-2.1l0,0c-1.1,0-2.1,0.9-2.1,2.1v10.4
	C129.5,27.5,130.4,28.4,131.6,28.4z"/>
<path class="st0" d="M124.3,30.8L124.3,30.8c1.1,0,2.1-0.9,2.1-2.1v-15c0-1.1-0.9-2.1-2.1-2.1l0,0c-1.1,0-2.1,0.9-2.1,2.1v15
	C122.3,29.8,123.2,30.8,124.3,30.8z"/>
<path class="st0" d="M73.6,30.8L73.6,30.8c1.1,0,2.1-0.9,2.1-2.1v-15c0-1.1-0.9-2.1-2.1-2.1h0c-1.1,0-2.1,0.9-2.1,2.1v15
	C71.6,29.9,72.5,30.8,73.6,30.8z"/>
<path class="st0" d="M117.1,38.1L117.1,38.1c1.1,0,2.1-0.9,2.1-2.1V6.5c0-1.1-0.9-2.1-2.1-2.1h0c-1.1,0-2.1,0.9-2.1,2.1V36
	C115,37.1,116,38.1,117.1,38.1z"/>
<path class="st0" d="M109.9,36.8L109.9,36.8c1.1,0,2.1-0.9,2.1-2.1V8c0-1.1-0.9-2.1-2.1-2.1l0,0c-1.1,0-2.1,0.9-2.1,2.1v26.7
	C107.8,35.8,108.7,36.8,109.9,36.8z"/>
<path class="st0" d="M102.4,37.5h0.5c1.1,0,2.1-0.9,2.1-2.1V5.1c0-1.1-0.9-2.1-2.1-2.1h-0.5c-1.1,0-2.1,0.9-2.1,2.1v30.4
	C100.3,36.6,101.2,37.5,102.4,37.5z"/>
<path class="st0" d="M95.1,35.8h0.5c1.1,0,2.1-0.9,2.1-2.1V7c0-1.1-0.9-2.1-2.1-2.1h-0.5C94,4.9,93,5.8,93,7v26.7
	C93,34.8,94,35.8,95.1,35.8z"/>
<path class="st0" d="M87.9,32.8h0.5c1.1,0,2.1-0.9,2.1-2.1V10c0-1.1-0.9-2.1-2.1-2.1h-0.5c-1.1,0-2.1,0.9-2.1,2.1v20.7
	C85.8,31.9,86.7,32.8,87.9,32.8z"/>
<path class="st0" d="M80.6,32.9h0.5c1.1,0,2.1-0.9,2.1-2.1V10.1c0-1.1-0.9-2.1-2.1-2.1h-0.5c-1.1,0-2.1,0.9-2.1,2.1v20.7
	C78.6,31.9,79.5,32.9,80.6,32.9z"/>
<path class="st0" d="M138.8,28.6L138.8,28.6c-1.1,0-2.1-0.9-2.1-2.1V16.2c0-1.1,0.9-2.1,2.1-2.1l0,0c1.1,0,2.1,0.9,2.1,2.1v10.4
	C140.9,27.7,140,28.6,138.8,28.6z"/>
<path class="st0" d="M146.1,31L146.1,31c-1.1,0-2.1-0.9-2.1-2.1v-15c0-1.1,0.9-2.1,2.1-2.1h0c1.1,0,2.1,0.9,2.1,2.1v15
	C148.1,30.1,147.2,31,146.1,31z"/>
<path class="st0" d="M196.8,31.1L196.8,31.1c-1.1,0-2.1-0.9-2.1-2.1V14c0-1.1,0.9-2.1,2.1-2.1l0,0c1.1,0,2.1,0.9,2.1,2.1v15
	C198.9,30.1,197.9,31.1,196.8,31.1z"/>
<path class="st0" d="M153.3,38.3L153.3,38.3c-1.1,0-2.1-0.9-2.1-2.1V6.8c0-1.1,0.9-2.1,2.1-2.1l0,0c1.1,0,2.1,0.9,2.1,2.1v29.5
	C155.4,37.4,154.5,38.3,153.3,38.3z"/>
<path class="st0" d="M160.6,37L160.6,37c-1.1,0-2.1-0.9-2.1-2.1V8.2c0-1.1,0.9-2.1,2.1-2.1l0,0c1.1,0,2.1,0.9,2.1,2.1V35
	C162.6,36.1,161.7,37,160.6,37z"/>
<path class="st0" d="M168.1,37.3h-0.5c-1.1,0-2.1-0.9-2.1-2.1V4.8c0-1.1,0.9-2.1,2.1-2.1h0.5c1.1,0,2.1,0.9,2.1,2.1v30.4
	C170.1,36.4,169.2,37.3,168.1,37.3z"/>
<path class="st0" d="M175.3,35.9h-0.5c-1.1,0-2.1-0.9-2.1-2.1V7.1c0-1.1,0.9-2.1,2.1-2.1h0.5c1.1,0,2.1,0.9,2.1,2.1v26.7
	C177.4,35,176.4,35.9,175.3,35.9z"/>
<path class="st0" d="M182.5,33H182c-1.1,0-2.1-0.9-2.1-2.1V10.2c0-1.1,0.9-2.1,2.1-2.1h0.5c1.1,0,2.1,0.9,2.1,2.1v20.7
	C184.6,32,183.7,33,182.5,33z"/>
<path class="st0" d="M189.8,33h-0.5c-1.1,0-2.1-0.9-2.1-2.1V10.2c0-1.1,0.9-2.1,2.1-2.1h0.5c1.1,0,2.1,0.9,2.1,2.1v20.7
	C191.9,32.1,190.9,33,189.8,33z"/>
<path class="st0" d="M262,28.9L262,28.9c1.1,0,2.1-0.9,2.1-2.1V16.4c0-1.1-0.9-2.1-2.1-2.1l0,0c-1.1,0-2.1,0.9-2.1,2.1v10.4
	C259.9,28,260.8,28.9,262,28.9z"/>
<path class="st0" d="M254.7,31.3L254.7,31.3c1.1,0,2.1-0.9,2.1-2.1v-15c0-1.1-0.9-2.1-2.1-2.1l0,0c-1.1,0-2.1,0.9-2.1,2.1v15
	C252.7,30.4,253.6,31.3,254.7,31.3z"/>
<path class="st0" d="M204,31.3L204,31.3c1.1,0,2.1-0.9,2.1-2.1v-15c0-1.1-0.9-2.1-2.1-2.1h0c-1.1,0-2.1,0.9-2.1,2.1v15
	C202,30.4,202.9,31.3,204,31.3z"/>
<path class="st0" d="M247.5,38.6L247.5,38.6c1.1,0,2.1-0.9,2.1-2.1V7.1c0-1.1-0.9-2.1-2.1-2.1l0,0c-1.1,0-2.1,0.9-2.1,2.1v29.5
	C245.4,37.7,246.4,38.6,247.5,38.6z"/>
<path class="st0" d="M240.3,37.3L240.3,37.3c1.1,0,2.1-0.9,2.1-2.1V8.5c0-1.1-0.9-2.1-2.1-2.1l0,0c-1.1,0-2.1,0.9-2.1,2.1v26.7
	C238.2,36.4,239.1,37.3,240.3,37.3z"/>
<path class="st0" d="M232.8,37.9h0.5c1.1,0,2.1-0.9,2.1-2.1V5.4c0-1.1-0.9-2.1-2.1-2.1h-0.5c-1.1,0-2.1,0.9-2.1,2.1v30.4
	C230.7,37,231.6,37.9,232.8,37.9z"/>
<path class="st0" d="M225.5,36.1h0.5c1.1,0,2.1-0.9,2.1-2.1V7.3c0-1.1-0.9-2.1-2.1-2.1h-0.5c-1.1,0-2.1,0.9-2.1,2.1v26.7
	C223.4,35.2,224.4,36.1,225.5,36.1z"/>
<path class="st0" d="M218.3,33.2h0.5c1.1,0,2.1-0.9,2.1-2.1V10.4c0-1.1-0.9-2.1-2.1-2.1h-0.5c-1.1,0-2.1,0.9-2.1,2.1v20.7
	C216.2,32.2,217.1,33.2,218.3,33.2z"/>
<path class="st0" d="M211,33.2h0.5c1.1,0,2.1-0.9,2.1-2.1V10.4c0-1.1-0.9-2.1-2.1-2.1H211c-1.1,0-2.1,0.9-2.1,2.1v20.7
	C209,32.3,209.9,33.2,211,33.2z"/>
<path class="st0" d="M269.2,28.6L269.2,28.6c-1.1,0-2.1-0.9-2.1-2.1V16.2c0-1.1,0.9-2.1,2.1-2.1l0,0c1.1,0,2.1,0.9,2.1,2.1v10.4
	C271.3,27.7,270.4,28.6,269.2,28.6z"/>
<path class="st0" d="M276.5,31L276.5,31c-1.1,0-2.1-0.9-2.1-2.1v-15c0-1.1,0.9-2.1,2.1-2.1l0,0c1.1,0,2.1,0.9,2.1,2.1v15
	C278.5,30.1,277.6,31,276.5,31z"/>
<path class="st0" d="M327.2,31.1L327.2,31.1c-1.1,0-2.1-0.9-2.1-2.1V14c0-1.1,0.9-2.1,2.1-2.1l0,0c1.1,0,2.1,0.9,2.1,2.1v15
	C329.3,30.1,328.3,31.1,327.2,31.1z"/>
<path class="st0" d="M283.7,38.3L283.7,38.3c-1.1,0-2.1-0.9-2.1-2.1V6.8c0-1.1,0.9-2.1,2.1-2.1l0,0c1.1,0,2.1,0.9,2.1,2.1v29.5
	C285.8,37.4,284.9,38.3,283.7,38.3z"/>
<path class="st0" d="M291,37L291,37c-1.1,0-2.1-0.9-2.1-2.1V8.2c0-1.1,0.9-2.1,2.1-2.1l0,0c1.1,0,2.1,0.9,2.1,2.1V35
	C293,36.1,292.1,37,291,37z"/>
<path class="st0" d="M298.5,37.3H298c-1.1,0-2.1-0.9-2.1-2.1V4.8c0-1.1,0.9-2.1,2.1-2.1h0.5c1.1,0,2.1,0.9,2.1,2.1v30.4
	C300.5,36.4,299.6,37.3,298.5,37.3z"/>
<path class="st0" d="M305.7,35.9h-0.5c-1.1,0-2.1-0.9-2.1-2.1V7.1c0-1.1,0.9-2.1,2.1-2.1h0.5c1.1,0,2.1,0.9,2.1,2.1v26.7
	C307.8,35,306.8,35.9,305.7,35.9z"/>
<path class="st0" d="M312.9,33h-0.5c-1.1,0-2.1-0.9-2.1-2.1V10.2c0-1.1,0.9-2.1,2.1-2.1h0.5c1.1,0,2.1,0.9,2.1,2.1v20.7
	C315,32,314.1,33,312.9,33z"/>
<path class="st0" d="M320.2,33h-0.5c-1.1,0-2.1-0.9-2.1-2.1V10.2c0-1.1,0.9-2.1,2.1-2.1h0.5c1.1,0,2.1,0.9,2.1,2.1v20.7
	C322.3,32.1,321.3,33,320.2,33z"/>
<path class="st0" d="M392.4,28.9L392.4,28.9c1.1,0,2.1-0.9,2.1-2.1V16.4c0-1.1-0.9-2.1-2.1-2.1l0,0c-1.1,0-2.1,0.9-2.1,2.1v10.4
	C390.3,28,391.2,28.9,392.4,28.9z"/>
<path class="st0" d="M385.1,31.3L385.1,31.3c1.1,0,2.1-0.9,2.1-2.1v-15c0-1.1-0.9-2.1-2.1-2.1l0,0c-1.1,0-2.1,0.9-2.1,2.1v15
	C383.1,30.4,384,31.3,385.1,31.3z"/>
<path class="st0" d="M334.4,31.3L334.4,31.3c1.1,0,2.1-0.9,2.1-2.1v-15c0-1.1-0.9-2.1-2.1-2.1l0,0c-1.1,0-2.1,0.9-2.1,2.1v15
	C332.4,30.4,333.3,31.3,334.4,31.3z"/>
<path class="st0" d="M377.9,38.6L377.9,38.6c1.1,0,2.1-0.9,2.1-2.1V7.1c0-1.1-0.9-2.1-2.1-2.1l0,0c-1.1,0-2.1,0.9-2.1,2.1v29.5
	C375.8,37.7,376.8,38.6,377.9,38.6z"/>
<path class="st0" d="M370.6,37.3L370.6,37.3c1.1,0,2.1-0.9,2.1-2.1V8.5c0-1.1-0.9-2.1-2.1-2.1l0,0c-1.1,0-2.1,0.9-2.1,2.1v26.7
	C368.6,36.4,369.5,37.3,370.6,37.3z"/>
<path class="st0" d="M363.2,37.9h0.5c1.1,0,2.1-0.9,2.1-2.1V5.4c0-1.1-0.9-2.1-2.1-2.1h-0.5c-1.1,0-2.1,0.9-2.1,2.1v30.4
	C361.1,37,362,37.9,363.2,37.9z"/>
<path class="st0" d="M355.9,36.1h0.5c1.1,0,2.1-0.9,2.1-2.1V7.3c0-1.1-0.9-2.1-2.1-2.1h-0.5c-1.1,0-2.1,0.9-2.1,2.1v26.7
	C353.8,35.2,354.8,36.1,355.9,36.1z"/>
<path class="st0" d="M348.7,33.2h0.5c1.1,0,2.1-0.9,2.1-2.1V10.4c0-1.1-0.9-2.1-2.1-2.1h-0.5c-1.1,0-2.1,0.9-2.1,2.1v20.7
	C346.6,32.2,347.5,33.2,348.7,33.2z"/>
<path class="st0" d="M341.4,33.2h0.5c1.1,0,2.1-0.9,2.1-2.1V10.4c0-1.1-0.9-2.1-2.1-2.1h-0.5c-1.1,0-2.1,0.9-2.1,2.1v20.7
	C339.4,32.3,340.3,33.2,341.4,33.2z"/>
</svg>
