<svg width="15" height="15" viewBox="0 0 15 15" fill="none" xmlns="http://www.w3.org/2000/svg">
<path d="M12.3334 0C10.8607 0 9.66671 1.194 9.66671 2.66667C9.66671 4.57133 12.3334 7.33333 12.3334 7.33333C12.3334 7.33333 15 4.57133 15 2.66667C15 1.194 13.806 0 12.3334 0ZM7.00004 1.33333C3.32404 1.33333 0.333374 4.324 0.333374 8C0.333374 11.676 3.32404 14.6667 7.00004 14.6667C10.676 14.6667 13.6667 11.676 13.6667 8C13.6667 7.95333 13.6609 7.90798 13.6602 7.86198C13.5022 8.03931 13.3717 8.17845 13.293 8.25912L12.1003 9.53646C11.9656 9.97713 11.7797 10.3946 11.543 10.7799C11.3323 10.3213 10.8707 10 10.3334 10H9.66671V8.66667C9.66671 8.298 9.36804 8 9.00004 8H5.00004V6.66667H5.66671C6.03471 6.66667 6.33337 6.36867 6.33337 6V4.68229L7.67712 4.67188C8.06579 4.66921 8.41169 4.49526 8.65369 4.22526C8.54302 3.92926 8.45838 3.63 8.40238 3.33333L5.6615 3.35417C5.2955 3.35683 5.00004 3.65483 5.00004 4.02083V5.33333H4.33337C3.96537 5.33333 3.66671 5.63133 3.66671 6V6.79036L2.32035 5.44531C3.22702 3.79131 4.98471 2.66667 7.00004 2.66667H8.33337C8.33337 2.26467 8.39392 1.87772 8.50525 1.51172C8.02058 1.39905 7.51804 1.33333 7.00004 1.33333ZM12.3334 1.71354C12.8594 1.71354 13.2865 2.14067 13.2865 2.66667C13.2865 3.19267 12.8594 3.61979 12.3334 3.61979C11.8074 3.61979 11.3802 3.19267 11.3802 2.66667C11.3802 2.14067 11.8074 1.71354 12.3334 1.71354ZM1.80473 6.8138L5.00004 10.0091V10.6667C5.00004 11.402 5.59804 12 6.33337 12V13.2878C3.70671 12.9578 1.66671 10.7147 1.66671 8C1.66671 7.592 1.71739 7.19647 1.80473 6.8138ZM6.18624 9.33333H8.33337V10.6667C8.33337 11.0353 8.63204 11.3333 9.00004 11.3333H10.3334V12.1562C9.58337 12.7589 8.66804 13.1611 7.66671 13.2865V11.3333C7.66671 10.9647 7.36804 10.6667 7.00004 10.6667H6.33337V9.73307C6.33337 9.58507 6.27491 9.44933 6.18624 9.33333Z" fill="#224E82"/>
</svg>
