<svg width="77" height="77" viewBox="0 0 77 77" fill="none" xmlns="http://www.w3.org/2000/svg">
<path d="M36.0938 2.40625C31.6698 2.40625 27.2893 3.2776 23.2021 4.97056C19.1149 6.66351 15.4013 9.14492 12.2731 12.2731C9.14492 15.4013 6.66351 19.1149 4.97056 23.2021C3.2776 27.2893 2.40625 31.6698 2.40625 36.0938C2.40625 40.5177 3.2776 44.8982 4.97056 48.9854C6.66351 53.0726 9.14492 56.7862 12.2731 59.9144C15.4013 63.0426 19.1149 65.524 23.2021 67.2169C27.2893 68.9099 31.6698 69.7812 36.0938 69.7812C40.5177 69.7812 44.8982 68.9099 48.9854 67.2169C53.0726 65.524 56.7862 63.0426 59.9144 59.9144C63.0426 56.7862 65.524 53.0726 67.2169 48.9854C68.9099 44.8982 69.7812 40.5177 69.7812 36.0938C69.7812 31.6698 68.9099 27.2893 67.2169 23.2021C65.524 19.1149 63.0426 15.4013 59.9144 12.2731C56.7862 9.14492 53.0726 6.66351 48.9854 4.97056C44.8982 3.2776 40.5177 2.40625 36.0938 2.40625Z" fill="#FF0000"/>
<path d="M36.0938 4.8125C53.3418 4.8125 67.375 18.8457 67.375 36.0938C67.375 53.3418 53.3418 67.375 36.0938 67.375C18.8457 67.375 4.8125 53.3418 4.8125 36.0938C4.8125 18.8457 18.8457 4.8125 36.0938 4.8125ZM36.0938 0C16.1604 0 0 16.1604 0 36.0938C0 56.0271 16.1604 72.1875 36.0938 72.1875C56.0271 72.1875 72.1875 56.0271 72.1875 36.0938C72.1875 16.1604 56.0271 0 36.0938 0Z" fill="#224E82"/>
<path d="M48.0044 20.7808L51.4073 24.1838L24.1832 51.4069L20.7803 48.0039L48.0044 20.7808Z" fill="white"/>
<path d="M51.4072 48.0039L48.0043 51.4069L20.7802 24.1838L24.1831 20.7808L51.4072 48.0039Z" fill="white"/>
</svg>
