<svg width="40" height="38" viewBox="0 0 40 38" fill="none" xmlns="http://www.w3.org/2000/svg">
<path d="M31.1877 28.2374C26.924 28.2374 22.7393 28.3099 18.5601 28.2095C16.1286 28.15 14.0188 27.0293 12.6258 25.0406C9.36365 20.3886 6.25407 15.6269 3.0673 10.8838C5.27636 9.34865 7.51298 8.17403 10.2715 8.90817C11.9586 9.35608 13.2892 10.2965 14.2467 11.7741C15.6527 13.9431 17.0586 16.1139 18.4682 18.2791C19.1629 19.3478 19.7785 19.4872 20.8426 18.8274C21.8479 18.2048 22.8495 17.571 23.8566 16.9521C27.2492 14.8631 29.1937 11.8094 29.7928 7.85621C29.9196 7.02171 30.0648 6.19093 30.2284 5.18172C25.858 7.91197 21.6329 10.5512 17.3618 13.2201C16.9263 12.5138 16.498 11.8187 16.022 11.0437C21.8847 7.37856 27.7197 3.73203 33.6889 0C33.4464 1.41438 33.2332 2.68007 33.009 3.94576C32.6616 5.91028 32.3768 7.88781 31.9394 9.83188C31.059 13.7349 28.8904 16.7514 25.553 18.9017C24.3639 19.6675 23.162 20.4165 21.9508 21.1506C19.9642 22.3531 17.7735 21.8587 16.4962 19.9128C15.0498 17.7085 13.6347 15.482 12.1884 13.2777C10.9203 11.3466 8.75718 10.7073 6.75948 11.6923C6.85137 11.8652 6.92855 12.0473 7.03698 12.2071C9.38938 15.7329 11.7491 19.2567 14.1015 22.7825C15.4229 24.7618 17.2497 25.7655 19.6205 25.7543C21.598 25.745 23.5773 25.7543 25.5548 25.7506C25.8249 25.7506 26.0951 25.7264 26.5049 25.706C25.689 24.4329 24.9428 23.2694 24.1562 22.0446C24.8436 21.5781 25.5162 21.1227 26.2532 20.6228C27.8907 23.1523 29.5171 25.6614 31.1877 28.2374ZM2.56559 32.7091H1.47025V34.5305C1.47025 34.9692 1.38204 35.2833 1.2056 35.4691C1.03101 35.6568 0.740636 35.7498 0.330804 35.7498H0V36.8575H0.330804C1.08063 36.8575 1.65219 36.6326 2.04181 36.1847C2.39099 35.7832 2.56559 35.2312 2.56559 34.5287V32.7091ZM2.03078 31.9973L2.7365 31.2873L2.02894 30.5718L1.33425 31.2817L2.03078 31.9973ZM4.87755 33.9358H4.57615C4.43832 33.9358 4.34459 33.9116 4.29497 33.8614C4.24351 33.8094 4.21778 33.7146 4.21778 33.5771V30.1703H3.12428V33.5771C3.12428 33.828 3.16839 34.051 3.25477 34.2499C3.31909 34.4004 3.4073 34.5324 3.51941 34.6458C3.63152 34.7591 3.76017 34.8465 3.91087 34.9134C4.10751 35.0008 4.32805 35.0454 4.57615 35.0454H4.87755V33.9358ZM7.42108 32.7091H6.32759V33.6291C6.32759 33.7332 6.29818 33.8075 6.24121 33.8559C6.17689 33.9098 6.06478 33.9376 5.90305 33.9376H4.70296V35.0454H5.82586C6.13462 35.0454 6.40294 34.9952 6.62715 34.893C6.7411 34.8428 6.8238 34.7945 6.87342 34.7443C6.92488 34.7945 7.00207 34.8428 7.10315 34.893C7.19136 34.9376 7.28877 34.9729 7.38984 34.997C7.51849 35.0286 7.65633 35.0435 7.80151 35.0435H8.28853V33.9358H7.80151C7.65449 33.9358 7.55157 33.9098 7.4946 33.8577C7.44314 33.8131 7.41741 33.7369 7.41741 33.6273V32.7091H7.42108ZM6.47278 31.2371L5.80381 30.5606L5.15874 31.2371L5.813 31.9062L6.47278 31.2371ZM7.87502 31.2334L7.20606 30.5569L6.55732 31.2334L7.21158 31.9025L7.87502 31.2334ZM10.4755 33.9358C10.3616 33.9358 10.2789 33.9116 10.2256 33.8652C10.1502 33.802 10.1116 33.6905 10.1116 33.5306V32.7091H9.0163V33.5306C9.0163 33.67 8.99058 33.7704 8.93912 33.828C8.87847 33.9005 8.76821 33.9358 8.60832 33.9358H8.12681V35.0435H8.60648C9.06593 35.0435 9.3857 34.9413 9.56581 34.7368C9.83045 34.9413 10.1392 35.0435 10.4921 35.0435C10.8247 35.0435 11.1224 34.9413 11.3871 34.7368C11.5672 34.9413 11.8759 35.0435 12.3133 35.0435C12.6533 35.0435 12.9566 34.9413 13.2231 34.7368C13.4032 34.9413 13.723 35.0435 14.1824 35.0435H14.6106V33.9358H14.1824C14.0225 33.9358 13.9122 33.9005 13.8516 33.828C13.8001 33.7685 13.7744 33.67 13.7744 33.5306V32.7091H12.6791V33.5306C12.6791 33.6905 12.6423 33.802 12.5688 33.8652C12.5137 33.9116 12.4291 33.9358 12.3152 33.9358C12.1571 33.9358 12.0524 33.9005 12.0009 33.828C11.9605 33.776 11.9403 33.6774 11.9403 33.5306V32.7091H10.8449V33.5306C10.8449 33.6905 10.8063 33.802 10.731 33.8652C10.674 33.9116 10.5895 33.9358 10.4755 33.9358ZM10.663 30.6424L10.0014 31.3189L10.663 31.988L11.3246 31.3115L10.663 30.6424ZM11.3981 29.8469L10.8174 30.4342L11.3926 31.016L11.9734 30.4287L11.3981 29.8469ZM12.1093 30.6312L11.4404 31.3078L12.1185 31.9694L12.7728 31.3003L12.1093 30.6312ZM17.1578 32.7091H16.0643V33.6291C16.0643 33.7332 16.0349 33.8075 15.9779 33.8559C15.9136 33.9098 15.8015 33.9376 15.6398 33.9376H14.4397V35.0454H15.5626C15.8713 35.0454 16.1397 34.9952 16.3639 34.893C16.4778 34.8428 16.5605 34.7945 16.6101 34.7443C16.6616 34.7945 16.7388 34.8428 16.8399 34.893C16.9281 34.9376 17.0255 34.9729 17.1266 34.997C17.2552 35.0286 17.3931 35.0435 17.5382 35.0435H18.0253V33.9358H17.5382C17.3912 33.9358 17.2883 33.9098 17.2313 33.8577C17.1799 33.8131 17.1541 33.7369 17.1541 33.6273V32.7091H17.1578ZM15.9688 36.3315L15.2998 35.655L14.6547 36.3315L15.309 37.0006L15.9688 36.3315ZM17.382 36.3278L16.7131 35.6513L16.0643 36.3278L16.7186 36.9969L17.382 36.3278ZM20.5357 32.1553L19.49 32.4768C19.5084 32.5549 19.5341 32.6868 19.5672 32.8727L19.5764 32.9377L19.5892 33.0009C19.5984 33.053 19.6076 33.1013 19.6168 33.1459C19.6389 33.2648 19.6609 33.3819 19.683 33.4972C19.6922 33.5381 19.6958 33.5752 19.6958 33.6087C19.6958 33.7221 19.6536 33.8038 19.569 33.8559C19.4863 33.9098 19.3448 33.9376 19.1445 33.9376H17.8617V35.0454H19.1684C19.7969 35.0454 20.249 34.8521 20.5284 34.4636C20.703 34.2201 20.7893 33.9451 20.7893 33.6384C20.7893 33.5399 20.7802 33.4358 20.7618 33.328C20.6791 32.8634 20.6037 32.4731 20.5357 32.1553ZM19.3099 36.2646L18.6483 35.5751L17.9867 36.2646L18.6483 36.9207L19.3099 36.2646ZM19.9587 37.1325L19.3779 36.5452L18.8027 37.127L19.3834 37.7143L19.9587 37.1325ZM20.7526 36.2646L20.0983 35.5955L19.4202 36.2646L20.0891 36.9337L20.7526 36.2646ZM23.8603 32.4118C23.8585 32.4155 23.8548 32.4285 23.8511 32.4489C23.8438 32.4731 23.8364 32.501 23.8272 32.5307C23.8034 32.6162 23.7813 32.7017 23.7611 32.7835C23.6949 33.0418 23.6526 33.2425 23.6379 33.3819C23.6269 33.486 23.6214 33.5864 23.6214 33.683C23.6214 33.7704 23.6251 33.8559 23.6343 33.9358C23.6637 34.1588 23.7335 34.3577 23.8475 34.5305C24.0276 34.8075 24.2904 34.9747 24.6322 35.0342C24.8086 35.0658 25.2111 35.0807 25.8378 35.0807H27.7326C28.3078 35.0807 28.7066 35.0677 28.9327 35.0435C29.2414 35.0082 29.484 34.9301 29.6586 34.813C29.8461 34.9654 30.1401 35.0435 30.5408 35.0435H30.9249V33.9358H30.5408C30.3827 33.9358 30.2743 33.9005 30.2173 33.828C30.1732 33.7741 30.1456 33.6756 30.1328 33.5306V32.7054H29.0374V33.7499C29.0374 33.8986 28.9566 33.973 28.7967 33.973H24.8509C24.7811 33.973 24.7333 33.9432 24.7076 33.8856C24.6929 33.854 24.6837 33.8168 24.6837 33.7741C24.6837 33.7555 24.6855 33.7388 24.6873 33.7202C24.7259 33.4581 24.8013 33.1236 24.9152 32.7128L23.8603 32.4118ZM26.8909 31.8542L26.2219 31.1777L25.5768 31.8542L26.2311 32.5233L26.8909 31.8542ZM28.295 31.8505L27.626 31.1739L26.9773 31.8505L27.6315 32.5196L28.295 31.8505ZM33.1064 33.9358C32.9924 33.9358 32.9097 33.9116 32.8564 33.8652C32.7811 33.802 32.7425 33.6905 32.7425 33.5306V32.7091H31.6471V33.5306C31.6471 33.67 31.6214 33.7704 31.57 33.828C31.5093 33.9005 31.399 33.9358 31.2391 33.9358H30.7576V35.0435H31.2391C31.6986 35.0435 32.0184 34.9413 32.1985 34.7368C32.4631 34.9413 32.7719 35.0435 33.1247 35.0435C33.4574 35.0435 33.7551 34.9413 34.0198 34.7368C34.1999 34.9413 34.5086 35.0435 34.946 35.0435C35.286 35.0435 35.5893 34.9413 35.8557 34.7368C36.0358 34.9413 36.3556 35.0435 36.8151 35.0435H37.2433V33.9358H36.8151C36.6552 33.9358 36.5449 33.9005 36.4843 33.828C36.4328 33.7685 36.4071 33.67 36.4071 33.5306V32.7091H35.3117V33.5306C35.3117 33.6905 35.275 33.802 35.2015 33.8652C35.1463 33.9116 35.0618 33.9358 34.9479 33.9358C34.7898 33.9358 34.685 33.9005 34.6336 33.828C34.5932 33.776 34.5729 33.6774 34.5729 33.5306V32.7091H33.4776V33.5306C33.4776 33.6905 33.439 33.802 33.3637 33.8652C33.3049 33.9116 33.2203 33.9358 33.1064 33.9358ZM39.7464 32.1553L38.7007 32.4768C38.719 32.5549 38.7448 32.6868 38.7779 32.8727L38.787 32.9377L38.7999 33.0009C38.8091 33.053 38.8183 33.1013 38.8275 33.1459C38.8495 33.2648 38.8716 33.3819 38.8936 33.4972C38.9028 33.5381 38.9065 33.5752 38.9065 33.6087C38.9065 33.7221 38.8642 33.8038 38.7797 33.8559C38.697 33.9098 38.5555 33.9376 38.3552 33.9376H37.0724V35.0454H38.379C39.0076 35.0454 39.4597 34.8521 39.739 34.4636C39.9136 34.2201 40 33.9451 40 33.6384C40 33.5399 39.9908 33.4358 39.9724 33.328C39.8879 32.8634 39.8125 32.4731 39.7464 32.1553ZM38.5206 36.2646L37.8589 35.5751L37.1973 36.2646L37.8589 36.9207L38.5206 36.2646ZM39.1675 37.1325L38.5867 36.5452L38.0115 37.127L38.5922 37.7143L39.1675 37.1325ZM39.9632 36.2646L39.309 35.5955L38.6308 36.2646L39.2998 36.9337L39.9632 36.2646Z" fill="#D09600"/>
</svg>
