<svg width="50" height="36" viewBox="0 0 50 36" fill="none" xmlns="http://www.w3.org/2000/svg">
<path d="M1.61619 18.6398C1.15297 18.4262 0.789005 18.1186 0.529397 17.7143C0.249427 17.2643 0.106897 16.743 0.106897 16.1506C0.106897 16.0769 0.109443 16.0031 0.111988 15.9294C0.14762 15.2404 0.35887 14.4776 0.745737 13.6385L2.06668 14.2462C1.75617 14.9149 1.58819 15.4997 1.56019 16.0057C1.55765 16.0565 1.5551 16.1074 1.5551 16.1557C1.5551 16.471 1.62128 16.7303 1.75363 16.9312C1.88343 17.1371 2.0845 17.2871 2.35683 17.3736C2.46119 17.4092 2.57317 17.4346 2.6928 17.4499C2.78697 17.4626 2.88369 17.4677 2.98549 17.4677H3.65487C4.20718 17.4677 4.58386 17.366 4.78239 17.1626C4.95037 16.9871 5.03436 16.682 5.03436 16.2447V13.4783H6.48511V16.2396C6.48511 17.0202 6.29168 17.6329 5.90736 18.0779C5.66556 18.355 5.34996 18.5661 4.9631 18.711C4.59404 18.8458 4.15627 18.9144 3.65487 18.9144H2.98549C2.48155 18.917 2.02342 18.8254 1.61619 18.6398ZM4.45151 13.1376L3.5098 12.1969L2.5859 13.1275L3.51234 14.0682L4.45151 13.1376ZM7.15704 10.1501V14.6174C7.15704 14.9454 7.21558 15.2404 7.33011 15.4997C7.41665 15.698 7.53372 15.8709 7.68134 16.0184C7.82896 16.1659 8.00204 16.2828 8.20056 16.3693C8.46017 16.4837 8.75541 16.5422 9.08374 16.5422H9.25172H9.48333H10.9697C11.3948 16.5422 11.7867 16.4481 12.1456 16.2625C12.4383 16.1125 12.6775 15.9141 12.8608 15.6726C12.9931 15.8048 13.1128 15.9116 13.2196 15.993C13.6421 16.3184 14.1512 16.4989 14.7493 16.5345V16.5422H16.4851C17.3199 16.5422 17.9206 16.2879 18.2922 15.7794C18.5238 15.459 18.6383 15.1005 18.6383 14.6988C18.6383 14.5691 18.6256 14.4318 18.6027 14.292C18.4907 13.6843 18.3889 13.1707 18.2998 12.7537L16.9102 13.1758C16.9331 13.28 16.9687 13.4529 17.012 13.6945L17.0247 13.7784L17.0425 13.8623C17.0552 13.9309 17.0654 13.9945 17.0781 14.053C17.1087 14.2106 17.1367 14.3632 17.1672 14.5132C17.1799 14.5666 17.185 14.6149 17.185 14.6606C17.185 14.8081 17.129 14.9149 17.0171 14.9836C16.9076 15.0547 16.7193 15.0903 16.4546 15.0903H14.9733C14.6042 15.0903 14.3141 15.009 14.1079 14.8463C13.9272 14.7064 13.6447 14.3784 13.2604 13.8572C12.4968 12.8554 12.0412 12.263 11.8936 12.0799L14.9249 10.6179L14.2912 9.31101L10.4454 11.1671L10.1934 12.2655C10.196 12.2681 10.2392 12.324 10.3232 12.4308C10.4149 12.5477 10.5192 12.68 10.6337 12.8249C10.9544 13.2292 11.2115 13.5546 11.41 13.8012L11.5602 13.9996C11.7104 14.2284 11.7867 14.4166 11.7867 14.5666C11.7867 14.6276 11.774 14.6835 11.7511 14.7293C11.7027 14.831 11.606 14.9149 11.4533 14.9861C11.3031 15.0547 11.1428 15.0878 10.9748 15.0878H9.48842H9.25681H9.08883C8.90557 15.0878 8.78086 15.0547 8.71723 14.9912C8.64851 14.9225 8.61542 14.7979 8.61542 14.62V10.1501H7.15704ZM9.92365 9.41017L9.86256 10.0662L13.5607 8.4211L13.3189 7.90241L9.92365 9.41017ZM14.8231 18.205L15.6936 19.0822L16.5666 18.205L15.6783 17.3177L14.8231 18.205ZM16.6964 18.1999L17.5668 19.0771L18.4449 18.1999L17.5566 17.3126L16.6964 18.1999ZM19.4146 16.5422H20.8705V10.1501H19.4146V16.5422ZM20.7814 18.922H21.2217C22.2194 18.922 22.9753 18.6271 23.4945 18.0398C23.9578 17.5134 24.1919 16.7888 24.1919 15.8684V13.4783H22.7361V15.8684C22.7361 16.4455 22.619 16.8549 22.3848 17.1015C22.1532 17.3456 21.7664 17.4702 21.2217 17.4702H20.7814V18.922ZM50 17.5033V26.9414C50 27.7932 49.6437 28.6195 48.9947 29.2704C48.3431 29.9188 47.5159 30.2748 46.6633 30.2748H44.9249C44.2988 33.0843 41.7842 35.1922 38.786 35.1922C35.8157 35.1922 33.2884 33.1428 32.6546 30.2748H31.8911C31.2141 30.2748 30.5625 30.0485 29.9873 29.6188C29.4273 30.0485 28.7936 30.2748 28.1369 30.2748H19.3128C18.6816 33.1428 16.1517 35.1922 13.1815 35.1922C10.2138 35.1922 7.68643 33.1428 7.05014 30.2748H3.33418C1.49656 30.2748 0 28.7797 0 26.9414V21.0807H2.73097V26.9414C2.73097 27.2745 3.00076 27.544 3.33418 27.544H7.05014C7.68389 24.6734 10.2138 22.6241 13.1815 22.6241C16.1517 22.6241 18.6791 24.6734 19.3128 27.544H28.1369C28.3838 27.544 28.5569 27.3711 28.5569 27.1245V3.33081C28.5569 2.99773 28.2871 2.72821 27.9537 2.72821H3.33418C3.00076 2.72821 2.73097 2.99773 2.73097 3.33081V9.639H0V3.33081C0 1.49505 1.49656 0 3.33418 0H27.9537C29.7913 0 31.2879 1.49505 31.2879 3.33081V4.97587C31.4838 4.93519 31.6849 4.91739 31.8911 4.91739H39.7709C42.0311 4.91739 43.5912 6.72264 44.1945 7.47016H44.2072L48.4296 13.1325V13.1732C48.562 13.3715 48.8649 13.8419 49.1601 14.442C49.5521 15.2454 50 16.3159 50 17.5033ZM16.7396 28.9094C16.7396 26.949 15.1438 25.3548 13.1815 25.3548C11.1886 25.3548 9.62586 26.916 9.62586 28.9094C9.62586 30.9002 11.1886 32.4614 13.1815 32.4614C15.1769 32.4614 16.7396 30.9002 16.7396 28.9094ZM37.801 11.5816C37.6126 11.5816 37.1978 11.9248 37.1978 12.1841V16.1201C37.2003 16.1608 37.2588 16.3311 37.4243 16.4964C37.577 16.6464 37.7475 16.7201 37.801 16.7227H47.068C46.9789 16.2904 46.8643 15.9345 46.7193 15.6421C46.4648 15.1285 46.2408 14.7903 46.1822 14.7039L46.1415 14.6581L43.8254 11.5816H37.801ZM42.3416 28.9094C42.3416 26.916 40.7788 25.3548 38.786 25.3548C36.8236 25.3548 35.2278 26.949 35.2278 28.9094C35.2278 30.9002 36.7905 32.4614 38.786 32.4614C40.7788 32.4614 42.3416 30.9002 42.3416 28.9094ZM47.2665 19.4534H37.801C36.9432 19.4534 36.1135 19.0975 35.4696 18.4491C34.8231 17.8033 34.4642 16.9744 34.4642 16.1201V12.1841C34.4642 10.3484 35.9608 8.85334 37.801 8.85334H41.7333C41.0486 8.14395 40.2596 7.64815 39.7709 7.64815H31.8911C31.8503 7.65069 31.6798 7.70917 31.5144 7.87444C31.3489 8.03971 31.2904 8.21006 31.2879 8.25329V26.9414C31.2904 26.9923 31.3617 27.1652 31.5169 27.3203C31.6696 27.4703 31.8402 27.5415 31.8936 27.544H32.6572C33.2884 24.6734 35.8183 22.6241 38.7885 22.6241C41.7867 22.6241 44.3039 24.7319 44.9275 27.544H46.6658C46.7167 27.5415 46.8898 27.4703 47.0451 27.3152C47.1952 27.1626 47.2665 26.9923 47.269 26.9389V19.4534H47.2665Z" fill="#224E82"/>
</svg>
