<svg width="50" height="36" viewBox="0 0 50 36" fill="none" xmlns="http://www.w3.org/2000/svg">
<path d="M5.69633 16.5199C6.37543 16.5199 6.86702 16.3123 7.16856 15.8971C7.35607 15.6364 7.44983 15.3428 7.44983 15.0162C7.44983 14.9099 7.43969 14.7985 7.42196 14.6846C7.33073 14.1884 7.24711 13.7708 7.17616 13.4316L6.04348 13.7758C6.06376 13.8594 6.09163 14.0011 6.1271 14.1986L6.13724 14.2669L6.15244 14.3353C6.16258 14.391 6.17271 14.4416 6.18031 14.4897C6.20565 14.6163 6.22846 14.7428 6.2538 14.8643C6.26393 14.9074 6.269 14.9479 6.269 14.9833C6.269 15.1048 6.22339 15.1909 6.13217 15.2466C6.04348 15.3048 5.88891 15.3326 5.67352 15.3326H4.46483C4.32039 15.3326 4.20383 15.3276 4.11768 15.3174C3.99098 15.3023 3.88456 15.2769 3.80347 15.2415C3.66664 15.1833 3.57034 15.0567 3.51713 14.8618C3.47152 14.6871 3.42337 14.4922 3.37269 14.277L3.33975 14.1353L3.30428 13.9859C3.27641 13.8594 3.25106 13.753 3.23079 13.672C3.14464 13.2873 3.03061 12.7937 2.89377 12.1912L1.73576 12.4544L1.80417 12.7734C1.20109 12.9658 0.77792 13.1784 0.534661 13.4138C0.311673 13.6265 0.157102 13.867 0.068414 14.1404C0.0228028 14.2948 0 14.4517 0 14.6137C0 14.7378 0.0126707 14.8618 0.0405442 14.9858C0.136835 15.4567 0.395297 15.8009 0.815934 16.0186C1.03892 16.1402 1.28978 16.206 1.56598 16.2186H1.60653L1.642 16.2212C1.86499 16.2212 2.07784 16.1807 2.27802 16.1022C2.43513 16.0364 2.5745 15.9503 2.69866 15.8414L2.74174 15.8921C2.89631 16.0743 3.08889 16.2186 3.31948 16.3249C3.49179 16.4009 3.68944 16.454 3.90483 16.4844C4.01379 16.4996 4.14555 16.5072 4.28492 16.5123V16.5173H5.69633V16.5199ZM2.1868 14.5504C2.1868 14.7251 2.12092 14.8643 1.99168 14.9706C1.88526 15.0542 1.75856 15.0972 1.61159 15.0972C1.4925 15.0972 1.39621 15.0694 1.32272 15.0137C1.20363 14.9251 1.14281 14.8086 1.13521 14.6669V14.6416C1.13521 14.5074 1.19096 14.3834 1.30499 14.2695C1.42915 14.1454 1.68001 14.0188 2.06517 13.8872L2.08798 13.9834L2.11078 14.0771C2.12852 14.153 2.13866 14.2062 2.14626 14.2441C2.1716 14.3656 2.1868 14.4618 2.18933 14.5327V14.5504H2.1868ZM5.10592 19.1095L4.32799 18.3247L5.09832 17.5324L5.89145 18.3247L5.10592 19.1095ZM3.4183 17.5349L4.21143 18.3273L3.42844 19.112L2.65051 18.3273L3.4183 17.5349ZM8.08585 11.3077H9.27174V16.5199H8.08585V11.3077ZM11.978 14.0188V15.0061C11.978 15.1099 12.0312 15.1934 12.1377 15.2567C12.2213 15.3099 12.3074 15.3352 12.3936 15.3352H12.5608H13.7796C13.9165 15.3352 14.0482 15.3073 14.1699 15.2516C14.294 15.1934 14.3726 15.1251 14.4131 15.0415C14.4334 15.0036 14.441 14.958 14.441 14.9074C14.441 14.7833 14.3802 14.6289 14.256 14.4441L14.1319 14.2821C13.9697 14.0821 13.7594 13.8163 13.4984 13.4873C13.4046 13.3683 13.321 13.262 13.245 13.1658C13.1766 13.0797 13.1436 13.0341 13.1411 13.0316L13.3463 12.1355L16.4834 10.6217L17.0003 11.6874L14.5297 12.8797C14.6513 13.0291 15.0213 13.5126 15.6446 14.3302C15.9588 14.7529 16.1894 15.0238 16.3364 15.1352C16.5062 15.2668 16.7393 15.3352 17.0408 15.3352H17.3804C17.5527 15.3352 17.6743 15.2972 17.7377 15.2187C17.7934 15.1554 17.8213 15.0491 17.8213 14.8998V14.0214H19.0072V14.8998C19.0072 15.0719 19.0477 15.1909 19.1314 15.2567C19.1896 15.3073 19.2809 15.3326 19.4025 15.3326C19.5241 15.3326 19.6179 15.3073 19.6787 15.2567C19.7598 15.1883 19.8029 15.0694 19.8029 14.8998V14.0214H20.9888V14.8998C20.9888 15.0567 21.0115 15.163 21.0546 15.2187C21.1104 15.2947 21.2244 15.3352 21.3942 15.3352C21.5183 15.3352 21.6096 15.3099 21.6704 15.2592C21.7489 15.1909 21.7895 15.0719 21.7895 14.9023V14.0239H22.9754V14.9023C22.9754 15.0517 23.0032 15.158 23.059 15.2213C23.1249 15.2972 23.244 15.3377 23.4163 15.3377H23.6976H23.8775H25.0862C25.3041 15.3377 25.4561 15.3099 25.5448 15.2516C25.636 15.1959 25.6816 15.1073 25.6816 14.9884C25.6816 14.9529 25.6766 14.9124 25.6664 14.8694C25.6411 14.7454 25.6183 14.6213 25.5929 14.4947C25.5828 14.4466 25.5727 14.396 25.5651 14.3403L25.5499 14.272L25.5397 14.2036C25.5043 14.0062 25.4764 13.8644 25.4561 13.7809L26.5888 13.4366C26.6623 13.7758 26.7434 14.1935 26.8346 14.6897C26.8549 14.8061 26.8625 14.915 26.8625 15.0213C26.8625 15.3478 26.7687 15.644 26.5812 15.9022C26.2797 16.3173 25.7881 16.5249 25.109 16.5249H23.8749H23.695H23.4137C22.9171 16.5249 22.5699 16.4161 22.3748 16.1958C22.0885 16.4161 21.7591 16.5249 21.3916 16.5249C20.9178 16.5249 20.5858 16.4161 20.3907 16.1958C20.1044 16.4161 19.7801 16.5249 19.4202 16.5249C19.0401 16.5249 18.7057 16.4161 18.4193 16.1958C18.2242 16.4161 17.877 16.5249 17.3804 16.5249H16.8584V16.5199C16.3719 16.492 15.9538 16.3452 15.6092 16.0769C15.523 16.011 15.4242 15.925 15.3152 15.8161C15.1657 16.0136 14.9706 16.1731 14.7324 16.2971C14.441 16.449 14.1217 16.5249 13.7746 16.5249H12.5557H12.3885H12.3733C12.2365 16.5224 12.0946 16.5021 11.9425 16.4566C11.8716 16.9882 11.6917 17.4185 11.4028 17.7425C10.9796 18.221 10.3639 18.4614 9.55048 18.4614H9.19319V17.2767H9.55048C9.99392 17.2767 10.3107 17.178 10.4982 16.978C10.6882 16.7781 10.7845 16.4439 10.7845 15.9731V14.0239H11.978V14.0188ZM25.7044 19.9752L25.0127 19.2841L25.6968 18.6032L26.3886 19.2943L25.7044 19.9752ZM24.8302 17.4641L25.6157 18.2741L24.8302 19.0437L24.0447 18.2741L24.8302 17.4641ZM26.5432 19.0588L25.75 18.2741L26.5558 17.4894L27.3338 18.2741L26.5432 19.0588ZM49.1638 14.3808C48.8699 13.7834 48.5709 13.3151 48.4366 13.1151V13.0746L44.2327 7.43723H44.2201C43.6195 6.693 42.0662 4.89571 39.816 4.89571H31.9709C31.7657 4.89571 31.5655 4.91596 31.3704 4.95393V3.31612C31.3704 1.48846 29.8804 0 28.0509 0H3.53994C1.71042 0 0.220453 1.48846 0.220453 3.31612V9.5965H2.93939V3.31612C2.93939 2.98451 3.20799 2.71618 3.53994 2.71618H28.0509C28.3828 2.71618 28.6514 2.98451 28.6514 3.31612V27.0049C28.6514 27.2504 28.4791 27.4226 28.2333 27.4226H19.4481C18.8197 24.5646 16.3009 22.5243 13.3438 22.5243C10.3892 22.5243 7.873 24.5646 7.23951 27.4226H3.53994C3.20799 27.4226 2.93939 27.1542 2.93939 26.8226V20.9878H0.220453V26.8226C0.220453 28.6528 1.71042 30.1413 3.53994 30.1413H7.23951C7.87047 32.9967 10.3892 35.037 13.3438 35.037C16.3009 35.037 18.8172 32.9967 19.4481 30.1413H28.2333C28.8871 30.1413 29.518 29.916 30.0755 29.4882C30.6457 29.916 31.2943 30.1413 31.9709 30.1413H32.7311C33.3595 32.9967 35.8783 35.037 38.8354 35.037C41.8204 35.037 44.3239 32.9385 44.9473 30.1413H46.678C47.5269 30.1413 48.3504 29.7869 48.9991 29.1414C49.6427 28.4933 50 27.6706 50 26.8226V17.4261C50 16.2439 49.554 15.1782 49.1638 14.3808ZM13.3438 32.3183C11.3597 32.3183 9.80387 30.764 9.80387 28.7819C9.80387 26.7973 11.3597 25.243 13.3438 25.243C15.2975 25.243 16.8863 26.8302 16.8863 28.7819C16.8863 30.764 15.3304 32.3183 13.3438 32.3183ZM43.8526 11.5305L46.1585 14.5935L46.1991 14.639C46.2574 14.7251 46.4829 15.0618 46.7337 15.5731C46.8756 15.8642 46.9922 16.2186 47.0809 16.649H37.8548C37.8015 16.6464 37.6318 16.573 37.4797 16.4237C37.315 16.2591 37.2567 16.0895 37.2542 16.049V12.1304C37.2542 11.8722 37.6672 11.5305 37.8548 11.5305H43.8526ZM38.8354 32.3183C36.8488 32.3183 35.2929 30.764 35.2929 28.7819C35.2929 26.8302 36.8817 25.243 38.8354 25.243C40.8195 25.243 42.3753 26.7973 42.3753 28.7819C42.3753 30.764 40.8195 32.3183 38.8354 32.3183ZM47.2785 26.8201C47.276 26.8732 47.2051 27.0429 47.0555 27.1947C46.901 27.3466 46.7312 27.42 46.678 27.4226H44.9473C44.3239 24.6228 41.8204 22.5243 38.8354 22.5243C35.8783 22.5243 33.362 24.5646 32.7311 27.4226H31.9709C31.9177 27.42 31.7479 27.3491 31.5959 27.1998C31.4438 27.0454 31.3704 26.8758 31.3678 26.8226V8.2169C31.3704 8.17639 31.4312 8.00426 31.5933 7.83972C31.7581 7.67518 31.9278 7.61696 31.9684 7.61442H39.8135C40.3026 7.61442 41.0856 8.10805 41.7672 8.8143H37.8522C36.0202 8.8143 34.5302 10.3028 34.5302 12.1304V16.049C34.5302 16.8996 34.885 17.7223 35.5311 18.3678C36.1747 19.0133 36.9983 19.3677 37.8522 19.3677H47.276V26.8201H47.2785Z" fill="#224E82"/>
</svg>
