<svg width="50" height="44" viewBox="0 0 50 44" fill="none" xmlns="http://www.w3.org/2000/svg">
<path d="M50 23.7104H43.0682L38.3245 11.0589H43.0393V5.14771H37.763C36.1311 5.14771 34.8061 6.47269 34.8061 8.10463C34.8061 8.41948 34.8665 8.74219 34.9898 9.08852L35.239 9.78905H30.1648V13.3809H35.3571L36.1022 15.3592L26.6385 23.7104H19.8326V18.0196H24.4739V14.4304H2.31936V18.0196H6.32838L5.64884 18.8723C5.24217 19.3813 4.78302 19.9244 4.24778 20.5515L3.90932 20.9529C1.97565 23.2277 0 26.1006 0 30.149C0 30.6265 0.186283 31.0778 0.524742 31.4163L1.16755 32.0591L0.98389 32.4028C0.367319 33.5546 0.0524742 34.7484 0.0524742 35.95C0.0524742 40.1375 3.45018 43.5457 7.62449 43.5457C11.3318 43.5457 14.538 40.7462 15.0811 37.0336L15.1467 36.585H34.9058L34.974 37.0336C35.5145 40.7462 38.7207 43.5457 42.4306 43.5457C46.6049 43.5457 50 40.1375 50 35.95C50 32.8803 48.0689 30.0493 45.196 28.9001L44.9782 28.8136L44.4167 27.3023H50V23.7104ZM7.62449 39.9538C5.39172 39.9538 3.64433 38.1959 3.64433 35.95C3.64433 33.7015 5.39172 31.9436 7.62449 31.9436C9.85465 31.9436 11.602 33.7015 11.602 35.95C11.602 38.1959 9.85465 39.9538 7.62449 39.9538ZM35.6326 32.6966L35.4883 32.9931H14.5668L14.4251 32.6966C13.1553 30.0572 10.487 28.3518 7.62449 28.3518C6.6065 28.3518 5.61736 28.5564 4.68069 28.9579L3.75453 29.354L3.95917 28.3701C4.32387 26.6018 5.15296 25.0328 6.64323 23.2775C6.8505 23.0309 7.06564 22.7869 7.28341 22.5376C7.91573 21.8135 8.57165 21.0631 9.14887 20.2235C9.57916 19.5991 9.91499 18.972 10.1459 18.3607L10.2744 18.0196H16.2434V23.1857C16.2434 24.209 16.3641 25.3739 17.2666 26.2791C18.1692 27.1816 19.3367 27.3023 20.3573 27.3023H27.3207C27.7588 27.3023 28.1812 27.1423 28.5092 26.8536L37.4508 18.9615L41.0243 28.4987L40.4707 28.6509C38.3639 29.2281 36.6007 30.7026 35.6326 32.6966ZM46.4081 35.95C46.4081 38.1959 44.6608 39.9538 42.4306 39.9538C40.2004 39.9538 38.4531 38.1959 38.4531 35.95C38.4531 33.7015 40.2004 31.9436 42.4306 31.9436C44.6608 31.9436 46.4081 33.7015 46.4081 35.95ZM18.3371 11.2426L19.5781 12.4836L18.3555 13.7115L17.1407 12.4836L18.3371 11.2426ZM20.9608 11.2373L22.2018 12.4784L20.9739 13.7062L19.7591 12.4784L20.9608 11.2373ZM27.242 11.1324L28.4567 12.3603L27.2236 13.5882L25.9826 12.3603L27.242 11.1324ZM25.9012 12.8745L26.9796 13.9529L25.9117 15.0207L24.8334 13.9424L25.9012 12.8745ZM23.4035 10.1196H23.0939H22.4983C22.2307 10.1196 21.9762 10.0908 21.7348 10.0331C21.5433 9.98846 21.3675 9.92286 21.2022 9.84153C21.0107 9.7497 20.869 9.66049 20.7745 9.56866C20.6801 9.66049 20.5253 9.7497 20.3154 9.84153C19.8982 10.0278 19.4023 10.1196 18.8277 10.1196H17.0541H16.9623H16.7445V10.1118C15.8682 10.075 15.1231 9.82316 14.5117 9.35089C14.3307 9.20659 14.1654 9.05704 14.0158 8.90486C13.7587 9.2407 13.4255 9.51356 13.011 9.72871C12.5072 9.9937 11.9615 10.1249 11.3738 10.1249H9.13575C7.83701 10.1249 7.02629 10.096 6.69833 10.0383C6.06076 9.93073 5.57538 9.62376 5.24217 9.11476C5.03227 8.79729 4.89846 8.4326 4.84599 8.0233C4.83025 7.87375 4.82237 7.71895 4.82237 7.5589C4.82237 7.38049 4.83287 7.19683 4.85386 7.00792C4.88272 6.7508 4.95881 6.3861 5.08212 5.91121C5.11885 5.75904 5.16083 5.60424 5.20544 5.44682C5.22118 5.39434 5.23692 5.34449 5.25004 5.29727C5.25791 5.26053 5.26316 5.23692 5.2684 5.22905L7.22307 5.78003C7.01317 6.53303 6.87149 7.1496 6.80065 7.62712C6.7954 7.66123 6.7954 7.69271 6.7954 7.72682C6.7954 7.80553 6.81114 7.87375 6.84001 7.93147C6.88986 8.03904 6.97906 8.09151 7.10762 8.09151H11.3816C11.6125 8.09151 11.8355 8.04166 12.0454 7.94196C12.2553 7.84226 12.397 7.7242 12.4679 7.58252C12.502 7.51167 12.5177 7.43559 12.5177 7.35163C12.5177 7.13649 12.4101 6.87149 12.195 6.55665L11.9903 6.27853C11.7096 5.9322 11.3475 5.47568 10.9041 4.9142C10.7388 4.70693 10.5919 4.52327 10.4633 4.36323C10.3479 4.21367 10.2876 4.13759 10.2823 4.13496L10.6418 2.5896L16.0099 0L16.8914 1.82872L12.6568 3.86997C12.864 4.12972 13.5016 4.96143 14.5721 6.36249C15.1099 7.09451 15.5035 7.55628 15.7501 7.74518C16.0466 7.97345 16.4506 8.08627 16.9596 8.08627H17.0541H18.9694C19.2659 8.08627 19.4758 8.03642 19.5965 7.93672C19.704 7.85013 19.7565 7.71108 19.7565 7.52217V5.83513H21.7846V7.52217C21.7846 7.72157 21.8319 7.86063 21.9263 7.94459C22.0339 8.03904 22.2228 8.08627 22.4957 8.08627H23.0913H23.4008H25.471C25.8435 8.08627 26.1059 8.03642 26.2581 7.93672C26.4155 7.84226 26.4942 7.69009 26.4942 7.48281C26.4942 7.41985 26.4863 7.35163 26.4706 7.27816C26.4286 7.06827 26.3866 6.85312 26.3473 6.63273C26.3315 6.5514 26.3132 6.46219 26.2974 6.36511L26.2738 6.24705L26.2554 6.12898C26.1925 5.79052 26.1452 5.54914 26.1138 5.40221L28.0553 4.81188C28.1786 5.39434 28.3203 6.11324 28.4777 6.96332C28.5118 7.16272 28.5276 7.35163 28.5276 7.53266C28.5276 8.09414 28.3675 8.60051 28.0448 9.04654C27.5279 9.75757 26.6857 10.1144 25.5208 10.1144H23.4035V10.1196ZM25.7779 12.3603L24.55 13.5646L23.3221 12.3603L24.55 11.0957L25.7779 12.3603Z" fill="#224E82"/>
</svg>
