<svg width="50" height="47" viewBox="0 0 50 47" fill="none" xmlns="http://www.w3.org/2000/svg">
<path d="M38.9846 35.1898C33.6549 35.1898 28.4241 35.2801 23.2001 35.155C20.1608 35.0809 17.5235 33.6843 15.7822 31.2059C11.7046 25.4085 7.81759 19.4745 3.83413 13.5636C6.59545 11.6504 9.39122 10.1866 12.8394 11.1015C14.9483 11.6597 16.6115 12.8317 17.8084 14.673C19.5658 17.376 21.3232 20.0813 23.0852 22.7797C23.9536 24.1115 24.7232 24.2852 26.0533 23.4629C27.3099 22.687 28.5619 21.8972 29.8208 21.1259C34.0616 18.5225 36.4921 14.717 37.241 9.79051C37.3995 8.75054 37.581 7.71521 37.7854 6.45752C32.3225 9.85999 27.0411 13.149 21.7023 16.475C21.1578 15.5949 20.6226 14.7286 20.0276 13.7628C27.3558 9.19525 34.6497 4.6509 42.1112 0C41.8079 1.76262 41.5415 3.33994 41.2612 4.91726C40.827 7.36547 40.4709 9.82988 39.9242 12.2526C38.8238 17.1166 36.113 20.8758 31.9412 23.5556C30.4549 24.5099 28.9524 25.4433 27.4385 26.3582C24.9552 27.8567 22.2169 27.2406 20.6203 24.8156C18.8123 22.0686 17.0434 19.2938 15.2355 16.5468C13.6504 14.1403 10.9465 13.3435 8.44934 14.5711C8.56421 14.7865 8.66069 15.0135 8.79623 15.2127C11.7367 19.6065 14.6864 23.998 17.6269 28.3918C19.2787 30.8585 21.5621 32.1093 24.5256 32.0954C26.9975 32.0838 29.4716 32.0954 31.9435 32.0907C32.2812 32.0907 32.6189 32.0606 33.1312 32.0351C32.1112 30.4485 31.1785 28.9986 30.1953 27.4723C31.0544 26.8909 31.8952 26.3234 32.8165 25.7004C34.8633 28.8527 36.8964 31.9795 38.9846 35.1898ZM3.20698 40.7625H1.83781V43.0324C1.83781 43.579 1.72754 43.9704 1.50701 44.202C1.28877 44.436 0.925795 44.5518 0.413505 44.5518H0V45.9322H0.413505C1.35079 45.9322 2.06524 45.652 2.55226 45.0938C2.98874 44.5935 3.20698 43.9056 3.20698 43.0301V40.7625ZM2.53848 39.8754L3.42063 38.9906L2.53618 38.0989L1.66781 38.9837L2.53848 39.8754ZM6.09694 42.2912H5.72019C5.5479 42.2912 5.43074 42.2611 5.36871 42.1986C5.30439 42.1337 5.27222 42.0156 5.27222 41.8442V37.5986H3.90535V41.8442C3.90535 42.1569 3.96048 42.4348 4.06846 42.6826C4.14886 42.8702 4.25913 43.0347 4.39926 43.176C4.5394 43.3173 4.70021 43.4261 4.88858 43.5095C5.13439 43.6184 5.41006 43.674 5.72019 43.674H6.09694V42.2912ZM9.27636 40.7625H7.90949V41.909C7.90949 42.0387 7.87273 42.1314 7.80151 42.1916C7.72111 42.2588 7.58098 42.2935 7.37882 42.2935H5.8787V43.674H7.28233C7.66827 43.674 8.00368 43.6114 8.28394 43.484C8.42637 43.4215 8.52975 43.3613 8.59177 43.2987C8.6561 43.3613 8.75258 43.4215 8.87893 43.484C8.9892 43.5396 9.11096 43.5836 9.23731 43.6137C9.39811 43.6531 9.57041 43.6716 9.75189 43.6716H10.3607V42.2912H9.75189C9.56811 42.2912 9.43947 42.2588 9.36825 42.1939C9.30393 42.1383 9.27176 42.0434 9.27176 41.9067V40.7625H9.27636ZM8.09097 38.9281L7.25476 38.085L6.44842 38.9281L7.26625 39.7619L8.09097 38.9281ZM9.84378 38.9235L9.00758 38.0804L8.19664 38.9235L9.01447 39.7573L9.84378 38.9235ZM13.0944 42.2912C12.952 42.2912 12.8486 42.2611 12.782 42.2032C12.6878 42.1244 12.6396 41.9855 12.6396 41.7863V40.7625H11.2704V41.7863C11.2704 41.96 11.2382 42.0851 11.1739 42.1569C11.0981 42.2472 10.9603 42.2912 10.7604 42.2912H10.1585V43.6716H10.7581C11.3324 43.6716 11.7321 43.5443 11.9573 43.2895C12.2881 43.5443 12.674 43.6716 13.1151 43.6716C13.5309 43.6716 13.9031 43.5443 14.2339 43.2895C14.459 43.5443 14.8449 43.6716 15.3917 43.6716C15.8167 43.6716 16.1957 43.5443 16.5288 43.2895C16.754 43.5443 17.1537 43.6716 17.728 43.6716H18.2633V42.2912H17.728C17.5281 42.2912 17.3903 42.2472 17.3145 42.1569C17.2502 42.0827 17.218 41.96 17.218 41.7863V40.7625H15.8488V41.7863C15.8488 41.9855 15.8029 42.1244 15.711 42.2032C15.6421 42.2611 15.5364 42.2912 15.394 42.2912C15.1964 42.2912 15.0655 42.2472 15.0011 42.1569C14.9506 42.092 14.9253 41.9692 14.9253 41.7863V40.7625H13.5562V41.7863C13.5562 41.9855 13.5079 42.1244 13.4137 42.2032C13.3425 42.2611 13.2368 42.2912 13.0944 42.2912ZM13.3287 38.1869L12.5017 39.03L13.3287 39.8638L14.1557 39.0207L13.3287 38.1869ZM14.2476 37.1956L13.5217 37.9275L14.2407 38.6525L14.9667 37.9206L14.2476 37.1956ZM15.1367 38.173L14.3005 39.0161L15.1482 39.8407L15.966 39.0068L15.1367 38.173ZM21.4473 40.7625H20.0804V41.909C20.0804 42.0387 20.0436 42.1314 19.9724 42.1916C19.892 42.2588 19.7519 42.2935 19.5497 42.2935H18.0496V43.674H19.4532C19.8392 43.674 20.1746 43.6114 20.4549 43.484C20.5973 43.4215 20.7007 43.3613 20.7627 43.2987C20.827 43.3613 20.9235 43.4215 21.0498 43.484C21.1601 43.5396 21.2819 43.5836 21.4082 43.6137C21.569 43.6531 21.7413 43.6716 21.9228 43.6716H22.5316V42.2912H21.9228C21.739 42.2912 21.6104 42.2588 21.5392 42.1939C21.4748 42.1383 21.4427 42.0434 21.4427 41.9067V40.7625H21.4473ZM19.9609 45.2768L19.1247 44.4337L18.3184 45.2768L19.1362 46.1106L19.9609 45.2768ZM21.7275 45.2721L20.8913 44.429L20.0804 45.2721L20.8982 46.106L21.7275 45.2721ZM25.6696 40.0723L24.3625 40.473C24.3855 40.5703 24.4176 40.7347 24.459 40.9663L24.4705 41.0474L24.4866 41.1262C24.498 41.191 24.5095 41.2512 24.521 41.3068C24.5486 41.4551 24.5762 41.601 24.6037 41.7446C24.6152 41.7955 24.6198 41.8419 24.6198 41.8836C24.6198 42.0248 24.567 42.1267 24.4613 42.1916C24.3579 42.2588 24.181 42.2935 23.9306 42.2935H22.3271V43.674H23.9605C24.7461 43.674 25.3113 43.4331 25.6605 42.949C25.8787 42.6456 25.9867 42.3028 25.9867 41.9206C25.9867 41.7978 25.9752 41.6681 25.9522 41.5338C25.8488 40.9548 25.7546 40.4684 25.6696 40.0723ZM24.1374 45.1934L23.3104 44.3341L22.4833 45.1934L23.3104 46.011L24.1374 45.1934ZM24.9483 46.275L24.2224 45.5431L23.5033 46.2681L24.2293 47L24.9483 46.275ZM25.9407 45.1934L25.1229 44.3595L24.2752 45.1934L25.1114 46.0272L25.9407 45.1934ZM29.8254 40.3919C29.8231 40.3966 29.8185 40.4128 29.8139 40.4382C29.8047 40.4684 29.7955 40.5031 29.7841 40.5402C29.7542 40.6467 29.7266 40.7533 29.7014 40.8552C29.6187 41.1771 29.5658 41.4273 29.5474 41.601C29.5336 41.7307 29.5268 41.8558 29.5268 41.9762C29.5268 42.0851 29.5314 42.1916 29.5428 42.2912C29.5796 42.5691 29.6669 42.817 29.8093 43.0324C30.0345 43.3775 30.363 43.5859 30.7903 43.6601C31.0108 43.6994 31.5139 43.718 32.2973 43.718H34.6657C35.3848 43.718 35.8833 43.7018 36.1659 43.6716C36.5518 43.6276 36.855 43.5304 37.0733 43.3844C37.3076 43.5744 37.6752 43.6716 38.176 43.6716H38.6561V42.2912H38.176C37.9784 42.2912 37.8429 42.2472 37.7717 42.1569C37.7165 42.0897 37.6821 41.9669 37.666 41.7863V40.7579H36.2968V42.0596C36.2968 42.2449 36.1957 42.3375 35.9959 42.3375H31.0636C30.9763 42.3375 30.9166 42.3005 30.8844 42.2287C30.8661 42.1893 30.8546 42.143 30.8546 42.0897C30.8546 42.0665 30.8569 42.0457 30.8592 42.0225C30.9074 41.6959 31.0016 41.279 31.144 40.7672L29.8254 40.3919ZM33.6136 39.6971L32.7774 38.854L31.9711 39.6971L32.7889 40.5309L33.6136 39.6971ZM35.3687 39.6924L34.5325 38.8493L33.7216 39.6924L34.5394 40.5263L35.3687 39.6924ZM41.3829 42.2912C41.2405 42.2912 41.1371 42.2611 41.0705 42.2032C40.9763 42.1244 40.9281 41.9855 40.9281 41.7863V40.7625H39.5589V41.7863C39.5589 41.96 39.5268 42.0851 39.4624 42.1569C39.3866 42.2472 39.2488 42.2912 39.0489 42.2912H38.4471V43.6716H39.0489C39.6233 43.6716 40.023 43.5443 40.2481 43.2895C40.5789 43.5443 40.9648 43.6716 41.4059 43.6716C41.8217 43.6716 42.1939 43.5443 42.5247 43.2895C42.7498 43.5443 43.1358 43.6716 43.6825 43.6716C44.1075 43.6716 44.4866 43.5443 44.8197 43.2895C45.0448 43.5443 45.4445 43.6716 46.0188 43.6716H46.5541V42.2912H46.0188C45.819 42.2912 45.6811 42.2472 45.6053 42.1569C45.541 42.0827 45.5088 41.96 45.5088 41.7863V40.7625H44.1397V41.7863C44.1397 41.9855 44.0937 42.1244 44.0018 42.2032C43.9329 42.2611 43.8272 42.2912 43.6848 42.2912C43.4873 42.2912 43.3563 42.2472 43.292 42.1569C43.2414 42.092 43.2162 41.9692 43.2162 41.7863V40.7625H41.847V41.7863C41.847 41.9855 41.7988 42.1244 41.7046 42.2032C41.6311 42.2611 41.5254 42.2912 41.3829 42.2912ZM49.683 40.0723L48.3758 40.473C48.3988 40.5703 48.431 40.7347 48.4723 40.9663L48.4838 41.0474L48.4999 41.1262C48.5114 41.191 48.5229 41.2512 48.5343 41.3068C48.5619 41.4551 48.5895 41.601 48.617 41.7446C48.6285 41.7955 48.6331 41.8419 48.6331 41.8836C48.6331 42.0248 48.5803 42.1267 48.4746 42.1916C48.3712 42.2588 48.1943 42.2935 47.9439 42.2935H46.3405V43.674H47.9738C48.7595 43.674 49.3246 43.4331 49.6738 42.949C49.892 42.6456 50 42.3028 50 41.9206C50 41.7978 49.9885 41.6681 49.9655 41.5338C49.8599 40.9548 49.7657 40.4684 49.683 40.0723ZM48.1507 45.1934L47.3237 44.3341L46.4967 45.1934L47.3237 46.011L48.1507 45.1934ZM48.9593 46.275L48.2334 45.5431L47.5144 46.2681L48.2403 47L48.9593 46.275ZM49.9541 45.1934L49.1362 44.3595L48.2885 45.1934L49.1247 46.0272L49.9541 45.1934Z" fill="#224E82"/>
</svg>
