<svg width="50" height="46" viewBox="0 0 50 46" fill="none" xmlns="http://www.w3.org/2000/svg">
<path d="M1.65963 40.1409C1.37167 40.7521 1.22659 41.2903 1.22659 41.7531C1.22659 41.7974 1.22879 41.8461 1.23099 41.8949C1.23538 41.9569 1.24417 42.0189 1.25736 42.0786C1.28374 42.2359 1.3321 42.3776 1.39805 42.4994C1.58929 42.8449 1.91023 43.0176 2.36085 43.0176H3.38961C3.90398 43.0176 4.26668 42.949 4.47551 42.8117C4.57883 42.7408 4.63378 42.6721 4.63598 42.6057C4.28207 42.3975 3.79627 42.2359 3.17638 42.1163V40.9891H6.58577V42.2226H5.68672C5.74167 42.3112 5.76805 42.4352 5.76805 42.5946C5.76805 42.6522 5.76585 42.7098 5.76145 42.7674C5.75266 42.8471 5.73727 42.9246 5.71749 42.9999C5.66253 43.2081 5.56801 43.3919 5.43392 43.5513C5.04264 44.0142 4.3612 44.2467 3.38961 44.2467H2.36085C1.53214 44.2467 0.907851 43.9544 0.487996 43.372C0.162665 42.918 0 42.3776 0 41.7531C0 41.2925 0.0923232 40.7964 0.279169 40.2649C0.373691 39.9992 0.466016 39.78 0.55834 39.6072L1.65963 40.1409ZM9.50497 40.9116C9.59949 40.8407 9.64565 40.7167 9.64565 40.5395V39.6272H10.87V40.5395C10.87 40.6946 10.8986 40.8053 10.9558 40.8695C11.0239 40.9492 11.147 40.9891 11.3251 40.9891C11.6086 40.9891 11.7493 40.8894 11.7493 40.6924C11.7493 40.6503 11.7427 40.6016 11.7317 40.5484C11.5889 39.9593 11.4987 39.5651 11.4548 39.3636L12.6418 39.0779C12.7143 39.3791 12.8066 39.7733 12.921 40.2627C12.9451 40.3712 12.9583 40.4842 12.9583 40.6015C12.9583 40.6968 12.9495 40.7964 12.9319 40.8983C12.8902 41.1308 12.8066 41.3434 12.6813 41.5339C12.3846 41.9923 11.9537 42.2226 11.3866 42.2226C11.1294 42.2226 10.8898 42.1827 10.6656 42.1052C10.5139 42.0476 10.3754 41.9724 10.2524 41.8793C9.9556 42.1074 9.61708 42.2204 9.23459 42.2204C8.83232 42.2204 8.48281 42.1074 8.18605 41.8793C7.98382 42.1074 7.62772 42.2204 7.11554 42.2204H6.39893V40.9869H7.11554C7.29359 40.9869 7.41669 40.947 7.48483 40.8673C7.54198 40.8031 7.57056 40.6923 7.57056 40.5373V39.6249H8.79495V40.5373C8.79495 40.7145 8.83672 40.8385 8.92245 40.9094C8.9818 40.9625 9.07632 40.9891 9.20162 40.9891C9.33571 40.9913 9.43463 40.9647 9.50497 40.9116ZM10.1952 37.964L9.45661 38.7147L8.71802 37.9707L9.45661 37.2199L10.1952 37.964ZM10.9184 36.983L10.2699 37.6363L9.62807 36.9896L10.2765 36.3363L10.9184 36.983ZM11.8153 37.9529L11.0833 38.697L10.3271 37.9596L11.0723 37.2089L11.8153 37.9529ZM15.561 41.6512C15.561 42.433 15.3653 43.0464 14.9763 43.4937C14.541 43.992 13.9035 44.2423 13.066 44.2423H12.6967V43.0088H13.066C13.5233 43.0088 13.8486 42.9047 14.0442 42.6965C14.2399 42.4883 14.3388 42.1407 14.3388 41.6512V39.6249H15.5632V41.6512H15.561ZM18.1416 42.2226H17.8053C17.5284 42.2226 17.2822 42.1739 17.0623 42.0764C16.8953 42.0034 16.7502 41.9059 16.6249 41.7797C16.4996 41.6535 16.4029 41.5073 16.3303 41.339C16.2336 41.1175 16.1853 40.8695 16.1853 40.5905V36.8014H17.4053V40.5905C17.4053 40.7433 17.4338 40.8496 17.491 40.9072C17.5459 40.9625 17.6493 40.9891 17.8053 40.9891H18.1416V42.2226ZM21.4279 38.8786C21.7665 39.2396 21.9357 39.6847 21.9357 40.2162C21.9357 40.5019 21.883 40.761 21.7797 40.9913H22.2237V42.2248H21.6829C21.0762 42.2248 20.5465 42.1562 20.098 42.0189C19.6716 42.1562 19.1418 42.2248 18.5088 42.2248H17.968V40.9913H18.412C18.3087 40.761 18.256 40.5019 18.256 40.2162C18.256 39.6847 18.4252 39.2396 18.7637 38.8786C19.1154 38.5044 19.5595 38.3183 20.1002 38.3183C20.6366 38.3183 21.0806 38.5044 21.4279 38.8786ZM19.2957 37.1668L20.0717 36.3784L20.863 37.1756L20.0761 37.964L19.2957 37.1668ZM20.6256 40.5794C20.7003 40.482 20.7377 40.3602 20.7377 40.214C20.7377 40.0391 20.6872 39.8907 20.5882 39.7667C20.4717 39.6205 20.3069 39.5496 20.0958 39.5496C19.8848 39.5496 19.72 39.6227 19.6034 39.7667C19.5045 39.8885 19.454 40.0391 19.454 40.214C19.454 40.3602 19.4935 40.482 19.5705 40.5794C19.6716 40.7145 19.8474 40.8164 20.0958 40.8828C20.3464 40.8164 20.5223 40.7167 20.6256 40.5794ZM25.1605 40.9116C25.255 40.8407 25.3012 40.7167 25.3012 40.5395V39.6272H26.5255V40.5395C26.5255 40.6946 26.5541 40.8053 26.6113 40.8695C26.6794 40.9492 26.8025 40.9891 26.9806 40.9891C27.2641 40.9891 27.4048 40.8894 27.4048 40.6924C27.4048 40.6503 27.3982 40.6016 27.3872 40.5484C27.2444 39.9593 27.1542 39.5651 27.1103 39.3636L28.2973 39.0779C28.3698 39.3791 28.4621 39.7733 28.5765 40.2627C28.6006 40.3712 28.6138 40.4842 28.6138 40.6015C28.6138 40.6968 28.605 40.7964 28.5874 40.8983C28.5457 41.1308 28.4621 41.3434 28.3369 41.5339C28.0401 41.9923 27.6092 42.2226 27.0421 42.2226C26.7849 42.2226 26.5453 42.1827 26.3211 42.1052C26.1694 42.0476 26.031 41.9724 25.9079 41.8793C25.6111 42.1074 25.2726 42.2204 24.8901 42.2204C24.4878 42.2204 24.1383 42.1074 23.8416 41.8793C23.6393 42.1074 23.2832 42.2204 22.771 42.2204H22.0544V40.9869H22.771C22.9491 40.9869 23.0722 40.947 23.1403 40.8673C23.1975 40.8031 23.2261 40.6923 23.2261 40.5373V39.6249H24.4505V40.5373C24.4505 40.7145 24.4922 40.8385 24.5779 40.9094C24.6373 40.9625 24.7318 40.9891 24.8571 40.9891C24.989 40.9913 25.0901 40.9647 25.1605 40.9116ZM33.1553 39.6294C33.0278 40.0856 32.9443 40.4576 32.9025 40.7499C32.9003 40.7699 32.8981 40.7898 32.8981 40.8097C32.8981 40.8584 32.9069 40.8983 32.9245 40.9337C32.9552 40.998 33.008 41.0312 33.0849 41.0312H37.4901C37.6682 41.0312 37.7583 40.9492 37.7583 40.7831V39.6205H38.9827V40.5373C38.9959 40.6968 39.0266 40.8075 39.075 40.8673C39.1387 40.947 39.2597 40.9869 39.4377 40.9869H39.8663V42.2204H39.4377C38.9893 42.2204 38.6617 42.1362 38.4529 41.9657C38.2595 42.0964 37.9891 42.1805 37.644 42.2204C37.3934 42.247 36.9472 42.2625 36.3053 42.2625H34.1906C33.4894 42.2625 33.041 42.2447 32.8431 42.2093C32.4607 42.1451 32.1683 41.9568 31.9661 41.649C31.8386 41.4564 31.7594 41.2349 31.7265 40.9869C31.7155 40.8961 31.7111 40.8031 31.7111 40.7056C31.7111 40.5971 31.7177 40.4864 31.7287 40.3712C31.7462 40.2162 31.7924 39.9948 31.8671 39.7069C31.8891 39.6139 31.9155 39.5208 31.9419 39.4256C31.9507 39.3924 31.9595 39.3636 31.9683 39.3348C31.9727 39.3127 31.977 39.2994 31.9792 39.2928L33.1553 39.6294ZM34.6281 39.419L33.8961 38.6749L34.6171 37.9242L35.3623 38.6749L34.6281 39.419ZM36.191 39.4146L35.459 38.6705L36.1822 37.9197L36.9274 38.6705L36.191 39.4146ZM42.5855 40.9116C42.669 40.8407 42.713 40.7167 42.713 40.5395V39.6272H43.9374V40.5395C43.9374 40.7034 43.9594 40.8119 44.0055 40.8695C44.0627 40.9492 44.1792 40.9891 44.3572 40.9891C44.4847 40.9891 44.5793 40.9625 44.6408 40.9094C44.7221 40.8385 44.7639 40.7145 44.7639 40.5373V39.6249H45.9883V40.5373C45.9883 40.6923 46.0169 40.8031 46.074 40.8673C46.1422 40.947 46.2653 40.9869 46.4433 40.9869H46.9203V42.2204H46.4433C45.9312 42.2204 45.575 42.1074 45.3728 41.8793C45.0761 42.1074 44.7375 42.2204 44.3572 42.2204C43.8692 42.2204 43.5263 42.1074 43.3241 41.8793C43.0273 42.1074 42.6954 42.2204 42.3239 42.2204C41.9304 42.2204 41.5875 42.1074 41.2908 41.8793C41.0885 42.1074 40.7324 42.2204 40.2203 42.2204H39.6839V40.9869H40.2203C40.3983 40.9869 40.5214 40.947 40.5896 40.8673C40.6467 40.8031 40.6753 40.6923 40.6753 40.5373V39.6249H41.8997V40.5373C41.8997 40.7145 41.9414 40.8385 42.0272 40.9094C42.0865 40.9625 42.181 40.9891 42.3063 40.9891C42.4294 40.9913 42.524 40.9647 42.5855 40.9116ZM49.9692 40.3137C49.989 40.4332 50 40.5484 50 40.6591C50 41.0002 49.9033 41.3058 49.7098 41.576C49.3999 42.0078 48.8921 42.2226 48.1909 42.2226H46.7313V40.9891H48.1645C48.3887 40.9891 48.547 40.9581 48.6393 40.8983C48.7338 40.8407 48.7822 40.7499 48.7822 40.6237C48.7822 40.5861 48.7778 40.544 48.7668 40.4997C48.7426 40.3712 48.7163 40.2428 48.6921 40.1099C48.6811 40.059 48.6723 40.0058 48.6613 39.9483L48.6459 39.8774L48.6349 39.8065C48.5976 39.6006 48.569 39.4544 48.5492 39.3658L49.7164 39.0093C49.7912 39.3636 49.8747 39.7977 49.9692 40.3137ZM47.6084 44.3087L46.8698 43.5801L47.6084 42.8139L48.347 43.5801L47.6084 44.3087ZM48.4283 45.1923L47.7798 44.539L48.4217 43.8924L49.0702 44.5457L48.4283 45.1923ZM49.2152 44.3242L48.4701 43.5801L49.2262 42.836L49.9582 43.5801L49.2152 44.3242ZM33.1926 24.5726C32.309 25.1684 31.5066 25.7109 30.6845 26.2668C31.6253 27.7262 32.5178 29.1125 33.4938 30.6294C33.0036 30.6538 32.6805 30.6826 32.3573 30.6826C29.9921 30.687 27.6246 30.6759 25.2594 30.687C22.4237 30.7003 20.2387 29.5044 18.6582 27.1459C15.8445 22.9449 13.0221 18.7462 10.2084 14.5452C10.0809 14.3547 9.98857 14.1377 9.87646 13.9317C12.2681 12.758 14.8532 13.5198 16.3699 15.8207C18.1021 18.4472 19.7925 21.1002 21.5225 23.7267C23.0502 26.0453 25.6704 26.6344 28.0467 25.2016C29.4953 24.329 30.9307 23.4344 32.3551 22.522C36.3493 19.9597 38.9431 16.3655 39.9938 11.715C40.517 9.40076 40.8577 7.04226 41.2732 4.70148C41.5414 3.19338 41.7964 1.68527 42.0865 0C34.9468 4.44682 27.9676 8.79176 20.9553 13.1589C21.5247 14.0823 22.0368 14.9106 22.5578 15.7521C27.6664 12.572 32.72 9.42733 37.9473 6.17415C37.7495 7.37665 37.5758 8.36656 37.4264 9.36089C36.7097 14.0712 34.3841 17.7075 30.3262 20.1989C29.1216 20.9386 27.9236 21.6915 26.7212 22.4334C25.4484 23.2196 24.7142 23.0535 23.8811 21.7801C22.1951 19.1979 20.5135 16.6135 18.8319 14.0292C17.6866 12.2686 16.0929 11.148 14.0772 10.6143C10.7799 9.7418 8.10252 11.1392 5.4603 12.9684C9.27416 18.6199 12.9935 24.2936 16.8931 29.8366C18.5615 32.2062 21.0828 33.5416 23.991 33.6124C28.9897 33.7342 33.995 33.6457 39.0948 33.6457C37.0988 30.5763 35.1534 27.5866 33.1926 24.5726Z" fill="#224E82"/>
</svg>
