<svg width="32" height="32" viewBox="0 0 32 32" fill="none" xmlns="http://www.w3.org/2000/svg">
<g clip-path="url(#clip0)">
<path d="M29 5.7998H3C1.89543 5.7998 1 6.69524 1 7.7998V29.7998C1 30.9044 1.89543 31.7998 3 31.7998H29C30.1046 31.7998 31 30.9044 31 29.7998V7.7998C31 6.69524 30.1046 5.7998 29 5.7998Z" stroke="#9D9D9D" stroke-linejoin="round"/>
<path d="M0.799805 13.7998H30.7998" stroke="#9D9D9D" stroke-linejoin="round"/>
<path d="M9 8V1" stroke="#9D9D9D" stroke-linecap="round" stroke-linejoin="round"/>
<path d="M23 8.7998V1.7998" stroke="#9D9D9D" stroke-linecap="round" stroke-linejoin="round"/>
<path d="M15.464 26.0988C15.464 25.2953 15.3945 24.5509 15.2554 23.8657C15.1197 23.177 14.9371 22.5335 14.7075 21.9353C14.4814 21.337 14.2223 20.7735 13.9301 20.2448C13.6414 19.7162 13.3458 19.2083 13.0432 18.7214L14.144 18.017C14.4049 18.4483 14.6397 18.8709 14.8484 19.2848C15.0571 19.6953 15.2432 20.104 15.4067 20.5109C15.5736 20.9179 15.7197 21.3266 15.8449 21.737C15.9736 22.1475 16.0884 22.5666 16.1893 22.9944C16.3145 22.5109 16.4536 22.0205 16.6067 21.5231C16.7632 21.0222 16.9232 20.5475 17.0867 20.0988C17.2536 19.6466 17.4188 19.2362 17.5823 18.8675C17.7458 18.4988 17.8988 18.2031 18.0414 17.9805L19.1371 18.6848C19.0188 18.8762 18.8971 19.097 18.7719 19.3475C18.6501 19.5944 18.5267 19.8622 18.4014 20.1509C18.2762 20.4396 18.1493 20.7457 18.0206 21.0692C17.8954 21.3927 17.7719 21.7248 17.6501 22.0657C17.3684 22.8553 17.1545 23.5875 17.0084 24.2622C16.8623 24.937 16.7858 25.5492 16.7788 26.0988H15.464Z" fill="#E24C6C"/>
</g>
<defs>
<clipPath id="clip0">
<rect width="32" height="32" fill="white"/>
</clipPath>
</defs>
</svg>