<svg width="32" height="32" viewBox="0 0 32 32" fill="none" xmlns="http://www.w3.org/2000/svg">
<path d="M17.4242 16.5573C17.2381 16.7459 17.0164 16.8957 16.7719 16.998C16.5275 17.1002 16.2651 17.1529 16.0002 17.1529C15.7352 17.1529 15.4728 17.1002 15.2284 16.998C14.9839 16.8957 14.7622 16.7459 14.5762 16.5573L7.47749 9.35726C6.73393 8.6421 6.24056 7.70639 6.07053 6.68883C5.9005 5.67126 6.06284 4.62599 6.53349 3.70793V3.70793C6.90685 3.00904 7.43724 2.40629 8.08295 1.94707C8.72867 1.48785 9.47212 1.18469 10.2548 1.06141C11.0375 0.938126 11.8382 0.998096 12.5938 1.2366C13.3494 1.47511 14.0394 1.88564 14.6095 2.43593L16.0002 3.78793L17.3922 2.43593C17.9623 1.88564 18.6523 1.47511 19.4079 1.2366C20.1635 0.998096 20.9641 0.938126 21.7468 1.06141C22.5295 1.18469 23.273 1.48785 23.9187 1.94707C24.5644 2.40629 25.0948 3.00904 25.4682 3.70793V3.70793C25.9399 4.62673 26.1028 5.6732 25.9325 6.6919C25.7622 7.71061 25.2678 8.64721 24.5228 9.3626L17.4242 16.5573Z" stroke="#E24C6C" stroke-linecap="round" stroke-linejoin="round"/>
<path d="M5 31L2.31467 27.8253C1.46364 26.7615 1 25.4397 1 24.0773V17.1813C1 16.6509 1.21071 16.1422 1.58579 15.7671C1.96086 15.3921 2.46957 15.1813 3 15.1813V15.1813C3.53043 15.1813 4.03914 15.3921 4.41421 15.7671C4.78929 16.1422 5 16.6509 5 17.1813V22.1813" stroke="#9D9D9D" stroke-linecap="round" stroke-linejoin="round"/>
<path d="M11 31.0001V27.0001C11.0005 25.8136 10.6493 24.6536 9.99068 23.6667L8.46802 21.3867C8.33754 21.1706 8.1646 20.9832 7.95963 20.8359C7.75466 20.6885 7.52194 20.5843 7.27553 20.5294C7.02912 20.4746 6.77415 20.4703 6.52604 20.5168C6.27793 20.5633 6.04183 20.6597 5.83202 20.8001V20.8001C5.45545 21.0526 5.18364 21.4335 5.06734 21.8717C4.95105 22.3099 4.9982 22.7754 5.20002 23.1814L7.00268 26.1814" stroke="#9D9D9D" stroke-linecap="round" stroke-linejoin="round"/>
<path d="M27 31L29.6853 27.8253C30.5364 26.7615 31 25.4397 31 24.0773V17.1813C31 16.6509 30.7893 16.1422 30.4142 15.7671C30.0391 15.3921 29.5304 15.1813 29 15.1813C28.4696 15.1813 27.9609 15.3921 27.5858 15.7671C27.2107 16.1422 27 16.6509 27 17.1813V22.1813" stroke="#9D9D9D" stroke-linecap="round" stroke-linejoin="round"/>
<path d="M21 31V27C20.9995 25.8135 21.3507 24.6535 22.0093 23.6667L23.532 21.384C23.6619 21.1673 23.8345 20.9793 24.0392 20.8313C24.2439 20.6833 24.4765 20.5784 24.723 20.5229C24.9694 20.4674 25.2246 20.4626 25.4729 20.5086C25.7213 20.5546 25.9578 20.6506 26.168 20.7907V20.7907C26.5467 21.043 26.8201 21.4249 26.937 21.8646C27.0539 22.3044 27.0061 22.7717 26.8027 23.1787L25 26.1787" stroke="#9D9D9D" stroke-linecap="round" stroke-linejoin="round"/>
</svg>