<svg width="32" height="32" viewBox="0 0 32 32" fill="none" xmlns="http://www.w3.org/2000/svg">
<path d="M10 13.6665C13.0376 13.6665 15.5 11.2041 15.5 8.1665C15.5 5.12894 13.0376 2.6665 10 2.6665C6.96243 2.6665 4.5 5.12894 4.5 8.1665C4.5 11.2041 6.96243 13.6665 10 13.6665Z" stroke="#E24C6C" stroke-linecap="round" stroke-linejoin="round"/>
<path d="M1 24.6665C1 22.2796 1.94821 19.9904 3.63604 18.3025C5.32387 16.6147 7.61305 15.6665 10 15.6665C12.3869 15.6665 14.6761 16.6147 16.364 18.3025C18.0518 19.9904 19 22.2796 19 24.6665" stroke="#E24C6C" stroke-linecap="round" stroke-linejoin="round"/>
<path d="M20.0063 5.97936C20.6573 5.58691 21.4104 5.36483 22.1862 5.33658C22.9619 5.30832 23.7315 5.47493 24.4137 5.81882C25.0958 6.16271 25.6653 6.67111 26.0618 7.29035C26.4584 7.90958 26.6673 8.61668 26.6667 9.33697C26.666 10.0573 26.4557 10.764 26.058 11.3826C25.6603 12.0012 25.0899 12.5087 24.4071 12.8515C23.7243 13.1943 22.9544 13.3596 22.1787 13.3301C21.403 13.3006 20.6503 13.0773 20 12.6838" stroke="#9D9D9D" stroke-linecap="round" stroke-linejoin="round"/>
<path d="M21.3335 16.1649C22.2921 15.9437 23.2873 15.945 24.2453 16.1687C25.2033 16.3924 26.0997 16.8328 26.868 17.4571C27.6363 18.0815 28.2568 18.874 28.6836 19.7758C29.1103 20.6775 29.3325 21.6656 29.3335 22.6667" stroke="#9D9D9D" stroke-linecap="round" stroke-linejoin="round"/>
</svg>