<?xml version="1.0" encoding="utf-8"?>
<!-- Generator: Adobe Illustrator 25.2.1, SVG Export Plug-In . SVG Version: 6.00 Build 0)  -->
<svg version="1.1" id="Layer_1" xmlns="http://www.w3.org/2000/svg" xmlns:xlink="http://www.w3.org/1999/xlink" x="0px" y="0px"
	 viewBox="0 0 115 204" style="enable-background:new 0 0 115 204;" xml:space="preserve">
<style type="text/css">
	.st0{fill:#FFFFFF;}
	.st1{fill:#FFFFFF;stroke:#000000;stroke-width:0.75;stroke-miterlimit:10;}
	.st2{fill:#F2F2F2;}
	.st3{fill:#2E3192;}
	.st4{enable-background:new    ;}
	.st5{fill:none;stroke:#F7931E;stroke-miterlimit:10;}
</style>
<g>
	<g>
		<g>
			<g>
				<path class="st0" d="M97.7,201.4H17.5c-8.3,0-15-6.7-15-15V57.5c0-30.4,24.7-55.1,55.1-55.1l0,0c30.4,0,55.1,24.6,55.1,55.1
					v128.9C112.7,194.7,105.9,201.4,97.7,201.4z"/>
				<g>
					<path d="M97.7,198.9c-14.5,0-29,0-43.5,0c-9.1,0-18.3,0-27.4,0c-6.4,0-13.7,1.1-18.5-4.1c-3.8-4.2-3.2-9.5-3.2-14.7
						c0-7.1,0-14.2,0-21.4c0-20.2,0-40.5,0-60.7c0-13.2,0-26.5,0-39.8C5.1,31.5,25,8,52.1,5.2c30.4-3.1,57.6,21,58.1,51.6
						c0.2,10.9,0,21.8,0,32.7c0,20.3,0,40.7,0,61c0,11.9,0.4,23.9,0,35.8C109.9,193.4,104.8,198.6,97.7,198.9c-3.2,0.1-3.2,5.1,0,5
						c10.4-0.5,17.4-8.3,17.5-18.5c0.1-5.4,0-10.8,0-16.2c0-21,0-42,0-63c0-15.7,0-31.3,0-47c0-24.6-14.2-46.9-37.6-55.7
						C49.8-6.8,17.7,6.5,5.4,33.3C-1.2,47.5,0,62.8,0,78c0,35.9-0.5,71.8,0,107.7c0.2,10.1,7.4,17.9,17.6,18.2c5.7,0.2,11.3,0,17,0
						c19.6,0,39.2,0,58.8,0c1.4,0,2.9,0,4.3,0C100.9,203.9,100.9,198.9,97.7,198.9z"/>
				</g>
			</g>
		</g>
		<circle class="st1" cx="57.6" cy="56.8" r="47"/>
		<circle class="st2" cx="57.6" cy="56.8" r="42.6"/>
		<g>
			<g>
				<g>
					<path d="M56.8,20.1c0,4.3,0,8.7,0,13c0,1.6,2.5,1.6,2.5,0c0-4.3,0-8.7,0-13C59.3,18.5,56.8,18.5,56.8,20.1L56.8,20.1z"/>
				</g>
			</g>
			<g>
				<g>
					<path class="st3" d="M83.1,29.1c-2.8,3-5.5,5.9-8.3,8.9c-1.1,1.2,0.7,3,1.8,1.8c2.8-3,5.5-5.9,8.3-8.9
						C86,29.7,84.2,27.9,83.1,29.1L83.1,29.1z"/>
				</g>
			</g>
			<g>
				<g>
					<path d="M95.4,53.9c-4.3,0-8.7,0-13,0c-1.6,0-1.6,2.5,0,2.5c4.3,0,8.7,0,13,0C97,56.4,97,53.9,95.4,53.9L95.4,53.9z"/>
				</g>
			</g>
			<g>
				<g>
					<path d="M86.4,79.4c-3.1-3.1-6.1-6.1-9.2-9.2c-1.1-1.1-2.9,0.6-1.8,1.8c3.1,3.1,6.1,6.1,9.2,9.2C85.7,82.3,87.5,80.6,86.4,79.4
						L86.4,79.4z"/>
				</g>
			</g>
			<g>
				<g>
					<path d="M31.2,30.9c3.1,3.1,6.1,6.1,9.2,9.2c1.1,1.1,2.9-0.6,1.8-1.8c-3.1-3.1-6.1-6.1-9.2-9.2C31.8,28,30,29.8,31.2,30.9
						L31.2,30.9z"/>
				</g>
			</g>
			<g>
				<g>
					<path d="M18.8,56.4c4.3,0,8.7,0,13,0c1.6,0,1.6-2.5,0-2.5c-4.3,0-8.7,0-13,0C17.2,53.9,17.2,56.4,18.8,56.4L18.8,56.4z"/>
				</g>
			</g>
			<g>
				<g>
					<path d="M29.4,81.2c3.1-3.1,6.1-6.1,9.2-9.2c1.1-1.1-0.6-2.9-1.8-1.8c-3.1,3.1-6.1,6.1-9.2,9.2C26.5,80.6,28.2,82.3,29.4,81.2
						L29.4,81.2z"/>
				</g>
			</g>
			<g>
				<g>
					<path d="M58.2,93.5c0-4.3,0-8.7,0-13c0-1.6-2.5-1.6-2.5,0c0,4.3,0,8.7,0,13C55.7,95.1,58.2,95.1,58.2,93.5L58.2,93.5z"/>
				</g>
			</g>
		</g>
		<g class="st4">
			<path class="st3" d="M54.3,117.5c-6.6,7.8-11,14.6-13.3,20.6c-2.3,6-3.4,12.6-3.4,20v5.7h-7v-5.7c0-7.8,1.4-14.9,4.3-21.2
				s7.1-12.8,12.5-19.5H20V112h34.4V117.5z"/>
			<path class="st3" d="M95.1,163.8H62.9V159l16.3-19.4c2.9-3.5,4.9-6.3,5.9-8.4s1.6-4.2,1.6-6.3c0-2.4-0.7-4.4-2.1-5.9
				s-3.3-2.3-5.8-2.3c-3.1,0-5.4,0.9-7,2.8c-1.6,1.9-2.4,4.2-2.4,7h-6.8l-0.1-0.2c-0.1-4.2,1.3-7.8,4.2-10.7c2.9-2.9,6.9-4.4,12-4.4
				c4.6,0,8.3,1.3,10.9,3.8s4,5.9,4,9.9c0,2.7-0.8,5.4-2.3,8s-3.8,5.9-6.9,9.8l-13.1,15.3l0.1,0.2h23.6L95.1,163.8L95.1,163.8z"/>
		</g>
		<g class="st4">
			<path d="M30.6,189.1h-0.5v-6.8H21v6.8h-0.5v-14.2H21v6.9h9.1v-6.9h0.5C30.6,174.9,30.6,189.1,30.6,189.1z"/>
			<path d="M39.4,183.6c0-1.6,0.4-2.8,1.3-3.8s2-1.5,3.3-1.5c1.4,0,2.5,0.5,3.3,1.5s1.3,2.2,1.3,3.8v0.4c0,1.6-0.4,2.8-1.3,3.8
				s-2,1.5-3.3,1.5s-2.5-0.5-3.3-1.5s-1.3-2.2-1.3-3.8L39.4,183.6L39.4,183.6z M39.9,184c0,1.3,0.4,2.4,1.1,3.4s1.7,1.4,3,1.4
				c1.2,0,2.2-0.5,3-1.4s1.1-2.1,1.1-3.4v-0.4c0-1.3-0.4-2.4-1.1-3.3s-1.7-1.4-3-1.4c-1.2,0-2.2,0.5-3,1.4s-1.1,2.1-1.1,3.3
				C39.9,183.6,39.9,184,39.9,184z"/>
			<path d="M64.3,187.3c-0.3,0.6-0.8,1.2-1.4,1.5c-0.6,0.4-1.3,0.5-2.2,0.5c-1.1,0-1.9-0.4-2.6-1.2s-0.9-2-0.9-3.6v-6h0.5v6
				c0,1.4,0.3,2.5,0.8,3.2s1.2,1,2.1,1c1.1,0,1.9-0.3,2.5-0.8c0.6-0.5,1-1.2,1.2-2.1v-7.4h0.5v6.2h0c0,0.1,0,0.2,0,0.2
				c0,0.1,0,0.2,0,0.3v3.8h-0.4L64.3,187.3z"/>
			<path d="M78.8,178.9l-0.7-0.1c-0.9,0-1.7,0.3-2.3,0.9c-0.6,0.6-1,1.4-1.2,2.4v6.9h-0.5v-10.6h0.4l0.1,1.8v0.4
				c0.3-0.8,0.7-1.3,1.3-1.8c0.6-0.4,1.3-0.6,2.1-0.6c0.2,0,0.3,0,0.4,0s0.2,0.1,0.3,0.1L78.8,178.9z"/>
			<path d="M93.3,186.5c0-0.6-0.2-1.1-0.7-1.5s-1.3-0.8-2.5-1.1c-1.3-0.3-2.2-0.6-2.7-1c-0.6-0.4-0.8-1-0.8-1.9c0-0.8,0.3-1.4,1-1.9
				s1.5-0.8,2.6-0.8c1.2,0,2.1,0.3,2.8,0.8s1,1.3,1,2.1l0,0.1h-0.4c0-0.7-0.3-1.3-0.9-1.8c-0.6-0.5-1.4-0.7-2.4-0.7
				c-1,0-1.7,0.2-2.2,0.6S87,180.4,87,181c0,0.6,0.2,1,0.6,1.4s1.3,0.7,2.6,1c1.2,0.3,2.1,0.6,2.7,1.1s0.9,1.1,0.9,2
				c0,0.8-0.3,1.5-1,2s-1.6,0.8-2.7,0.8c-1.2,0-2.2-0.3-2.9-0.8c-0.7-0.6-1-1.2-1-2l0-0.1h0.4c0.1,0.8,0.4,1.4,1.1,1.8
				s1.4,0.6,2.3,0.6c1,0,1.8-0.2,2.3-0.7C93,187.7,93.3,187.1,93.3,186.5z"/>
		</g>
	</g>
	<g class="st4">
		<path class="st5" d="M63.4,60.8c0-1.2-0.4-2.2-1.1-2.9c-0.7-0.7-2.1-1.4-4.1-2.1c-2-0.7-3.5-1.4-4.4-2.2c-0.9-0.8-1.3-2-1.3-3.5
			c0-1.5,0.5-2.7,1.5-3.6s2.3-1.4,3.9-1.5v-2.6h0.8v2.6c1.7,0.1,3,0.7,3.9,1.7c0.9,1,1.4,2.5,1.4,4.3l0,0.1h-0.7
			c0-1.5-0.4-2.8-1.3-3.8s-2.1-1.5-3.7-1.5c-1.6,0-2.9,0.4-3.7,1.3c-0.9,0.9-1.3,1.9-1.3,3.1c0,1.2,0.3,2.2,1,2.9s2.1,1.4,4.2,2.1
			c2,0.7,3.4,1.4,4.3,2.2c0.9,0.8,1.4,2,1.4,3.5c0,1.5-0.5,2.7-1.5,3.6c-1,0.9-2.3,1.4-3.9,1.5v2.6H58v-2.6
			c-1.8-0.1-3.2-0.6-4.4-1.5c-1.2-0.9-1.8-2.4-1.7-4.4l0-0.1h0.7c0,1.9,0.6,3.2,1.7,4c1.1,0.8,2.5,1.2,4.1,1.2
			c1.5,0,2.8-0.4,3.7-1.3C62.9,63,63.4,62,63.4,60.8z"/>
	</g>
</g>
</svg>
