<svg width="193" height="196" viewBox="0 0 193 196" fill="none" xmlns="http://www.w3.org/2000/svg">
<path d="M147.078 153.391C120.013 136.88 86.8239 174.688 57.5185 166.552C23.2467 157.03 -9.7978 83.5181 24.8372 40.0774C58.835 -2.56802 135.794 11.6998 151.302 41.0236C161.899 61.0525 144.707 89.7491 163.3 109.274C171.832 118.238 179.785 116.729 184.504 126.822C192.513 143.878 180.836 171.661 169.491 173.354C161.252 174.583 159.662 161.068 147.078 153.391Z" fill="#E2E8ED"/>
<path d="M33.0168 128.055C53.4268 103.795 21.0668 65.275 33.5368 37.535C48.1268 5.095 125.787 -16.465 163.497 24.335C200.517 64.385 174.787 138.305 143.457 149.205C122.057 156.655 96.2868 135.325 74.1768 150.755C64.0268 157.835 64.3168 165.925 53.6268 169.065C35.5568 174.405 9.85678 158.665 9.89678 147.195C9.92678 138.865 23.5268 139.335 33.0168 128.055Z" fill="white"/>
<path d="M74.6599 105.01C74.3899 105.01 74.1599 105.23 74.1599 105.51V107.51C74.1599 107.78 74.3799 108.01 74.6599 108.01C74.9399 108.01 75.1599 107.79 75.1599 107.51V105.51C75.1499 105.23 74.9299 105.01 74.6599 105.01Z" fill="#224E82"/>
<path d="M113.66 86.0001C113.93 86.0001 114.16 85.7801 114.16 85.5001V83.5001C114.16 83.2301 113.94 83.0001 113.66 83.0001C113.38 83.0001 113.16 83.2201 113.16 83.5001V85.5001C113.16 85.7801 113.38 86.0001 113.66 86.0001Z" fill="#224E82"/>
<path d="M102.93 88.4401C102.88 88.1701 102.62 87.9801 102.36 88.0301L96.5001 88.9801C96.4701 88.9401 96.43 88.9101 96.39 88.8801L93.14 87.1001C93.04 86.5801 92.5301 86.2201 92.0001 86.3101C91.7301 86.3501 91.49 86.5001 91.34 86.7101C91.19 86.9201 91.13 87.1801 91.17 87.4301L88.6301 90.2201C88.6201 90.2301 88.62 90.2401 88.61 90.2501L83.27 91.1101C83.14 91.1301 83.0201 91.2001 82.9401 91.3101C82.8601 91.4201 82.83 91.5501 82.86 91.6801L83.73 96.6601C83.77 96.9001 83.98 97.0701 84.22 97.0701C84.25 97.0701 84.27 97.0701 84.3 97.0601L99.34 94.6401C99.5 94.2401 99.71 93.8701 99.96 93.5301L84.6301 96.0001L83.93 92.0101L102.03 89.1001L102.53 91.9701C102.82 91.9101 103.13 91.8701 103.45 91.8701C103.48 91.8701 103.5 91.8801 103.53 91.8801L102.93 88.4401ZM90.1901 89.9901L91.83 88.2001C91.93 88.2301 92.04 88.2501 92.16 88.2501C92.21 88.2501 92.27 88.2501 92.32 88.2401C92.49 88.2101 92.63 88.1401 92.77 88.0401L94.9401 89.2301L90.1901 89.9901Z" fill="#A9C0D8"/>
<path d="M97.1599 110.01V111H75.6599C75.3799 111 75.1599 110.78 75.1599 110.51C75.1599 110.23 75.3799 110.01 75.6599 110.01H97.1599Z" fill="#224E82"/>
<path d="M133.79 72.9001L132.16 57.4001V54.9701C132.16 54.0901 131.76 53.3101 131.14 52.7701C130.33 41.7201 118.62 32.0301 101.22 28.0501L101 28.0001L100.78 28.0501C83.3 32.0501 71.57 41.8201 70.87 52.9401L70.86 53.0901C70.43 53.6101 70.16 54.2501 70.16 54.9701V56.4501L68.05 72.6601C68.04 72.7001 68.04 72.7501 68.03 72.8001V72.9601C68.01 73.3401 68 73.7401 68 74.1901C68 76.0301 68.72 77.3601 70.16 78.1401V113.01H69.16C68.61 113.01 68.16 113.45 68.16 114.01V117.01C68.16 117.56 68.6 118.01 69.16 118.01H97.4C97.82 118.01 98.16 117.66 98.16 117.24V116.77C98.16 116.35 97.82 116.01 97.4 116.01H70.16V115.01H95.4C95.82 115.01 96.16 114.66 96.16 114.24V113.77C96.16 113.35 95.82 113.01 95.4 113.01H72.16V77.9701C72.27 77.9801 72.38 78.0101 72.5 78.0101H73.06C73.44 78.0101 73.81 77.9301 74.16 77.8201V102.51C74.16 102.78 74.38 103 74.66 103C74.93 103 75.15 102.78 75.15 102.51V77.5101C75.15 77.4601 75.14 77.4201 75.13 77.3801C75.77 76.9801 76.3 76.4001 76.66 75.7301C77.33 77.0801 78.61 78.0101 80.09 78.0101H80.54C81.96 78.0101 83.12 77.1501 83.72 75.8501C84.4 77.1301 85.65 78.0101 87.09 78.0101H87.54C88.96 78.0101 90.12 77.1501 90.72 75.8501C91.4 77.1301 92.65 78.0101 94.09 78.0101H94.54C95.96 78.0101 97.12 77.1501 97.72 75.8501C98.4 77.1301 99.65 78.0101 101.09 78.0101H101.54C102.96 78.0101 104.12 77.1501 104.72 75.8501C105.4 77.1301 106.65 78.0101 108.09 78.0101H108.54C109.13 78.0101 109.67 77.8401 110.16 77.5601V89.3301H111.15V76.7301C111.39 76.4401 111.59 76.1001 111.75 75.7301C112.1 76.4201 112.6 76.9801 113.18 77.3801C113.17 77.4201 113.16 77.4601 113.16 77.5101V81.5101C113.16 81.7801 113.38 82.0001 113.66 82.0001C113.93 82.0001 114.15 81.7801 114.15 81.5101V77.8501C114.46 77.9401 114.77 78.0101 115.1 78.0101H115.55C116.92 78.0101 118.06 77.1101 118.67 75.7501C119.34 77.0901 120.62 78.0101 122.09 78.0101H122.54C123.96 78.0101 125.12 77.1501 125.72 75.8501C125.85 76.0901 125.99 76.3101 126.16 76.5201V78.8301H127.15V77.4101C127.73 77.7801 128.38 78.0101 129.09 78.0101H129.16L131.16 78.8301C132.76 77.9401 133.79 76.1401 133.79 74.2301C133.79 73.8701 133.79 73.5501 133.78 73.1801C133.79 73.0901 133.8 72.9901 133.79 72.9001ZM101 30.0501C116.9 33.7501 127.74 42.2801 129.05 52.0101H72.97C74.28 42.2701 85.11 33.7501 101 30.0501ZM73.06 77.0101H72.5C72.32 77.0101 72.15 76.9801 71.98 76.9501C71.87 76.7801 71.71 76.6501 71.52 76.5701C70.43 76.1501 70 75.4801 70 74.1901V74.0101H76.14C76.03 75.7301 74.47 77.0101 73.06 77.0101ZM76.16 73.0101H70.03L70.86 66.6301L72.19 59.0001H76.16V73.0101ZM80.54 77.0001H80.09C78.58 77.0001 77.35 75.6901 77.19 74.0101H83.14C83.07 75.7201 81.98 77.0001 80.54 77.0001ZM77.17 73.0101C77.17 72.8501 77.17 72.6701 77.18 72.5301C77.18 72.4701 77.17 72.4201 77.16 72.3701V59.0001H83.15V72.7701C83.16 72.8501 83.16 72.9301 83.16 73.0101H77.17ZM87.54 77.0001H87.09C85.58 77.0001 84.35 75.6901 84.19 74.0101H90.14C90.07 75.7201 88.98 77.0001 87.54 77.0001ZM84.17 73.0101C84.17 72.8501 84.17 72.6701 84.18 72.5301C84.18 72.4701 84.17 72.4201 84.16 72.3701V59.0001H90.15V72.7701C90.16 72.8501 90.16 72.9301 90.16 73.0101H84.17ZM94.54 77.0001H94.09C92.58 77.0001 91.35 75.6901 91.19 74.0101H97.14C97.07 75.7201 95.98 77.0001 94.54 77.0001ZM91.17 73.0101C91.17 72.8501 91.17 72.6701 91.18 72.5301C91.18 72.4701 91.17 72.4201 91.16 72.3701V59.0001H97.15V72.7701C97.16 72.8501 97.16 72.9301 97.16 73.0101H91.17ZM101.54 77.0001H101.09C99.58 77.0001 98.35 75.6901 98.19 74.0101H104.14C104.07 75.7201 102.98 77.0001 101.54 77.0001ZM98.17 73.0101C98.17 72.8501 98.17 72.6701 98.18 72.5301C98.18 72.4701 98.17 72.4201 98.16 72.3701V59.0001H104.15V72.7701C104.16 72.8501 104.16 72.9301 104.16 73.0101H98.17ZM110.41 76.0801C110.33 76.1301 110.27 76.1901 110.23 76.2701C109.78 76.7201 109.2 77.0001 108.54 77.0001H108.09C106.58 77.0001 105.35 75.6901 105.19 74.0101H111.14C111.1 74.8301 110.84 75.5601 110.41 76.0801ZM105.17 73.0101C105.17 72.8501 105.17 72.6701 105.18 72.5301C105.18 72.4701 105.17 72.4201 105.16 72.3701V59.0001H111.15V72.7701C111.16 72.8501 111.16 72.9301 111.16 73.0101H105.17ZM115.55 77.0101H115.1C113.68 77.0101 112.49 75.7201 112.22 74.0101H118.12C117.91 75.7301 116.86 77.0101 115.55 77.0101ZM112.16 73.0101V72.5201C112.17 72.4801 112.16 72.4501 112.16 72.4201V59.0101H118.15V72.7601C118.16 72.8501 118.16 72.9301 118.16 73.0101H112.16ZM122.54 77.0001H122.09C120.58 77.0001 119.35 75.6901 119.19 74.0101H125.14C125.07 75.7201 123.98 77.0001 122.54 77.0001ZM119.17 73.0101C119.17 72.8501 119.17 72.6701 119.18 72.5301C119.18 72.4701 119.17 72.4201 119.16 72.3701V59.0001H125.15V72.7701C125.16 72.8501 125.16 72.9301 125.16 73.0101H119.17ZM71.97 58.0101L72.15 56.6501C72.15 56.6001 72.16 56.5601 72.16 56.5201V54.9701C72.16 54.4401 72.62 54.0101 73.18 54.0101H129.13C129.69 54.0101 130.16 54.4401 130.16 54.9701V57.5601L130.21 58.0101H71.97ZM126.16 72.3701V59.0001H130.08L130.8 63.6501L131.78 72.9101C131.77 72.9401 131.77 72.9701 131.77 73.0101H126.17C126.17 72.8501 126.17 72.6701 126.18 72.5301C126.18 72.4701 126.17 72.4201 126.16 72.3701ZM131.79 74.2301C131.79 75.1601 131.4 76.0301 130.76 76.6301C130.38 76.8601 129.95 77.0001 129.49 77.0001H129.09C127.58 77.0001 126.35 75.6901 126.19 74.0101H131.79V74.2301Z" fill="#224E82"/>
<path d="M131.78 72.9101C131.77 72.9401 131.77 72.9701 131.77 73.0101H126.17C126.17 72.8501 126.17 72.6701 126.18 72.5301C126.18 72.4701 126.17 72.4201 126.16 72.3701V59.0001H130.08L130.8 63.6501L131.78 72.9101Z" fill="#A9C0D8"/>
<path d="M131.79 74.0101V74.2301C131.79 75.1601 131.4 76.0301 130.76 76.6301C130.38 76.8601 129.95 77.0001 129.49 77.0001H129.09C127.58 77.0001 126.35 75.6901 126.19 74.0101H131.79Z" fill="#A9C0D8"/>
<path d="M118.12 74.0101C117.91 75.7301 116.86 77.0101 115.55 77.0101H115.1C113.68 77.0101 112.49 75.7201 112.22 74.0101H118.12Z" fill="#A9C0D8"/>
<path d="M118.16 73.0101H112.16V72.5201C112.17 72.4801 112.16 72.4501 112.16 72.4201V59.0101H118.15V72.7601C118.16 72.8501 118.16 72.9301 118.16 73.0101Z" fill="#A9C0D8"/>
<path d="M104.14 74.0101C104.07 75.7201 102.98 77.0001 101.54 77.0001H101.09C99.5799 77.0001 98.3499 75.6901 98.1899 74.0101H104.14Z" fill="#A9C0D8"/>
<path d="M98.1699 73.0101C98.1699 72.8501 98.1699 72.6701 98.1799 72.5301C98.1799 72.4701 98.1699 72.4201 98.1599 72.3701V59.0001H104.15V72.7701C104.16 72.8501 104.16 72.9301 104.16 73.0101H98.1699Z" fill="#A9C0D8"/>
<path d="M90.1399 74.0101C90.0699 75.7201 88.9799 77.0001 87.5399 77.0001H87.0899C85.5799 77.0001 84.3499 75.6901 84.1899 74.0101H90.1399Z" fill="#A9C0D8"/>
<path d="M84.1699 73.0101C84.1699 72.8501 84.1699 72.6701 84.1799 72.5301C84.1799 72.4701 84.1699 72.4201 84.1599 72.3701V59.0001H90.1499V72.7701C90.1599 72.8501 90.1599 72.9301 90.1599 73.0101H84.1699Z" fill="#A9C0D8"/>
<path d="M76.14 74.0101C76.03 75.7301 74.47 77.0101 73.06 77.0101H72.5C72.32 77.0101 72.15 76.9801 71.98 76.9501C71.87 76.7801 71.71 76.6501 71.52 76.5701C70.43 76.1501 70 75.4801 70 74.1901V74.0101H76.14Z" fill="#A9C0D8"/>
<path d="M76.16 59.0001V73.0101H70.03L70.86 66.6301L72.1901 59.0001H76.16Z" fill="#A9C0D8"/>
<path d="M104.76 39.1202C104.68 39.0002 104.51 38.9902 104.41 39.0902L103.98 39.5002C103.9 39.5802 103.88 39.7002 103.95 39.8002C104.33 40.3702 104.56 41.0402 104.59 41.7702C104.66 43.8802 102.96 45.6502 100.79 45.7302C98.62 45.8002 96.8 44.1502 96.72 42.0402C96.65 40.0602 98.1599 38.3702 100.14 38.1102C99.7999 38.5102 99.4099 38.9202 98.9499 39.3202C98.8499 39.4102 98.84 39.5502 98.92 39.6602L99.1399 39.9202C99.2299 40.0202 99.38 40.0402 99.49 39.9502C100.1 39.4202 100.61 38.8702 101.03 38.3402C101.24 38.8602 101.39 39.4202 101.48 40.0002C101.5 40.1202 101.61 40.2102 101.74 40.1902L102.09 40.1502C102.22 40.1402 102.31 40.0202 102.29 39.8902C102.2 39.2902 102.06 38.7502 101.88 38.2702C102.16 38.3602 102.44 38.4702 102.69 38.6202C102.79 38.6802 102.91 38.6502 102.98 38.5702L103.38 38.1202C103.48 38.0102 103.45 37.8402 103.33 37.7702C102.88 37.4902 102.38 37.2802 101.85 37.1602C102.32 36.3702 102.58 35.7102 102.7 35.3702C102.74 35.2402 102.67 35.1002 102.54 35.0602L102.21 34.9702C102.08 34.9402 101.96 35.0002 101.92 35.1202C101.81 35.4202 101.57 36.0202 101.14 36.7402C100.62 35.9502 100.08 35.4502 99.8 35.2102C99.69 35.1202 99.5399 35.1502 99.4599 35.2602L99.2599 35.5602C99.1999 35.6602 99.21 35.7902 99.3 35.8702C99.49 36.0302 99.8399 36.3502 100.2 36.8302C100.25 36.9002 100.29 36.9702 100.33 37.0302C97.6799 37.2102 95.61 39.4302 95.69 42.0602C95.78 44.7502 98.09 46.8602 100.84 46.7702C103.59 46.6702 105.75 44.4102 105.66 41.7202C105.6 40.7502 105.28 39.8602 104.76 39.1202Z" fill="#224E82"/>
<path d="M152.98 79.8202H122.98C120.22 79.8202 117.98 82.0602 117.98 84.8202V88.2502L108.7 93.8202H102.98C101.32 93.8202 99.98 95.1702 99.98 96.8202V114.82C99.98 116.47 101.32 117.82 102.98 117.82H108.98C110.04 117.82 110.98 117.25 111.51 116.41C112.41 117.28 113.63 117.82 114.98 117.82H144.98C147.18 117.82 148.98 116.03 148.98 113.82C148.98 112.99 148.72 112.22 148.29 111.58C149.85 111.03 150.98 109.56 150.98 107.82H152.98C155.73 107.82 157.98 105.58 157.98 102.82V84.8202C157.98 82.0602 155.73 79.8202 152.98 79.8202ZM109.98 114.82C109.98 115.37 109.53 115.82 108.98 115.82H106.98V111.82H104.98V115.82H102.98C102.42 115.82 101.98 115.37 101.98 114.82V96.8202C101.98 96.2702 102.42 95.8202 102.98 95.8202H108.98C109.53 95.8202 109.98 96.2702 109.98 96.8202V114.82ZM146.98 109.82H140.98V111.82H144.98C146.08 111.82 146.98 112.72 146.98 113.82C146.98 114.92 146.08 115.82 144.98 115.82H114.98C113.32 115.82 111.98 114.47 111.98 112.82V96.8202C111.98 96.0002 111.64 95.2502 111.1 94.7102L117.98 90.5902V94.8202H115.98V96.8202H135.98C135.98 99.0302 134.18 100.82 131.98 100.82H124.98V102.82C124.98 105.58 122.73 107.82 119.98 107.82H117.98V109.82H119.98C121.88 109.82 123.6 109.06 124.86 107.82H148.98C148.98 108.92 148.08 109.82 146.98 109.82ZM155.98 102.82C155.98 104.47 154.63 105.82 152.98 105.82H126.29C126.73 104.91 126.98 103.89 126.98 102.82H131.98C135.28 102.82 137.98 100.13 137.98 96.8202V94.8202H119.98V84.8202C119.98 83.1702 121.32 81.8202 122.98 81.8202H152.98C154.63 81.8202 155.98 83.1702 155.98 84.8202V102.82Z" fill="#AA850E"/>
<path d="M155.98 85.8202H119.98V91.8202H155.98V85.8202Z" fill="#E0D5B8"/>
<path d="M153.98 101.82H145.98V103.82H153.98V101.82Z" fill="#224E82"/>
<path d="M153.98 97.8202H145.98V99.8202H153.98V97.8202Z" fill="#224E82"/>
<path d="M145.9 69.2402C144.92 70.4202 144.06 71.9902 143.31 73.9502C142.62 75.7602 142.28 77.1802 142.28 78.2102H140C140 77.1802 139.66 75.7602 138.97 73.9502C138.22 71.9802 137.36 70.4102 136.39 69.2402L138.14 67.7902C138.81 68.5902 139.42 69.5202 139.98 70.5702C140.66 71.8702 141.05 73.0102 141.15 73.9902C141.25 73.0002 141.64 71.8602 142.33 70.5702C142.89 69.5102 143.49 68.5802 144.16 67.7902L145.9 69.2402Z" fill="#224E82"/>
<path d="M153.64 67.9801C153.65 68.0101 153.66 68.0301 153.66 68.0501C153.68 68.1201 153.7 68.2001 153.72 68.2601C153.78 68.4701 153.84 68.6801 153.89 68.8901C154.04 69.5301 154.11 70.0601 154.11 70.4801C154.11 71.4501 153.84 72.2201 153.29 72.8101C152.73 73.4201 152.02 73.7201 151.13 73.7201C150.67 73.7201 150.23 73.6301 149.82 73.4501C149.88 74.1401 149.91 74.8801 149.93 75.6601C149.93 75.9601 149.94 76.2801 149.94 76.6401C149.94 76.7701 149.94 76.9301 149.93 77.1001V78.2101H147.65C147.65 78.1401 147.65 78.0301 147.66 77.8701V77.1301C147.66 76.9801 147.67 76.8501 147.67 76.7301C147.67 76.4201 147.67 76.1301 147.66 75.8701C147.65 75.1901 147.62 74.5501 147.58 73.9501C147.47 72.3701 147.23 70.8901 146.87 69.5301V69.5201C146.79 69.2101 146.7 68.9201 146.61 68.6601L148.78 67.9701C148.87 68.2501 148.96 68.5701 149.06 68.9301C149.06 68.9501 149.07 68.9701 149.08 69.0001C149.09 69.0401 149.1 69.0701 149.11 69.1101C149.15 69.2201 149.19 69.3301 149.24 69.4401C149.37 69.7701 149.52 70.0701 149.69 70.3401C150.15 71.0801 150.63 71.4401 151.13 71.4401C151.35 71.4401 151.51 71.3801 151.62 71.2701C151.76 71.1201 151.83 70.8501 151.83 70.4801C151.83 70.2601 151.79 69.9501 151.7 69.5401C151.63 69.2101 151.54 68.9001 151.46 68.6201L153.62 67.9301L153.64 67.9801Z" fill="#224E82"/>
<path d="M142.74 60.9901L142.17 60.4301L141.62 60.9901L142.18 61.5601L142.74 60.9901Z" fill="#224E82"/>
<path d="M141.39 60.99L140.82 60.42L140.27 60.99L140.83 61.55L141.39 60.99Z" fill="#224E82"/>
<path d="M145.99 64.1102C145.85 64.1002 145.71 64.0802 145.58 64.0502C145.45 64.0202 145.32 63.9802 145.21 63.9302C145.09 63.8802 144.99 63.8202 144.91 63.7502C144.82 63.6802 144.75 63.5902 144.7 63.5002C144.65 63.4002 144.62 63.2902 144.62 63.1602C144.62 63.0502 144.64 62.9502 144.69 62.8602C144.74 62.7702 144.8 62.6902 144.87 62.6302C144.94 62.5702 145.03 62.5202 145.12 62.4902C145.21 62.4602 145.3 62.4402 145.39 62.4402C145.46 62.4402 145.54 62.4502 145.62 62.4802C145.7 62.5102 145.79 62.5402 145.87 62.5802C145.96 62.6202 146.04 62.6702 146.13 62.7202C146.22 62.7702 146.3 62.8202 146.38 62.8702L146.71 62.3002C146.57 62.2202 146.45 62.1402 146.33 62.0802C146.22 62.0102 146.11 61.9602 146 61.9102C145.9 61.8602 145.79 61.8302 145.69 61.8002C145.59 61.7802 145.48 61.7602 145.37 61.7602C145.18 61.7602 145 61.8002 144.83 61.8702C144.66 61.9402 144.51 62.0402 144.38 62.1702C144.25 62.2902 144.15 62.4402 144.07 62.6102C143.99 62.7802 143.95 62.9602 143.95 63.1502C143.95 63.2102 143.96 63.2702 143.96 63.3502C143.97 63.4202 143.99 63.5002 144.02 63.5902C144.05 63.6802 144.09 63.7602 144.14 63.8502C144.19 63.9402 144.26 64.0302 144.35 64.1202H143.3H143.15H142.69C142.67 64.1202 142.64 64.1202 142.61 64.1202C142.58 64.1202 142.53 64.1102 142.48 64.1002C142.43 64.0902 142.38 64.0702 142.33 64.0502C142.28 64.0302 142.23 63.9902 142.19 63.9502C142.15 63.9102 142.12 63.8602 142.09 63.8002C142.06 63.7402 142.05 63.6702 142.05 63.5802V62.4202H141.39V63.6102C141.39 63.6702 141.38 63.7302 141.37 63.7902C141.35 63.8502 141.32 63.9102 141.27 63.9602C141.22 64.0102 141.15 64.0502 141.05 64.0902C140.95 64.1202 140.82 64.1402 140.65 64.1402H139.6H139.51C139.42 64.1402 139.32 64.1302 139.21 64.1102C139.1 64.0902 138.99 64.0602 138.88 64.0002C138.77 63.9402 138.67 63.8602 138.58 63.7502C138.49 63.6402 138.42 63.5002 138.37 63.3302C138.35 63.2802 138.33 63.2102 138.31 63.1302C138.29 63.0502 138.27 62.9602 138.24 62.8702C138.22 62.7802 138.19 62.6802 138.17 62.5802C138.15 62.4802 138.12 62.3902 138.1 62.3002C138.08 62.2102 138.06 62.1402 138.05 62.0702C138.03 62.0002 138.02 61.9602 138.02 61.9302C137.99 61.7802 137.95 61.6202 137.91 61.4402C137.87 61.2602 137.82 61.0502 137.76 60.8202L137.11 60.9602L137.18 61.3402C136.59 61.5102 136.14 61.7602 135.82 62.0902C135.64 62.2802 135.52 62.4702 135.46 62.6502C135.4 62.8402 135.37 63.0002 135.37 63.1502C135.37 63.2402 135.38 63.3302 135.39 63.4202C135.42 63.6202 135.49 63.7902 135.59 63.9402C135.69 64.0902 135.83 64.2002 136 64.2902C136.11 64.3502 136.22 64.3902 136.34 64.4202C136.46 64.4502 136.57 64.4602 136.68 64.4602C136.79 64.4602 136.89 64.4502 136.99 64.4302C137.09 64.4102 137.18 64.3902 137.25 64.3602C137.38 64.3002 137.5 64.2302 137.6 64.1602C137.7 64.0802 137.79 63.9902 137.87 63.8902C138.02 64.1802 138.24 64.4002 138.52 64.5602C138.78 64.7102 139.09 64.7802 139.44 64.7902V64.8002H139.5H139.59H140.64C141.12 64.8002 141.48 64.6802 141.72 64.4302C141.82 64.5502 141.95 64.6402 142.11 64.7002C142.27 64.7602 142.46 64.7902 142.67 64.7902H143.13H143.28H146.81V64.1302H146.37C146.26 64.1302 146.13 64.1202 145.99 64.1102ZM137.54 63.0702C137.49 63.3902 137.32 63.6102 137.02 63.7302C136.98 63.7502 136.93 63.7602 136.88 63.7702C136.83 63.7802 136.78 63.7802 136.73 63.7802H136.69C136.63 63.7802 136.57 63.7702 136.51 63.7602C136.45 63.7502 136.39 63.7302 136.34 63.7002C136.27 63.6602 136.2 63.6102 136.15 63.5402C136.1 63.4702 136.06 63.3902 136.04 63.2902C136.03 63.2402 136.03 63.1902 136.03 63.1502C136.03 63.0602 136.05 62.9702 136.08 62.8802C136.13 62.7502 136.21 62.6302 136.33 62.5102C136.45 62.4002 136.59 62.2902 136.77 62.2002C136.95 62.1102 137.15 62.0302 137.39 61.9602L137.53 62.5602C137.54 62.5902 137.54 62.6402 137.55 62.7002C137.56 62.7602 137.56 62.8102 137.56 62.8502C137.55 62.9202 137.55 62.9902 137.54 63.0702Z" fill="#224E82"/>
<path d="M154.74 63.2002C154.73 63.1002 154.71 62.9902 154.7 62.8802C154.68 62.7702 154.66 62.6602 154.64 62.5602C154.62 62.4502 154.6 62.3502 154.58 62.2702C154.56 62.1802 154.54 62.1102 154.53 62.0502C154.52 61.9902 154.51 61.9502 154.5 61.9402L153.87 62.1402C153.88 62.1702 153.89 62.2202 153.91 62.2802C153.93 62.3402 153.94 62.4202 153.96 62.5002C153.98 62.5802 153.99 62.6702 154.01 62.7602C154.03 62.8502 154.04 62.9402 154.05 63.0302C154.06 63.1202 154.07 63.2002 154.08 63.2802C154.09 63.3602 154.09 63.4202 154.09 63.4702C154.09 63.6202 154.07 63.7302 154.02 63.8202C153.98 63.9102 153.92 63.9702 153.86 64.0202C153.8 64.0702 153.74 64.1002 153.67 64.1102C153.61 64.1302 153.56 64.1302 153.52 64.1302C153.28 64.1302 153.1 64.0802 152.99 63.9702C152.88 63.8602 152.82 63.6902 152.82 63.4702V62.4202H152.16V63.4702C152.16 63.6202 152.14 63.7402 152.09 63.8302C152.04 63.9202 151.99 63.9802 151.92 64.0302C151.86 64.0702 151.79 64.1002 151.73 64.1202C151.67 64.1302 151.62 64.1402 151.58 64.1402C151.34 64.1402 151.16 64.0902 151.05 63.9802C150.94 63.8702 150.89 63.7102 150.89 63.4802V62.4302H150.23V63.5002C150.23 63.6502 150.21 63.7702 150.16 63.8602C150.11 63.9502 150.06 64.0102 149.99 64.0602C149.93 64.1002 149.86 64.1302 149.8 64.1402C149.73 64.1502 149.68 64.1602 149.65 64.1602H148.98C148.76 64.1602 148.59 64.1402 148.48 64.1202C148.37 64.1002 148.29 64.0502 148.23 63.9802C148.18 63.9102 148.14 63.8102 148.13 63.6902C148.12 63.5602 148.11 63.4002 148.11 63.1902V59.8102H147.45V63.1902C147.45 63.3702 147.46 63.5402 147.47 63.6902C147.48 63.8402 147.51 63.9802 147.54 64.1002C147.58 64.2202 147.63 64.3302 147.7 64.4202C147.77 64.5102 147.86 64.5802 147.97 64.6402C148.08 64.7002 148.22 64.7502 148.38 64.7802C148.51 64.8002 148.67 64.8202 148.85 64.8202V64.8302H149.66C149.82 64.8302 149.99 64.8002 150.15 64.7402C150.31 64.6802 150.45 64.5802 150.58 64.4502C150.7 64.5702 150.84 64.6702 151.01 64.7302C151.18 64.7902 151.38 64.8302 151.6 64.8302C151.76 64.8302 151.92 64.8002 152.08 64.7302C152.24 64.6602 152.38 64.5702 152.5 64.4402C152.62 64.5702 152.77 64.6602 152.94 64.7302C153.11 64.8002 153.31 64.8302 153.54 64.8302C153.69 64.8302 153.84 64.8002 153.98 64.7402C154.13 64.6902 154.26 64.6002 154.38 64.4902C154.5 64.3802 154.59 64.2402 154.66 64.0802C154.73 63.9102 154.77 63.7202 154.77 63.5002C154.76 63.3902 154.75 63.3002 154.74 63.2002Z" fill="#224E82"/>
</svg>
