<svg width="193" height="196" viewBox="0 0 193 196" fill="none" xmlns="http://www.w3.org/2000/svg">
<path d="M147.078 153.391C120.013 136.88 86.8239 174.688 57.5185 166.552C23.2467 157.03 -9.7978 83.5181 24.8372 40.0774C58.835 -2.56801 135.794 11.6998 151.302 41.0236C161.899 61.0525 144.707 89.7491 163.3 109.274C171.832 118.238 179.785 116.729 184.504 126.822C192.513 143.878 180.836 171.661 169.491 173.354C161.252 174.583 159.662 161.068 147.078 153.391Z" fill="#E2E8ED"/>
<path d="M33.0168 128.055C53.4268 103.795 21.0668 65.275 33.5368 37.535C48.1268 5.095 125.787 -16.465 163.497 24.335C200.517 64.385 174.787 138.305 143.457 149.205C122.057 156.655 96.2868 135.325 74.1768 150.755C64.0268 157.835 64.3168 165.925 53.6268 169.065C35.5568 174.405 9.85678 158.665 9.89678 147.195C9.92678 138.865 23.5268 139.335 33.0168 128.055Z" fill="white"/>
<path d="M136.276 50.91H95.931C92.2193 50.91 89.2069 53.9224 89.2069 57.6342V62.2469L76.7269 69.7376H69.0345C66.8021 69.7376 65 71.5531 65 73.7721V97.979C65 100.198 66.8021 102.013 69.0345 102.013H77.1034C78.529 102.013 79.7931 101.247 80.5058 100.117C81.7162 101.287 83.3569 102.013 85.1724 102.013H125.517C128.476 102.013 130.897 99.6062 130.897 96.6342C130.897 95.518 130.547 94.4824 129.969 93.6218C132.067 92.8821 133.586 90.9052 133.586 88.5652H136.276C139.974 88.5652 143 85.5528 143 81.8411V57.6342C143 53.9224 139.974 50.91 136.276 50.91ZM78.4483 97.979C78.4483 98.7186 77.8431 99.3238 77.1034 99.3238H74.4138V93.9445H71.7241V99.3238H69.0345C68.2814 99.3238 67.6897 98.7186 67.6897 97.979V73.7721C67.6897 73.0324 68.2814 72.4273 69.0345 72.4273H77.1034C77.8431 72.4273 78.4483 73.0324 78.4483 73.7721V97.979ZM128.207 91.2549H120.138V93.9445H125.517C126.997 93.9445 128.207 95.1549 128.207 96.6342C128.207 98.1135 126.997 99.3238 125.517 99.3238H85.1724C82.94 99.3238 81.1379 97.5083 81.1379 95.2893V73.7721C81.1379 72.6693 80.6807 71.6607 79.9545 70.9345L89.2069 65.3938V71.0824H86.5172V73.7721H113.414C113.414 76.7442 110.993 79.1514 108.034 79.1514H98.6207V81.8411C98.6207 85.5528 95.5948 88.5652 91.8966 88.5652H89.2069V91.2549H91.8966C94.4517 91.2549 96.7648 90.2328 98.4593 88.5652H130.897C130.897 90.0445 129.686 91.2549 128.207 91.2549ZM140.31 81.8411C140.31 84.06 138.495 85.8755 136.276 85.8755H100.382C100.974 84.6518 101.31 83.28 101.31 81.8411H108.034C112.472 81.8411 116.103 78.2235 116.103 73.7721V71.0824H91.8966V57.6342C91.8966 55.4152 93.6986 53.5997 95.931 53.5997H136.276C138.495 53.5997 140.31 55.4152 140.31 57.6342V81.8411Z" fill="#AA850E"/>
<path d="M140.31 58.979H91.8965V67.048H140.31V58.979Z" fill="#E0D5B8"/>
<path d="M137.621 80.4962H126.862V83.1859H137.621V80.4962Z" fill="#224E82"/>
<path d="M137.621 75.1169H126.862V77.8065H137.621V75.1169Z" fill="#224E82"/>
<path d="M127.051 58.5325C126.016 59.7797 125.107 61.4391 124.314 63.5106C123.585 65.4236 123.225 66.9245 123.225 68.0131H120.816C120.816 66.9245 120.456 65.4236 119.727 63.5106C118.934 61.4285 118.025 59.7691 117 58.5325L118.85 57C119.558 57.8455 120.202 58.8285 120.794 59.9382C121.513 61.3122 121.925 62.5171 122.031 63.5529C122.137 62.5065 122.549 61.3017 123.278 59.9382C123.87 58.8179 124.504 57.835 125.212 57L127.051 58.5325Z" fill="#224E82"/>
<path d="M135.232 57.2007C135.242 57.2324 135.253 57.2535 135.253 57.2747C135.274 57.3486 135.295 57.4332 135.317 57.4966C135.38 57.7186 135.443 57.9405 135.496 58.1625C135.655 58.8389 135.729 59.3991 135.729 59.843C135.729 60.8682 135.443 61.682 134.862 62.3056C134.27 62.9503 133.52 63.2674 132.579 63.2674C132.093 63.2674 131.628 63.1723 131.194 62.982C131.258 63.7113 131.29 64.4934 131.311 65.3178C131.311 65.6349 131.321 65.9731 131.321 66.3536C131.321 66.491 131.321 66.6601 131.311 66.8398V68.013H128.901C128.901 67.939 128.901 67.8227 128.912 67.6536V66.8715C128.912 66.713 128.922 66.5756 128.922 66.4487C128.922 66.1211 128.922 65.8146 128.912 65.5398C128.901 64.8211 128.869 64.1446 128.827 63.5105C128.711 61.8406 128.457 60.2763 128.077 58.8389V58.8283C127.992 58.5007 127.897 58.1942 127.802 57.9194L130.095 57.1901C130.19 57.486 130.286 57.8243 130.391 58.2047C130.391 58.2259 130.402 58.247 130.412 58.2787C130.423 58.321 130.434 58.3527 130.444 58.395C130.486 58.5113 130.529 58.6275 130.582 58.7438C130.719 59.0926 130.877 59.4096 131.057 59.695C131.543 60.4771 132.051 60.8576 132.579 60.8576C132.812 60.8576 132.981 60.7942 133.097 60.6779C133.245 60.5194 133.319 60.234 133.319 59.843C133.319 59.6104 133.277 59.2828 133.182 58.8495C133.108 58.5007 133.012 58.173 132.928 57.8771L135.211 57.1478L135.232 57.2007Z" fill="#224E82"/>
<path d="M103.507 61.8816L103.081 61.4632L102.67 61.8816L103.089 62.3076L103.507 61.8816Z" fill="#224E82"/>
<path d="M102.498 61.8816L102.072 61.4557L101.661 61.8816L102.08 62.3L102.498 61.8816Z" fill="#224E82"/>
<path d="M105.935 64.213C105.831 64.2056 105.726 64.1906 105.629 64.1682C105.532 64.1458 105.435 64.1159 105.353 64.0785C105.263 64.0412 105.188 63.9964 105.128 63.944C105.061 63.8917 105.009 63.8245 104.972 63.7572C104.934 63.6825 104.912 63.6003 104.912 63.5032C104.912 63.421 104.927 63.3463 104.964 63.279C105.001 63.2118 105.046 63.152 105.099 63.1072C105.151 63.0623 105.218 63.025 105.285 63.0026C105.353 62.9801 105.42 62.9652 105.487 62.9652C105.539 62.9652 105.599 62.9727 105.659 62.9951C105.719 63.0175 105.786 63.0399 105.846 63.0698C105.913 63.0997 105.973 63.1371 106.04 63.1744C106.107 63.2118 106.167 63.2491 106.227 63.2865L106.473 62.8606C106.369 62.8008 106.279 62.741 106.189 62.6962C106.107 62.6439 106.025 62.6065 105.943 62.5692C105.868 62.5318 105.786 62.5094 105.711 62.487C105.637 62.472 105.554 62.4571 105.472 62.4571C105.33 62.4571 105.196 62.487 105.069 62.5393C104.942 62.5916 104.83 62.6663 104.732 62.7634C104.635 62.8531 104.561 62.9652 104.501 63.0922C104.441 63.2192 104.411 63.3537 104.411 63.4957C104.411 63.5405 104.419 63.5854 104.419 63.6452C104.426 63.6975 104.441 63.7572 104.463 63.8245C104.486 63.8917 104.516 63.9515 104.553 64.0188C104.59 64.086 104.643 64.1533 104.71 64.2205H103.925H103.813H103.47C103.455 64.2205 103.432 64.2205 103.41 64.2205C103.387 64.2205 103.35 64.213 103.313 64.2056C103.275 64.1981 103.238 64.1832 103.201 64.1682C103.163 64.1533 103.126 64.1234 103.096 64.0935C103.066 64.0636 103.044 64.0262 103.021 63.9814C102.999 63.9366 102.991 63.8843 102.991 63.817V62.9502H102.498V63.8394C102.498 63.8843 102.491 63.9291 102.483 63.9739C102.468 64.0188 102.446 64.0636 102.409 64.101C102.371 64.1383 102.319 64.1682 102.244 64.1981C102.169 64.2205 102.072 64.2355 101.945 64.2355H101.161H101.093C101.026 64.2355 100.951 64.228 100.869 64.213C100.787 64.1981 100.705 64.1757 100.623 64.1309C100.541 64.086 100.466 64.0262 100.399 63.944C100.331 63.8619 100.279 63.7572 100.242 63.6302C100.227 63.5929 100.212 63.5406 100.197 63.4808C100.182 63.421 100.167 63.3537 100.145 63.2865C100.13 63.2192 100.107 63.1445 100.092 63.0698C100.077 62.9951 100.055 62.9278 100.04 62.8606C100.025 62.7933 100.01 62.741 100.003 62.6887C99.9876 62.6364 99.9801 62.6065 99.9801 62.5841C99.9577 62.472 99.9278 62.3525 99.8979 62.218C99.868 62.0835 99.8306 61.9266 99.7858 61.7547L99.3002 61.8593L99.3525 62.1433C98.9116 62.2703 98.5753 62.4571 98.3362 62.7037C98.2017 62.8456 98.1121 62.9876 98.0672 63.1221C98.0224 63.2641 98 63.3836 98 63.4957C98 63.563 98.0074 63.6302 98.0149 63.6975C98.0373 63.8469 98.0896 63.9739 98.1644 64.086C98.2391 64.1981 98.3437 64.2803 98.4708 64.3475C98.5529 64.3924 98.6351 64.4223 98.7248 64.4447C98.8144 64.4671 98.8967 64.4746 98.9789 64.4746C99.061 64.4746 99.1358 64.4671 99.2105 64.4522C99.2852 64.4372 99.3525 64.4223 99.4048 64.3999C99.5019 64.355 99.5916 64.3027 99.6663 64.2504C99.741 64.1906 99.8083 64.1234 99.868 64.0487C99.9801 64.2654 100.144 64.4297 100.354 64.5493C100.548 64.6614 100.78 64.7137 101.041 64.7212V64.7286H101.086H101.153H101.938C102.296 64.7286 102.565 64.639 102.745 64.4522C102.82 64.5418 102.917 64.6091 103.036 64.6539C103.156 64.6987 103.298 64.7212 103.455 64.7212H103.798H103.91H106.548V64.228H106.219C106.137 64.228 106.04 64.2205 105.935 64.213ZM99.6214 63.4359C99.5841 63.675 99.457 63.8394 99.2329 63.9291C99.203 63.944 99.1657 63.9515 99.1283 63.959C99.0909 63.9665 99.0536 63.9665 99.0162 63.9665H98.9863C98.9415 63.9665 98.8966 63.959 98.8518 63.9515C98.807 63.944 98.7621 63.9291 98.7248 63.9067C98.6725 63.8768 98.6202 63.8394 98.5828 63.7871C98.5454 63.7348 98.5156 63.6751 98.5006 63.6003C98.4932 63.563 98.4931 63.5256 98.4931 63.4957C98.4931 63.4285 98.5081 63.3612 98.5305 63.294C98.5679 63.1968 98.6276 63.1072 98.7173 63.0175C98.807 62.9353 98.9116 62.8531 99.0461 62.7859C99.1806 62.7186 99.33 62.6588 99.5093 62.6065L99.614 63.0549C99.6214 63.0773 99.6215 63.1146 99.6289 63.1595C99.6364 63.2043 99.6364 63.2417 99.6364 63.2716C99.6289 63.3239 99.6289 63.3762 99.6214 63.4359Z" fill="#224E82"/>
<path d="M112.474 63.5331C112.466 63.4583 112.451 63.3762 112.444 63.294C112.429 63.2118 112.414 63.1296 112.399 63.0548C112.384 62.9727 112.369 62.8979 112.354 62.8382C112.339 62.7709 112.324 62.7186 112.317 62.6738C112.309 62.6289 112.302 62.599 112.294 62.5916L111.824 62.741C111.831 62.7634 111.838 62.8008 111.853 62.8456C111.868 62.8905 111.876 62.9502 111.891 63.01C111.906 63.0698 111.913 63.137 111.928 63.2043C111.943 63.2715 111.951 63.3388 111.958 63.406C111.966 63.4733 111.973 63.5331 111.98 63.5928C111.988 63.6526 111.988 63.6975 111.988 63.7348C111.988 63.8469 111.973 63.9291 111.936 63.9963C111.906 64.0636 111.861 64.1084 111.816 64.1458C111.771 64.1831 111.726 64.2056 111.674 64.213C111.629 64.228 111.592 64.228 111.562 64.228C111.383 64.228 111.248 64.1906 111.166 64.1084C111.084 64.0262 111.039 63.8992 111.039 63.7348V62.9502H110.546V63.7348C110.546 63.8469 110.531 63.9366 110.493 64.0038C110.456 64.0711 110.419 64.1159 110.366 64.1533C110.322 64.1831 110.269 64.2056 110.224 64.2205C110.18 64.228 110.142 64.2355 110.112 64.2355C109.933 64.2355 109.799 64.1981 109.716 64.1159C109.634 64.0337 109.597 63.9141 109.597 63.7423V62.9577H109.104V63.7572C109.104 63.8693 109.089 63.959 109.051 64.0262C109.014 64.0935 108.977 64.1383 108.924 64.1757C108.879 64.2056 108.827 64.228 108.782 64.2355C108.73 64.2429 108.693 64.2504 108.67 64.2504H108.17C108.005 64.2504 107.878 64.2355 107.796 64.2205C107.714 64.2056 107.654 64.1682 107.609 64.1159C107.572 64.0636 107.542 63.9889 107.535 63.8992C107.527 63.8021 107.52 63.6825 107.52 63.5256V61H107.026V63.5256C107.026 63.6601 107.034 63.7871 107.041 63.8992C107.049 64.0113 107.071 64.1159 107.094 64.2056C107.124 64.2952 107.161 64.3774 107.213 64.4447C107.265 64.5119 107.333 64.5642 107.415 64.6091C107.497 64.6539 107.602 64.6913 107.721 64.7137C107.818 64.7286 107.938 64.7436 108.072 64.7436V64.751H108.678C108.797 64.751 108.924 64.7286 109.044 64.6838C109.163 64.6389 109.268 64.5642 109.365 64.4671C109.455 64.5568 109.559 64.6315 109.686 64.6763C109.813 64.7211 109.963 64.751 110.127 64.751C110.247 64.751 110.366 64.7286 110.486 64.6763C110.606 64.624 110.71 64.5568 110.8 64.4596C110.89 64.5568 111.002 64.624 111.129 64.6763C111.256 64.7286 111.405 64.751 111.577 64.751C111.689 64.751 111.801 64.7286 111.906 64.6838C112.018 64.6464 112.115 64.5792 112.205 64.497C112.294 64.4148 112.362 64.3102 112.414 64.1906C112.466 64.0636 112.496 63.9216 112.496 63.7572C112.489 63.675 112.481 63.6078 112.474 63.5331Z" fill="#224E82"/>
</svg>
