<svg width="193" height="196" viewBox="0 0 193 196" fill="none" xmlns="http://www.w3.org/2000/svg">
<path d="M147.078 153.95C120.013 137.379 86.8239 175.324 57.5184 167.158C23.2467 157.602 -9.79782 83.8223 24.8372 40.2233C58.835 -2.57738 135.794 11.7424 151.302 41.173C161.899 61.2749 144.707 90.0759 163.3 109.672C171.832 118.669 179.785 117.155 184.504 127.284C192.512 144.402 180.836 172.286 169.491 173.986C161.252 175.219 159.662 161.655 147.078 153.95Z" fill="#E2E8ED"/>
<path d="M33.0167 128.521C53.4267 104.173 21.0667 65.5126 33.5367 37.6716C48.1267 5.11343 125.787 -16.5251 163.497 24.4235C200.517 64.6194 174.787 138.809 143.457 149.748C122.057 157.225 96.2867 135.818 74.1767 151.304C64.0267 158.41 64.3167 166.529 53.6267 169.681C35.5567 175.04 9.85674 159.243 9.89674 147.731C9.92674 139.371 23.5267 139.842 33.0167 128.521Z" fill="white"/>
<path d="M84.4804 76.2057V80.717C84.4804 81.5942 83.8561 82.2208 82.9821 82.2208H78.4871C77.6131 82.2208 76.9888 81.5942 76.9888 80.717V76.2057C76.9888 75.3285 77.6131 74.7019 78.4871 74.7019H82.9821C83.8561 74.7019 84.4804 75.3285 84.4804 76.2057Z" fill="#AA850E"/>
<path d="M124.436 86.4063V99.7648C124.436 101.77 122.812 103.524 120.69 103.524H78.2374C76.2396 103.524 74.4916 101.895 74.4916 99.7648V72.1956C74.4916 71.6943 74.3667 71.3184 74.2419 70.9424H89.4748V75.4538C89.4748 76.8322 90.224 78.0854 91.3477 78.7119C91.972 79.0879 92.5963 79.2132 93.2206 79.2132C93.8449 79.2132 94.4692 79.0879 95.0935 78.7119L98.8393 76.5816C99.2139 76.331 99.7133 76.331 100.088 76.5816L103.834 78.7119C104.957 79.3385 106.456 79.3385 107.579 78.7119C108.703 78.0854 109.452 76.8322 109.452 75.4538V70.9424H111.987C111.937 70.4161 111.912 69.8898 111.912 69.3509C111.912 69.0376 111.925 68.7369 111.937 68.4361H109.452V60.9172H114.022C114.497 60.04 115.046 59.2004 115.658 58.4109H70.7458C68.6232 58.4109 67 60.04 67 62.1704V67.183C67 69.3133 68.6232 70.9424 70.7458 70.9424C71.495 70.9424 71.9944 71.4437 71.9944 72.1956V99.7648C71.9944 102.334 73.5801 104.627 75.89 105.567C76.6142 105.868 77.4008 106.031 78.2374 106.031H120.69C121.514 106.031 122.3 105.868 123.025 105.567C125.285 104.64 126.933 102.422 126.933 99.7648V86.9952C126.084 86.8574 125.247 86.6569 124.436 86.4063ZM91.972 60.9172H98.215V68.4361H100.712V60.9172H106.955V75.4538C106.955 76.0803 106.581 76.4563 106.331 76.5816C106.206 76.7069 105.707 76.9575 105.082 76.5816L101.336 74.4512C100.213 73.8247 98.7144 73.8247 97.5907 74.4512L93.8449 76.5816C93.2206 76.9575 92.846 76.7069 92.5963 76.5816C92.4714 76.4563 91.972 76.2056 91.972 75.4538V60.9172ZM70.7458 68.4361C69.9966 68.4361 69.4972 67.9349 69.4972 67.183V62.1704C69.4972 61.4185 69.9966 60.9172 70.7458 60.9172H89.4748V68.4361H70.7458Z" fill="#AA850E"/>
<path d="M106.955 60.9173V75.4538C106.955 76.0804 106.581 76.4563 106.331 76.5816C106.206 76.707 105.707 76.9576 105.082 76.5816L101.336 74.4513C100.213 73.8247 98.7144 73.8247 97.5907 74.4513L93.8449 76.5816C93.2206 76.9576 92.846 76.707 92.5963 76.5816C92.4714 76.4563 91.972 76.2057 91.972 75.4538V60.9173H98.215V68.4362H100.712V60.9173H106.955Z" fill="#E0D5B8"/>
<path d="M91.972 98.5117H76.9888V101.018H91.972V98.5117Z" fill="#224E82"/>
<path d="M86.9776 93.499H76.9888V96.0053H86.9776V93.499Z" fill="#AA850E"/>
<path d="M111.95 96.0054H109.452V101.018H111.95V96.0054Z" fill="#224E82"/>
<path d="M116.944 96.0054H114.447V101.018H116.944V96.0054Z" fill="#AA850E"/>
<path d="M121.938 96.0054H119.441V101.018H121.938V96.0054Z" fill="#224E82"/>
<path d="M128.394 59.0752V59.1002C128.444 59.0877 128.506 59.0877 128.568 59.0752H128.394ZM130.841 59.0752C130.866 59.0752 130.878 59.0752 130.891 59.0877V59.0752H130.841Z" fill="white"/>
<path d="M129.705 54C125.522 54 121.739 55.6792 118.979 58.4111C118.205 59.1755 117.518 60.0151 116.919 60.9174C115.496 63.0979 114.597 65.6668 114.447 68.4363C114.422 68.737 114.409 69.0378 114.409 69.3511C114.409 69.8899 114.434 70.4162 114.484 70.9426C115.096 76.8574 119.067 81.7823 124.436 83.7748C125.235 84.063 126.071 84.2886 126.933 84.4515C127.832 84.6144 128.756 84.7021 129.705 84.7021C138.133 84.7021 145 77.8223 145 69.3511C145 60.8923 138.133 54 129.705 54ZM129.705 82.1958C128.756 82.1958 127.832 82.0956 126.933 81.8951C126.059 81.6946 125.222 81.4189 124.436 81.0555C120.453 79.2509 117.568 75.4539 117.006 70.9426C116.944 70.4288 116.907 69.8899 116.907 69.3511C116.907 69.0378 116.919 68.737 116.944 68.4363C117.144 65.5666 118.28 62.96 120.065 60.9174C120.902 59.9399 121.901 59.0878 123.012 58.4111C124.96 57.2081 127.245 56.5063 129.705 56.5063C136.759 56.5063 142.503 62.2708 142.503 69.3511C142.503 76.4313 136.759 82.1958 129.705 82.1958Z" fill="#AA850E"/>
<path d="M129.705 56.5063C127.245 56.5063 124.96 57.2081 123.012 58.4111C121.901 59.0878 120.902 59.94 120.065 60.9174C118.28 62.9601 117.144 65.5666 116.944 68.4363C116.919 68.7371 116.907 69.0378 116.907 69.3511C116.907 69.89 116.944 70.4288 117.006 70.9426C117.568 75.4539 120.453 79.251 124.436 81.0555C125.222 81.4189 126.059 81.6946 126.933 81.8951C127.832 82.0956 128.756 82.1959 129.705 82.1959C136.759 82.1959 142.503 76.4314 142.503 69.3511C142.503 62.2708 136.759 56.5063 129.705 56.5063ZM130.891 70.4789V79.3888H128.394V70.4789H119.529V67.9727H128.394V59.0753H130.891V67.9727H139.756V70.4789H130.891Z" fill="#224E82"/>
</svg>
