<svg width="193" height="196" viewBox="0 0 193 196" fill="none" xmlns="http://www.w3.org/2000/svg">
<path d="M147.078 153.95C120.013 137.379 86.8239 175.324 57.5184 167.158C23.2467 157.602 -9.79782 83.8223 24.8372 40.2233C58.835 -2.57738 135.794 11.7424 151.302 41.173C161.899 61.2749 144.707 90.0759 163.3 109.672C171.832 118.669 179.785 117.155 184.504 127.284C192.512 144.402 180.836 172.286 169.491 173.986C161.252 175.219 159.662 161.655 147.078 153.95Z" fill="#E2E8ED"/>
<path d="M33.0167 128.521C53.4267 104.173 21.0667 65.5126 33.5367 37.6716C48.1267 5.11343 125.787 -16.5251 163.497 24.4235C200.517 64.6194 174.787 138.809 143.457 149.748C122.057 157.225 96.2867 135.818 74.1767 151.304C64.0267 158.41 64.3167 166.529 53.6267 169.681C35.5567 175.04 9.85674 159.243 9.89674 147.731C9.92674 139.371 23.5267 139.842 33.0167 128.521Z" fill="white"/>
<path d="M73.65 106.386C73.38 106.386 73.15 106.607 73.15 106.888V108.895C73.15 109.166 73.37 109.397 73.65 109.397C73.93 109.397 74.15 109.176 74.15 108.895V106.888C74.15 106.607 73.93 106.386 73.65 106.386Z" fill="#224E82"/>
<path d="M97.39 95.2557L83.62 97.3433L82.92 93.3387L94.83 91.4117C94.48 90.92 94.35 90.2776 94.45 89.6855L92.13 88.4109C92.03 87.889 91.52 87.5277 90.99 87.618C90.72 87.6581 90.49 87.8087 90.33 88.0295C90.18 88.2402 90.12 88.4911 90.17 88.7421L87.63 91.5422C87.62 91.5523 87.62 91.5623 87.61 91.5723L82.27 92.4355C82.14 92.4555 82.02 92.5258 81.94 92.6362C81.86 92.7466 81.83 92.8771 81.85 93.0176L82.72 98.0057C82.76 98.2466 82.97 98.4172 83.21 98.4172C83.24 98.4172 83.26 98.4172 83.29 98.4071L97.46 96.2493C97.78 95.9081 97.78 95.5969 97.39 95.2557ZM90.82 89.5149C90.92 89.555 91.04 89.5751 91.15 89.5751C91.2 89.5751 91.26 89.565 91.31 89.565C91.48 89.5349 91.62 89.4546 91.75 89.3543L93.92 90.5486L89.17 91.3114L90.82 89.5149Z" fill="#A9C0D8"/>
<path d="M74.66 111.414C74.38 111.414 74.16 111.635 74.16 111.906C74.16 112.187 74.38 112.408 74.66 112.408H96.75V111.414H74.66ZM132.78 74.4501C132.8 74.3498 132.8 74.2595 132.79 74.1691L131.16 58.6528V56.1738C131.16 55.391 130.85 54.6884 130.35 54.1665C130.22 54.026 130.13 53.8554 130.11 53.6647C129.12 42.7049 117.46 33.1101 100.22 29.1558L100 29.1056L99.78 29.1558C82.31 33.1703 70.57 42.9759 69.87 54.1364L69.86 54.287C69.43 54.7988 69.16 55.4512 69.16 56.1738V57.599C69.16 57.6391 69.15 57.6693 69.15 57.7094L67.06 73.9182C67.05 73.9684 67.04 74.0186 67.04 74.0688C67.04 74.0788 67.03 74.0888 67.03 74.1089V74.2294C67.01 74.6107 67 75.0122 67 75.4638C67 77.1299 67.59 78.3744 68.77 79.1873C69 79.3479 69.16 79.5988 69.16 79.8799V114.415H68.16C67.6 114.415 67.16 114.867 67.16 115.419V118.43C67.16 118.982 67.6 119.433 68.16 119.433H96.92C97.38 119.433 97.75 119.062 97.75 118.6V118.249C97.75 117.787 97.38 117.426 96.92 117.426H69.16V116.422H94.92C95.38 116.422 95.75 116.051 95.75 115.589V115.238C95.75 114.776 95.38 114.415 94.92 114.415H71.98C71.53 114.415 71.16 114.044 71.16 113.582V79.2476C71.27 79.2576 71.38 79.2877 71.5 79.2877H72.06C72.44 79.2877 72.81 79.2074 73.16 79.1071V103.877C73.16 104.158 73.38 104.379 73.66 104.379C73.93 104.379 74.15 104.158 74.15 103.877V78.7859C74.15 78.7457 74.14 78.7056 74.13 78.6554C74.46 78.4446 74.77 78.1837 75.03 77.8826C75.36 77.5213 75.94 77.5313 76.26 77.9127C76.97 78.7558 77.97 79.2877 79.1 79.2877H79.55C80.59 79.2877 81.49 78.816 82.13 78.0432C82.44 77.6718 83.02 77.6618 83.34 78.0231C84.05 78.7959 85.02 79.2877 86.1 79.2877H86.55C87.59 79.2877 88.49 78.816 89.13 78.0432C89.44 77.6718 90.02 77.6618 90.34 78.0231C91.05 78.7959 92.02 79.2877 93.1 79.2877H93.55C94.59 79.2877 95.49 78.816 96.13 78.0432C96.44 77.6718 97.02 77.6618 97.34 78.0231C98.05 78.7959 99.02 79.2877 100.1 79.2877H100.55C101.59 79.2877 102.49 78.816 103.13 78.0432C103.44 77.6718 104.02 77.6618 104.34 78.0231C105.05 78.7959 106.02 79.2877 107.1 79.2877H107.55C107.76 79.2877 107.96 79.2576 108.16 79.2175C108.68 79.1171 109.16 79.4985 109.16 80.0204V80.3014H110.15V78.274C110.15 78.0934 110.21 77.9228 110.32 77.7822C110.49 77.5414 110.62 77.2804 110.75 76.9994C111.1 77.6919 111.6 78.264 112.19 78.6655C112.18 78.7056 112.16 78.7457 112.16 78.7859V80.7932C112.16 81.0742 112.38 81.295 112.66 81.295C112.93 81.295 113.15 81.0742 113.15 80.7932V79.1372C113.46 79.2275 113.77 79.2877 114.1 79.2877H114.55C115.55 79.2877 116.43 78.806 117.07 78.0131C117.39 77.6116 117.98 77.6116 118.32 77.993C119.03 78.7859 120.01 79.2877 121.1 79.2877H121.55C122.96 79.2877 124.12 78.4246 124.72 77.1198C124.85 77.3607 124.99 77.5916 125.16 77.8023V80.3014H126.15V79.9501C126.15 79.3981 126.68 79.0268 127.21 79.1673C127.5 79.2476 127.79 79.2877 128.1 79.2877H128.16V80.6527C128.16 81.014 128.45 81.305 128.8 81.305H129.51C129.87 81.305 130.16 81.014 130.16 80.6527V80.5724C130.16 80.2914 130.31 80.0404 130.54 79.8799C131.92 78.9164 132.8 77.2604 132.8 75.504C132.8 75.1427 132.79 74.8115 132.78 74.4501ZM100 31.1631C115.9 34.8765 126.75 43.4276 128.05 53.193H71.97C73.28 43.4276 84.11 34.8665 100 31.1631ZM72.06 78.2841H71.5C71.32 78.2841 71.15 78.264 70.99 78.2239C70.87 78.0633 70.71 77.9328 70.52 77.8525C69.43 77.4209 69 76.7585 69 75.4638V75.2731H75.14C75.03 77.0094 73.48 78.2841 72.06 78.2841ZM75.16 74.2695H69.03L69.86 67.8763L71.19 60.2185H75.16V74.2695ZM79.55 78.2841H79.1C77.59 78.2841 76.35 76.9593 76.19 75.2731H82.14C82.07 76.9994 80.98 78.2841 79.55 78.2841ZM82.16 74.2695H76.17C76.17 74.1089 76.17 73.9383 76.18 73.7877C76.18 73.7376 76.17 73.6773 76.16 73.6272V60.2185H82.16V74.2695ZM86.55 78.2841H86.1C84.59 78.2841 83.35 76.9593 83.19 75.2731H89.14C89.07 76.9994 87.98 78.2841 86.55 78.2841ZM89.16 74.2695H83.17C83.17 74.1089 83.17 73.9383 83.18 73.7877C83.18 73.7376 83.17 73.6773 83.16 73.6272V60.2185H89.16V74.2695ZM93.55 78.2841H93.1C91.59 78.2841 90.35 76.9593 90.19 75.2731H96.14C96.07 76.9994 94.98 78.2841 93.55 78.2841ZM96.16 74.2695H90.17C90.17 74.1089 90.17 73.9383 90.18 73.7877C90.18 73.7376 90.17 73.6773 90.16 73.6272V60.2185H96.16V74.2695ZM100.55 78.2841H100.1C98.59 78.2841 97.35 76.9593 97.19 75.2731H103.14C103.07 76.9994 101.98 78.2841 100.55 78.2841ZM103.16 74.2695H97.17C97.17 74.1089 97.17 73.9383 97.18 73.7877C97.18 73.7376 97.17 73.6773 97.16 73.6272V60.2185H103.16V74.2695ZM109.41 77.3607C109.34 77.4009 109.27 77.4711 109.23 77.5414C108.78 78.003 108.2 78.2841 107.55 78.2841H107.1C105.59 78.2841 104.35 76.9593 104.19 75.2731H110.14C110.1 76.1062 109.84 76.8288 109.41 77.3607ZM110.16 74.2695H104.17C104.17 74.1089 104.17 73.9383 104.18 73.7877C104.18 73.7376 104.17 73.6773 104.16 73.6272V60.2185H110.16V74.2695ZM114.55 78.2841H114.1C112.68 78.2841 111.49 76.9894 111.22 75.2731H117.12C116.92 76.9994 115.87 78.2841 114.55 78.2841ZM117.16 74.2695H111.16C111.16 74.1089 111.16 73.9383 111.17 73.7777C111.17 73.7476 111.16 73.7075 111.16 73.6773V60.2185H117.16V74.2695ZM121.55 78.2841H121.1C119.59 78.2841 118.35 76.9593 118.19 75.2731H124.14C124.07 76.9994 122.98 78.2841 121.55 78.2841ZM124.16 74.2695H118.17C118.17 74.1089 118.17 73.9383 118.18 73.7877C118.18 73.7376 118.17 73.6773 118.16 73.6272V60.2185H124.16V74.2695ZM70.97 59.2149L71.15 57.8499C71.15 57.8098 71.16 57.7696 71.16 57.7194V56.1738C71.16 55.6419 71.62 55.2003 72.19 55.2003H128.13C128.7 55.2003 129.16 55.6419 129.16 56.1738V58.7632L129.21 59.2149H70.97ZM125.16 73.6272V60.2185H129.08L129.8 64.8854L130.78 74.1691V74.2695H125.17C125.17 74.1089 125.17 73.9383 125.18 73.7877C125.18 73.7376 125.17 73.6773 125.16 73.6272ZM129.76 77.9127C129.38 78.1436 128.95 78.2841 128.49 78.2841H128.1C126.59 78.2841 125.35 76.9593 125.19 75.2731H130.79C130.79 75.3534 130.8 75.4237 130.8 75.504C130.8 76.4374 130.4 77.3005 129.76 77.9127ZM74.66 111.414C74.38 111.414 74.16 111.635 74.16 111.906C74.16 112.187 74.38 112.408 74.66 112.408H96.75V111.414H74.66ZM74.66 111.414C74.38 111.414 74.16 111.635 74.16 111.906C74.16 112.187 74.38 112.408 74.66 112.408H96.75V111.414H74.66Z" fill="#224E82"/>
<path d="M130.8 75.504C130.8 76.4374 130.4 77.3006 129.76 77.9128C129.38 78.1436 128.95 78.2841 128.49 78.2841H128.1C126.59 78.2841 125.35 76.9593 125.19 75.2732H130.79C130.79 75.3535 130.8 75.4237 130.8 75.504Z" fill="#A9C0D8"/>
<path d="M130.78 74.1691V74.2695H125.17C125.17 74.1089 125.17 73.9383 125.18 73.7878C125.18 73.7376 125.17 73.6774 125.16 73.6272V60.2185H129.08L129.8 64.8854L130.78 74.1691Z" fill="#A9C0D8"/>
<path d="M117.12 75.2732C116.92 76.9995 115.87 78.2841 114.55 78.2841H114.1C112.68 78.2841 111.49 76.9894 111.22 75.2732H117.12Z" fill="#A9C0D8"/>
<path d="M117.16 60.2185V74.2695H111.16C111.16 74.1089 111.16 73.9383 111.17 73.7777C111.17 73.7476 111.16 73.7075 111.16 73.6774V60.2185H117.16Z" fill="#A9C0D8"/>
<path d="M103.14 75.2732C103.07 76.9995 101.98 78.2841 100.55 78.2841H100.1C98.5899 78.2841 97.3499 76.9593 97.1899 75.2732H103.14Z" fill="#A9C0D8"/>
<path d="M103.16 60.2185V74.2695H97.1699C97.1699 74.1089 97.1699 73.9383 97.1799 73.7878C97.1799 73.7376 97.1699 73.6774 97.1599 73.6272V60.2185H103.16Z" fill="#A9C0D8"/>
<path d="M89.1399 75.2732C89.0699 76.9995 87.9799 78.2841 86.5499 78.2841H86.0999C84.5899 78.2841 83.3499 76.9593 83.1899 75.2732H89.1399Z" fill="#A9C0D8"/>
<path d="M89.1599 60.2185V74.2695H83.1699C83.1699 74.1089 83.1699 73.9383 83.1799 73.7878C83.1799 73.7376 83.1699 73.6774 83.1599 73.6272V60.2185H89.1599Z" fill="#A9C0D8"/>
<path d="M75.14 75.2732C75.03 77.0095 73.48 78.2841 72.06 78.2841H71.5C71.32 78.2841 71.15 78.2641 70.99 78.2239C70.87 78.0633 70.71 77.9328 70.52 77.8526C69.43 77.421 69 76.7586 69 75.4639V75.2732H75.14Z" fill="#A9C0D8"/>
<path d="M75.16 60.2185V74.2695H69.03L69.86 67.8763L71.19 60.2185H75.16Z" fill="#A9C0D8"/>
<path d="M104.27 39.2724C104.19 39.152 104.02 39.1419 103.92 39.2423L103.49 39.6538C103.41 39.7341 103.39 39.8545 103.46 39.9549C103.84 40.527 104.07 41.1994 104.1 41.932C104.17 44.0497 102.47 45.8262 100.3 45.9065C98.13 45.9767 96.31 44.3207 96.23 42.203C96.16 40.2158 97.67 38.5197 99.65 38.2587C99.31 38.6602 98.92 39.0717 98.46 39.4731C98.36 39.5635 98.35 39.704 98.43 39.8144L98.65 40.0753C98.74 40.1757 98.89 40.1957 99 40.1054C99.61 39.5735 100.12 39.0215 100.54 38.4896C100.75 39.0115 100.9 39.5735 100.99 40.1556C101.01 40.276 101.12 40.3664 101.25 40.3463L101.6 40.3061C101.73 40.2961 101.82 40.1757 101.8 40.0452C101.71 39.443 101.57 38.9011 101.39 38.4193C101.67 38.5096 101.95 38.62 102.2 38.7706C102.3 38.8308 102.42 38.8007 102.49 38.7204L102.89 38.2688C102.99 38.1584 102.96 37.9877 102.84 37.9175C102.39 37.6365 101.89 37.4257 101.36 37.3053C101.83 36.5124 102.09 35.85 102.21 35.5087C102.25 35.3783 102.18 35.2378 102.05 35.1976L101.72 35.1073C101.59 35.0772 101.47 35.1374 101.43 35.2578C101.32 35.5589 101.08 36.1611 100.65 36.8837C100.13 36.0909 99.59 35.589 99.31 35.3482C99.2 35.2578 99.05 35.2879 98.97 35.3983L98.77 35.6994C98.71 35.7998 98.72 35.9303 98.81 36.0106C99 36.1711 99.35 36.4923 99.71 36.9741C99.76 37.0443 99.8 37.1146 99.84 37.1748C97.19 37.3554 95.12 39.5835 95.2 42.2231C95.29 44.9229 97.6 47.0406 100.35 46.9503C103.1 46.8499 105.26 44.5817 105.17 41.8819C105.11 40.9184 104.79 40.0151 104.27 39.2724Z" fill="#224E82"/>
<path d="M109.05 96.7711V100.384C109.05 101.087 108.55 101.589 107.85 101.589H104.25C103.55 101.589 103.05 101.087 103.05 100.384V96.7711C103.05 96.0686 103.55 95.5668 104.25 95.5668H107.85C108.55 95.5668 109.05 96.0686 109.05 96.7711Z" fill="#AA850E"/>
<path d="M141.05 104.941V115.64C141.05 117.245 139.75 118.651 138.05 118.651H104.05C102.45 118.651 101.05 117.346 101.05 115.64V93.5595C101.05 93.158 100.95 92.8569 100.85 92.5558H113.05V96.1689C113.05 97.273 113.65 98.2766 114.55 98.7784C115.05 99.0795 115.55 99.1799 116.05 99.1799C116.55 99.1799 117.05 99.0795 117.55 98.7784L120.55 97.0722C120.85 96.8715 121.25 96.8715 121.55 97.0722L124.55 98.7784C125.45 99.2802 126.65 99.2802 127.55 98.7784C128.45 98.2766 129.05 97.273 129.05 96.1689V92.5558H131.08C131.04 92.1343 131.02 91.7128 131.02 91.2812C131.02 91.0303 131.03 90.7894 131.04 90.5485H129.05V84.5267H132.71C133.09 83.8241 133.53 83.1517 134.02 82.5194H98.05C96.35 82.5194 95.05 83.8241 95.05 85.5303V89.5449C95.05 91.2511 96.35 92.5558 98.05 92.5558C98.65 92.5558 99.05 92.9573 99.05 93.5595V115.64C99.05 117.697 100.32 119.534 102.17 120.286C102.75 120.527 103.38 120.658 104.05 120.658H138.05C138.71 120.658 139.34 120.527 139.92 120.286C141.73 119.544 143.05 117.767 143.05 115.64V105.412C142.37 105.302 141.7 105.142 141.05 104.941ZM115.05 84.5267H120.05V90.5485H122.05V84.5267H127.05V96.1689C127.05 96.6708 126.75 96.9719 126.55 97.0722C126.45 97.1726 126.05 97.3733 125.55 97.0722L122.55 95.366C121.65 94.8642 120.45 94.8642 119.55 95.366L116.55 97.0722C116.05 97.3733 115.75 97.1726 115.55 97.0722C115.45 96.9719 115.05 96.7711 115.05 96.1689V84.5267ZM98.05 90.5485C97.45 90.5485 97.05 90.1471 97.05 89.5449V85.5303C97.05 84.9282 97.45 84.5267 98.05 84.5267H113.05V90.5485H98.05Z" fill="#AA850E"/>
<path d="M127.05 84.5267V96.169C127.05 96.6708 126.75 96.9719 126.55 97.0723C126.45 97.1726 126.05 97.3734 125.55 97.0723L122.55 95.3661C121.65 94.8643 120.45 94.8643 119.55 95.3661L116.55 97.0723C116.05 97.3734 115.75 97.1726 115.55 97.0723C115.45 96.9719 115.05 96.7712 115.05 96.169V84.5267H120.05V90.5486H122.05V84.5267H127.05Z" fill="#E0D5B8"/>
<path d="M115.05 114.636H103.05V116.643H115.05V114.636Z" fill="#224E82"/>
<path d="M111.05 110.621H103.05V112.629H111.05V110.621Z" fill="#AA850E"/>
<path d="M131.05 112.629H129.05V116.643H131.05V112.629Z" fill="#224E82"/>
<path d="M135.05 112.629H133.05V116.643H135.05V112.629Z" fill="#AA850E"/>
<path d="M139.05 112.629H137.05V116.643H139.05V112.629Z" fill="#224E82"/>
<path d="M144.22 83.0514V83.0714C144.26 83.0614 144.31 83.0614 144.36 83.0514H144.22ZM146.18 83.0514C146.2 83.0514 146.21 83.0514 146.22 83.0614V83.0514H146.18Z" fill="white"/>
<path d="M145.27 78.9867C141.92 78.9867 138.89 80.3316 136.68 82.5195C136.06 83.1317 135.51 83.8042 135.03 84.5268C133.89 86.2731 133.17 88.3306 133.05 90.5487C133.03 90.7895 133.02 91.0304 133.02 91.2813C133.02 91.7129 133.04 92.1344 133.08 92.5559C133.57 97.2931 136.75 101.237 141.05 102.833C141.69 103.064 142.36 103.245 143.05 103.375C143.77 103.506 144.51 103.576 145.27 103.576C152.02 103.576 157.52 98.0659 157.52 91.2813C157.52 84.5067 152.02 78.9867 145.27 78.9867ZM145.27 101.569C144.51 101.569 143.77 101.488 143.05 101.328C142.35 101.167 141.68 100.946 141.05 100.655C137.86 99.2101 135.55 96.1691 135.1 92.5559C135.05 92.1444 135.02 91.7129 135.02 91.2813C135.02 91.0304 135.03 90.7895 135.05 90.5487C135.21 88.2503 136.12 86.1627 137.55 84.5268C138.22 83.744 139.02 83.0615 139.91 82.5195C141.47 81.556 143.3 80.994 145.27 80.994C150.92 80.994 155.52 85.6107 155.52 91.2813C155.52 96.9519 150.92 101.569 145.27 101.569Z" fill="#AA850E"/>
<path d="M145.27 80.994C143.3 80.994 141.47 81.5561 139.91 82.5196C139.02 83.0615 138.22 83.744 137.55 84.5268C136.12 86.1628 135.21 88.2504 135.05 90.5487C135.03 90.7896 135.02 91.0304 135.02 91.2814C135.02 91.7129 135.05 92.1445 135.1 92.556C135.55 96.1691 137.86 99.2101 141.05 100.655C141.68 100.946 142.35 101.167 143.05 101.328C143.77 101.488 144.51 101.569 145.27 101.569C150.92 101.569 155.52 96.9519 155.52 91.2814C155.52 85.6108 150.92 80.994 145.27 80.994ZM146.22 92.1846V99.3205H144.22V92.1846H137.12V90.1773H144.22V83.0515H146.22V90.1773H153.32V92.1846H146.22Z" fill="#E0D5B8"/>
</svg>
