<?xml version="1.0" encoding="utf-8"?>
<!-- Generator: Adobe Illustrator 25.2.1, SVG Export Plug-In . SVG Version: 6.00 Build 0)  -->
<svg version="1.1" id="Layer_1" xmlns="http://www.w3.org/2000/svg" xmlns:xlink="http://www.w3.org/1999/xlink" x="0px" y="0px"
	 viewBox="0 0 115 204" style="enable-background:new 0 0 115 204;" xml:space="preserve">
<style type="text/css">
	.st0{fill:#FFFFFF;}
	.st1{fill:#F2F2F2;}
	.st2{fill:#2E3192;}
	.st3{fill:#F7941D;}
	.st4{font-family:'Roboto-Light';}
	.st5{font-size:51.6796px;}
</style>
<g>
	<g>
		<g>
			<g>
				<path class="st0" d="M97.9,201.4H17.7c-8.3,0-15-6.7-15-15V57.5c0-30.4,24.7-55.1,55.1-55.1l0,0c30.4,0,55.1,24.6,55.1,55.1
					v128.9C112.9,194.7,106.1,201.4,97.9,201.4z"/>
				<g>
					<path d="M97.9,198.9c-14.5,0-29,0-43.5,0c-9.1,0-18.3,0-27.4,0c-6.4,0-13.7,1.1-18.5-4.1c-3.8-4.2-3.2-9.5-3.2-14.7
						c0-7.1,0-14.2,0-21.4c0-20.2,0-40.5,0-60.7c0-13.2,0-26.5,0-39.8C5.3,31.5,25.2,8,52.3,5.2c30.4-3.1,57.6,21,58.1,51.6
						c0.2,10.9,0,21.8,0,32.7c0,20.3,0,40.7,0,61c0,11.9,0.4,23.9,0,35.8C110.1,193.4,105,198.6,97.9,198.9c-3.2,0.1-3.2,5.1,0,5
						c10.4-0.5,17.4-8.3,17.5-18.5c0.1-5.4,0-10.8,0-16.2c0-21,0-42,0-63c0-15.7,0-31.3,0-47c0-24.6-14.2-46.9-37.6-55.7
						C50-6.8,17.9,6.5,5.6,33.3C-1,47.5,0.2,62.8,0.2,78c0,35.9-0.5,71.8,0,107.7c0.2,10.1,7.4,17.9,17.6,18.2c5.7,0.2,11.3,0,17,0
						c19.6,0,39.2,0,58.8,0c1.4,0,2.9,0,4.3,0C101.1,203.9,101.1,198.9,97.9,198.9z"/>
				</g>
			</g>
		</g>
	</g>
	<circle class="st1" cx="57.5" cy="55.8" r="42.6"/>
	<g>
		<path class="st2" d="M91.5,52.4C90,36.2,76.8,23.1,60.7,21.8c-1-0.1-2.1-0.1-3.1-0.1c-13,0-21.5,6.6-26.3,12.1
			c-5.7,6.5-8.6,16-7.8,25.3c0.8,9.3,4.6,14.9,8.3,19.1c1.6,1.9,4.1,4.6,6.7,6.9l0.4,0.3c3.1,2.8,5.8,5.3,5.8,11
			c-2.3,0.5-3.4,2.6-3.5,4.6c-0.1,1.6,0.5,3.4,1.9,4.4c-1.3,1-2,2.8-1.9,4.4c0,1.7,0.8,3.1,2,3.8c-1.6,1.3-2.2,3.4-1.9,5.1
			c0.4,2.5,2.5,4.1,5.2,4.1c0,0,0,0,0,0c0.1,0,0.2,0,0.3,0c0.8,4.9,5,5.3,11,5.3c3.6,0,7.4-0.2,9.3-2.2c0.8-0.8,1.2-1.8,1.3-3.1
			c0.2,0,0.4,0,0.6,0c3.1,0,4.8-2.4,5.1-4.6c0.2-1.6-0.4-3.6-1.9-4.6c1.3-1,2-2.8,2-4.4c0-1.8-0.9-3.2-2.2-3.9
			c1.2-0.9,2.4-2.1,2.3-4.2c0-1.9-1.3-4.1-3.7-4.6c0.1-6.8,4.3-10.5,8.4-14.1c1.5-1.3,3.1-2.7,4.4-4.2
			C86.9,74.3,92.8,65.5,91.5,52.4z M82.6,68.6c-2,3.9-5.1,6.9-8.2,9.7c-4.9,4.6-10.1,9.3-10,18.1h-3.7V84.1c0-0.7,0.1-1.5,0.1-2.2
			c0.2-2.2,0.3-4.3-0.8-5.5c-0.5-0.6-1.3-0.9-2.3-0.9c-0.1,0-0.1,0-0.2,0c-1,0-1.7,0.3-2.2,0.9c-1.1,1.2-0.9,3.3-0.8,5.4
			c0.1,0.7,0.1,1.5,0.1,2.2v12.3h-3.7c0.1-8.7-4.3-12.6-8.8-16.7c-1.4-1.2-2.8-2.5-4.1-3.9c-5.1-5.4-7.7-11.4-8.1-18.2
			c-0.4-6.5,1.5-11.1,3.1-14.3c3.8-7.4,12.2-15.3,24.6-15.3c0.5,0,1,0,1.5,0c12.6,0.6,20.7,8.9,24.1,16.5
			C86.2,51.4,86,61.8,82.6,68.6z"/>
		<path class="st3" d="M61.3,52.1c-0.8,0-1.7,0-2.5,0.1c-0.8,0-1.5,0.1-2.2,0.1c-0.6,0-1.3,0-1.9,0c-0.6,0-1.1,0-1.7,0
			c-1.4,0-2.9,0.1-3.9,0.8c-0.2,0.2-0.3,0.4-0.3,0.7c0,0.1-0.1,0.3-0.2,0.5c-0.1,0.3-0.2,0.5-0.2,0.7c0,0.7,0.2,1.3,0.7,1.8
			c0.9,1,2.7,1.1,4.2,1.1c0.6,0,1.3,0,1.9,0c0.6,0,1.2,0,1.8,0c0.7,0,1.4,0,2.1,0c0.7,0,1.5,0,2.2,0c2.3,0,4.5-0.2,5.1-1.8
			c0.4-0.9,0.3-1.7-0.1-2.3C65.5,52.3,63.3,52.1,61.3,52.1z"/>
		<path class="st3" d="M64.8,59.7c-0.7-0.3-1.7-0.4-3.5-0.4c-1,0-2.2,0-3.1,0.1c-0.8,0-1.6,0.1-2.3,0.1c-0.3,0-0.7,0-1.1,0
			c-0.4,0-0.8,0-1.2,0c-1.6,0-5,0-5.2,2.5c0,0.7,0.2,1.3,0.6,1.8c1,1,2.8,1.2,4.5,1.2c0.8,0,1.6,0,2.3-0.1c0.7,0,1.5-0.1,2.1-0.1
			c0.6,0,1.3,0,1.9,0.1c0.7,0,1.4,0.1,2.1,0.1c0,0,0,0,0,0c1.8,0,3.7-0.2,4.3-1.6c0.3-0.6,0.3-1.3,0.1-1.9
			C66.2,60.7,65.6,60,64.8,59.7z"/>
		<path class="st3" d="M64.6,66.8c-0.6-0.2-1.7-0.3-3.6-0.3c-1,0-2,0-2.9,0.1c-0.8,0-1.5,0-2,0c-0.4,0-0.8,0-1.3,0
			c-0.5,0-1.1,0-1.6,0c-1.5,0-3.3,0.1-4.2,1.3c-0.5,0.7-0.6,1.5-0.2,2.6c0.5,1.6,2.8,1.8,5,1.8c0.7,0,1.5,0,2.2,0c0.6,0,1.2,0,1.8,0
			c0.7,0,1.4,0,2.1,0.1c0.7,0,1.4,0.1,2.1,0.1c0,0,0,0,0,0c2,0,4.1-0.2,4.6-1.8C67,68.5,65.8,67.3,64.6,66.8z"/>
	</g>
	<text transform="matrix(1 0 0 1 10.5576 179.9484)" class="st4 st5">EDU</text>
</g>
</svg>
