<?xml version="1.0" encoding="utf-8"?>
<!-- Generator: Adobe Illustrator 25.2.1, SVG Export Plug-In . SVG Version: 6.00 Build 0)  -->
<svg version="1.1" id="Layer_1" xmlns="http://www.w3.org/2000/svg" xmlns:xlink="http://www.w3.org/1999/xlink" x="0px" y="0px"
	 viewBox="0 0 115 204" style="enable-background:new 0 0 115 204;" xml:space="preserve">
<style type="text/css">
	.st0{fill:#FFFFFF;}
	.st1{fill:#010101;}
	.st2{fill:#2E3690;}
	.st3{fill:none;}
	.st4{fill:#F79421;}
</style>
<g>
	<g>
		<g>
			<path class="st0" d="M97.5,201.5H17.4c-8.3,0-15-6.7-15-15V2.5h110.1v184C112.5,194.8,105.8,201.5,97.5,201.5z"/>
			<g>
				<path class="st1" d="M97.5,199.1c-19.6,0-39.2,0-58.8,0c-7.1,0-14.2,0.3-21.3,0c-7.3-0.3-12.3-5.7-12.5-12.8c0-1.5,0-3,0-4.6
					c0-44.1,0-88.1,0-132.2c0-15.2,0-30.4,0-45.6C4,4.8,3.2,5.6,2.4,6.4c32.2,0,64.3,0,96.5,0c4.5,0,9.1,0,13.6,0
					c-0.8-0.8-1.7-1.7-2.5-2.5c0,22.1,0,44.2,0,66.3c0,33.2,0,66.4,0,99.7C110,180.5,113,198.4,97.5,199.1c-3.2,0.1-3.2,5.1,0,5
					c9.9-0.4,17.2-7.7,17.5-17.6c0.1-2.5,0-5.1,0-7.6c0-13.5,0-26.9,0-40.4c0-36,0-72.1,0-108.1c0-8.8,0-17.6,0-26.3
					c0-1.3-1.1-2.5-2.5-2.5c-32.2,0-64.3,0-96.5,0c-4.5,0-9.1,0-13.6,0C1,1.5-0.1,2.6-0.1,4c0,39.1,0,78.2,0,117.3
					c0,19.8,0,39.7,0,59.5c0,6.4-0.1,12.5,4.7,17.6c6.4,6.8,15.6,5.6,24,5.6c23,0,45.9,0,68.9,0C100.7,204,100.7,199.1,97.5,199.1z"
					/>
			</g>
		</g>
		<g>
			<g>
				<g>
					<path class="st2" d="M26.9,3.5c0,6.4,0,12.7,0,19.1c0,7.2,0.5,17.8-9.9,17.7S7.2,29.9,7.2,22.6c0-6.4,0-12.7,0-19.1
						C6,4.7,4.7,5.9,3.5,7.1c9,0,18,0,26.9,0c4.6,0,4.6-7.2,0-7.2c-9,0-18,0-26.9,0c-2,0-3.6,1.7-3.6,3.6c0,5.9,0,11.8,0,17.7
						c0,6.3-0.8,13.1,2.9,18.7c5.7,8.6,18.2,10.1,25.8,3c5.5-5.1,5.4-11.8,5.4-18.6c0-6.9,0-13.9,0-20.8C34.1-1.2,26.9-1.2,26.9,3.5
						z"/>
				</g>
			</g>
			<g>
				<g>
					<path class="st2" d="M53.8,3.5c0,6.4,0,12.7,0,19.1c0,7.2,0.5,17.8-9.9,17.7s-9.9-10.4-9.9-17.7c0-6.4,0-12.7,0-19.1
						c-1.2,1.2-2.4,2.4-3.6,3.6c9,0,18,0,26.9,0c4.6,0,4.6-7.2,0-7.2c-9,0-18,0-26.9,0c-2,0-3.6,1.7-3.6,3.6c0,5.9,0,11.8,0,17.7
						c0,6.3-0.8,13.1,2.9,18.7c5.7,8.6,18.2,10.1,25.8,3c5.5-5.1,5.4-11.8,5.4-18.6c0-6.9,0-13.9,0-20.8C61-1.2,53.8-1.2,53.8,3.5z"
						/>
				</g>
			</g>
			<g>
				<g>
					<path class="st2" d="M80.7,3.5c0,6.4,0,12.7,0,19.1c0,7.2,0.5,17.8-9.9,17.7S61,29.9,61,22.6c0-6.4,0-12.7,0-19.1
						c-1.2,1.2-2.4,2.4-3.6,3.6c9,0,18,0,26.9,0c4.6,0,4.6-7.2,0-7.2c-9,0-18,0-26.9,0c-2,0-3.6,1.7-3.6,3.6c0,5.9,0,11.8,0,17.7
						c0,6.3-0.8,13.1,2.9,18.7c5.7,8.6,18.2,10.1,25.8,3C88,37.8,88,31.1,88,24.3c0-6.9,0-13.9,0-20.8C88-1.2,80.7-1.2,80.7,3.5z"/>
				</g>
			</g>
			<g>
				<g>
					<path class="st2" d="M107.7,3.5c0,6.4,0,12.7,0,19.1c0,7.2,0.5,17.8-9.9,17.7c-10.3,0-9.9-10.4-9.9-17.7c0-6.4,0-12.7,0-19.1
						c-1.2,1.2-2.4,2.4-3.6,3.6c9,0,18,0,26.9,0c4.6,0,4.6-7.2,0-7.2c-9,0-18,0-26.9,0c-2,0-3.6,1.7-3.6,3.6c0,5.9,0,11.8,0,17.7
						c0,6.3-0.8,13.1,2.9,18.7c5.7,8.6,18.2,10.1,25.8,3c5.5-5.1,5.4-11.8,5.4-18.6c0-6.9,0-13.9,0-20.8
						C114.9-1.2,107.7-1.2,107.7,3.5z"/>
				</g>
			</g>
		</g>
		<g>
			<line class="st3" x1="43.5" y1="180.1" x2="71.3" y2="180.1"/>
			<g>
				<path class="st1" d="M43.5,182.6c9.3,0,18.6,0,27.8,0c3.2,0,3.2-5,0-5c-9.3,0-18.6,0-27.8,0C40.3,177.6,40.3,182.6,43.5,182.6
					L43.5,182.6z"/>
			</g>
		</g>
	</g>
	<g>
		<path class="st4" d="M27.8,148.4V77.2c0-2.6,2.1-4.8,4.8-4.8H63c4.2,0,6.4,5.1,3.4,8.1l-4,4c-0.9,0.9-1.4,2.1-1.4,3.4v54.7
			c0,2.2-1.5,4.1-3.6,4.6L33.6,153C30.7,153.7,27.8,151.5,27.8,148.4z"/>
		<circle class="st4" cx="45.1" cy="61.9" r="6.3"/>
	</g>
	<g>
		<path class="st2" d="M87.4,163.9v-55c0-2.6-2.1-4.8-4.8-4.8H52.1c-4.2,0-6.4,5.1-3.4,8.1l4,4c0.9,0.9,1.4,2.1,1.4,3.4v38.5
			c0,2.2,1.5,4.1,3.6,4.6l23.7,5.8C84.5,169.2,87.4,167,87.4,163.9z"/>
		<circle class="st2" cx="68.9" cy="92.6" r="6.3"/>
	</g>
</g>
</svg>
