<?xml version="1.0" encoding="utf-8"?>
<!-- Generator: Adobe Illustrator 25.2.1, SVG Export Plug-In . SVG Version: 6.00 Build 0)  -->
<svg version="1.1" id="Layer_1" xmlns="http://www.w3.org/2000/svg" xmlns:xlink="http://www.w3.org/1999/xlink" x="0px" y="0px"
	 viewBox="0 0 115 204" style="enable-background:new 0 0 115 204;" xml:space="preserve">
<style type="text/css">
	.st0{fill:#FFFFFF;}
	.st1{stroke:#000000;stroke-width:0.75;stroke-miterlimit:10;}
	.st2{fill:#2E3192;}
	.st3{fill:#F7941D;}
	.st4{fill:none;}
</style>
<g>
	<g>
		<g>
			<g>
				<g>
					<path class="st0" d="M17.3,2.6h80.1c8.3,0,15,6.7,15,15v128.9c0,30.4-24.7,55.1-55.1,55.1l0,0c-30.4,0-55.1-24.7-55.1-55.1
						V17.6C2.3,9.3,9.1,2.6,17.3,2.6z"/>
					<g>
						<path d="M17.3,5.1c14.5,0,29,0,43.5,0c9.1,0,18.3,0,27.4,0c6.4,0,13.7-1.1,18.5,4.1c3.8,4.2,3.2,9.5,3.2,14.7
							c0,7.1,0,14.2,0,21.4c0,20.2,0,40.5,0,60.7c0,13.2,0.1,26.5,0,39.8c-0.1,26.8-19.9,50.3-47,53.1c-30.4,3.1-57.6-21-58.1-51.6
							c-0.2-10.9,0-21.8,0-32.7c0-20.3,0-40.7,0-61c0-11.9-0.4-23.9,0-35.8C5.1,10.6,10.2,5.4,17.3,5.1c3.2-0.1,3.2-5.1,0-5
							C7,0.5,0,8.4-0.2,18.6c-0.1,5.4,0,10.8,0,16.2c0,21,0,42,0,63c0,15.7,0,31.3,0,47c0,24.6,14.2,46.9,37.6,55.7
							c27.7,10.3,59.8-3,72.2-29.8c6.5-14.2,5.3-29.6,5.3-44.7c0-35.9,0.5-71.8,0-107.7c-0.2-10.1-7.4-17.9-17.6-18.2
							c-5.7-0.2-11.3,0-17,0c-19.6,0-39.2,0-58.8,0c-1.4,0-2.9,0-4.3,0C14.1,0.1,14.1,5.1,17.3,5.1z"/>
					</g>
				</g>
			</g>
		</g>
	</g>
	<path class="st1" d="M94.9,98.7c-0.2-0.1-0.3-0.1-0.5-0.2c-2.9-0.2-5.9-0.3-8.8-0.5c-3.4-0.2-6.8-0.5-10.1-1.2
		c-2.8-0.6-4.4-2.4-4.8-5.2c-0.1-0.8-0.2-1.7-0.4-2.5c-0.2-0.9-0.6-1.1-1.4-0.7c-1.3,0.7-2.6,1.5-4,2c-4.9,2-9.7,1.4-14.1-1.5
		c-0.8-0.5-1.4-1.4-2.2-2c-1.5-1-3-2-4.6-2.9c-0.3-0.2-0.6-0.3-0.9-0.5c-1-0.6-1.5-1.4-1.7-2.5c-0.2-1-0.5-2-1-2.9
		c-1.2-2.3-2.8-4.2-4.7-6c-0.9-0.8-1.8-1.1-2.9-0.7c-0.6,0.2-1.2,0.3-1.9,0.4c-2.1,0.4-3.8-0.9-4.4-2.6c-0.3-0.8-0.3-1.7-0.5-2.6
		C26,66.5,26,66.2,25.8,66c-1-0.9-1.2-2-1-3.2c0.1-0.7,0.2-1.3,0.5-2c0.2-0.5,0.1-0.9-0.3-1.2c-1.1-1.1-2.2-2.2-3.3-3.4
		c-1.7-1.7-3.4-3.4-4.9-5.2c-2.8-3.2-2.6-6,0-9.2c0.8-1,1.6-1.9,2.3-2.8c0.3-0.4,0.3-0.7-0.2-0.9c-3-1.1-4.2-3.6-5-6.3
		c-0.8-2.7-1.6-5.4-2.1-8.2c-0.5-2.5,0-4.9,0.7-7.3c0.3-0.9,0.6-1.8,0.8-2.7c0.3-1,1-1.5,1.9-1.9c0,0,0.1,0,0.1,0
		c1.5,0.3,1.9,1.5,2.5,2.6c0.5,1.1,1.2,2.1,1.9,3.1c0.3,0.5,0.7,0.7,1.3,0.6c0.5-0.1,1.1,0,1.6-0.1c0.8-0.1,1.5-0.5,2.2-1
		c1.5-1,3.1-1.9,4.7-2.8c0.8-0.4,1.5-0.2,2.1,0.4c0.4,0.5,0.9,1,1.2,1.5c0.7,1.1,0.5,2.2,0,3.3c-0.2,0.5-0.5,0.9-0.9,1.5
		c0.4,0.2,0.8,0.4,1.2,0.5c1.3,0.5,2,1.4,2,2.8c0,0.5,0,0.9,0,1.4c0,0.4,0.1,0.6,0.5,0.7c1.8,0.3,3.2,1.3,4.5,2.5
		c0.5,0.5,1.1,1,1.6,1.5c1.1,1.1,2.5,1.4,4,1.5c2.8,0.2,5.5-0.4,8.2-1.1c0.2-0.1,0.4-0.3,0.5-0.6c0.3-1.4,0.9-1.8,2.4-1.7
		c0.4,0,0.9-0.2,1.2-0.4c0.8-0.6,1.4-1.3,2.2-2c1.2-1,2.6-1.6,4.3-1.7c0.2,0,0.5-0.2,0.7-0.4c0.4-0.7,1-1,1.8-1
		c1.3-0.1,2.6-0.1,3.8-0.2c0.8,0,1.5,0.3,1.9,1.1c0.2,0.4,0.4,0.6,0.9,0.7c0.4,0.1,0.7,0.5,1,0.8c0.4,0.6,0.8,0.9,1.6,1
		c3,0.4,5.6,1.6,7.8,3.7c1,0.9,1.8,1.1,3.1,0.8c1.7-0.4,3.3,0.4,3.7,1.8c0.3,0.8,0.5,1.6,0.7,2.5c0.7,3.7,0.4,7.2-1.9,10.3
		c-0.1,0.2-0.3,0.4-0.4,0.6c-1.1,0.9-0.9,2.1-0.6,3.3c0.4,1.3,0.6,2.6,0,3.9c-0.1,0.2,0,0.5,0.1,0.7c0.3,0.7,0.6,1.3,1,2
		c0.5,1,1,1.9,0.8,3.1c0,0.1,0.3,0.4,0.4,0.4c1,0.4,2,0.7,3.1,1c0.8,0.2,1.3,0.7,1.4,1.5c0.2,0.7,0.3,1.4,0.5,2
		c0.2,0.7,0,1.3-0.4,1.9c-0.9,1.4-1.7,2.9-2.6,4.3c-0.2,0.4-0.2,0.7,0,1.1c0.9,1.5,1.8,3.1,2.7,4.6c0.2,0.4,0.5,0.6,0.9,0.7
		c1.2,0.3,2.4,0.7,3.7,1.1c0.9,0.2,1.3,0.8,1.5,1.7c0.2,1.1,0.4,2.2,0.6,3.2c0,0.2,0.3,0.5,0.4,0.5c1.9,0.3,2.3,0.8,2.1,2.6
		c-0.1,0.7-0.2,1.3-0.3,2c-0.1,0.8-0.5,1.3-1.3,1.6c-1.7,0.7-3.4,1.5-5.2,2.2c-2,0.9-2.3,1.6-1.9,3.8c0.1,0.3,0.2,0.7,0.3,1
		c0.3,1-0.1,1.8-1.2,2.2c-0.1,0-0.2,0.1-0.3,0.2C95.1,98.7,95,98.7,94.9,98.7z M100.9,86.7c-1.2-0.4-1.4-1.4-1.6-2.3
		c-0.2-1-0.4-2.1-0.6-3.1c-0.1-0.4-0.2-0.6-0.6-0.7c-1.1-0.3-2.3-0.7-3.4-1c-0.6-0.2-1.1-0.6-1.4-1.1c-1.2-2.1-2.5-4.3-3.7-6.4
		c-0.2-0.4-0.3-1-0.2-1.5c0.1-0.6,0.4-1.3,0.7-1.8c0.7-1.3,1.5-2.6,2.2-3.9c0.4-0.7,0.2-1.2-0.5-1.5c-1-0.3-2-0.6-3-1
		c-1.1-0.4-1.6-1.1-1.7-2.3c0-0.3,0-0.6,0-1c-0.1-0.5-0.2-1.1-0.4-1.5c-0.3-0.8-0.8-1.6-1.2-2.4c-0.4-1-0.6-2.1-0.1-3.1
		c0.2-0.5,0.2-0.9,0.1-1.4c-0.2-1-0.4-2-0.4-2.9c0-1.1,0.1-2.2,0.9-3.1c2.8-2.9,3-6.3,2-10c-0.1-0.4-0.3-0.4-0.6-0.3
		c-0.5,0.1-1,0.3-1.6,0.4c-0.7,0.3-1.3,0.1-1.9-0.4c-0.5-0.4-1-0.8-1.5-1.3c-2-1.9-4.3-3.1-7.1-3.3c-1.2-0.1-2.1-0.4-2.7-1.5
		c-0.1-0.1-0.4-0.2-0.5-0.3c-0.7-0.1-1.3-0.4-1.7-1.1c-0.3-0.7-1.2-0.8-1.7-0.2c-0.5,0.7-1.3,1.1-2.1,1.1c-2.3-0.1-4.1,0.8-5.5,2.5
		c0,0,0,0,0,0c-0.8,0.8-1.7,1.3-2.7,1.6c-0.2,0.1-0.5,0.3-0.6,0.6c-0.2,0.7-0.6,1.1-1.3,1.3c-3.6,0.9-7.2,1.8-10.9,1.5
		c-2-0.1-3.9-0.7-5.5-2.1c-0.7-0.6-1.4-1.2-2.1-1.9c-1-0.9-2-1.5-3.3-1.7c-1.5-0.3-2.4-1.2-2.6-2.8c-0.1-0.5-0.1-1-0.1-1.5
		c0-0.4-0.1-0.7-0.5-0.9c-0.6-0.3-1.2-0.6-1.7-1c-1.4-1.1-1.6-2.6-0.6-4.1c0.2-0.4,0.5-0.8,0.7-1.1c0,0-0.1-0.1-0.1-0.1
		c-0.2,0.1-0.4,0.1-0.5,0.2c-0.9,0.6-1.8,1.1-2.6,1.7c-1.6,1.2-3.3,1.4-5.2,1.5c-1.9,0.1-3.4-0.6-4.5-2.1c-0.3-0.4-0.6-0.8-0.8-1.2
		c-0.1-0.1-0.2-0.3-0.4-0.4c-0.1,0.2-0.2,0.3-0.2,0.4c-0.4,1.6-0.6,3.2-0.3,4.8c0.5,3.3,1.5,6.5,2.7,9.5c0.4,1,1,1.8,2.1,2.2
		c0.4,0.1,0.7,0.4,1.1,0.6c1,0.6,1.5,1.5,1.6,2.7c0.2,1.4-0.4,2.5-1.3,3.5c-0.9,1.2-1.9,2.4-2.8,3.6C18,46.1,18,47.1,18.8,48
		c1,1.2,2,2.4,3.1,3.6c1.6,1.7,3.3,3.2,4.9,4.9c0.7,0.7,1.3,1.5,1.8,2.3c0.5,0.7,0.6,1.5,0.2,2.3c-0.2,0.6-0.4,1.3-0.5,1.9
		c0,0.2,0.1,0.5,0.2,0.6c0.7,0.6,1,1.4,1,2.4c0,0.7,0.1,1.4,0.3,2c0.1,0.5,0.4,0.7,1,0.6c0.4-0.1,0.9-0.2,1.3-0.3
		c1.9-0.5,3.8-0.5,5.4,0.9c1.3,1.2,2.6,2.5,3.8,3.9c1.5,1.9,2.9,3.9,3.5,6.3c0.2,1.1,0.8,1.6,1.7,2.1c2.1,1,4.1,2.3,5.6,4
		c0.8,0.9,1.8,1.5,2.9,1.9c3.1,1.1,6.1,1.4,9.1-0.2c1.3-0.7,2.5-1.4,3.8-2c1.9-0.9,3.6-0.5,4.9,1.2c0.4,0.5,0.7,1,0.8,1.6
		c0.2,0.8,0.4,1.7,0.5,2.6c0.2,1.9,0.7,2.6,2.4,2.9c3.4,0.7,6.9,0.9,10.4,1.1c1.5,0.1,3,0.1,4.5,0.3c1.5,0.1,1.5,0.2,1.5-1.2
		c0-2.1,0.9-3.7,2.8-4.6c1.3-0.6,2.6-1.2,3.9-1.8C99.9,87.1,100.3,86.9,100.9,86.7z"/>
	<path class="st2" d="M100.9,86.7c-0.6,0.3-1,0.4-1.4,0.6c-1.3,0.6-2.6,1.2-3.9,1.8c-1.9,0.9-2.7,2.6-2.8,4.6c0,1.4,0,1.4-1.5,1.2
		c-1.5-0.2-3-0.2-4.5-0.3c-3.5-0.2-7-0.4-10.4-1.1c-1.6-0.3-2.2-1-2.4-2.9c-0.1-0.9-0.2-1.7-0.5-2.6c-0.2-0.6-0.5-1.1-0.8-1.6
		c-1.3-1.7-3-2.1-4.9-1.2c-1.3,0.6-2.6,1.3-3.8,2c-3,1.5-6.1,1.3-9.1,0.2c-1.1-0.4-2.1-1-2.9-1.9c-1.6-1.7-3.5-3-5.6-4
		c-0.9-0.4-1.5-1-1.7-2.1c-0.5-2.4-1.9-4.4-3.5-6.3c-1.1-1.4-2.4-2.7-3.8-3.9c-1.5-1.4-3.4-1.4-5.4-0.9c-0.4,0.1-0.9,0.2-1.3,0.3
		c-0.5,0.1-0.9-0.1-1-0.6c-0.1-0.7-0.2-1.3-0.3-2c0-0.9-0.3-1.8-1-2.4c-0.1-0.1-0.2-0.4-0.2-0.6c0.1-0.6,0.3-1.3,0.5-1.9
		c0.3-0.8,0.2-1.6-0.2-2.3c-0.6-0.8-1.2-1.6-1.8-2.3c-1.6-1.7-3.3-3.2-4.9-4.9c-1.1-1.1-2.1-2.4-3.1-3.6c-0.7-0.9-0.8-1.9-0.1-2.8
		c0.9-1.2,1.8-2.4,2.8-3.6c0.8-1,1.4-2.1,1.3-3.5c-0.1-1.1-0.6-2-1.6-2.7c-0.3-0.2-0.7-0.5-1.1-0.6c-1.1-0.4-1.7-1.2-2.1-2.2
		c-1.3-3.1-2.2-6.2-2.7-9.5c-0.2-1.6-0.1-3.2,0.3-4.8c0-0.1,0.1-0.2,0.2-0.4c0.1,0.2,0.3,0.3,0.4,0.4c0.3,0.4,0.6,0.8,0.8,1.2
		c1.1,1.5,2.6,2.2,4.5,2.1c1.9-0.1,3.6-0.3,5.2-1.5c0.8-0.6,1.7-1.2,2.6-1.7c0.2-0.1,0.3-0.2,0.5-0.2c0,0,0.1,0.1,0.1,0.1
		c-0.2,0.4-0.5,0.8-0.7,1.1c-1,1.5-0.8,3,0.6,4.1c0.5,0.4,1.1,0.7,1.7,1c0.4,0.2,0.6,0.4,0.5,0.9c0,0.5,0,1,0.1,1.5
		c0.2,1.5,1.1,2.5,2.6,2.8c1.3,0.2,2.4,0.8,3.3,1.7c0.7,0.6,1.4,1.2,2.1,1.9c1.6,1.4,3.5,1.9,5.5,2.1c3.7,0.3,7.3-0.6,10.9-1.5
		c0.7-0.2,1.1-0.6,1.3-1.3c0.1-0.2,0.3-0.5,0.6-0.6c1-0.3,1.9-0.9,2.7-1.6c0,0,0,0,0,0c1.4-1.7,3.2-2.6,5.5-2.5
		c0.9,0,1.6-0.3,2.1-1.1c0.5-0.6,1.4-0.5,1.7,0.2c0.3,0.7,0.9,1,1.7,1.1c0.2,0,0.5,0.1,0.5,0.3c0.6,1.1,1.6,1.4,2.7,1.5
		c2.8,0.2,5.1,1.5,7.1,3.3c0.5,0.4,1,0.9,1.5,1.3c0.6,0.5,1.2,0.6,1.9,0.4c0.5-0.2,1-0.3,1.6-0.4c0.3-0.1,0.5,0,0.6,0.3
		c1.1,3.7,0.9,7.1-2,10c-0.9,0.9-0.9,2-0.9,3.1c0,1,0.2,2,0.4,2.9c0.1,0.5,0.2,0.9-0.1,1.4c-0.5,1.1-0.3,2.1,0.1,3.1
		c0.3,0.8,0.8,1.6,1.2,2.4c0.2,0.5,0.3,1,0.4,1.5c0.1,0.3,0,0.6,0,1c0,1.2,0.6,1.9,1.7,2.3c1,0.3,2,0.6,3,1c0.8,0.2,0.9,0.8,0.5,1.5
		c-0.8,1.3-1.5,2.6-2.2,3.9c-0.3,0.6-0.6,1.2-0.7,1.8c-0.1,0.5,0,1.1,0.2,1.5c1.2,2.2,2.5,4.3,3.7,6.4c0.3,0.6,0.8,0.9,1.4,1.1
		c1.2,0.3,2.3,0.7,3.4,1c0.3,0.1,0.5,0.3,0.6,0.7c0.2,1,0.4,2.1,0.6,3.1C99.5,85.3,99.6,86.2,100.9,86.7z"/>
	<polygon class="st3" points="57.3,60.1 40.3,89.6 74.4,89.6 	"/>
	<path class="st4" d="M57.2,167.2L57.2,167.2c-23.3,0-42.2-18.9-42.2-42.2V90.3C15,67,33.9,48.1,57.2,48.1h0
		c23.3,0,42.2,18.9,42.2,42.2v34.8C99.4,148.3,80.5,167.2,57.2,167.2z"/>
	<g>
		<path d="M96.1,149.1c-0.4,0.8-1.1,1.1-2.1,1.1c-2.3,0-4.6,0-7,0c0,0.4,0,0.7,0,1c0,6.9,0,11.8,0,18.7c0,1.5-0.5,2-2,2l-27.5,5.9
			c0,0.3-27.9-5.9-27.9-5.9c-1.5,0-2-0.5-2-2c0-6.9,0-11.7,0-18.6c0-0.3,0-0.6,0-1c-0.3,0-0.6,0-0.9,0c-2.2,0-4.3,0-6.5,0
			c-0.7,0-1.2-0.2-1.5-0.8c-0.3-0.6-0.2-1.2,0.2-1.7c3-4.5,5.9-8.9,8.9-13.4c0.4-0.5,0.9-0.8,1.5-0.8c6.5,0,17.4,0,28,0
			c9.2,0,18.1,0,23.7,0c1,0,1.7,0.6,1.7,1.5c0,0.9-0.7,1.5-1.7,1.5c-1.9,0-18.9,0-20.8,0c0.1,0.2,0.2,0.4,0.3,0.6
			c2.1,3.2,4.2,6.3,6.3,9.5c0.2,0.3,0.4,0.5,0.9,0.5c7.8,0,15.7,0,23.5,0c0.1,0,0.2,0,0.4,0c-0.1-0.2-0.2-0.4-0.3-0.5
			c-2.1-3.2-4.2-6.3-6.3-9.5c-0.3-0.4-0.5-0.5-1-0.5c-1.4,0-2.7,0-4.1,0c-1.1,0-1.7-0.6-1.7-1.5c0-0.9,0.7-1.5,1.8-1.5
			c1.7,0,3.4,0,5.1,0c0.9,0,1.5,0.3,1.9,1c3,4.6,6.1,9.1,9.1,13.7C96.1,148.5,96.1,148.8,96.1,149.1z M30.7,168.7l25.1,5
			c0-10.2,0-23.3,0-33.6c-0.2,0.3-0.4,0.6-0.6,0.8c-1.8,2.7-3.6,5.4-5.4,8.1c-0.5,0.8-1.2,1.2-2.2,1.2c-5.4,0-10.8,0-16.1,0
			c-0.3,0-0.5,0-0.8,0C30.7,157,30.7,161.8,30.7,168.7z M83.9,150.1c-0.3,0-0.6,0-0.9,0c-5.4,0-10.8,0-16.2,0c-0.9,0-1.5-0.3-2-1.1
			c-1.8-2.7-3.6-5.5-5.5-8.2c-0.1-0.2-0.3-0.4-0.5-0.7c0,10.3,0,23.4,0,33.6l25.1-5C83.9,161.9,83.9,157.1,83.9,150.1z M54.4,136.5
			c-0.2,0-0.3,0-0.4,0c-7.9,0-15.8,0-23.6,0c-0.3,0-0.6,0.3-0.8,0.5c-2.1,3.2-4.2,6.3-6.4,9.5c-0.1,0.2-0.2,0.3-0.3,0.5
			c0.1,0,0.1,0.1,0.2,0.1c8,0,15.9,0,23.9,0c0.2,0,0.5-0.1,0.6-0.3C49.9,143.4,52.1,140,54.4,136.5z"/>
	</g>
	<rect x="49.5" y="83.8" class="st3" width="15.7" height="49.7"/>
</g>
</svg>
