<svg width="844" height="172" viewBox="0 0 844 172" fill="none" xmlns="http://www.w3.org/2000/svg">
<path d="M2.18688 5.19052C2.22724 5.74132 1.81344 6.22057 1.26263 6.26091C0.711822 6.30127 0.232588 5.88747 0.192231 5.33665L2.18688 5.19052ZM1.71245 15.3984C1.58634 14.8607 1.91999 14.3226 2.45769 14.1965C2.99538 14.0704 3.5335 14.404 3.65961 14.9417L1.71245 15.3984ZM6.72969 24.3107C6.94718 24.8184 6.71194 25.4062 6.20428 25.6237C5.69662 25.8412 5.10877 25.6059 4.89129 25.0983L6.72969 24.3107ZM9.73699 34.1017C9.43354 33.6403 9.56161 33.0202 10.0231 32.7168C10.4845 32.4133 11.1046 32.5414 11.408 33.0028L9.73699 34.1017ZM17.4639 40.7325C17.8379 41.1389 17.8118 41.7715 17.4055 42.1456C16.9991 42.5196 16.3665 42.4935 15.9925 42.0872L17.4639 40.7325ZM23.455 49.0962C23.0276 48.7466 22.9645 48.1165 23.3142 47.6891C23.6638 47.2616 24.2938 47.1985 24.7213 47.5482L23.455 49.0962ZM32.745 53.3494C33.2098 53.6476 33.3449 54.2662 33.0467 54.731C32.7485 55.1959 32.1299 55.331 31.665 55.0327L32.745 53.3494ZM40.5021 60.1124C40.0113 59.8592 39.8187 59.256 40.0719 58.7652C40.3251 58.2744 40.9283 58.0818 41.4191 58.3351L40.5021 60.1124ZM50.4391 62.5506C50.9476 62.7661 51.1853 63.3529 50.9698 63.8615C50.7544 64.37 50.1675 64.6076 49.659 64.3922L50.4391 62.5506ZM59.2107 68.0793C58.6897 67.8961 58.4158 67.3252 58.5991 66.8042C58.7823 66.2832 59.3532 66.0094 59.8742 66.1926L59.2107 68.0793ZM69.2885 69.2308C69.8181 69.3876 70.1203 69.9439 69.9636 70.4735C69.8068 71.0031 69.2505 71.3053 68.7209 71.1486L69.2885 69.2308ZM78.7819 73.8806C78.246 73.7473 77.9196 73.2047 78.0529 72.6688C78.1863 72.1328 78.7289 71.8065 79.2648 71.9398L78.7819 73.8806ZM88.7763 74.126C89.3166 74.2405 89.6618 74.7713 89.5472 75.3116C89.4327 75.8519 88.9019 76.197 88.3616 76.0825L88.7763 74.126ZM98.3805 78.0402C97.8369 77.9425 97.4755 77.4226 97.5732 76.879C97.6708 76.3355 98.1907 75.974 98.7343 76.0717L98.3805 78.0402ZM108.706 77.7239C109.252 77.8071 109.627 78.3171 109.544 78.8631C109.461 79.4091 108.951 79.7842 108.405 79.7011L108.706 77.7239ZM118.274 81.0876C117.727 81.0168 117.34 80.5155 117.411 79.9677C117.482 79.42 117.983 79.0333 118.531 79.1041L118.274 81.0876ZM128.684 80.3075C129.233 80.367 129.629 80.8603 129.57 81.4094C129.51 81.9585 129.017 82.3553 128.468 82.2958L128.684 80.3075ZM138.48 83.2893C137.93 83.2395 137.524 82.7533 137.574 82.2032C137.624 81.6532 138.11 81.2476 138.66 81.2974L138.48 83.2893ZM148.597 82.1166C149.148 82.1578 149.561 82.6376 149.52 83.1884C149.479 83.7391 148.999 84.1522 148.448 84.1111L148.597 82.1166ZM158.661 84.7996C158.11 84.7663 157.69 84.2924 157.723 83.7412C157.757 83.1899 158.231 82.77 158.782 82.8033L158.661 84.7996ZM168.832 83.3458C169.384 83.3721 169.81 83.8407 169.784 84.3924C169.757 84.944 169.289 85.3699 168.737 85.3435L168.832 83.3458ZM178.716 85.7636C178.165 85.7434 177.733 85.2796 177.754 84.7277C177.774 84.1757 178.238 83.7447 178.79 83.7649L178.716 85.7636ZM188.936 84.0831C189.488 84.0976 189.924 84.557 189.909 85.1091C189.895 85.6612 189.435 86.0969 188.883 86.0824L188.936 84.0831ZM199.072 86.3025C198.52 86.2931 198.08 85.8378 198.09 85.2856C198.099 84.7334 198.554 84.2934 199.107 84.3028L199.072 86.3025ZM209.046 84.4308C209.598 84.4356 210.042 84.8873 210.037 85.4395C210.032 85.9918 209.58 86.4355 209.028 86.4307L209.046 84.4308ZM219.129 86.4813C218.577 86.4806 218.13 86.0323 218.13 85.48C218.131 84.9277 218.579 84.4806 219.132 84.4813L219.129 86.4813ZM229.356 84.4587C229.908 84.4556 230.359 84.9008 230.362 85.4531C230.365 86.0053 229.92 86.4556 229.367 86.4587L229.356 84.4587ZM239.366 86.3714C238.814 86.3779 238.361 85.9355 238.354 85.3832C238.348 84.831 238.79 84.378 239.343 84.3715L239.366 86.3714ZM249.37 84.2254C249.922 84.2159 250.377 84.6558 250.387 85.208C250.396 85.7602 249.956 86.2156 249.404 86.2251L249.37 84.2254ZM259.549 86.0232C258.996 86.0355 258.539 85.598 258.526 85.0458C258.514 84.4937 258.952 84.036 259.504 84.0237L259.549 86.0232ZM269.66 83.7721C270.212 83.7571 270.672 84.1926 270.687 84.7447C270.702 85.2968 270.266 85.7564 269.714 85.7713L269.66 83.7721ZM279.706 85.4803C279.154 85.4975 278.692 85.064 278.675 84.5119C278.658 83.9599 279.091 83.4985 279.643 83.4813L279.706 85.4803ZM289.708 83.1489C290.26 83.1296 290.723 83.5615 290.743 84.1134C290.762 84.6654 290.33 85.1284 289.778 85.1476L289.708 83.1489ZM299.925 84.7767C299.374 84.7977 298.909 84.3674 298.888 83.8156C298.867 83.2637 299.297 82.7992 299.849 82.7781L299.925 84.7767ZM309.934 82.3776C310.486 82.3549 310.952 82.7838 310.975 83.3356C310.997 83.8875 310.569 84.3532 310.017 84.3759L309.934 82.3776ZM320.044 83.9499C319.492 83.974 319.025 83.5463 319.001 82.9946C318.977 82.4428 319.405 81.976 319.956 81.9518L320.044 83.9499ZM330.034 81.4991C330.585 81.4737 331.053 81.9004 331.078 82.4521C331.104 83.0038 330.677 83.4716 330.125 83.497L330.034 81.4991ZM340.256 83.0203C339.705 83.0468 339.236 82.6211 339.21 82.0695C339.183 81.5178 339.609 81.0491 340.161 81.0227L340.256 83.0203ZM350.221 80.5311C350.772 80.5037 351.242 80.9286 351.269 81.4802C351.296 82.0318 350.871 82.5012 350.32 82.5286L350.221 80.5311ZM360.368 82.0225C359.816 82.0506 359.346 81.6263 359.318 81.0747C359.29 80.5232 359.714 80.0532 360.266 80.0251L360.368 82.0225ZM370.343 79.5051C370.895 79.4763 371.365 79.9001 371.394 80.4517C371.423 81.0032 370.999 81.4736 370.448 81.5024L370.343 79.5051ZM380.554 80.9713C380.002 81.0005 379.532 80.5771 379.502 80.0256C379.473 79.4741 379.897 79.0033 380.448 78.9741L380.554 80.9713ZM390.511 78.4386C391.062 78.4091 391.533 78.8323 391.562 79.3838C391.592 79.9353 391.169 80.4063 390.617 80.4357L390.511 78.4386ZM400.68 79.8961C400.129 79.9258 399.657 79.5027 399.628 78.9512C399.598 78.3997 400.021 77.9287 400.573 77.899L400.68 79.8961ZM410.646 77.3574C411.198 77.3278 411.669 77.7508 411.698 78.3023C411.728 78.8538 411.305 79.3249 410.753 79.3546L410.646 77.3574ZM420.832 78.8139C420.281 78.8434 419.81 78.4202 419.78 77.8687C419.751 77.3173 420.174 76.8463 420.725 76.8168L420.832 78.8139ZM430.806 76.2799C431.358 76.2507 431.829 76.6741 431.858 77.2256C431.887 77.7771 431.464 78.2479 430.912 78.2771L430.806 76.2799ZM440.988 77.747C440.436 77.7758 439.966 77.3521 439.937 76.8005C439.908 76.249 440.332 75.7785 440.883 75.7498L440.988 77.747ZM450.951 75.2293C451.502 75.2011 451.972 75.6254 452.001 76.1769C452.029 76.7285 451.605 77.1985 451.053 77.2267L450.951 75.2293ZM461.103 76.719C460.552 76.7465 460.082 76.3216 460.055 75.77C460.027 75.2184 460.452 74.749 461.004 74.7215L461.103 76.719ZM471.116 74.2254C471.667 74.1988 472.136 74.6244 472.163 75.176C472.189 75.7277 471.764 76.1965 471.212 76.2231L471.116 74.2254ZM481.298 75.7458C480.747 75.7714 480.279 75.3448 480.253 74.7932C480.228 74.2415 480.654 73.7735 481.206 73.7479L481.298 75.7458ZM491.265 73.2922C491.817 73.2678 492.284 73.6954 492.308 74.2471C492.333 74.7988 491.905 75.2659 491.353 75.2903L491.265 73.2922ZM501.385 74.859C500.834 74.8821 500.368 74.4534 500.344 73.9016C500.321 73.3498 500.75 72.8838 501.302 72.8608L501.385 74.859ZM511.448 72.4513C512 72.4298 512.465 72.8598 512.486 73.4116C512.508 73.9635 512.078 74.4283 511.526 74.4498L511.448 72.4513ZM521.618 74.0724C521.066 74.0921 520.603 73.6607 520.583 73.1088C520.563 72.5569 520.995 72.0934 521.547 72.0736L521.618 74.0724ZM531.592 71.731C532.144 71.7131 532.605 72.1461 532.623 72.6981C532.641 73.2501 532.208 73.7121 531.656 73.73L531.592 71.731ZM541.699 73.4238C541.147 73.4396 540.687 73.0048 540.671 72.4528C540.656 71.9007 541.09 71.4404 541.642 71.4246L541.699 73.4238ZM551.811 71.1557C552.363 71.1423 552.822 71.579 552.835 72.1311C552.849 72.6832 552.412 73.1417 551.86 73.1551L551.811 71.1557ZM561.946 72.9331C561.394 72.944 560.937 72.5052 560.926 71.953C560.915 71.4008 561.354 70.9444 561.906 70.9335L561.946 72.9331ZM571.922 70.7615C572.474 70.7535 572.928 71.1946 572.936 71.7468C572.945 72.2991 572.503 72.7533 571.951 72.7613L571.922 70.7615ZM582.05 72.6414C581.498 72.6464 581.046 72.2028 581.041 71.6505C581.036 71.0983 581.48 70.6465 582.032 70.6415L582.05 72.6414ZM592.203 70.5802C592.755 70.5786 593.204 71.025 593.206 71.5772C593.208 72.1295 592.761 72.5786 592.209 72.5802L592.203 70.5802ZM602.262 72.5836C601.71 72.5815 601.264 72.1322 601.266 71.5799C601.268 71.0276 601.718 70.5815 602.27 70.5836L602.262 72.5836ZM612.225 70.6555C612.778 70.6615 613.22 71.1141 613.214 71.6663C613.209 72.2186 612.756 72.6614 612.204 72.6554L612.225 70.6555ZM622.425 72.8069C621.872 72.7964 621.433 72.3403 621.444 71.7882C621.454 71.236 621.91 70.7968 622.462 70.8072L622.425 72.8069ZM632.595 71.0423C633.147 71.0576 633.582 71.5175 633.567 72.0696C633.551 72.6216 633.092 73.0568 632.539 73.0416L632.595 71.0423ZM642.51 73.3634C641.958 73.3429 641.527 72.8789 641.548 72.327C641.568 71.7751 642.032 71.3443 642.584 71.3647L642.51 73.3634ZM652.676 71.7908C653.228 71.817 653.654 72.2855 653.627 72.8371C653.601 73.3888 653.133 73.8147 652.581 73.7885L652.676 71.7908ZM662.757 74.3305C662.206 74.2979 661.786 73.8245 661.818 73.2732C661.851 72.7219 662.324 72.3014 662.875 72.334L662.757 74.3305ZM672.89 72.9891C673.441 73.0287 673.856 73.5073 673.816 74.0582C673.776 74.6091 673.298 75.0235 672.747 74.984L672.89 72.9891ZM682.671 75.7649C682.12 75.7177 681.713 75.2333 681.76 74.6831C681.807 74.1328 682.291 73.725 682.842 73.7722L682.671 75.7649ZM693.085 74.7311C693.635 74.7871 694.035 75.2778 693.979 75.8272C693.923 76.3767 693.432 76.7768 692.883 76.7209L693.085 74.7311ZM702.852 77.8208C702.304 77.7554 701.912 77.2578 701.977 76.7094C702.043 76.161 702.54 75.7695 703.089 75.8349L702.852 77.8208ZM712.94 77.1032C713.487 77.179 713.87 77.6839 713.794 78.231C713.718 78.778 713.213 79.16 712.666 79.0842L712.94 77.1032ZM722.84 80.6081C722.295 80.5201 721.925 80.0067 722.013 79.4615C722.101 78.9163 722.614 78.5456 723.159 78.6336L722.84 80.6081ZM733.061 80.3545C733.604 80.4559 733.962 80.9782 733.86 81.5211C733.759 82.064 733.237 82.4219 732.694 82.3205L733.061 80.3545ZM742.451 84.2804C741.911 84.1639 741.568 83.6319 741.684 83.092C741.801 82.5522 742.333 82.2089 742.873 82.3253L742.451 84.2804ZM752.908 84.6588C753.444 84.7929 753.769 85.3359 753.635 85.8717C753.501 86.4074 752.958 86.733 752.422 86.5989L752.908 84.6588ZM761.962 89.1688C761.431 89.0151 761.126 88.4605 761.279 87.9301C761.433 87.3996 761.987 87.0941 762.518 87.2477L761.962 89.1688ZM772.289 90.3056C772.813 90.4824 773.093 91.0498 772.917 91.5731C772.74 92.0963 772.172 92.3772 771.649 92.2004L772.289 90.3056ZM781.079 95.6492C780.565 95.446 780.314 94.8649 780.517 94.3514C780.72 93.8379 781.301 93.5864 781.815 93.7896L781.079 95.6492ZM791.031 97.7499C791.531 97.9834 791.748 98.5784 791.514 99.0789C791.28 99.5794 790.685 99.7958 790.185 99.5623L791.031 97.7499ZM799.218 104.172C798.736 103.903 798.563 103.294 798.832 102.811C799.102 102.329 799.711 102.157 800.193 102.426L799.218 104.172ZM808.7 107.646C809.158 107.955 809.279 108.577 808.97 109.035C808.661 109.492 808.039 109.613 807.581 109.304L808.7 107.646ZM815.675 115.381C815.252 115.026 815.196 114.395 815.551 113.972C815.905 113.549 816.536 113.493 816.959 113.848L815.675 115.381ZM824.287 120.742C824.666 121.144 824.647 121.777 824.245 122.155C823.843 122.534 823.21 122.515 822.832 122.113L824.287 120.742ZM829.181 129.829C828.861 129.38 828.965 128.755 829.415 128.435C829.865 128.114 830.489 128.219 830.81 128.669L829.181 129.829ZM836.085 137.329C836.337 137.821 836.143 138.423 835.651 138.675C835.16 138.927 834.557 138.733 834.305 138.242L836.085 137.329ZM838.162 147.378C837.985 146.854 838.266 146.287 838.789 146.11C839.313 145.934 839.88 146.215 840.057 146.738L838.162 147.378ZM842.61 156.544C842.712 157.086 842.355 157.609 841.812 157.711C841.269 157.813 840.747 157.456 840.645 156.913L842.61 156.544ZM841.848 166.792C841.815 166.241 842.235 165.767 842.787 165.734C843.338 165.702 843.811 166.122 843.844 166.673L841.848 166.792ZM2.00002 8.74228e-08C2.00001 1.76596 2.06272 3.4959 2.18688 5.19052L0.192231 5.33665C0.0644052 3.59203 1.48782e-05 1.81332 1.50367e-05 -8.74228e-08L2.00002 8.74228e-08ZM3.65961 14.9417C4.42601 18.2094 5.45283 21.3302 6.72969 24.3107L4.89129 25.0983C3.56799 22.0094 2.50504 18.7778 1.71245 15.3984L3.65961 14.9417ZM11.408 33.0028C13.1873 35.7084 15.2088 38.2831 17.4639 40.7325L15.9925 42.0872C13.6676 39.5618 11.5785 36.902 9.73699 34.1017L11.408 33.0028ZM24.7213 47.5482C27.2076 49.5819 29.8844 51.5142 32.745 53.3494L31.665 55.0327C28.7448 53.1593 26.0052 51.1822 23.455 49.0962L24.7213 47.5482ZM41.4191 58.3351C44.2866 59.8145 47.295 61.2187 50.4391 62.5506L49.659 64.3922C46.472 63.0422 43.4177 61.6168 40.5021 60.1124L41.4191 58.3351ZM59.8742 66.1926C62.9101 67.2602 66.0495 68.2722 69.2885 69.2308L68.7209 71.1486C65.4519 70.1811 62.2804 69.1588 59.2107 68.0793L59.8742 66.1926ZM79.2648 71.9398C82.3589 72.7097 85.5304 73.4378 88.7763 74.126L88.3616 76.0825C85.0942 75.3898 81.9 74.6564 78.7819 73.8806L79.2648 71.9398ZM98.7343 76.0717C101.993 76.6574 105.318 77.2077 108.706 77.7239L108.405 79.7011C105 79.1823 101.658 78.6292 98.3805 78.0402L98.7343 76.0717ZM118.531 79.1041C121.861 79.5343 125.246 79.935 128.684 80.3075L128.468 82.2958C125.018 81.9219 121.619 81.5196 118.274 81.0876L118.531 79.1041ZM138.66 81.2974C141.93 81.5932 145.243 81.866 148.597 82.1166L148.448 84.1111C145.084 83.8597 141.761 83.5861 138.48 83.2893L138.66 81.2974ZM158.782 82.8033C162.096 83.0034 165.447 83.184 168.832 83.3458L168.737 85.3435C165.343 85.1813 161.984 85.0003 158.661 84.7996L158.782 82.8033ZM178.79 83.7649C182.141 83.8875 185.523 83.9933 188.936 84.0831L188.883 86.0824C185.464 85.9924 182.075 85.8864 178.716 85.7636L178.79 83.7649ZM199.107 84.3028C202.394 84.3588 205.708 84.4012 209.046 84.4308L209.028 86.4307C205.685 86.4011 202.366 86.3586 199.072 86.3025L199.107 84.3028ZM219.132 84.4813C222.517 84.4857 225.926 84.4779 229.356 84.4587L229.367 86.4587C225.932 86.4779 222.519 86.4857 219.129 86.4813L219.132 84.4813ZM239.343 84.3715C242.666 84.3325 246.009 84.2836 249.37 84.2254L249.404 86.2251C246.04 86.2834 242.694 86.3324 239.366 86.3714L239.343 84.3715ZM259.504 84.0237C262.873 83.9481 266.259 83.8641 269.66 83.7721L269.714 85.7713C266.31 85.8634 262.921 85.9475 259.549 86.0232L259.504 84.0237ZM279.643 83.4813C282.985 83.3772 286.34 83.2662 289.708 83.1489L289.778 85.1476C286.408 85.2651 283.05 85.3762 279.706 85.4803L279.643 83.4813ZM299.849 82.7781C303.2 82.6501 306.562 82.5164 309.934 82.3776L310.017 84.3759C306.642 84.5148 303.278 84.6486 299.925 84.7767L299.849 82.7781ZM319.956 81.9518C323.306 81.8052 326.666 81.6542 330.034 81.4991L330.125 83.497C326.756 83.6521 323.395 83.8033 320.044 83.9499L319.956 81.9518ZM340.161 81.0227C343.507 80.862 346.861 80.698 350.221 80.5311L350.32 82.5286C346.959 82.6955 343.604 82.8596 340.256 83.0203L340.161 81.0227ZM360.266 80.0251C363.62 79.8539 366.979 79.6804 370.343 79.5051L370.448 81.5024C367.083 81.6777 363.723 81.8513 360.368 82.0225L360.266 80.0251ZM380.448 78.9741C383.799 78.7968 387.153 78.6181 390.511 78.4386L390.617 80.4357C387.26 80.6153 383.905 80.7939 380.554 80.9713L380.448 78.9741ZM400.573 77.899C403.929 77.7187 407.287 77.538 410.646 77.3574L410.753 79.3546C407.395 79.5351 404.036 79.7158 400.68 79.8961L400.573 77.899ZM420.725 76.8168C424.086 76.637 427.446 76.4579 430.806 76.2799L430.912 78.2771C427.553 78.4551 424.192 78.6342 420.832 78.8139L420.725 76.8168ZM440.883 75.7498C444.241 75.5745 447.597 75.4009 450.951 75.2293L451.053 77.2267C447.7 77.3982 444.345 77.5718 440.988 77.747L440.883 75.7498ZM461.004 74.7215C464.378 74.5533 467.749 74.3878 471.116 74.2254L471.212 76.2231C467.847 76.3854 464.477 76.5509 461.103 76.719L461.004 74.7215ZM481.206 73.7479C484.564 73.5922 487.918 73.4402 491.265 73.2922L491.353 75.2903C488.007 75.4381 484.655 75.5901 481.298 75.7458L481.206 73.7479ZM501.302 72.8608C504.691 72.7193 508.074 72.5826 511.448 72.4513L511.526 74.4498C508.154 74.5811 504.773 74.7176 501.385 74.859L501.302 72.8608ZM521.547 72.0736C524.904 71.9534 528.253 71.839 531.592 71.731L531.656 73.73C528.32 73.8379 524.973 73.9522 521.618 74.0724L521.547 72.0736ZM541.642 71.4246C545.044 71.3276 548.434 71.2377 551.811 71.1557L551.86 73.1551C548.485 73.2371 545.098 73.3268 541.699 73.4238L541.642 71.4246ZM561.906 70.9335C565.259 70.8676 568.597 70.8101 571.922 70.7615L571.951 72.7613C568.63 72.8099 565.295 72.8673 561.946 72.9331L561.906 70.9335ZM582.032 70.6415C585.439 70.6107 588.83 70.59 592.203 70.5802L592.209 72.5802C588.84 72.59 585.453 72.6107 582.05 72.6414L582.032 70.6415ZM602.27 70.5836C605.607 70.5959 608.926 70.6197 612.225 70.6555L612.204 72.6554C608.909 72.6197 605.595 72.5959 602.262 72.5836L602.27 70.5836ZM622.462 70.8072C625.863 70.8715 629.241 70.9496 632.595 71.0423L632.539 73.0416C629.191 72.9491 625.819 72.8711 622.425 72.8069L622.462 70.8072ZM642.584 71.3647C645.975 71.4904 649.339 71.6322 652.676 71.7908L652.581 73.7885C649.252 73.6303 645.894 73.4888 642.51 73.3634L642.584 71.3647ZM662.875 72.334C666.245 72.5335 669.584 72.7516 672.89 72.9891L672.747 74.984C669.449 74.747 666.119 74.5295 662.757 74.3305L662.875 72.334ZM682.842 73.7722C686.295 74.0684 689.71 74.3877 693.085 74.7311L692.883 76.7209C689.519 76.3786 686.114 76.0602 682.671 75.7649L682.842 73.7722ZM703.089 75.8349C706.416 76.2316 709.7 76.654 712.94 77.1032L712.666 79.0842C709.439 78.6369 706.167 78.2161 702.852 77.8208L703.089 75.8349ZM723.159 78.6336C726.513 79.1751 729.815 79.7483 733.061 80.3545L732.694 82.3205C729.464 81.7174 726.179 81.1471 722.84 80.6081L723.159 78.6336ZM742.873 82.3253C746.287 83.0617 749.633 83.839 752.908 84.6588L752.422 86.5989C749.17 85.7847 745.845 85.0124 742.451 84.2804L742.873 82.3253ZM762.518 87.2477C765.86 88.2158 769.119 89.2344 772.289 90.3056L771.649 92.2004C768.508 91.1391 765.277 90.1292 761.962 89.1688L762.518 87.2477ZM781.815 93.7896C784.991 95.0467 788.065 96.366 791.031 97.7499L790.185 99.5623C787.257 98.1963 784.221 96.8927 781.079 95.6492L781.815 93.7896ZM800.193 102.426C803.163 104.085 806.001 105.824 808.7 107.646L807.581 109.304C804.931 107.515 802.142 105.806 799.218 104.172L800.193 102.426ZM816.959 113.848C819.577 116.04 822.022 118.337 824.287 120.742L822.832 122.113C820.623 119.769 818.235 117.526 815.675 115.381L816.959 113.848ZM830.81 128.669C832.779 131.431 834.54 134.316 836.085 137.329L834.305 138.242C832.805 135.317 831.095 132.515 829.181 129.829L830.81 128.669ZM840.057 146.738C841.119 149.885 841.973 153.153 842.61 156.544L840.645 156.913C840.024 153.612 839.194 150.435 838.162 147.378L840.057 146.738ZM843.844 166.673C843.948 168.42 844 170.195 844 172L842 172C842 170.234 841.949 168.498 841.848 166.792L843.844 166.673Z" fill="#224E82"/>
</svg>
