<svg width="193" height="196" viewBox="0 0 193 196" fill="none" xmlns="http://www.w3.org/2000/svg">
<path d="M147.078 153.391C120.013 136.88 86.8239 174.688 57.5185 166.552C23.2467 157.03 -9.7978 83.5181 24.8372 40.0774C58.835 -2.56804 135.794 11.6998 151.302 41.0236C161.899 61.0525 144.707 89.749 163.3 109.274C171.832 118.238 179.785 116.729 184.504 126.822C192.513 143.878 180.836 171.661 169.491 173.354C161.252 174.583 159.662 161.068 147.078 153.391Z" fill="#E2E8ED"/>
<path d="M33.0168 128.055C53.4268 103.795 21.0668 65.2749 33.5368 37.5349C48.1268 5.09488 125.787 -16.4651 163.497 24.3349C200.517 64.3849 174.787 138.305 143.457 149.205C122.057 156.655 96.2868 135.325 74.1768 150.755C64.0268 157.835 64.3168 165.925 53.6268 169.065C35.5568 174.405 9.85678 158.665 9.89678 147.195C9.92678 138.865 23.5268 139.335 33.0168 128.055Z" fill="white"/>
<path d="M74.66 105C74.39 105 74.16 105.22 74.16 105.5V107.5C74.16 107.77 74.38 108 74.66 108C74.94 108 75.16 107.78 75.16 107.5V105.5C75.16 105.22 74.93 105 74.66 105Z" fill="#224E82"/>
<path d="M113.66 85.99C113.93 85.99 114.16 85.77 114.16 85.49V83.49C114.16 83.22 113.94 82.99 113.66 82.99C113.38 82.99 113.16 83.21 113.16 83.49V85.49C113.16 85.77 113.39 85.99 113.66 85.99Z" fill="#224E82"/>
<path d="M102.93 88.4399C102.88 88.1699 102.62 87.9799 102.36 88.0299L96.5 88.9699C96.47 88.9399 96.44 88.8999 96.39 88.8799L93.14 87.0999C93.05 86.5699 92.54 86.2199 92 86.2999C91.73 86.3499 91.5 86.4899 91.34 86.7099C91.19 86.9199 91.13 87.1699 91.18 87.4299L88.63 90.2099C88.62 90.2199 88.62 90.2299 88.62 90.2399L83.27 91.0999C83.14 91.1199 83.02 91.1999 82.94 91.2999C82.87 91.4099 82.84 91.5499 82.86 91.6799L83.73 96.6499C83.77 96.8999 83.98 97.0699 84.22 97.0699C84.25 97.0699 84.27 97.0699 84.3 97.0599L103.39 93.9899C103.52 93.9699 103.64 93.8899 103.72 93.7799C103.79 93.6699 103.82 93.54 103.8 93.41L102.93 88.4399ZM91.83 88.1899C91.93 88.2299 92.05 88.2499 92.16 88.2499C92.21 88.2499 92.27 88.2399 92.32 88.2399C92.49 88.2099 92.64 88.1299 92.77 88.0299L94.94 89.2199L90.19 89.9899L91.83 88.1899ZM84.63 95.9999L83.93 92.0099L102.03 89.0899L102.73 93.0799L84.63 95.9999Z" fill="#224E82"/>
<path d="M102.73 93.0801L84.6301 96.0001L83.9301 92.0101L102.03 89.0901L102.73 93.0801Z" fill="#A9C0D8"/>
<path d="M116.84 111H113.66C113.38 111 113.16 110.78 113.16 110.5V88.5C113.16 88.23 113.38 88.01 113.66 88.01C113.93 88.01 114.15 88.23 114.15 88.5V110.01H116.03C116.29 110.35 116.56 110.68 116.84 111Z" fill="#224E82"/>
<path d="M133.78 73.18C133.8 73.08 133.8 72.99 133.79 72.9L132.16 57.4V54.97C132.16 54.09 131.76 53.31 131.14 52.77C130.33 41.72 118.62 32.03 101.22 28.05L101 28L100.78 28.05C83.31 32.05 71.57 41.82 70.87 52.94L70.86 53.09C70.43 53.6 70.16 54.25 70.16 54.97V56.45L68.06 72.65C68.05 72.7 68.04 72.75 68.04 72.8C68.04 72.81 68.03 72.82 68.03 72.84V72.96C68.01 73.34 68 73.74 68 74.19C68 76.03 68.73 77.35 70.16 78.14V113H69.16C68.61 113 68.16 113.44 68.16 114V117C68.16 117.55 68.6 118 69.16 118H120.6C121.05 118 121.42 117.63 121.42 117.17V116.82C121.42 116.36 121.05 116 120.6 116H70.16V115H116.6C117.05 115 117.42 114.63 117.42 114.17V113.82C117.42 113.36 117.05 113 116.6 113H72.16V77.96C72.27 77.97 72.38 78 72.5 78H73.06C73.44 78 73.81 77.92 74.16 77.82V102.5C74.16 102.78 74.38 103 74.66 103C74.93 103 75.15 102.78 75.15 102.5V77.5C75.15 77.46 75.14 77.42 75.13 77.37C75.77 76.97 76.3 76.4 76.66 75.72C77.33 77.07 78.61 78 80.1 78H80.55C81.96 78 83.12 77.14 83.72 75.84C84.4 77.13 85.65 78 87.1 78H87.55C88.96 78 90.12 77.14 90.72 75.84C91.4 77.13 92.65 78 94.1 78H94.55C95.96 78 97.12 77.14 97.72 75.84C98.4 77.13 99.65 78 101.1 78H101.55C102.96 78 104.12 77.14 104.72 75.84C105.4 77.13 106.65 78 108.1 78H108.55C109.13 78 109.68 77.83 110.16 77.55V110.01H75.66C75.38 110.01 75.16 110.23 75.16 110.5C75.16 110.78 75.38 111 75.66 111H110.66C110.93 111 111.15 110.78 111.15 110.5V76.72C111.4 76.43 111.59 76.09 111.75 75.72C112.1 76.41 112.6 76.98 113.19 77.38C113.18 77.42 113.16 77.46 113.16 77.5V81.5C113.16 81.78 113.38 82 113.66 82C113.93 82 114.15 81.78 114.15 81.5V77.85C114.46 77.94 114.77 78 115.1 78H115.55C116.92 78 118.06 77.11 118.67 75.75C119.34 77.08 120.62 78 122.1 78H122.55C123.96 78 125.12 77.14 125.72 75.84C125.85 76.08 125.99 76.31 126.16 76.52V80.59H127.15V77.41C127.73 77.78 128.39 78 129.1 78H129.16V81.72C129.16 82.2 129.55 82.59 130.03 82.59H130.29C130.77 82.59 131.16 82.2 131.16 81.72V78.83C132.76 77.93 133.8 76.14 133.8 74.23C133.8 73.87 133.79 73.54 133.78 73.18ZM101 30.05C116.9 33.75 127.75 42.27 129.05 52H72.97C74.28 42.27 85.11 33.74 101 30.05ZM73.06 77H72.5C72.32 77 72.15 76.98 71.99 76.94C71.87 76.78 71.71 76.65 71.52 76.57C70.43 76.14 70 75.48 70 74.19V74H76.14C76.03 75.73 74.48 77 73.06 77ZM76.16 73H70.03L70.86 66.63L72.19 59H76.16V73ZM80.55 77H80.1C78.59 77 77.35 75.68 77.19 74H83.14C83.07 75.72 81.98 77 80.55 77ZM83.16 73H77.17C77.17 72.84 77.17 72.67 77.18 72.52C77.18 72.47 77.17 72.41 77.16 72.36V59H83.16V73ZM87.55 77H87.1C85.59 77 84.35 75.68 84.19 74H90.14C90.07 75.72 88.98 77 87.55 77ZM90.16 73H84.17C84.17 72.84 84.17 72.67 84.18 72.52C84.18 72.47 84.17 72.41 84.16 72.36V59H90.16V73ZM94.55 77H94.1C92.59 77 91.35 75.68 91.19 74H97.14C97.07 75.72 95.98 77 94.55 77ZM97.16 73H91.17C91.17 72.84 91.17 72.67 91.18 72.52C91.18 72.47 91.17 72.41 91.16 72.36V59H97.16V73ZM101.55 77H101.1C99.59 77 98.35 75.68 98.19 74H104.14C104.07 75.72 102.98 77 101.55 77ZM104.16 73H98.17C98.17 72.84 98.17 72.67 98.18 72.52C98.18 72.47 98.17 72.41 98.16 72.36V59H104.16V73ZM110.41 76.08C110.34 76.12 110.27 76.19 110.23 76.26C109.78 76.72 109.2 77 108.55 77H108.1C106.59 77 105.35 75.68 105.19 74H111.14C111.1 74.83 110.84 75.55 110.41 76.08ZM111.16 73H105.17C105.17 72.84 105.17 72.67 105.18 72.52C105.18 72.47 105.17 72.41 105.16 72.36V59H111.16V73ZM115.55 77H115.1C113.68 77 112.49 75.71 112.22 74H118.12C117.92 75.72 116.87 77 115.55 77ZM118.16 73H112.16C112.16 72.84 112.16 72.67 112.17 72.51C112.17 72.48 112.16 72.44 112.16 72.41V59H118.16V73ZM122.55 77H122.1C120.59 77 119.35 75.68 119.19 74H125.14C125.07 75.72 123.98 77 122.55 77ZM125.16 73H119.17C119.17 72.84 119.17 72.67 119.18 72.52C119.18 72.47 119.17 72.41 119.16 72.36V59H125.16V73ZM71.97 58L72.15 56.64C72.15 56.6 72.16 56.56 72.16 56.51V54.97C72.16 54.44 72.62 54 73.19 54H129.13C129.7 54 130.16 54.44 130.16 54.97V57.55L130.21 58H71.97ZM126.16 72.36V59H130.08L130.8 63.65L131.78 72.9V73H126.17C126.17 72.84 126.17 72.67 126.18 72.52C126.18 72.47 126.17 72.41 126.16 72.36ZM130.76 76.63C130.38 76.86 129.95 77 129.49 77H129.1C127.59 77 126.35 75.68 126.19 74H131.79C131.79 74.08 131.8 74.15 131.8 74.23C131.8 75.16 131.4 76.02 130.76 76.63Z" fill="#224E82"/>
<path d="M131.8 74.23C131.8 75.16 131.4 76.02 130.76 76.63C130.38 76.86 129.95 77 129.49 77H129.1C127.59 77 126.35 75.68 126.19 74H131.79C131.79 74.08 131.8 74.15 131.8 74.23Z" fill="#A9C0D8"/>
<path d="M118.12 74C117.92 75.72 116.87 77 115.55 77H115.1C113.68 77 112.49 75.71 112.22 74H118.12Z" fill="#A9C0D8"/>
<path d="M104.14 74C104.07 75.72 102.98 77 101.55 77H101.1C99.5899 77 98.3499 75.68 98.1899 74H104.14Z" fill="#A9C0D8"/>
<path d="M90.1399 74C90.0699 75.72 88.9799 77 87.5499 77H87.0999C85.5899 77 84.3499 75.68 84.1899 74H90.1399Z" fill="#A9C0D8"/>
<path d="M83.1399 74C83.0699 75.72 81.9799 77 80.5499 77H80.0999C78.5899 77 77.3499 75.68 77.1899 74H83.1399Z" fill="#A9C0D8"/>
<path d="M76.14 74C76.03 75.73 74.48 77 73.06 77H72.5C72.32 77 72.15 76.98 71.99 76.94C71.87 76.78 71.71 76.65 71.52 76.57C70.43 76.14 70 75.48 70 74.19V74H76.14Z" fill="#A9C0D8"/>
<path d="M131.78 72.9V73H126.17C126.17 72.84 126.17 72.67 126.18 72.52C126.18 72.47 126.17 72.41 126.16 72.36V59H130.08L130.8 63.65L131.78 72.9Z" fill="#A9C0D8"/>
<path d="M118.16 59V73H112.16C112.16 72.84 112.16 72.67 112.17 72.51C112.17 72.48 112.16 72.44 112.16 72.41V59H118.16Z" fill="#A9C0D8"/>
<path d="M104.16 59V73H98.1699C98.1699 72.84 98.1699 72.67 98.1799 72.52C98.1799 72.47 98.1699 72.41 98.1599 72.36V59H104.16Z" fill="#A9C0D8"/>
<path d="M90.1599 59V73H84.1699C84.1699 72.84 84.1699 72.67 84.1799 72.52C84.1799 72.47 84.1699 72.41 84.1599 72.36V59H90.1599Z" fill="#A9C0D8"/>
<path d="M76.16 59V73H70.03L70.86 66.63L72.19 59H76.16Z" fill="#A9C0D8"/>
<path d="M105.27 38.1301C105.19 38.0101 105.02 38.0001 104.92 38.1001L104.49 38.5101C104.41 38.5901 104.39 38.7101 104.46 38.8101C104.84 39.3801 105.07 40.0501 105.1 40.7801C105.17 42.8901 103.47 44.6601 101.3 44.7401C99.13 44.8101 97.31 43.1601 97.23 41.0501C97.16 39.0701 98.67 37.3801 100.65 37.1201C100.31 37.5201 99.92 37.9301 99.46 38.3301C99.36 38.4201 99.35 38.5601 99.43 38.6701L99.65 38.9301C99.74 39.0301 99.89 39.0501 100 38.9601C100.61 38.4301 101.12 37.8801 101.54 37.3501C101.75 37.8701 101.9 38.4301 101.99 39.0101C102.01 39.1301 102.12 39.2201 102.25 39.2001L102.6 39.1601C102.73 39.1501 102.82 39.0301 102.8 38.9001C102.71 38.3001 102.57 37.7601 102.39 37.2801C102.67 37.3701 102.95 37.4801 103.2 37.6301C103.3 37.6901 103.42 37.6601 103.49 37.5801L103.89 37.1301C103.99 37.0201 103.96 36.8501 103.84 36.7801C103.39 36.5001 102.89 36.2901 102.36 36.1701C102.83 35.3801 103.09 34.7201 103.21 34.3801C103.25 34.2501 103.18 34.1101 103.05 34.0701L102.7 33.9801C102.57 33.9501 102.45 34.0101 102.41 34.1301C102.3 34.4301 102.06 35.0301 101.63 35.7501C101.11 34.9601 100.57 34.4601 100.29 34.2201C100.18 34.1301 100.03 34.1601 99.95 34.2701L99.75 34.5701C99.69 34.6701 99.7 34.8001 99.79 34.8801C99.98 35.0401 100.33 35.3601 100.69 35.8401C100.74 35.9101 100.78 35.9801 100.82 36.0401C98.17 36.2201 96.1 38.4401 96.18 41.0701C96.27 43.7601 98.58 45.8701 101.33 45.7801C104.08 45.6801 106.24 43.4201 106.15 40.7301C106.11 39.7701 105.79 38.8701 105.27 38.1301Z" fill="#224E82"/>
<path d="M132.53 84.01C132.04 84.01 131.55 84.03 131.07 84.07C130.32 84.14 129.6 84.25 128.95 84.4C128.2 84.56 127.47 84.77 126.8 85.02C126.43 85.16 126.08 85.3 125.76 85.45C119.78 88.12 115.91 94.07 115.91 100.63C115.91 104.26 117.06 107.71 119.24 110.61C119.51 110.97 119.8 111.32 120.09 111.66C120.79 112.45 121.56 113.17 122.37 113.78C123.47 114.64 124.68 115.36 125.99 115.92C127.12 116.4 128.32 116.76 129.53 116.98C130.51 117.16 131.52 117.26 132.53 117.26C133.08 117.26 133.65 117.23 134.27 117.17C142.75 116.28 149.15 109.17 149.15 100.63C149.15 91.46 141.7 84.01 132.53 84.01ZM134.07 115.18C132.53 115.32 131.24 115.26 129.89 115.01C128.82 114.82 127.77 114.5 126.78 114.08C125.63 113.59 124.57 112.96 123.6 112.2C122.87 111.65 122.2 111.03 121.6 110.34C121.33 110.03 121.07 109.72 120.83 109.41C118.92 106.86 117.91 103.83 117.91 100.63C117.91 94.86 121.31 89.62 126.59 87.27C126.89 87.13 127.19 87.01 127.5 86.89C128.09 86.68 128.7 86.5 129.39 86.35C129.96 86.22 130.59 86.12 131.25 86.06C131.67 86.02 132.1 86.01 132.53 86.01C140.59 86.01 147.15 92.56 147.15 100.63C147.15 108.14 141.52 114.4 134.07 115.18Z" fill="#AA850E"/>
<path d="M132.53 86.01C132.1 86.01 131.67 86.02 131.25 86.06C130.59 86.12 129.96 86.22 129.39 86.35C128.7 86.5 128.09 86.68 127.5 86.89C127.19 87.01 126.89 87.13 126.59 87.27C121.31 89.62 117.91 94.86 117.91 100.63C117.91 103.83 118.92 106.86 120.83 109.41C121.07 109.72 121.33 110.03 121.6 110.34C122.2 111.03 122.87 111.65 123.6 112.2C124.57 112.96 125.63 113.59 126.78 114.08C127.77 114.5 128.82 114.82 129.89 115.01C131.24 115.26 132.53 115.32 134.07 115.18C141.52 114.4 147.15 108.14 147.15 100.63C147.15 92.56 140.59 86.01 132.53 86.01ZM133.46 101.5V111.75H131.46V101.5H121.21V99.5H131.46V89.25H133.46V99.5H143.72V101.5H133.46Z" fill="#E0D5B8"/>
</svg>
