<?xml version="1.0" encoding="utf-8"?>
<!-- Generator: Adobe Illustrator 25.2.1, SVG Export Plug-In . SVG Version: 6.00 Build 0)  -->
<svg version="1.1" id="Layer_1" xmlns="http://www.w3.org/2000/svg" xmlns:xlink="http://www.w3.org/1999/xlink" x="0px" y="0px"
	 viewBox="0 0 115 204" style="enable-background:new 0 0 115 204;" xml:space="preserve">
<style type="text/css">
	.st0{fill:#FFFFFF;}
	.st1{fill:#F7941D;}
	.st2{fill:#2E3192;}
</style>
<g>
	<g>
		<g>
			<g>
				<path class="st0" d="M17.3,2.6h80.1c8.3,0,15,6.7,15,15v128.9c0,30.4-24.7,55.1-55.1,55.1l0,0c-30.4,0-55.1-24.7-55.1-55.1V17.6
					C2.3,9.3,9.1,2.6,17.3,2.6z"/>
				<g>
					<path d="M17.3,5.1c14.5,0,29,0,43.5,0c9.1,0,18.3,0,27.4,0c6.4,0,13.7-1.1,18.5,4.1c3.8,4.2,3.2,9.5,3.2,14.7
						c0,7.1,0,14.2,0,21.4c0,20.2,0,40.5,0,60.7c0,13.2,0.1,26.5,0,39.8c-0.1,26.8-19.9,50.3-47,53.1c-30.4,3.1-57.6-21-58.1-51.6
						c-0.2-10.9,0-21.8,0-32.7c0-20.3,0-40.7,0-61c0-11.9-0.4-23.9,0-35.8C5.1,10.6,10.2,5.4,17.3,5.1c3.2-0.1,3.2-5.1,0-5
						C7,0.5,0,8.4-0.2,18.6c-0.1,5.4,0,10.8,0,16.2c0,21,0,42,0,63c0,15.7,0,31.3,0,47c0,24.6,14.2,46.9,37.6,55.7
						c27.7,10.3,59.8-3,72.2-29.8c6.5-14.2,5.3-29.6,5.3-44.7c0-35.9,0.5-71.8,0-107.7c-0.2-10.1-7.4-17.9-17.6-18.2
						c-5.7-0.2-11.3,0-17,0c-19.6,0-39.2,0-58.8,0c-1.4,0-2.9,0-4.3,0C14.1,0.1,14.1,5.1,17.3,5.1z"/>
				</g>
			</g>
		</g>
	</g>
	<path class="st1" d="M61.8,68.6c0-1.5,0-2.9,0-4.4c-4.4,0-8.7,0-13,0c0-4.4,0-8.7,0-13.1c2.1,0,4.2,0,6.5,0c0-1.5,0-8,0-9.4
		c1.5,0,2.9,0,4.4,0c0,1.4,0,7.8,0,9.3c2.2,0,4.3,0,6.5,0c0,1.5,0,2.9,0,4.4c-4.3,0-8.6,0-13,0c0,1.5,0,2.9,0,4.4c4.4,0,8.7,0,13,0
		c0,4.5,0,8.8,0,13.2c-2.2,0-4.3,0-6.5,0c0,1.5,0,8.2,0,9.7c-1.5,0-2.9,0-4.4,0c0-1.4,0-8.1,0-9.6c-2.2,0-4.3,0-6.5,0
		c0-1.5,0-2.9,0-4.4C53.1,68.6,57.4,68.6,61.8,68.6z"/>
	<g>
		<path class="st2" d="M58.6,10c5.4,3.5,11.1,6.2,17.2,8.2c7.2,2.5,14.6,3.9,22.2,4.4c0.9,0.1,1.9,0.1,2.8,0.2
			c1.8,0.2,2.5,0.9,2.5,2.7c0,6.8,0,13.7,0,20.5c0,7.6,0.1,15.2-0.1,22.8c-0.3,8.8-2.7,16.9-8,24c-3.6,4.8-8,8.8-12.9,12.2
			c-6.2,4.2-12.5,8.3-18.7,12.4c-1.5,1-3,2.1-4.6,3.1c-0.9,0.7-1.8,0.7-2.8,0.1c-6.8-4.4-13.6-8.8-20.4-13.3
			c-6.1-4-11.6-8.7-15.9-14.7c-4.6-6.4-7.1-13.5-7.8-21.2c-0.2-2.6-0.3-5.3-0.3-7.9c0-12.5,0-25,0-37.5c0-2.8,0.5-3.3,3.2-3.4
			c14.5-0.8,28-4.6,40.4-12.2c0.3-0.2,0.7-0.4,1-0.7C57.1,10,57.9,10,58.6,10z M98.8,27.1c-0.6-0.1-1-0.1-1.5-0.2
			c-3.3-0.4-6.6-0.6-9.8-1.2C77.1,24,67.4,20.3,58.3,15c-0.6-0.3-1-0.3-1.6,0c-12.2,7.2-25.3,11.2-39.4,12c-1,0.1-1.2,0.4-1.2,1.4
			c0,11.9,0,23.8,0,35.7c0,2.4,0.1,4.9,0.3,7.3c0.6,6.1,2.4,11.9,5.7,17.1c3.6,5.7,8.4,10.2,13.8,13.9c6.9,4.7,14,9.2,21,13.7
			c0.3,0.2,0.8,0.1,1.1-0.1c2.3-1.5,4.5-3,6.8-4.5c5.9-4,11.9-7.8,17.7-12c10.9-8.1,16.2-19.1,16.2-32.6c0-13,0-25.9,0-38.9
			C98.8,27.7,98.8,27.5,98.8,27.1z"/>
		<path class="st2" d="M90.1,53c0,4.4-0.1,8.8,0,13.3c0.2,11-4.3,19.8-13.2,26.2c-6,4.3-12.1,8.4-18.1,12.5c-0.9,0.6-1.8,0.6-2.6,0
			c-6.3-4.3-12.7-8.5-18.8-13.1c-5.4-4-9.4-9.3-11.2-15.9c-1-3.5-1.3-7.1-1.3-10.7c0-9.2,0-18.5,0-27.7c0-2,0.5-2.6,2.4-2.9
			c10.2-1.6,19.8-4.7,29-9.4c1-0.5,1.8-0.3,2.8,0.1c7,3.6,14.3,6.2,22,8c2.3,0.5,4.5,0.9,6.8,1.3c1.8,0.3,2.3,0.9,2.3,2.8
			C90.1,42.6,90.1,47.8,90.1,53C90.1,53,90.1,53,90.1,53z M55.3,30.6c-8.4,3.9-17,6.6-26,8.2c0,0.4,0,0.7,0,1c0,8.7,0,17.5,0,26.2
			c0,1.7,0.1,3.3,0.3,5c0.9,7.4,4.6,13.2,10.5,17.6c4.8,3.6,9.8,6.8,14.7,10.2c0.1,0.1,0.3,0.1,0.5,0.2c0-2.5,0-4.8,0-7.2
			c0-3.9,0-7.8,0-11.7c0-1.6,1.1-2.6,2.6-2.4c1.2,0.2,1.8,1.1,1.8,2.5c0,5.8,0,11.6,0,17.4c0,0.4,0,0.7,0,1.2
			c0.3-0.1,0.4-0.1,0.5-0.2c4.6-3.1,9.2-6.2,13.7-9.4c2.9-2,5.5-4.4,7.5-7.3c3.2-4.5,4.3-9.6,4.4-15c0.1-9.1,0-18.2,0-27.3
			c0-0.3,0-0.6-0.1-0.9c-9-1.5-17.6-4.3-26-8.2c0,0.5,0,0.9,0,1.3c0,9.9,0,0.9,0,10.8c0,0.4,0,0.7,0,1.1c-0.1,1.2-1,2-2.2,2
			c-1.1,0-2-0.8-2.2-1.9c-0.1-0.4,0-0.8,0-1.2c0-9.9,0-0.9,0-10.8C55.3,31.5,55.3,31.1,55.3,30.6z"/>
	</g>
	<g>
		<path d="M21.3,154.9V170h-3v-36.4h12.5c3.8,0,6.8,1,8.9,2.9c2.1,1.9,3.1,4.5,3.1,7.7c0,3.2-1,5.8-3.1,7.7c-2.1,1.9-5,2.9-8.9,2.9
			H21.3z M21.3,152.3h9.5c3,0,5.2-0.8,6.7-2.3c1.5-1.5,2.2-3.4,2.2-5.8c0-2.3-0.8-4.3-2.2-5.8c-1.5-1.5-3.7-2.3-6.7-2.3h-9.5V152.3z
			"/>
		<path d="M65.5,159.8h-16L45.9,170h-3.1l13.4-36.4H59L72.2,170h-3.1L65.5,159.8z M50.5,157.2h14l-6.9-19.3h-0.2L50.5,157.2z"/>
		<path d="M86.5,153.8l11.3-20.2h3.5L88,156.7V170h-3v-13.4l-13.2-23h3.5L86.5,153.8z"/>
	</g>
</g>
</svg>
