<svg width="141" height="352" viewBox="0 0 141 352" fill="none" xmlns="http://www.w3.org/2000/svg">
<path d="M35.5853 347.704C36.1148 347.547 36.6713 347.849 36.8281 348.379C36.9849 348.908 36.6828 349.465 36.1532 349.621L35.5853 347.704ZM45.8873 346.54C45.3641 346.717 44.7967 346.436 44.62 345.912C44.4434 345.389 44.7244 344.822 45.2476 344.645L45.8873 346.54ZM54.7901 341.213C55.306 341.016 55.8841 341.274 56.0814 341.79C56.2787 342.305 56.0205 342.884 55.5046 343.081L54.7901 341.213ZM64.9478 339.243C64.4406 339.462 63.8522 339.228 63.6335 338.721C63.4149 338.214 63.6487 337.625 64.1559 337.407L64.9478 339.243ZM73.398 333.179C73.895 332.938 74.4932 333.146 74.734 333.643C74.9749 334.14 74.7673 334.738 74.2703 334.979L73.398 333.179ZM83.3033 330.343C82.818 330.606 82.2109 330.427 81.9474 329.941C81.6838 329.456 81.8637 328.849 82.3491 328.585L83.3033 330.343ZM91.1879 323.505C91.6598 323.218 92.2749 323.367 92.5619 323.839C92.8489 324.311 92.699 324.926 92.2271 325.213L91.1879 323.505ZM100.778 319.714C100.321 320.024 99.6991 319.906 99.3886 319.449C99.0781 318.992 99.1966 318.37 99.6533 318.06L100.778 319.714ZM107.901 312.126C108.34 311.791 108.968 311.876 109.302 312.316C109.637 312.755 109.552 313.383 109.112 313.717L107.901 312.126ZM117.079 307.299C116.658 307.657 116.027 307.607 115.669 307.187C115.31 306.766 115.36 306.135 115.781 305.777L117.079 307.299ZM123.251 299.028C123.65 298.646 124.283 298.66 124.665 299.059C125.047 299.458 125.033 300.091 124.634 300.473L123.251 299.028ZM131.848 293.144C131.473 293.549 130.84 293.573 130.435 293.197C130.03 292.822 130.006 292.189 130.381 291.784L131.848 293.144ZM137.019 284.169C137.369 283.741 137.999 283.678 138.426 284.028C138.853 284.378 138.916 285.008 138.566 285.436L137.019 284.169ZM144.785 277.337C144.463 277.786 143.838 277.888 143.389 277.565C142.941 277.243 142.839 276.618 143.161 276.17L144.785 277.337ZM148.815 267.752C149.108 267.284 149.725 267.142 150.193 267.435C150.661 267.728 150.803 268.345 150.51 268.813L148.815 267.752ZM155.655 259.965C155.393 260.451 154.787 260.633 154.301 260.371C153.815 260.109 153.633 259.503 153.895 259.016L155.655 259.965ZM158.388 249.982C158.617 249.48 159.211 249.259 159.713 249.488C160.215 249.718 160.436 250.311 160.207 250.813L158.388 249.982ZM164.16 241.349C163.964 241.865 163.387 242.125 162.87 241.929C162.354 241.733 162.094 241.156 162.29 240.64L164.16 241.349ZM165.563 231.074C165.724 230.545 166.283 230.248 166.812 230.41C167.34 230.571 167.637 231.13 167.476 231.658L165.563 231.074ZM170.144 221.777C170.017 222.315 169.479 222.648 168.942 222.522C168.404 222.395 168.071 221.857 168.197 221.319L170.144 221.777ZM170.187 211.406C170.278 210.862 170.793 210.494 171.338 210.585C171.883 210.676 172.251 211.191 172.16 211.736L170.187 211.406ZM173.518 201.584C173.463 202.134 172.972 202.534 172.423 202.479C171.873 202.423 171.473 201.933 171.528 201.383L173.518 201.584ZM172.221 191.297C172.241 190.745 172.705 190.314 173.257 190.334C173.809 190.354 174.24 190.818 174.219 191.37L172.221 191.297ZM174.269 181.128C174.284 181.68 173.848 182.139 173.296 182.154C172.744 182.169 172.284 181.733 172.27 181.181L174.269 181.128ZM171.683 171.087C171.634 170.536 172.04 170.051 172.59 170.001C173.14 169.952 173.626 170.358 173.675 170.908L171.683 171.087ZM172.45 160.748C172.533 161.294 172.157 161.804 171.611 161.887C171.065 161.97 170.556 161.594 170.473 161.048L172.45 160.748ZM168.65 151.095C168.534 150.555 168.878 150.023 169.418 149.907C169.958 149.791 170.489 150.135 170.605 150.675L168.65 151.095ZM168.157 140.73C168.305 141.262 167.993 141.813 167.461 141.961C166.929 142.109 166.378 141.798 166.23 141.266L168.157 140.73ZM163.236 131.612C163.057 131.09 163.335 130.521 163.858 130.342C164.38 130.163 164.949 130.441 165.128 130.964L163.236 131.612ZM161.53 121.382C161.739 121.893 161.494 122.477 160.983 122.686C160.472 122.895 159.888 122.65 159.679 122.139L161.53 121.382ZM155.573 112.871C155.335 112.373 155.546 111.776 156.044 111.538C156.543 111.3 157.14 111.511 157.378 112.009L155.573 112.871ZM152.715 102.919C152.981 103.403 152.804 104.011 152.32 104.277C151.836 104.543 151.228 104.366 150.962 103.882L152.715 102.919ZM145.847 95.1531C145.555 94.6846 145.698 94.0677 146.166 93.7754C146.635 93.483 147.252 93.6258 147.544 94.0944L145.847 95.1531ZM141.879 85.5509C142.197 86.0026 142.088 86.6264 141.636 86.9442C141.185 87.262 140.561 87.1534 140.243 86.7017L141.879 85.5509ZM134.205 78.5962C133.863 78.1623 133.938 77.5336 134.372 77.1918C134.806 76.85 135.434 76.9246 135.776 77.3584L134.205 78.5962ZM129.237 69.5013C129.601 69.9162 129.56 70.5481 129.145 70.9126C128.73 71.2771 128.099 71.2363 127.734 70.8213L129.237 69.5013ZM120.835 63.3765C120.449 62.9815 120.456 62.3484 120.851 61.9624C121.246 61.5765 121.879 61.5838 122.265 61.9788L120.835 63.3765ZM114.946 54.8676C115.352 55.242 115.378 55.8747 115.003 56.2806C114.629 56.6866 113.996 56.7121 113.59 56.3376L114.946 54.8676ZM105.978 49.6683C105.554 49.3151 105.496 48.6845 105.849 48.26C106.202 47.8354 106.833 47.7776 107.257 48.1309L105.978 49.6683ZM99.2041 41.7683C99.646 42.0997 99.7355 42.7265 99.4041 43.1683C99.0728 43.6102 98.446 43.6997 98.0041 43.3684L99.2041 41.7683ZM89.7893 37.5182C89.3317 37.2089 89.2115 36.5873 89.5207 36.1297C89.83 35.6721 90.4516 35.5519 90.9092 35.8611L89.7893 37.5182ZM82.289 30.3357C82.761 30.6224 82.9112 31.2375 82.6245 31.7095C82.3378 32.1815 81.7227 32.3317 81.2507 32.045L82.289 30.3357ZM72.4693 26.9926C71.9842 26.7285 71.805 26.1212 72.0691 25.6362C72.3332 25.1511 72.9405 24.9719 73.4255 25.236L72.4693 26.9926ZM64.3568 20.5684C64.8536 20.8098 65.0606 21.4082 64.8192 21.9049C64.5778 22.4016 63.9794 22.6087 63.4827 22.3673L64.3568 20.5684ZM54.2192 18.124C53.712 17.9054 53.478 17.317 53.6966 16.8098C53.9152 16.3026 54.5036 16.0687 55.0108 16.2873L54.2192 18.124ZM45.5988 12.4734C46.1151 12.6697 46.3745 13.2472 46.1783 13.7635C45.982 14.2797 45.4044 14.5391 44.8882 14.3429L45.5988 12.4734ZM35.302 10.9339C34.7778 10.76 34.4938 10.194 34.6677 9.66984C34.8416 9.14565 35.4075 8.86167 35.9317 9.03557L35.302 10.9339ZM26.2053 6.03203C26.7363 6.18408 27.0434 6.73777 26.8914 7.26871C26.7393 7.79964 26.1856 8.10679 25.6547 7.95472L26.2053 6.03203ZM15.8401 5.35801C15.3035 5.22751 14.9742 4.68666 15.1048 4.15003C15.2353 3.61337 15.7761 3.28416 16.3128 3.41468L15.8401 5.35801ZM6.35182 1.19775C6.89312 1.30726 7.24318 1.83486 7.13367 2.37618C7.02416 2.91751 6.49657 3.26756 5.95523 3.15804L6.35182 1.19775ZM30.6142 349.126C32.2868 348.664 33.9438 348.19 35.5853 347.704L36.1532 349.621C34.4999 350.111 32.831 350.589 31.1466 351.054L30.6142 349.126ZM45.2476 344.645C48.4938 343.549 51.6745 342.405 54.7901 341.213L55.5046 343.081C52.3639 344.282 49.1582 345.436 45.8873 346.54L45.2476 344.645ZM64.1559 337.407C67.3087 336.047 70.3893 334.637 73.398 333.179L74.2703 334.979C71.2347 336.45 68.1273 337.872 64.9478 339.243L64.1559 337.407ZM82.3491 328.585C85.3749 326.942 88.321 325.248 91.1879 323.505L92.2271 325.213C89.332 326.974 86.3575 328.685 83.3033 330.343L82.3491 328.585ZM99.6533 318.06C102.489 316.132 105.237 314.153 107.901 312.126L109.112 313.717C106.42 315.766 103.642 317.766 100.778 319.714L99.6533 318.06ZM115.781 305.777C118.362 303.575 120.852 301.324 123.251 299.028L124.634 300.473C122.207 302.796 119.689 305.072 117.079 307.299L115.781 305.777ZM130.381 291.784C132.692 289.291 134.904 286.751 137.019 284.169L138.566 285.436C136.426 288.05 134.187 290.62 131.848 293.144L130.381 291.784ZM143.161 276.17C145.15 273.405 147.034 270.597 148.815 267.752L150.51 268.813C148.707 271.695 146.798 274.537 144.785 277.337L143.161 276.17ZM153.895 259.016C155.499 256.039 156.996 253.026 158.388 249.982L160.207 250.813C158.797 253.897 157.28 256.949 155.655 259.965L153.895 259.016ZM162.29 240.64C163.49 237.478 164.581 234.287 165.563 231.074L167.476 231.658C166.481 234.914 165.376 238.146 164.16 241.349L162.29 240.64ZM168.197 221.319C168.969 218.033 169.633 214.727 170.187 211.406L172.16 211.736C171.598 215.099 170.926 218.448 170.144 221.777L168.197 221.319ZM171.528 201.383C171.867 198.03 172.098 194.666 172.221 191.297L174.219 191.37C174.095 194.782 173.861 198.188 173.518 201.584L171.528 201.383ZM172.27 181.181C172.18 177.816 171.984 174.449 171.683 171.087L173.675 170.908C173.98 174.312 174.178 177.72 174.269 181.128L172.27 181.181ZM170.473 161.048C169.967 157.721 169.359 154.401 168.65 151.095L170.605 150.675C171.323 154.021 171.938 157.38 172.45 160.748L170.473 161.048ZM166.23 141.266C165.33 138.03 164.332 134.81 163.236 131.612L165.128 130.964C166.236 134.199 167.246 137.456 168.157 140.73L166.23 141.266ZM159.679 122.139C158.404 119.023 157.036 115.933 155.573 112.871L157.378 112.009C158.857 115.105 160.241 118.231 161.53 121.382L159.679 122.139ZM150.962 103.882C149.346 100.939 147.641 98.0279 145.847 95.1531L147.544 94.0944C149.358 97.0006 151.081 99.9435 152.715 102.919L150.962 103.882ZM140.243 86.7017C138.315 83.9603 136.302 81.2572 134.205 78.5962L135.776 77.3584C137.895 80.0478 139.929 82.7799 141.879 85.5509L140.243 86.7017ZM127.734 70.8213C125.514 68.2945 123.214 65.8117 120.835 63.3765L122.265 61.9788C124.669 64.4392 126.993 66.9479 129.237 69.5013L127.734 70.8213ZM113.59 56.3376C111.127 54.0651 108.589 51.841 105.978 49.6683L107.257 48.1309C109.895 50.3253 112.458 52.572 114.946 54.8676L113.59 56.3376ZM98.0041 43.3684C95.3343 41.366 92.5958 39.4149 89.7893 37.5182L90.9092 35.8611C93.7428 37.7762 96.508 39.7463 99.2041 41.7683L98.0041 43.3684ZM81.2507 32.045C78.3874 30.3057 75.4601 28.6207 72.4693 26.9926L73.4255 25.236C76.444 26.8791 79.3986 28.5799 82.289 30.3357L81.2507 32.045ZM63.4827 22.3673C60.4543 20.8956 57.3663 19.4804 54.2192 18.124L55.0108 16.2873C58.1855 17.6556 61.3011 19.0835 64.3568 20.5684L63.4827 22.3673ZM44.8882 14.3429C41.7471 13.1489 38.5515 12.0118 35.302 10.9339L35.9317 9.03557C39.2083 10.1225 42.4308 11.2692 45.5988 12.4734L44.8882 14.3429ZM25.6547 7.95472C22.4325 7.03193 19.1609 6.16569 15.8401 5.35801L16.3128 3.41468C19.6595 4.22866 22.9572 5.10176 26.2053 6.03203L25.6547 7.95472ZM5.95523 3.15804C4.2844 2.82001 2.60191 2.49647 0.907801 2.18766L1.26646 0.220069C2.9732 0.531205 4.66832 0.857168 6.35182 1.19775L5.95523 3.15804Z" fill="#224E82"/>
</svg>
