<svg width="153" height="352" viewBox="0 0 153 352" fill="none" xmlns="http://www.w3.org/2000/svg">
<path d="M117.898 348.057C117.369 347.9 116.812 348.202 116.656 348.732C116.499 349.261 116.801 349.818 117.33 349.974L117.898 348.057ZM107.596 346.893C108.12 347.07 108.687 346.789 108.864 346.265C109.04 345.742 108.759 345.175 108.236 344.998L107.596 346.893ZM98.6935 341.566C98.1777 341.369 97.5996 341.627 97.4023 342.143C97.2049 342.658 97.4632 343.237 97.979 343.434L98.6935 341.566ZM88.5359 339.596C89.043 339.815 89.6314 339.581 89.8501 339.074C90.0688 338.567 89.8349 337.978 89.3278 337.76L88.5359 339.596ZM80.0856 333.532C79.5886 333.291 78.9905 333.499 78.7496 333.996C78.5087 334.493 78.7164 335.091 79.2133 335.332L80.0856 333.532ZM70.1803 330.696C70.6657 330.959 71.2728 330.78 71.5363 330.294C71.7998 329.809 71.6199 329.202 71.1346 328.938L70.1803 330.696ZM62.2957 323.858C61.8239 323.571 61.2087 323.721 60.9217 324.192C60.6348 324.664 60.7847 325.279 61.2565 325.566L62.2957 323.858ZM52.7058 320.067C53.1625 320.377 53.7845 320.259 54.095 319.802C54.4056 319.345 54.2871 318.723 53.8303 318.413L52.7058 320.067ZM45.5829 312.479C45.1435 312.144 44.5161 312.229 44.1815 312.669C43.847 313.108 43.9321 313.736 44.3716 314.07L45.5829 312.479ZM36.4051 307.652C36.8253 308.01 37.4565 307.96 37.8149 307.54C38.1733 307.119 38.1231 306.488 37.7029 306.13L36.4051 307.652ZM30.2323 299.381C29.8334 298.999 29.2003 299.013 28.8185 299.412C28.4366 299.811 28.4504 300.444 28.8494 300.826L30.2323 299.381ZM21.6354 293.497C22.0108 293.902 22.6435 293.926 23.0486 293.55C23.4536 293.175 23.4777 292.542 23.1023 292.137L21.6354 293.497ZM16.4649 284.522C16.115 284.094 15.485 284.031 15.0576 284.381C14.6303 284.731 14.5676 285.361 14.9174 285.789L16.4649 284.522ZM8.69858 277.69C9.02101 278.139 9.64589 278.241 10.0943 277.918C10.5427 277.596 10.6448 276.971 10.3223 276.523L8.69858 277.69ZM4.66906 268.105C4.37608 267.637 3.75906 267.495 3.29089 267.788C2.82272 268.081 2.6807 268.698 2.97368 269.166L4.66906 268.105ZM-2.17176 260.318C-1.90979 260.804 -1.30327 260.986 -0.817076 260.724C-0.330877 260.462 -0.149097 259.856 -0.411063 259.37L-2.17176 260.318ZM-4.90401 250.335C-5.13359 249.833 -5.7269 249.612 -6.22921 249.841C-6.73152 250.071 -6.9526 250.664 -6.72302 251.166L-4.90401 250.335ZM-10.6765 241.702C-10.4806 242.219 -9.90318 242.478 -9.38682 242.282C-8.87046 242.086 -8.61069 241.509 -8.80662 240.993L-10.6765 241.702ZM-12.0794 231.427C-12.2408 230.898 -12.7999 230.601 -13.328 230.763C-13.8562 230.924 -14.1535 231.483 -13.992 232.011L-12.0794 231.427ZM-16.6602 222.13C-16.5338 222.668 -15.9955 223.001 -15.4579 222.875C-14.9203 222.748 -14.5869 222.21 -14.7133 221.672L-16.6602 222.13ZM-16.7035 211.759C-16.7945 211.215 -17.3099 210.847 -17.8546 210.938C-18.3993 211.029 -18.7672 211.544 -18.6762 212.089L-16.7035 211.759ZM-20.0345 201.937C-19.979 202.487 -19.4886 202.887 -18.9391 202.832C-18.3896 202.776 -17.9891 202.286 -18.0446 201.736L-20.0345 201.937ZM-18.7371 191.65C-18.7573 191.098 -19.2211 190.667 -19.773 190.687C-20.3249 190.707 -20.756 191.171 -20.7358 191.723L-18.7371 191.65ZM-20.7854 181.481C-20.8001 182.033 -20.3646 182.492 -19.8125 182.507C-19.2604 182.522 -18.8009 182.086 -18.7861 181.534L-20.7854 181.481ZM-18.1995 171.44C-18.1504 170.889 -18.5564 170.404 -19.1065 170.354C-19.6566 170.305 -20.1424 170.711 -20.1916 171.261L-18.1995 171.44ZM-18.9663 161.101C-19.0492 161.647 -18.6738 162.157 -18.1277 162.24C-17.5817 162.323 -17.0719 161.947 -16.9889 161.401L-18.9663 161.101ZM-15.166 151.448C-15.0502 150.908 -15.394 150.376 -15.934 150.26C-16.4739 150.144 -17.0056 150.488 -17.1215 151.028L-15.166 151.448ZM-14.6732 141.083C-14.8212 141.615 -14.5098 142.166 -13.9777 142.314C-13.4456 142.462 -12.8943 142.151 -12.7463 141.619L-14.6732 141.083ZM-9.75226 131.965C-9.57324 131.443 -9.85166 130.874 -10.3741 130.695C-10.8966 130.516 -11.4653 130.794 -11.6443 131.317L-9.75226 131.965ZM-8.04608 121.735C-8.25515 122.246 -8.01023 122.83 -7.49905 123.039C-6.98786 123.248 -6.40398 123.003 -6.19492 122.492L-8.04608 121.735ZM-2.0894 113.224C-1.85135 112.726 -2.06235 112.129 -2.56069 111.891C-3.05904 111.653 -3.65601 111.864 -3.89407 112.362L-2.0894 113.224ZM0.768505 103.272C0.502706 103.756 0.679687 104.364 1.16381 104.63C1.64793 104.896 2.25585 104.719 2.52165 104.235L0.768505 103.272ZM7.63643 95.5062C7.92881 95.0376 7.786 94.4208 7.31745 94.1284C6.8489 93.836 6.23206 93.9788 5.93968 94.4474L7.63643 95.5062ZM11.6048 85.904C11.2871 86.3557 11.3957 86.9795 11.8474 87.2972C12.2991 87.615 12.9229 87.5064 13.2406 87.0547L11.6048 85.904ZM19.2786 78.9492C19.6203 78.5154 19.5457 77.8866 19.1119 77.5448C18.6781 77.203 18.0494 77.2776 17.7076 77.7114L19.2786 78.9492ZM24.2471 69.8544C23.8825 70.2693 23.9234 70.9011 24.3383 71.2656C24.7532 71.6301 25.3851 71.5893 25.7496 71.1744L24.2471 69.8544ZM32.6487 63.7296C33.0347 63.3345 33.0273 62.7014 32.6323 62.3154C32.2373 61.9295 31.6042 61.9368 31.2182 62.3319L32.6487 63.7296ZM38.5373 55.2206C38.1313 55.5951 38.1058 56.2277 38.4803 56.6337C38.8548 57.0396 39.4875 57.0651 39.8934 56.6906L38.5373 55.2206ZM47.5056 50.0213C47.9301 49.6681 47.9879 49.0376 47.6347 48.613C47.2814 48.1885 46.6509 48.1307 46.2264 48.4839L47.5056 50.0213ZM54.2795 42.1214C53.8377 42.4527 53.7481 43.0795 54.0795 43.5214C54.4109 43.9632 55.0377 44.0528 55.4795 43.7214L54.2795 42.1214ZM63.6944 37.8712C64.1519 37.562 64.2722 36.9403 63.9629 36.4827C63.6537 36.0252 63.032 35.9049 62.5744 36.2142L63.6944 37.8712ZM71.1946 30.6887C70.7226 30.9754 70.5724 31.5905 70.8591 32.0625C71.1459 32.5345 71.7609 32.6848 72.233 32.398L71.1946 30.6887ZM81.0143 27.3456C81.4994 27.0816 81.6786 26.4743 81.4145 25.9892C81.1505 25.5042 80.5432 25.325 80.0581 25.589L81.0143 27.3456ZM89.1268 20.9215C88.6301 21.1628 88.4231 21.7612 88.6645 22.2579C88.9058 22.7547 89.5042 22.9617 90.001 22.7203L89.1268 20.9215ZM99.2645 18.477C99.7717 18.2584 100.006 17.67 99.787 17.1628C99.5684 16.6557 98.9801 16.4217 98.4729 16.6403L99.2645 18.477ZM107.885 12.8264C107.369 13.0227 107.109 13.6003 107.305 14.1165C107.502 14.6327 108.079 14.8922 108.595 14.6959L107.885 12.8264ZM118.182 11.2869C118.706 11.113 118.99 10.5471 118.816 10.0229C118.642 9.49868 118.076 9.2147 117.552 9.38859L118.182 11.2869ZM127.278 6.38506C126.747 6.53711 126.44 7.0908 126.592 7.62173C126.744 8.15267 127.298 8.45982 127.829 8.30775L127.278 6.38506ZM137.644 5.71104C138.18 5.58054 138.509 5.03969 138.379 4.50305C138.248 3.96639 137.708 3.63718 137.171 3.76771L137.644 5.71104ZM147.132 1.55078C146.591 1.66028 146.24 2.18789 146.35 2.72921C146.459 3.27053 146.987 3.62059 147.528 3.51106L147.132 1.55078ZM122.869 349.479C121.197 349.017 119.54 348.543 117.898 348.057L117.33 349.974C118.984 350.464 120.653 350.942 122.337 351.407L122.869 349.479ZM108.236 344.998C104.99 343.902 101.809 342.758 98.6935 341.566L97.979 343.434C101.12 344.635 104.325 345.789 107.596 346.893L108.236 344.998ZM89.3278 337.76C86.1749 336.4 83.0944 334.99 80.0856 333.532L79.2133 335.332C82.2489 336.803 85.3563 338.225 88.5359 339.596L89.3278 337.76ZM71.1346 328.938C68.1087 327.296 65.1626 325.601 62.2957 323.858L61.2565 325.566C64.1516 327.327 67.1261 329.038 70.1803 330.696L71.1346 328.938ZM53.8303 318.413C50.9951 316.485 48.2461 314.506 45.5829 312.479L44.3716 314.07C47.0634 316.119 49.8413 318.119 52.7058 320.067L53.8303 318.413ZM37.7029 306.13C35.1214 303.928 32.6314 301.677 30.2323 299.381L28.8494 300.826C31.2763 303.149 33.7947 305.425 36.4051 307.652L37.7029 306.13ZM23.1023 292.137C20.7917 289.644 18.5794 287.104 16.4649 284.522L14.9174 285.789C17.058 288.403 19.2971 290.973 21.6354 293.497L23.1023 292.137ZM10.3223 276.523C8.3339 273.758 6.44974 270.95 4.66906 268.105L2.97368 269.166C4.77711 272.048 6.68515 274.89 8.69858 277.69L10.3223 276.523ZM-0.411063 259.37C-2.01527 256.392 -3.51264 253.379 -4.90401 250.335L-6.72302 251.166C-5.31353 254.25 -3.79671 257.302 -2.17176 260.318L-0.411063 259.37ZM-8.80662 240.993C-10.0064 237.831 -11.0971 234.64 -12.0794 231.427L-13.992 232.011C-12.9969 235.267 -11.892 238.499 -10.6765 241.702L-8.80662 240.993ZM-14.7133 221.672C-15.4858 218.386 -16.1489 215.08 -16.7035 211.759L-18.6762 212.089C-18.1145 215.452 -17.4428 218.801 -16.6602 222.13L-14.7133 221.672ZM-18.0446 201.736C-18.3833 198.383 -18.6139 195.019 -18.7371 191.65L-20.7358 191.723C-20.611 195.135 -20.3775 198.541 -20.0345 201.937L-18.0446 201.736ZM-18.7861 181.534C-18.696 178.169 -18.5002 174.802 -18.1995 171.44L-20.1916 171.261C-20.496 174.665 -20.6942 178.073 -20.7854 181.481L-18.7861 181.534ZM-16.9889 161.401C-16.4836 158.074 -15.8757 154.754 -15.166 151.448L-17.1215 151.028C-17.8396 154.374 -18.4548 157.733 -18.9663 161.101L-16.9889 161.401ZM-12.7463 141.619C-11.8464 138.383 -10.8481 135.163 -9.75226 131.965L-11.6443 131.317C-12.7528 134.552 -13.7627 137.809 -14.6732 141.083L-12.7463 141.619ZM-6.19492 122.492C-4.9207 119.377 -3.55193 116.286 -2.0894 113.224L-3.89407 112.362C-5.37305 115.458 -6.75733 118.584 -8.04608 121.735L-6.19492 122.492ZM2.52165 104.235C4.13736 101.292 5.84254 98.381 7.63643 95.5062L5.93968 94.4474C4.12614 97.3537 2.40216 100.297 0.768505 103.272L2.52165 104.235ZM13.2406 87.0547C15.1691 84.3133 17.182 81.6102 19.2786 78.9492L17.7076 77.7114C15.5887 80.4009 13.5542 83.1329 11.6048 85.904L13.2406 87.0547ZM25.7496 71.1744C27.9695 68.6475 30.2695 66.1647 32.6487 63.7296L31.2182 62.3319C28.8143 64.7923 26.4904 67.3009 24.2471 69.8544L25.7496 71.1744ZM39.8934 56.6906C42.3567 54.4182 44.8943 52.194 47.5056 50.0213L46.2264 48.4839C43.5889 50.6783 41.0257 52.925 38.5373 55.2206L39.8934 56.6906ZM55.4795 43.7214C58.1494 41.719 60.8879 39.768 63.6944 37.8712L62.5744 36.2142C59.7409 38.1292 56.9757 40.0993 54.2795 42.1214L55.4795 43.7214ZM72.233 32.398C75.0963 30.6588 78.0236 28.9737 81.0143 27.3456L80.0581 25.589C77.0397 27.2322 74.085 28.933 71.1946 30.6887L72.233 32.398ZM90.001 22.7203C93.0294 21.2486 96.1174 19.8334 99.2645 18.477L98.4729 16.6403C95.2981 18.0086 92.1826 19.4365 89.1268 20.9215L90.001 22.7203ZM108.595 14.6959C111.737 13.502 114.932 12.3648 118.182 11.2869L117.552 9.38859C114.275 10.4755 111.053 11.6222 107.885 12.8264L108.595 14.6959ZM127.829 8.30775C131.051 7.38495 134.323 6.51872 137.644 5.71104L137.171 3.76771C133.824 4.58169 130.526 5.45479 127.278 6.38506L127.829 8.30775ZM147.528 3.51106C149.199 3.17304 150.882 2.8495 152.576 2.54068L152.217 0.573096C150.51 0.884232 148.815 1.2102 147.132 1.55078L147.528 3.51106Z" fill="#224E82"/>
</svg>
