<svg width="844" height="172" viewBox="0 0 844 172" fill="none" xmlns="http://www.w3.org/2000/svg">
<path d="M2.18687 166.809C2.22723 166.259 1.81342 165.779 1.26262 165.739C0.711808 165.699 0.232574 166.113 0.192217 166.663L2.18687 166.809ZM1.71243 156.602C1.58632 157.139 1.91998 157.677 2.45767 157.804C2.99537 157.93 3.53349 157.596 3.6596 157.058L1.71243 156.602ZM6.72968 147.689C6.94716 147.182 6.71193 146.594 6.20427 146.376C5.69661 146.159 5.10876 146.394 4.89128 146.902L6.72968 147.689ZM9.73698 137.898C9.43352 138.36 9.5616 138.98 10.023 139.283C10.4845 139.587 11.1046 139.459 11.408 138.997L9.73698 137.898ZM17.4638 131.267C17.8379 130.861 17.8118 130.229 17.4054 129.854C16.9991 129.48 16.3665 129.507 15.9924 129.913L17.4638 131.267ZM23.455 122.904C23.0275 123.253 22.9645 123.883 23.3141 124.311C23.6638 124.738 24.2938 124.802 24.7213 124.452L23.455 122.904ZM32.745 118.651C33.2098 118.352 33.3449 117.734 33.0467 117.269C32.7485 116.804 32.1299 116.669 31.665 116.967L32.745 118.651ZM40.5021 111.888C40.0112 112.141 39.8187 112.744 40.0719 113.235C40.3251 113.726 40.9283 113.918 41.4191 113.665L40.5021 111.888ZM50.4391 109.449C50.9476 109.234 51.1853 108.647 50.9698 108.139C50.7544 107.63 50.1675 107.392 49.659 107.608L50.4391 109.449ZM59.2107 103.921C58.6897 104.104 58.4158 104.675 58.5991 105.196C58.7823 105.717 59.3532 105.991 59.8742 105.807L59.2107 103.921ZM69.2885 102.769C69.818 102.612 70.1203 102.056 69.9636 101.526C69.8068 100.997 69.2505 100.695 68.7209 100.851L69.2885 102.769ZM78.7819 98.1194C78.2459 98.2527 77.9196 98.7953 78.0529 99.3312C78.1863 99.8672 78.7289 100.194 79.2648 100.06L78.7819 98.1194ZM88.7763 97.8741C89.3166 97.7595 89.6618 97.2287 89.5472 96.6884C89.4327 96.1481 88.9018 95.803 88.3616 95.9175L88.7763 97.8741ZM98.3805 93.9599C97.8369 94.0576 97.4754 94.5774 97.5731 95.121C97.6708 95.6646 98.1907 96.026 98.7343 95.9283L98.3805 93.9599ZM108.706 94.2761C109.252 94.193 109.627 93.6829 109.544 93.1369C109.461 92.591 108.951 92.2158 108.405 92.299L108.706 94.2761ZM118.274 90.9124C117.727 90.9832 117.34 91.4846 117.411 92.0323C117.481 92.58 117.983 92.9667 118.531 92.8959L118.274 90.9124ZM128.684 91.6925C129.233 91.633 129.629 91.1397 129.57 90.5906C129.51 90.0416 129.017 89.6447 128.468 89.7042L128.684 91.6925ZM138.48 88.7107C137.93 88.7605 137.524 89.2467 137.574 89.7968C137.624 90.3468 138.11 90.7524 138.66 90.7026L138.48 88.7107ZM148.597 89.8834C149.148 89.8422 149.561 89.3624 149.52 88.8117C149.479 88.2609 148.999 87.8478 148.448 87.889L148.597 89.8834ZM158.661 87.2004C158.11 87.2337 157.69 87.7076 157.723 88.2589C157.757 88.8101 158.231 89.23 158.782 89.1967L158.661 87.2004ZM168.832 88.6542C169.384 88.6279 169.81 88.1593 169.784 87.6076C169.757 87.056 169.289 86.6301 168.737 86.6565L168.832 88.6542ZM178.716 86.2365C178.165 86.2567 177.733 86.7204 177.754 87.2724C177.774 87.8243 178.238 88.2553 178.79 88.2351L178.716 86.2365ZM188.936 87.9169C189.488 87.9024 189.924 87.443 189.909 86.8909C189.895 86.3389 189.435 85.9031 188.883 85.9176L188.936 87.9169ZM199.072 85.6975C198.52 85.7069 198.08 86.1622 198.09 86.7144C198.099 87.2666 198.554 87.7066 199.107 87.6972L199.072 85.6975ZM209.046 87.5693C209.598 87.5644 210.042 87.1127 210.037 86.5605C210.032 86.0082 209.58 85.5645 209.028 85.5694L209.046 87.5693ZM219.129 85.5187C218.577 85.5194 218.13 85.9677 218.13 86.52C218.131 87.0723 218.579 87.5194 219.132 87.5187L219.129 85.5187ZM229.356 87.5413C229.908 87.5444 230.359 87.0992 230.362 86.547C230.365 85.9947 229.92 85.5445 229.367 85.5414L229.356 87.5413ZM239.366 85.6286C238.814 85.6221 238.361 86.0646 238.354 86.6168C238.348 87.169 238.79 87.622 239.343 87.6285L239.366 85.6286ZM249.37 87.7746C249.922 87.7841 250.377 87.3443 250.387 86.7921C250.396 86.2399 249.956 85.7845 249.404 85.7749L249.37 87.7746ZM259.549 85.9769C258.996 85.9645 258.539 86.4021 258.526 86.9542C258.514 87.5063 258.952 87.964 259.504 87.9764L259.549 85.9769ZM269.66 88.228C270.212 88.2429 270.672 87.8074 270.687 87.2553C270.702 86.7033 270.266 86.2436 269.714 86.2287L269.66 88.228ZM279.706 86.5197C279.154 86.5025 278.692 86.9361 278.675 87.4881C278.658 88.0401 279.091 88.5015 279.643 88.5187L279.706 86.5197ZM289.708 88.8512C290.26 88.8704 290.723 88.4386 290.743 87.8866C290.762 87.3347 290.33 86.8716 289.778 86.8524L289.708 88.8512ZM299.925 87.2234C299.374 87.2023 298.909 87.6326 298.888 88.1845C298.867 88.7364 299.297 89.2008 299.849 89.2219L299.925 87.2234ZM309.934 89.6224C310.486 89.6451 310.952 89.2162 310.975 88.6644C310.997 88.1126 310.569 87.6468 310.017 87.6241L309.934 89.6224ZM320.044 88.0501C319.492 88.026 319.025 88.4537 319.001 89.0054C318.977 89.5572 319.405 90.0241 319.956 90.0482L320.044 88.0501ZM330.034 90.5009C330.585 90.5263 331.053 90.0997 331.078 89.548C331.104 88.9963 330.677 88.5284 330.125 88.503L330.034 90.5009ZM340.256 88.9797C339.705 88.9532 339.236 89.3789 339.21 89.9306C339.183 90.4822 339.609 90.9509 340.161 90.9774L340.256 88.9797ZM350.221 91.469C350.772 91.4964 351.242 91.0714 351.269 90.5198C351.296 89.9682 350.871 89.4988 350.32 89.4714L350.221 91.469ZM360.368 89.9776C359.816 89.9494 359.346 90.3737 359.318 90.9253C359.29 91.4769 359.714 91.9468 360.266 91.975L360.368 89.9776ZM370.343 92.4949C370.895 92.5237 371.365 92.0999 371.394 91.5484C371.423 90.9968 370.999 90.5264 370.448 90.4977L370.343 92.4949ZM380.554 91.0287C380.002 90.9995 379.532 91.4229 379.502 91.9745C379.473 92.526 379.897 92.9967 380.448 93.0259L380.554 91.0287ZM390.511 93.5614C391.062 93.5909 391.533 93.1677 391.562 92.6163C391.592 92.0648 391.169 91.5938 390.617 91.5643L390.511 93.5614ZM400.68 92.1039C400.129 92.0743 399.657 92.4973 399.628 93.0488C399.598 93.6003 400.021 94.0714 400.573 94.101L400.68 92.1039ZM410.646 94.6426C411.198 94.6722 411.669 94.2492 411.698 93.6977C411.728 93.1462 411.305 92.6751 410.753 92.6455L410.646 94.6426ZM420.832 93.1861C420.281 93.1566 419.81 93.5798 419.78 94.1313C419.751 94.6828 420.174 95.1538 420.725 95.1833L420.832 93.1861ZM430.806 95.7202C431.358 95.7494 431.829 95.326 431.858 94.7745C431.887 94.2229 431.464 93.7522 430.912 93.723L430.806 95.7202ZM440.988 94.253C440.436 94.2242 439.966 94.648 439.937 95.1995C439.908 95.751 440.332 96.2215 440.883 96.2503L440.988 94.253ZM450.951 96.7707C451.502 96.7989 451.972 96.3747 452.001 95.8231C452.029 95.2715 451.604 94.8015 451.053 94.7733L450.951 96.7707ZM461.103 95.281C460.552 95.2535 460.082 95.6784 460.055 96.23C460.027 96.7816 460.452 97.2511 461.004 97.2785L461.103 95.281ZM471.116 97.7747C471.667 97.8013 472.136 97.3756 472.163 96.824C472.189 96.2724 471.764 95.8036 471.212 95.777L471.116 97.7747ZM481.298 96.2543C480.747 96.2287 480.279 96.6552 480.253 97.2069C480.228 97.7586 480.654 98.2265 481.206 98.2521L481.298 96.2543ZM491.265 98.7078C491.817 98.7322 492.284 98.3047 492.308 97.7529C492.333 97.2012 491.905 96.7341 491.353 96.7098L491.265 98.7078ZM501.385 97.141C500.833 97.118 500.367 97.5466 500.344 98.0984C500.321 98.6503 500.75 99.1162 501.302 99.1393L501.385 97.141ZM511.448 99.5488C512 99.5702 512.465 99.1403 512.486 98.5884C512.508 98.0366 512.078 97.5718 511.526 97.5503L511.448 99.5488ZM521.618 97.9277C521.066 97.9079 520.603 98.3393 520.583 98.8913C520.563 99.4432 520.995 99.9066 521.547 99.9264L521.618 97.9277ZM531.592 100.269C532.144 100.287 532.605 99.8539 532.623 99.3019C532.641 98.7499 532.208 98.288 531.656 98.2701L531.592 100.269ZM541.699 98.5762C541.147 98.5605 540.687 98.9952 540.671 99.5473C540.656 100.099 541.09 100.56 541.642 100.575L541.699 98.5762ZM551.811 100.844C552.363 100.858 552.822 100.421 552.835 99.8689C552.849 99.3168 552.412 98.8584 551.86 98.845L551.811 100.844ZM561.946 99.0669C561.393 99.0561 560.937 99.4949 560.926 100.047C560.915 100.599 561.354 101.056 561.906 101.067L561.946 99.0669ZM571.922 101.239C572.474 101.247 572.928 100.805 572.936 100.253C572.945 99.701 572.503 99.2468 571.951 99.2387L571.922 101.239ZM582.05 99.3586C581.498 99.3536 581.046 99.7973 581.041 100.35C581.036 100.902 581.48 101.354 582.032 101.359L582.05 99.3586ZM592.203 101.42C592.755 101.421 593.204 100.975 593.206 100.423C593.208 99.8705 592.761 99.4215 592.209 99.4199L592.203 101.42ZM602.262 99.4165C601.71 99.4185 601.264 99.8679 601.266 100.42C601.268 100.972 601.718 101.419 602.27 101.416L602.262 99.4165ZM612.225 101.345C612.778 101.339 613.22 100.886 613.214 100.334C613.208 99.7815 612.756 99.3386 612.204 99.3446L612.225 101.345ZM622.425 99.1932C621.872 99.2036 621.433 99.6597 621.444 100.212C621.454 100.764 621.91 101.203 622.462 101.193L622.425 99.1932ZM632.595 100.958C633.147 100.942 633.582 100.483 633.567 99.9305C633.551 99.3784 633.091 98.9432 632.539 98.9585L632.595 100.958ZM642.51 98.6367C641.958 98.6572 641.527 99.1211 641.548 99.673C641.568 100.225 642.032 100.656 642.584 100.635L642.51 98.6367ZM652.676 100.209C653.228 100.183 653.654 99.7146 653.627 99.1629C653.601 98.6113 653.133 98.1853 652.581 98.2115L652.676 100.209ZM662.757 97.6695C662.206 97.7021 661.786 98.1755 661.818 98.7269C661.851 99.2782 662.324 99.6987 662.875 99.666L662.757 97.6695ZM672.89 99.0109C673.441 98.9714 673.856 98.4927 673.816 97.9419C673.776 97.391 673.298 96.9765 672.747 97.0161L672.89 99.0109ZM682.671 96.2352C682.12 96.2824 681.713 96.7667 681.76 97.317C681.807 97.8673 682.291 98.2751 682.842 98.2279L682.671 96.2352ZM693.085 97.2689C693.635 97.213 694.035 96.7223 693.979 96.1728C693.923 95.6234 693.432 95.2233 692.883 95.2792L693.085 97.2689ZM702.852 94.1793C702.304 94.2447 701.912 94.7422 701.977 95.2906C702.043 95.8391 702.54 96.2306 703.089 96.1652L702.852 94.1793ZM712.94 94.8969C713.487 94.8211 713.87 94.3161 713.794 93.7691C713.718 93.222 713.213 92.84 712.666 92.9159L712.94 94.8969ZM722.84 91.392C722.295 91.48 721.924 91.9933 722.013 92.5386C722.101 93.0838 722.614 93.4544 723.159 93.3664L722.84 91.392ZM733.061 91.6456C733.604 91.5442 733.962 91.0219 733.86 90.479C733.759 89.9361 733.237 89.5782 732.694 89.6795L733.061 91.6456ZM742.451 87.7197C741.911 87.8361 741.568 88.3682 741.684 88.908C741.801 89.4479 742.333 89.7912 742.873 89.6747L742.451 87.7197ZM752.908 87.3413C753.444 87.2072 753.769 86.6641 753.635 86.1284C753.501 85.5926 752.958 85.267 752.422 85.4011L752.908 87.3413ZM761.962 82.8313C761.431 82.9849 761.126 83.5395 761.279 84.07C761.433 84.6005 761.987 84.906 762.518 84.7523L761.962 82.8313ZM772.289 81.6945C772.813 81.5177 773.093 80.9502 772.917 80.427C772.74 79.9038 772.172 79.6229 771.649 79.7997L772.289 81.6945ZM781.079 76.3508C780.565 76.5541 780.314 77.1351 780.517 77.6487C780.72 78.1622 781.301 78.4137 781.815 78.2105L781.079 76.3508ZM791.031 74.2502C791.531 74.0167 791.747 73.4216 791.514 72.9212C791.28 72.4207 790.685 72.2042 790.185 72.4378L791.031 74.2502ZM799.218 67.8279C798.736 68.0972 798.563 68.7064 798.832 69.1886C799.102 69.6707 799.711 69.8433 800.193 69.5739L799.218 67.8279ZM808.7 64.3538C809.158 64.0448 809.279 63.4232 808.97 62.9654C808.661 62.5077 808.039 62.3871 807.581 62.696L808.7 64.3538ZM815.675 56.6193C815.252 56.974 815.196 57.6047 815.551 58.028C815.905 58.4514 816.536 58.5071 816.959 58.1525L815.675 56.6193ZM824.287 51.2582C824.666 50.8562 824.647 50.2233 824.245 49.8446C823.843 49.466 823.21 49.4849 822.832 49.8869L824.287 51.2582ZM829.181 42.1708C828.861 42.6205 828.965 43.245 829.415 43.5655C829.865 43.886 830.489 43.7812 830.81 43.3315L829.181 42.1708ZM836.085 34.671C836.337 34.1796 836.143 33.5769 835.651 33.3249C835.16 33.0728 834.557 33.2669 834.305 33.7584L836.085 34.671ZM838.162 24.6225C837.985 25.1458 838.266 25.7132 838.789 25.8898C839.313 26.0665 839.88 25.7855 840.057 25.2622L838.162 24.6225ZM842.61 15.4564C842.712 14.9136 842.355 14.3909 841.812 14.2888C841.269 14.1868 840.747 14.5441 840.645 15.0869L842.61 15.4564ZM841.848 5.20818C841.815 5.75949 842.235 6.23296 842.787 6.26569C843.338 6.29843 843.811 5.87804 843.844 5.32672L841.848 5.20818ZM2 172C2 170.234 2.06271 168.504 2.18687 166.809L0.192217 166.663C0.0643905 168.408 0 170.187 0 172H2ZM3.6596 157.058C4.42599 153.791 5.45282 150.67 6.72968 147.689L4.89128 146.902C3.56798 149.991 2.50502 153.222 1.71243 156.602L3.6596 157.058ZM11.408 138.997C13.1872 136.292 15.2088 133.717 17.4638 131.267L15.9924 129.913C13.6675 132.438 11.5785 135.098 9.73698 137.898L11.408 138.997ZM24.7213 124.452C27.2075 122.418 29.8844 120.486 32.745 118.651L31.665 116.967C28.7448 118.841 26.0052 120.818 23.455 122.904L24.7213 124.452ZM41.4191 113.665C44.2865 112.185 47.295 110.781 50.4391 109.449L49.659 107.608C46.472 108.958 43.4177 110.383 40.5021 111.888L41.4191 113.665ZM59.8742 105.807C62.9101 104.74 66.0495 103.728 69.2885 102.769L68.7209 100.851C65.4519 101.819 62.2804 102.841 59.2107 103.921L59.8742 105.807ZM79.2648 100.06C82.3589 99.2903 85.5304 98.5622 88.7763 97.8741L88.3616 95.9175C85.0942 96.6102 81.8999 97.3436 78.7819 98.1194L79.2648 100.06ZM98.7343 95.9283C101.993 95.3426 105.318 94.7923 108.706 94.2761L108.405 92.299C105 92.8177 101.658 93.3708 98.3805 93.9599L98.7343 95.9283ZM118.531 92.8959C121.861 92.4658 125.246 92.065 128.684 91.6925L128.468 89.7042C125.018 90.0781 121.619 90.4804 118.274 90.9124L118.531 92.8959ZM138.66 90.7026C141.93 90.4068 145.243 90.134 148.597 89.8834L148.448 87.889C145.084 88.1403 141.761 88.4139 138.48 88.7107L138.66 90.7026ZM158.782 89.1967C162.096 88.9966 165.447 88.816 168.832 88.6542L168.737 86.6565C165.343 86.8187 161.984 86.9997 158.661 87.2004L158.782 89.1967ZM178.79 88.2351C182.141 88.1125 185.523 88.0067 188.936 87.9169L188.883 85.9176C185.464 86.0076 182.075 86.1136 178.716 86.2365L178.79 88.2351ZM199.107 87.6972C202.394 87.6412 205.708 87.5988 209.046 87.5693L209.028 85.5694C205.685 85.5989 202.366 85.6414 199.072 85.6975L199.107 87.6972ZM219.132 87.5187C222.517 87.5143 225.926 87.5221 229.356 87.5413L229.367 85.5414C225.932 85.5221 222.519 85.5143 219.129 85.5187L219.132 87.5187ZM239.343 87.6285C242.666 87.6675 246.009 87.7164 249.37 87.7746L249.404 85.7749C246.04 85.7166 242.694 85.6677 239.366 85.6286L239.343 87.6285ZM259.504 87.9764C262.873 88.0519 266.259 88.136 269.66 88.228L269.714 86.2287C266.31 86.1366 262.921 86.0525 259.549 85.9769L259.504 87.9764ZM279.643 88.5187C282.985 88.6228 286.34 88.7338 289.708 88.8512L289.778 86.8524C286.408 86.7349 283.05 86.6238 279.706 86.5197L279.643 88.5187ZM299.849 89.2219C303.2 89.3499 306.562 89.4836 309.934 89.6224L310.017 87.6241C306.642 87.4852 303.278 87.3515 299.925 87.2234L299.849 89.2219ZM319.956 90.0482C323.306 90.1948 326.666 90.3459 330.034 90.5009L330.125 88.503C326.756 88.3479 323.395 88.1968 320.044 88.0501L319.956 90.0482ZM340.161 90.9774C343.507 91.138 346.861 91.3021 350.221 91.469L350.32 89.4714C346.959 89.3045 343.604 89.1404 340.256 88.9797L340.161 90.9774ZM360.266 91.975C363.62 92.1461 366.979 92.3196 370.343 92.4949L370.448 90.4977C367.083 90.3223 363.723 90.1488 360.368 89.9776L360.266 91.975ZM380.448 93.0259C383.799 93.2033 387.153 93.3819 390.511 93.5614L390.617 91.5643C387.26 91.3848 383.905 91.2061 380.554 91.0287L380.448 93.0259ZM400.573 94.101C403.929 94.2814 407.287 94.4621 410.646 94.6426L410.753 92.6455C407.395 92.465 404.036 92.2842 400.68 92.1039L400.573 94.101ZM420.725 95.1833C424.086 95.363 427.446 95.5422 430.806 95.7202L430.912 93.723C427.553 93.545 424.192 93.3659 420.832 93.1861L420.725 95.1833ZM440.883 96.2503C444.241 96.4255 447.597 96.5992 450.951 96.7707L451.053 94.7733C447.7 94.6018 444.345 94.4282 440.988 94.253L440.883 96.2503ZM461.004 97.2785C464.378 97.4467 467.749 97.6122 471.116 97.7747L471.212 95.777C467.847 95.6146 464.477 95.4491 461.103 95.281L461.004 97.2785ZM481.206 98.2521C484.564 98.4078 487.918 98.5599 491.265 98.7078L491.353 96.7098C488.007 96.5619 484.655 96.4099 481.298 96.2543L481.206 98.2521ZM501.302 99.1393C504.691 99.2807 508.074 99.4174 511.448 99.5488L511.526 97.5503C508.154 97.419 504.773 97.2824 501.385 97.141L501.302 99.1393ZM521.547 99.9264C524.904 100.047 528.253 100.161 531.592 100.269L531.656 98.2701C528.32 98.1621 524.973 98.0478 521.618 97.9277L521.547 99.9264ZM541.642 100.575C545.044 100.672 548.434 100.762 551.811 100.844L551.86 98.845C548.485 98.763 545.098 98.6732 541.699 98.5762L541.642 100.575ZM561.906 101.067C565.259 101.132 568.597 101.19 571.922 101.239L571.951 99.2387C568.63 99.1902 565.295 99.1327 561.946 99.0669L561.906 101.067ZM582.032 101.359C585.439 101.389 588.83 101.41 592.203 101.42L592.209 99.4199C588.84 99.41 585.453 99.3894 582.05 99.3586L582.032 101.359ZM602.27 101.416C605.607 101.404 608.926 101.38 612.225 101.345L612.204 99.3446C608.909 99.3804 605.595 99.4041 602.262 99.4165L602.27 101.416ZM622.462 101.193C625.863 101.129 629.241 101.05 632.595 100.958L632.539 98.9585C629.191 99.051 625.819 99.129 622.425 99.1932L622.462 101.193ZM642.584 100.635C645.975 100.51 649.339 100.368 652.676 100.209L652.581 98.2115C649.252 98.3698 645.894 98.5113 642.51 98.6367L642.584 100.635ZM662.875 99.666C666.245 99.4666 669.584 99.2485 672.89 99.0109L672.747 97.0161C669.449 97.253 666.119 97.4706 662.757 97.6695L662.875 99.666ZM682.842 98.2279C686.295 97.9317 689.71 97.6124 693.085 97.2689L692.883 95.2792C689.519 95.6215 686.114 95.9398 682.671 96.2352L682.842 98.2279ZM703.089 96.1652C706.416 95.7685 709.7 95.3461 712.94 94.8969L712.666 92.9159C709.439 93.3632 706.167 93.784 702.852 94.1793L703.089 96.1652ZM723.159 93.3664C726.513 92.825 729.815 92.2518 733.061 91.6456L732.694 89.6795C729.464 90.2826 726.179 90.853 722.84 91.392L723.159 93.3664ZM742.873 89.6747C746.287 88.9383 749.633 88.1611 752.908 87.3413L752.422 85.4011C749.17 86.2153 745.845 86.9877 742.451 87.7197L742.873 89.6747ZM762.518 84.7523C765.86 83.7843 769.119 82.7657 772.289 81.6945L771.649 79.7997C768.508 80.861 765.277 81.8709 761.962 82.8313L762.518 84.7523ZM781.815 78.2105C784.991 76.9533 788.065 75.6341 791.031 74.2502L790.185 72.4378C787.257 73.8038 784.221 75.1074 781.079 76.3508L781.815 78.2105ZM800.193 69.5739C803.163 67.915 806.001 66.176 808.7 64.3538L807.581 62.696C804.931 64.4849 802.142 66.1945 799.218 67.8279L800.193 69.5739ZM816.959 58.1525C819.577 55.9599 822.022 53.6632 824.287 51.2582L822.832 49.8869C820.623 52.2315 818.235 54.4744 815.675 56.6193L816.959 58.1525ZM830.81 43.3315C832.779 40.5689 834.54 37.6836 836.085 34.671L834.305 33.7584C832.805 36.6828 831.095 39.4854 829.181 42.1708L830.81 43.3315ZM840.057 25.2622C841.119 22.1147 841.973 18.8473 842.61 15.4564L840.645 15.0869C840.024 18.3882 839.194 21.5652 838.162 24.6225L840.057 25.2622ZM843.844 5.32672C843.948 3.58044 844 1.80501 844 0H842C842 1.76643 841.949 3.50232 841.848 5.20818L843.844 5.32672Z" fill="#224E82"/>
</svg>
