<svg width="193" height="196" viewBox="0 0 193 196" fill="none" xmlns="http://www.w3.org/2000/svg">
<path d="M147.078 153.391C120.013 136.88 86.8238 174.688 57.5184 166.552C23.2466 157.03 -9.79785 83.5181 24.8371 40.0774C58.835 -2.56803 135.794 11.6998 151.301 41.0236C161.899 61.0525 144.707 89.749 163.3 109.274C171.832 118.238 179.785 116.729 184.504 126.822C192.512 143.878 180.836 171.661 169.491 173.354C161.252 174.583 159.662 161.068 147.078 153.391Z" fill="#E2E8ED"/>
<path d="M33.0167 128.055C53.4267 103.795 21.0667 65.2749 33.5367 37.5349C48.1267 5.09488 125.787 -16.4651 163.497 24.3349C200.517 64.3849 174.787 138.305 143.457 149.205C122.057 156.655 96.2867 135.325 74.1767 150.755C64.0267 157.835 64.3167 165.925 53.6267 169.065C35.5567 174.405 9.85671 158.665 9.89671 147.195C9.92671 138.865 23.5267 139.335 33.0167 128.055Z" fill="white"/>
<path d="M126 64.5H117V67.5H126V64.5Z" fill="white"/>
<path d="M126 72H117V75H126V72Z" fill="white"/>
<path d="M99 64.5V64.965C97.17 65.775 95.85 67.635 95.85 69.75V73.5H87C86.1 73.5 85.5 72.9 85.5 72V64.5C85.5 63.6 86.1 63 87 63H97.5C98.4 63 99 63.6 99 64.5Z" fill="#224E82"/>
<path d="M141.75 64.5H132V55.5C132 52.95 130.05 51 127.5 51H115.5C114.975 51 114.465 51.09 114 51.24C112.23 51.84 111 53.475 111 55.5V64.5H105V61.05C105 60.855 104.985 60.66 104.955 60.48C104.94 60.315 104.91 60.15 104.865 60C104.85 59.94 104.835 59.895 104.82 59.835C104.775 59.7 104.715 59.55 104.655 59.415C104.58 59.25 104.49 59.085 104.4 58.935C103.86 58.035 102.975 57.375 101.925 57.12C101.805 57.09 101.685 57.06 101.55 57.045C101.52 57.045 101.49 57.03 101.46 57.03C101.295 57.015 101.13 57 100.95 57H83.55C81.3 57 79.5 58.8 79.5 61.05V75.3C79.5 77.55 81.3 79.35 83.55 79.35H95.85V76.35H83.55C82.95 76.35 82.5 75.9 82.5 75.3V61.05C82.5 60.45 82.95 60 83.55 60H100.8C101.4 60 101.85 60.45 101.85 61.05V64.5H101.1C100.365 64.5 99.645 64.665 99 64.965C97.17 65.775 95.85 67.635 95.85 69.75V96H85.35V99H95.85V103.5H76.05C74.7 103.5 73.5 102.3 73.5 100.95V41.55C73.5 40.2 74.7 39 76.05 39H82.35V39.3C82.35 40.8 83.55 42 85.05 42H99.3C100.8 42 102 40.8 102 39.3V39H108.45C109.8 39 111 40.2 111 41.55V57.3H114V41.55C114 38.55 111.45 36 108.45 36H76.05C73.05 36 70.5 38.55 70.5 41.55V48C69.6 48 69 48.6 69 49.5V54C69 54.9 69.6 55.5 70.5 55.5V57C69.6 57 69 57.6 69 58.5V66C69 66.9 69.6 67.5 70.5 67.5V100.95C70.5 103.95 73.05 106.5 76.05 106.5H96V109.5C96 112.05 97.95 114 100.5 114H142.5C145.05 114 147 112.05 147 109.5V70.05C147 70.05 147 69.9 147 69.75C147 66.9 144.6 64.5 141.75 64.5ZM114 55.5C114 54.6 114.6 54 115.5 54H127.5C128.4 54 129 54.6 129 55.5V57.3C128.55 57.15 128.1 57 127.5 57H115.5C114.9 57 114.45 57.15 114 57.3V55.5ZM101.25 67.5H111V72H101.25C100.05 72 99 70.95 99 69.75C99 68.55 100.05 67.5 101.25 67.5ZM144 93H139.5V96H144V99H136.5V102H144V105H133.5V108H144V109.5C144 110.4 143.4 111 142.5 111H100.5C99.6 111 99 110.4 99 109.5V74.4C99.75 74.7 100.5 75 101.25 75H111V84H109.5V87H115.5V84H114V61.5C114 60.6 114.6 60 115.5 60H127.5C128.4 60 129 60.6 129 61.5V84H127.5V87H133.5V84H132V75H141.75C142.5 75 143.25 74.85 144 74.4V93ZM141.75 72H132V67.5H141.75C142.95 67.5 144 68.55 144 69.75C144 70.95 142.95 72 141.75 72Z" fill="#AA850E"/>
<path d="M144 69.75C144 70.95 142.95 72 141.75 72H132V67.5H141.75C142.95 67.5 144 68.55 144 69.75Z" fill="#E0D5B8"/>
<path d="M127 69.5C127 70.8333 125.863 72 124.562 72H114V67H124.562C125.863 67 127 68.1667 127 69.5Z" fill="#E0D5B8"/>
<path d="M116 69.5C116 68.1667 117.138 67 118.438 67L129 67L129 72L118.438 72C117.137 72 116 70.8333 116 69.5Z" fill="#E0D5B8"/>
<path d="M134 73.5C134 74.3 132.25 75 130.25 75H114V72H130.25C132.25 72 134 72.7 134 73.5Z" fill="#AA850E"/>
<path d="M134 66C134 66.8 132.25 67.5 130.25 67.5H114V64.5H130.25C132.25 64.5 134 65.2 134 66Z" fill="#AA850E"/>
<path d="M111 67.5V72H101.25C100.05 72 99 70.95 99 69.75C99 68.55 100.05 67.5 101.25 67.5H111Z" fill="#E0D5B8"/>
<path d="M144 105H129V108H144V105Z" fill="#224E82"/>
</svg>
