<svg width="193" height="196" viewBox="0 0 193 196" fill="none" xmlns="http://www.w3.org/2000/svg">
<path d="M147.078 153.391C120.013 136.88 86.8238 174.688 57.5184 166.552C23.2466 157.03 -9.79785 83.5181 24.8371 40.0774C58.835 -2.56803 135.794 11.6998 151.301 41.0236C161.899 61.0525 144.707 89.749 163.3 109.274C171.832 118.238 179.785 116.729 184.504 126.822C192.512 143.878 180.836 171.661 169.491 173.354C161.252 174.583 159.662 161.068 147.078 153.391Z" fill="#E2E8ED"/>
<path d="M33.0167 128.055C53.4267 103.795 21.0667 65.2749 33.5367 37.5349C48.1267 5.09488 125.787 -16.4651 163.497 24.3349C200.517 64.3849 174.787 138.305 143.457 149.205C122.057 156.655 96.2867 135.325 74.1767 150.755C64.0267 157.835 64.3167 165.925 53.6267 169.065C35.5567 174.405 9.85671 158.665 9.89671 147.195C9.92671 138.865 23.5267 139.335 33.0167 128.055Z" fill="white"/>
<path d="M74.6599 105C74.3899 105 74.1599 105.22 74.1599 105.5V107.5C74.1599 107.77 74.3799 108 74.6599 108C74.9399 108 75.1599 107.78 75.1599 107.5V105.5C75.1599 105.22 74.9299 105 74.6599 105Z" fill="#224E82"/>
<path d="M75.6599 110.01C75.3799 110.01 75.1599 110.23 75.1599 110.5C75.1599 110.78 75.3799 111 75.6599 111H101.75V110.01H75.6599ZM75.6599 110.01C75.3799 110.01 75.1599 110.23 75.1599 110.5C75.1599 110.78 75.3799 111 75.6599 111H101.75V110.01H75.6599ZM75.6599 110.01C75.3799 110.01 75.1599 110.23 75.1599 110.5C75.1599 110.78 75.3799 111 75.6599 111H101.75V110.01H75.6599Z" fill="#224E82"/>
<path d="M132.16 57.44V54.97C132.16 54.19 131.85 53.5 131.35 52.97C131.22 52.84 131.13 52.67 131.12 52.48C130.12 41.55 118.47 31.99 101.22 28.05L101 28L100.78 28.05C83.31 32.05 71.57 41.82 70.87 52.94L70.86 53.09C70.43 53.6 70.16 54.25 70.16 54.97V56.34C70.16 56.38 70.16 56.45 70.15 56.5L68.06 72.65C68.05 72.7 68.04 72.75 68.04 72.8C68.04 72.81 68.03 72.82 68.03 72.84V72.96C68.01 73.34 68 73.74 68 74.19C68 75.86 68.6 77.09 69.77 77.9C70.01 78.06 70.16 78.31 70.16 78.6V113H69.16C68.6 113 68.16 113.45 68.16 114V117C68.16 117.55 68.6 118 69.16 118H118.93C119.38 118 119.75 117.63 119.75 117.18V116.82C119.75 116.37 119.38 116 118.93 116H70.16V115H104.93C105.38 115 105.75 114.63 105.75 114.18V113.82C105.75 113.37 105.38 113 104.93 113H72.98C72.53 113 72.16 112.63 72.16 112.18V77.96C72.27 77.97 72.38 78 72.5 78H73.06C73.44 78 73.81 77.92 74.16 77.82V102.5C74.16 102.78 74.38 103 74.66 103C74.93 103 75.15 102.78 75.15 102.5V77.5C75.15 77.46 75.14 77.42 75.13 77.37C75.47 77.16 75.77 76.9 76.04 76.61C76.38 76.25 76.95 76.26 77.27 76.63C77.98 77.47 78.99 78 80.1 78H80.55C81.59 78 82.49 77.53 83.14 76.77C83.45 76.39 84.02 76.38 84.35 76.74C85.05 77.52 86.02 78 87.1 78H87.55C88.59 78 89.49 77.53 90.14 76.77C90.45 76.39 91.02 76.38 91.35 76.74C92.05 77.52 93.02 78 94.1 78H94.55C95.59 78 96.49 77.53 97.14 76.77C97.45 76.39 98.02 76.38 98.35 76.74C99.05 77.52 100.02 78 101.1 78H101.55C101.96 78 102.36 77.93 102.72 77.78V76.68C102.37 76.89 101.97 77 101.55 77H101.1C99.59 77 98.35 75.68 98.19 74H101.72V73H98.17C98.17 72.84 98.17 72.67 98.18 72.52C98.18 72.47 98.17 72.41 98.16 72.36V59H104.16V66.56H105.16V59H111.16V62.56H112.16V59H118.16V64.56H119.16V59H125.16V63.56H126.16V59H130.08L130.8 63.65C130.8 63.65 130.97 64.42 131.17 64.56C131.94 65.08 132.83 63.75 132.73 62.82L132.16 57.44ZM101 30.05C116.9 33.75 127.75 42.27 129.05 52H72.97C74.28 42.27 85.11 33.74 101 30.05ZM73.06 77H72.5C72.32 77 72.15 76.98 71.99 76.94C71.87 76.78 71.71 76.65 71.52 76.57C70.43 76.14 70 75.48 70 74.19V74H76.14C76.03 75.73 74.48 77 73.06 77ZM76.16 73H70.03L70.86 66.63L72.19 59H76.16V73ZM80.55 77H80.1C78.59 77 77.35 75.68 77.19 74H83.14C83.07 75.72 81.98 77 80.55 77ZM83.16 73H77.17C77.17 72.84 77.17 72.67 77.18 72.52C77.18 72.47 77.17 72.41 77.16 72.36V59H83.16V73ZM87.55 77H87.1C85.59 77 84.35 75.68 84.19 74H90.14C90.07 75.72 88.98 77 87.55 77ZM90.16 73H84.17C84.17 72.84 84.17 72.67 84.18 72.52C84.18 72.47 84.17 72.41 84.16 72.36V59H90.16V73ZM94.55 77H94.1C92.59 77 91.35 75.68 91.19 74H97.14C97.07 75.72 95.98 77 94.55 77ZM97.16 73H91.17C91.17 72.84 91.17 72.67 91.18 72.52C91.18 72.47 91.17 72.41 91.16 72.36V59H97.16V73ZM71.97 58L72.15 56.64C72.15 56.6 72.16 56.56 72.16 56.51V54.97C72.16 54.44 72.62 54 73.19 54H129.13C129.7 54 130.16 54.44 130.16 54.97V57.55L130.21 58H71.97Z" fill="#224E82"/>
<path d="M90.1399 74C90.0699 75.72 88.9799 77 87.5499 77H87.0999C85.5899 77 84.3499 75.68 84.1899 74H90.1399Z" fill="#A9C0D8"/>
<path d="M90.1599 59V73H84.1699C84.1699 72.84 84.1699 72.67 84.1799 72.52C84.1799 72.47 84.1699 72.41 84.1599 72.36V59H90.1599Z" fill="#A9C0D8"/>
<path d="M76.14 74C76.03 75.73 74.48 77 73.06 77H72.5C72.32 77 72.15 76.98 71.99 76.94C71.87 76.78 71.71 76.65 71.52 76.57C70.43 76.14 70 75.48 70 74.19V74H76.14Z" fill="#A9C0D8"/>
<path d="M76.16 59V73H70.03L70.86 66.63L72.19 59H76.16Z" fill="#A9C0D8"/>
<path d="M102.46 88.75C102.41 88.48 102.15 88.3 101.88 88.35L96.03 89.29C96 89.25 95.96 89.22 95.92 89.2L92.67 87.41C92.57 86.89 92.06 86.53 91.52 86.62C91.26 86.66 91.02 86.81 90.87 87.03C90.72 87.24 90.66 87.49 90.7 87.74L88.16 90.53C88.15 90.54 88.15 90.55 88.14 90.56L82.8 91.42C82.66 91.44 82.55 91.51 82.47 91.62C82.39 91.73 82.36 91.87 82.38 92L83.26 96.97C83.3 97.21 83.51 97.38 83.75 97.38H83.83L102.91 94.3C103.05 94.28 103.16 94.21 103.24 94.1C103.32 93.99 103.35 93.86 103.33 93.72L102.46 88.75ZM91.36 88.51C91.46 88.54 91.57 88.57 91.69 88.57C91.74 88.57 91.79 88.56 91.85 88.55C92.02 88.53 92.16 88.45 92.29 88.35L94.47 89.54L89.72 90.3L91.36 88.51ZM84.15 96.31L83.46 92.33L101.56 89.41L102.25 93.4L84.15 96.31Z" fill="#224E82"/>
<path d="M102.25 93.4L84.15 96.31L83.46 92.33L101.56 89.41L102.25 93.4Z" fill="#A9C0D8"/>
<path d="M105.2 38.1299C105.12 38.0099 104.95 37.9999 104.85 38.0999L104.42 38.5099C104.34 38.5899 104.32 38.7099 104.39 38.8099C104.77 39.3799 105 40.0499 105.03 40.7799C105.1 42.8899 103.4 44.6599 101.23 44.7399C99.0599 44.8099 97.2399 43.1599 97.1599 41.0499C97.0899 39.0699 98.5999 37.3799 100.58 37.1199C100.24 37.5199 99.8499 37.9299 99.3899 38.3299C99.2899 38.4199 99.2799 38.5599 99.3599 38.6699L99.5799 38.9299C99.6699 39.0299 99.8199 39.0499 99.9299 38.9599C100.54 38.4299 101.05 37.8799 101.47 37.3499C101.68 37.8699 101.83 38.4299 101.92 39.0099C101.94 39.1299 102.05 39.2199 102.18 39.1999L102.53 39.1599C102.66 39.1499 102.75 39.0299 102.73 38.8999C102.64 38.2999 102.5 37.7599 102.32 37.2799C102.6 37.3699 102.88 37.4799 103.13 37.6299C103.23 37.6899 103.35 37.6599 103.42 37.5799L103.82 37.1299C103.92 37.0199 103.89 36.8499 103.77 36.7799C103.32 36.4999 102.82 36.2899 102.29 36.1699C102.76 35.3799 103.02 34.7199 103.14 34.3799C103.18 34.2499 103.11 34.1099 102.98 34.0699L102.65 33.9799C102.52 33.9499 102.4 34.0099 102.36 34.1299C102.25 34.4299 102.01 35.0299 101.58 35.7499C101.06 34.9599 100.52 34.4599 100.24 34.2199C100.13 34.1299 99.9799 34.1599 99.8999 34.2699L99.6999 34.5699C99.6399 34.6699 99.6499 34.7999 99.7399 34.8799C99.9299 35.0399 100.28 35.3599 100.64 35.8399C100.69 35.9099 100.73 35.9799 100.77 36.0399C98.1199 36.2199 96.0499 38.4399 96.1299 41.0699C96.2199 43.7599 98.53 45.8699 101.28 45.7799C104.03 45.6799 106.19 43.4199 106.1 40.7299C106.04 39.7699 105.72 38.8699 105.2 38.1299Z" fill="#224E82"/>
<path d="M142.7 85H136.7V87H142.7V85Z" fill="white"/>
<path d="M142.7 90H136.7V92H142.7V90Z" fill="white"/>
<path d="M124.7 85V85.31C123.48 85.85 122.6 87.09 122.6 88.5V91H116.7C116.1 91 115.7 90.6 115.7 90V85C115.7 84.4 116.1 84 116.7 84H123.7C124.3 84 124.7 84.4 124.7 85Z" fill="#224E82"/>
<path d="M142.7 90H136.7V92H142.7V90Z" fill="#224E82"/>
<path d="M142.7 85H136.7V87H142.7V85Z" fill="#224E82"/>
<path d="M153.2 85H146.7V79C146.7 77.3 145.4 76 143.7 76H135.7C135.35 76 135.01 76.06 134.7 76.16C133.52 76.56 132.7 77.65 132.7 79V85H128.7V82.7C128.7 82.57 128.69 82.44 128.67 82.32C128.66 82.21 128.64 82.1 128.61 82C128.6 81.96 128.59 81.93 128.58 81.89C128.55 81.8 128.51 81.7 128.47 81.61C128.42 81.5 128.36 81.39 128.3 81.29C127.94 80.69 127.35 80.25 126.65 80.08C126.57 80.06 126.49 80.04 126.4 80.03C126.38 80.03 126.36 80.02 126.34 80.02C126.23 80.01 126.12 80 126 80H114.4C112.9 80 111.7 81.2 111.7 82.7V92.2C111.7 93.7 112.9 94.9 114.4 94.9H120.5V92.9H114.4C114 92.9 113.7 92.6 113.7 92.2V82.7C113.7 82.3 114 82 114.4 82H125.9C126.3 82 126.6 82.3 126.6 82.7V85H126.1C125.61 85 125.13 85.11 124.7 85.31C123.48 85.85 122.6 87.09 122.6 88.5V106H115.6V108H122.6V111H109.4C108.5 111 107.7 110.2 107.7 109.3V69.7C107.7 68.8 108.5 68 109.4 68H113.6V68.2C113.6 69.2 114.4 70 115.4 70H124.9C125.9 70 126.7 69.2 126.7 68.2V68H131C131.9 68 132.7 68.8 132.7 69.7V74H134.7V69.7C134.7 67.7 133 66 131 66H109.4C107.4 66 105.7 67.7 105.7 69.7V74C105.1 74 104.7 74.4 104.7 75V78C104.7 78.6 105.1 79 105.7 79V80C105.1 80 104.7 80.4 104.7 81V86C104.7 86.6 105.1 87 105.7 87V109.3C105.7 111.3 107.4 113 109.4 113H122.7V115C122.7 116.7 124 118 125.7 118H153.7C155.4 118 156.7 116.7 156.7 115V88.7C156.7 88.7 156.7 88.6 156.7 88.5C156.7 86.6 155.1 85 153.2 85ZM134.7 79C134.7 78.4 135.1 78 135.7 78H143.7C144.3 78 144.7 78.4 144.7 79V80.2C144.4 80.1 144.1 80 143.7 80H135.7C135.3 80 135 80.1 134.7 80.2V79ZM126.2 87H132.7V90H126.2C125.4 90 124.7 89.3 124.7 88.5C124.7 87.7 125.4 87 126.2 87ZM154.7 104H151.7V106H154.7V108H149.7V110H154.7V112H147.7V114H154.7V115C154.7 115.6 154.3 116 153.7 116H125.7C125.1 116 124.7 115.6 124.7 115V91.6C125.2 91.8 125.7 92 126.2 92H132.7V98H131.7V100H135.7V98H134.7V83C134.7 82.4 135.1 82 135.7 82H143.7C144.3 82 144.7 82.4 144.7 83V98H143.7V100H147.7V98H146.7V92H153.2C153.7 92 154.2 91.9 154.7 91.6V104ZM153.2 90H146.7V87H153.2C154 87 154.7 87.7 154.7 88.5C154.7 89.3 154 90 153.2 90Z" fill="#AA850E"/>
<path d="M154.7 88.5C154.7 89.3 154 90 153.2 90H146.7V87H153.2C154 87 154.7 87.7 154.7 88.5Z" fill="#E0D5B8"/>
<path d="M132.7 87V90H126.2C125.4 90 124.7 89.3 124.7 88.5C124.7 87.7 125.4 87 126.2 87H132.7Z" fill="#E0D5B8"/>
</svg>
