<svg width="193" height="196" viewBox="0 0 193 196" fill="none" xmlns="http://www.w3.org/2000/svg">
<path d="M147.078 153.95C120.013 137.379 86.8239 175.324 57.5184 167.158C23.2467 157.602 -9.79782 83.8223 24.8372 40.2233C58.835 -2.57738 135.794 11.7424 151.302 41.173C161.899 61.2749 144.707 90.0759 163.3 109.672C171.832 118.669 179.785 117.155 184.504 127.284C192.512 144.402 180.836 172.286 169.491 173.986C161.252 175.219 159.662 161.655 147.078 153.95Z" fill="#E2E8ED"/>
<path d="M33.0167 128.521C53.4267 104.173 21.0667 65.5126 33.5367 37.6716C48.1267 5.11344 125.787 -16.5251 163.497 24.4235C200.517 64.6194 174.787 138.809 143.457 149.748C122.057 157.225 96.2867 135.818 74.1767 151.304C64.0267 158.41 64.3167 166.529 53.6267 169.681C35.5567 175.04 9.85674 159.243 9.89674 147.731C9.92674 139.371 23.5267 139.842 33.0167 128.521Z" fill="white"/>
<path d="M73.66 106C73.39 106 73.16 106.22 73.16 106.5V108.5C73.16 108.77 73.38 109 73.66 109C73.94 109 74.16 108.78 74.16 108.5V106.5C74.16 106.22 73.94 106 73.66 106Z" fill="#224E82"/>
<path d="M97.4 94.9101L83.63 96.9901L82.93 93.0001L94.84 91.0801C94.49 90.5901 94.36 89.9501 94.46 89.3601L92.14 88.0901C92.04 87.5701 91.53 87.2101 91 87.3001C90.73 87.3401 90.5 87.4901 90.34 87.7101C90.19 87.9201 90.13 88.1701 90.18 88.4201L87.64 91.2101C87.63 91.2201 87.63 91.2301 87.62 91.2401L82.28 92.1001C82.15 92.1201 82.03 92.1901 81.95 92.3001C81.87 92.4101 81.84 92.5401 81.86 92.6801L82.73 97.6501C82.77 97.8901 82.98 98.0601 83.22 98.0601C83.25 98.0601 83.27 98.0601 83.3 98.0501L97.47 95.9001C97.79 95.5601 97.79 95.2501 97.4 94.9101ZM90.83 89.1901C90.93 89.2301 91.05 89.2501 91.16 89.2501C91.21 89.2501 91.27 89.2401 91.32 89.2401C91.49 89.2101 91.63 89.1301 91.76 89.0301L93.93 90.2201L89.18 90.9801L90.83 89.1901Z" fill="#A9C0D8"/>
<path d="M74.66 111.01C74.38 111.01 74.16 111.23 74.16 111.5C74.16 111.78 74.38 112 74.66 112H96.75V111.01H74.66ZM132.78 74.18C132.8 74.08 132.8 73.99 132.79 73.9L131.17 58.44C131.17 58.41 131.16 58.38 131.16 58.35V55.97C131.16 55.19 130.85 54.49 130.36 53.97C130.23 53.83 130.14 53.66 130.12 53.47C129.13 42.55 117.47 32.99 100.22 29.05L100 29L99.78 29.05C82.31 33.05 70.57 42.82 69.87 53.94L69.86 54.09C69.43 54.6 69.16 55.25 69.16 55.97V57.5L67.06 73.65C67.05 73.7 67.04 73.75 67.04 73.8C67.04 73.81 67.03 73.82 67.03 73.84V73.96C67.01 74.34 67 74.74 67 75.19C67 76.85 67.6 78.09 68.78 78.9C69.01 79.06 69.16 79.31 69.16 79.59V114H68.16C67.6 114 67.16 114.45 67.16 115V118C67.16 118.55 67.6 119 68.16 119H106.93C107.39 119 107.75 118.63 107.75 118.17V117.82C107.75 117.36 107.39 117 106.93 117H69.16V116H98.93C99.39 116 99.75 115.63 99.75 115.17V114.82C99.75 114.36 99.39 114 98.93 114H71.99C71.53 114 71.16 113.63 71.16 113.17V78.96C71.27 78.97 71.38 79 71.5 79H72.06C72.44 79 72.81 78.92 73.16 78.82V103.5C73.16 103.78 73.38 104 73.66 104C73.93 104 74.15 103.78 74.15 103.5V78.5C74.15 78.46 74.14 78.42 74.13 78.37C74.47 78.16 74.78 77.9 75.04 77.6C75.37 77.24 75.95 77.25 76.26 77.63C76.98 78.47 77.98 79 79.1 79H79.55C80.59 79 81.5 78.53 82.14 77.76C82.45 77.39 83.03 77.38 83.35 77.74C84.06 78.51 85.03 79 86.1 79H86.55C87.59 79 88.5 78.53 89.14 77.76C89.45 77.39 90.03 77.38 90.35 77.74C91.06 78.51 92.03 79 93.1 79H93.55C94.59 79 95.5 78.53 96.14 77.76C96.45 77.39 97.03 77.38 97.35 77.74C98.06 78.51 99.03 79 100.1 79H100.55C101.59 79 102.5 78.53 103.14 77.76C103.45 77.39 104.03 77.38 104.35 77.74C105.06 78.51 106.03 79 107.1 79H107.55C107.76 79 107.97 78.97 108.17 78.93C108.68 78.83 110.15 77.99 110.15 77.99C110.15 77.81 110.22 77.64 110.33 77.5C110.49 77.26 110.63 77 110.75 76.72C111.1 77.41 111.6 77.98 112.19 78.38C112.18 78.42 112.16 78.46 112.16 78.5V79.5C112.16 79.78 112.38 80 112.66 80C112.93 80 113.15 79.78 113.15 79.5V78.85C113.46 78.94 113.77 79 114.1 79H114.55C115.56 79 116.44 78.52 117.08 77.73C117.4 77.33 117.99 77.33 118.33 77.71C119.04 78.5 120.02 79 121.1 79H121.55C122.96 79 124.12 78.14 124.72 76.84C124.85 77.08 124.99 77.31 125.16 77.52C125.16 77.52 126.69 78.74 127.22 78.88C127.51 78.96 127.8 79 128.1 79H128.16V79.36C128.16 79.72 128.45 80.01 128.81 80.01H129.52C129.87 80.01 130.32 79.75 130.55 79.59C131.93 78.63 132.8 76.98 132.8 75.23C132.8 74.87 132.79 74.54 132.78 74.18ZM100 31.05C115.9 34.75 126.75 43.27 128.05 53H71.97C73.28 43.27 84.11 34.74 100 31.05ZM72.06 78H71.5C71.32 78 71.15 77.98 70.99 77.94C70.87 77.78 70.71 77.65 70.52 77.57C69.43 77.14 69 76.48 69 75.19V75H75.14C75.03 76.73 73.48 78 72.06 78ZM75.16 74H69.03L69.86 67.63L71.19 60H75.16V74ZM79.55 78H79.1C77.59 78 76.35 76.68 76.19 75H82.14C82.07 76.72 80.98 78 79.55 78ZM82.16 74H76.17C76.17 73.84 76.17 73.67 76.18 73.52C76.18 73.47 76.17 73.41 76.16 73.36V60H82.16V74ZM86.55 78H86.1C84.59 78 83.35 76.68 83.19 75H89.14C89.07 76.72 87.98 78 86.55 78ZM89.16 74H83.17C83.17 73.84 83.17 73.67 83.18 73.52C83.18 73.47 83.17 73.41 83.16 73.36V60H89.16V74ZM93.55 78H93.1C91.59 78 90.35 76.68 90.19 75H96.14C96.07 76.72 94.98 78 93.55 78ZM96.16 74H90.17C90.17 73.84 90.17 73.67 90.18 73.52C90.18 73.47 90.17 73.41 90.16 73.36V60H96.16V74ZM100.55 78H100.1C98.59 78 97.35 76.68 97.19 75H103.14C103.07 76.72 101.98 78 100.55 78ZM103.16 74H97.17C97.17 73.84 97.17 73.67 97.18 73.52C97.18 73.47 97.17 73.41 97.16 73.36V60H103.16V74ZM109.41 77.08C109.34 77.12 109.27 77.19 109.23 77.26C108.78 77.72 108.2 78 107.55 78H107.1C105.59 78 104.35 76.68 104.19 75H110.14C110.1 75.83 109.84 76.55 109.41 77.08ZM110.16 74H104.17C104.17 73.84 104.17 73.67 104.18 73.52C104.18 73.47 104.17 73.41 104.16 73.36V60H110.16V74ZM114.55 78H114.1C112.68 78 111.49 76.71 111.22 75H117.12C116.92 76.72 115.87 78 114.55 78ZM117.16 74H111.16C111.16 73.84 111.16 73.67 111.17 73.51C111.17 73.48 111.16 73.44 111.16 73.41V60H117.16V74ZM121.55 78H121.1C119.59 78 118.35 76.68 118.19 75H124.14C124.07 76.72 122.98 78 121.55 78ZM124.16 74H118.17C118.17 73.84 118.17 73.67 118.18 73.52C118.18 73.47 118.17 73.41 118.16 73.36V60H124.16V74ZM70.97 59L71.15 57.64C71.15 57.6 71.16 57.56 71.16 57.51V55.97C71.16 55.44 71.62 55 72.19 55H128.13C128.7 55 129.16 55.44 129.16 55.97V58.55L129.21 59H70.97ZM125.16 73.36V60H129.08L129.8 64.65L130.78 73.9V74H125.17C125.17 73.84 125.17 73.67 125.18 73.52C125.18 73.47 125.17 73.41 125.16 73.36ZM129.76 77.63C129.38 77.86 128.95 78 128.49 78H128.1C126.59 78 125.35 76.68 125.19 75H130.79C130.79 75.08 130.8 75.15 130.8 75.23C130.8 76.16 130.4 77.02 129.76 77.63ZM74.66 111.01C74.38 111.01 74.16 111.23 74.16 111.5C74.16 111.78 74.38 112 74.66 112H96.75V111.01H74.66ZM74.66 111.01C74.38 111.01 74.16 111.23 74.16 111.5C74.16 111.78 74.38 112 74.66 112H96.75V111.01H74.66Z" fill="#224E82"/>
<path d="M75.14 75C75.03 76.73 73.48 78 72.06 78H71.5C71.32 78 71.15 77.98 70.99 77.94C70.87 77.78 70.71 77.65 70.52 77.57C69.43 77.14 69 76.48 69 75.19V75H75.14Z" fill="#A9C0D8"/>
<path d="M89.14 75C89.07 76.72 87.9799 78 86.5499 78H86.0999C84.5899 78 83.3499 76.68 83.1899 75H89.14Z" fill="#A9C0D8"/>
<path d="M103.14 75C103.07 76.72 101.98 78 100.55 78H100.1C98.5899 78 97.3499 76.68 97.1899 75H103.14Z" fill="#A9C0D8"/>
<path d="M117.12 75C116.92 76.72 115.87 78 114.55 78H114.1C112.68 78 111.49 76.71 111.22 75H117.12Z" fill="#A9C0D8"/>
<path d="M130.8 75.23C130.8 76.16 130.4 77.02 129.76 77.63C129.38 77.86 128.95 78 128.49 78H128.1C126.59 78 125.35 76.68 125.19 75H130.79C130.79 75.08 130.8 75.15 130.8 75.23Z" fill="#A9C0D8"/>
<path d="M130.78 73.9V74H125.17C125.17 73.84 125.17 73.67 125.18 73.52C125.18 73.47 125.17 73.41 125.16 73.36V60H129.08L129.8 64.65L130.78 73.9Z" fill="#A9C0D8"/>
<path d="M117.16 60V74H111.16C111.16 73.84 111.16 73.67 111.17 73.51C111.17 73.48 111.16 73.44 111.16 73.41V60H117.16Z" fill="#A9C0D8"/>
<path d="M103.16 60V74H97.17C97.17 73.84 97.17 73.67 97.18 73.52C97.18 73.47 97.17 73.41 97.16 73.36V60H103.16Z" fill="#A9C0D8"/>
<path d="M89.16 60V74H83.17C83.17 73.84 83.17 73.67 83.18 73.52C83.18 73.47 83.17 73.41 83.16 73.36V60H89.16Z" fill="#A9C0D8"/>
<path d="M75.16 60V74H69.03L69.86 67.63L71.19 60H75.16Z" fill="#A9C0D8"/>
<path d="M104.01 39.1299C103.93 39.0099 103.76 38.9999 103.66 39.0999L103.23 39.5099C103.15 39.5899 103.13 39.7099 103.2 39.8099C103.58 40.3799 103.81 41.0499 103.84 41.7799C103.91 43.8899 102.21 45.6599 100.04 45.7399C97.87 45.8099 96.05 44.1599 95.97 42.0499C95.9 40.0699 97.41 38.3799 99.39 38.1199C99.05 38.5199 98.66 38.9299 98.2 39.3299C98.1 39.4199 98.09 39.5599 98.17 39.6699L98.39 39.9299C98.48 40.0299 98.63 40.0499 98.74 39.9599C99.35 39.4299 99.86 38.8799 100.28 38.3499C100.49 38.8699 100.64 39.4299 100.73 40.0099C100.75 40.1299 100.86 40.2199 100.99 40.1999L101.34 40.1599C101.47 40.1499 101.56 40.0299 101.54 39.8999C101.45 39.2999 101.31 38.7599 101.13 38.2799C101.41 38.3699 101.69 38.4799 101.94 38.6299C102.04 38.6899 102.16 38.6599 102.23 38.5799L102.63 38.1299C102.73 38.0199 102.7 37.8499 102.58 37.7799C102.13 37.4999 101.63 37.2899 101.1 37.1699C101.57 36.3799 101.83 35.7199 101.95 35.3799C101.99 35.2499 101.92 35.1099 101.79 35.0699L101.46 34.9799C101.33 34.9499 101.21 35.0099 101.17 35.1299C101.06 35.4299 100.82 36.0299 100.39 36.7499C99.87 35.9599 99.33 35.4599 99.05 35.2199C98.94 35.1299 98.79 35.1599 98.71 35.2699L98.51 35.5699C98.45 35.6699 98.46 35.7999 98.55 35.8799C98.74 36.0399 99.09 36.3599 99.45 36.8399C99.5 36.9099 99.54 36.9799 99.58 37.0399C96.93 37.2199 94.86 39.4399 94.94 42.0699C95.03 44.7599 97.34 46.8699 100.09 46.7799C102.84 46.6799 105 44.4199 104.91 41.7299C104.86 40.7699 104.53 39.8699 104.01 39.1299Z" fill="#224E82"/>
<path d="M142.96 115C144.065 115 144.96 114.105 144.96 113C144.96 111.895 144.065 111 142.96 111C141.855 111 140.96 111.895 140.96 113C140.96 114.105 141.855 115 142.96 115Z" fill="#224E82"/>
<path d="M114.96 115C116.065 115 116.96 114.105 116.96 113C116.96 111.895 116.065 111 114.96 111C113.855 111 112.96 111.895 112.96 113C112.96 114.105 113.855 115 114.96 115Z" fill="#224E82"/>
<path d="M153.96 108V102.45C153.96 101.28 153.54 100.14 152.8 99.25L144.92 89.8C144.13 88.85 143.03 88.24 141.83 88.06C141.59 88.02 141.33 88 141.08 88H134.96V84C134.96 82.35 133.61 81 131.96 81H105.96C104.3 81 102.96 82.35 102.96 84V87H97.96V90C97.96 92.76 100.2 95 102.96 95V96C102.96 96.98 103.43 97.85 104.16 98.4C104.66 98.78 105.28 99 105.96 99H106.96V100C106.96 101.66 108.3 103 109.96 103H117.96V105H119.96V92C119.96 89.24 117.71 87 114.96 87H104.96V84C104.96 83.45 105.4 83 105.96 83H131.96C132.51 83 132.96 83.45 132.96 84V104H126.96V106H132.96V108H124.96V110H132.96V112H120.87C120.39 109.17 117.92 107 114.96 107C111.99 107 109.52 109.17 109.05 112H105.96C105.4 112 104.96 111.55 104.96 111V101H102.96V108C101.85 108 100.96 108.9 100.96 110V112C100.96 113.1 101.85 114 102.96 114H109.05C109.26 115.3 109.91 116.47 110.83 117.34C111.9 118.37 113.36 119 114.96 119C116.56 119 118.01 118.37 119.08 117.34C120 116.47 120.65 115.3 120.87 114H137.05C137.26 115.3 137.91 116.47 138.83 117.34C139.9 118.37 141.36 119 142.96 119C145.92 119 148.39 116.83 148.87 114H153.96C155.06 114 155.96 113.1 155.96 112V110C155.96 108.9 155.06 108 153.96 108ZM114.96 89C116.61 89 117.96 90.35 117.96 92V101H109.96C109.4 101 108.96 100.55 108.96 100V99H113.96V97H105.96C105.4 97 104.96 96.55 104.96 96V95H109.96V93H102.96C101.3 93 99.96 91.66 99.96 90V89H114.96ZM114.96 117C112.75 117 110.96 115.21 110.96 113C110.96 110.8 112.75 109 114.96 109C117.16 109 118.96 110.8 118.96 113C118.96 115.21 117.16 117 114.96 117ZM142.96 117C142.57 117 142.19 116.94 141.83 116.84C140.17 116.35 138.96 114.82 138.96 113C138.96 111.19 140.17 109.65 141.83 109.16C142.19 109.06 142.57 109 142.96 109C145.16 109 146.96 110.8 146.96 113C146.96 115.21 145.16 117 142.96 117ZM151.96 111C151.96 111.55 151.51 112 150.96 112H148.87C148.39 109.17 145.92 107 142.96 107C142.57 107 142.2 107.04 141.83 107.11C139.38 107.58 137.46 109.54 137.05 112H134.96V90H141.08C141.34 90 141.59 90.03 141.83 90.1C142.43 90.25 142.98 90.6 143.39 91.08L151.26 100.53C151.71 101.07 151.96 101.75 151.96 102.45V111Z" fill="#AA850E"/>
<path d="M146.75 100H137.96C137.41 100 136.96 99.55 136.96 99V93C136.96 92.45 137.41 92 137.96 92H141.5C141.79 92 142.07 92.12 142.26 92.34L147.51 98.34C148.07 98.99 147.61 100 146.75 100Z" fill="#E0D5B8"/>
<path d="M142.96 109C142.57 109 142.19 109.06 141.83 109.16C140.17 109.65 138.96 111.19 138.96 113C138.96 114.82 140.17 116.35 141.83 116.84C142.19 116.94 142.57 117 142.96 117C145.16 117 146.96 115.21 146.96 113C146.96 110.8 145.16 109 142.96 109ZM142.96 115C141.85 115 140.96 114.1 140.96 113C140.96 111.89 141.85 111 142.96 111C144.06 111 144.96 111.89 144.96 113C144.96 114.1 144.06 115 142.96 115Z" fill="#A9C0D8"/>
<path d="M114.96 109C112.75 109 110.96 110.8 110.96 113C110.96 115.21 112.75 117 114.96 117C117.16 117 118.96 115.21 118.96 113C118.96 110.8 117.16 109 114.96 109ZM114.96 115C113.85 115 112.96 114.11 112.96 113C112.96 111.9 113.85 111 114.96 111C116.06 111 116.96 111.9 116.96 113C116.96 114.11 116.06 115 114.96 115Z" fill="#A9C0D8"/>
<path d="M117.96 92V101H109.96C109.4 101 108.96 100.55 108.96 100V99H113.96V97H105.96C105.4 97 104.96 96.55 104.96 96V95H109.96V93H102.96C101.3 93 99.96 91.66 99.96 90V89H114.96C116.61 89 117.96 90.35 117.96 92Z" fill="#E0D5B8"/>
<path d="M136.96 102H140.96V104H136.96V102Z" fill="#224E82"/>
</svg>
