<svg width="193" height="196" viewBox="0 0 193 196" fill="none" xmlns="http://www.w3.org/2000/svg">
<path d="M147.078 153.95C120.013 137.379 86.8239 175.324 57.5184 167.158C23.2467 157.602 -9.79782 83.8223 24.8372 40.2233C58.835 -2.57738 135.794 11.7424 151.302 41.173C161.899 61.2749 144.707 90.0759 163.3 109.672C171.832 118.669 179.785 117.155 184.504 127.284C192.512 144.402 180.836 172.286 169.491 173.986C161.252 175.219 159.662 161.655 147.078 153.95Z" fill="#E2E8ED"/>
<path d="M33.0167 128.521C53.4267 104.173 21.0667 65.5126 33.5367 37.6716C48.1267 5.11344 125.787 -16.5251 163.497 24.4235C200.517 64.6194 174.787 138.809 143.457 149.748C122.057 157.225 96.2867 135.818 74.1767 151.304C64.0267 158.41 64.3167 166.529 53.6267 169.681C35.5567 175.04 9.85674 159.243 9.89674 147.731C9.92674 139.371 23.5267 139.842 33.0167 128.521Z" fill="white"/>
<path d="M123.517 98.7241C125.003 98.7241 126.207 97.5199 126.207 96.0345C126.207 94.549 125.003 93.3448 123.517 93.3448C122.032 93.3448 120.828 94.549 120.828 96.0345C120.828 97.5199 122.032 98.7241 123.517 98.7241Z" fill="#224E82"/>
<path d="M85.8621 98.7241C87.3475 98.7241 88.5517 97.5199 88.5517 96.0345C88.5517 94.549 87.3475 93.3448 85.8621 93.3448C84.3766 93.3448 83.1724 94.549 83.1724 96.0345C83.1724 97.5199 84.3766 98.7241 85.8621 98.7241Z" fill="#224E82"/>
<path d="M138.31 89.3103V81.8466C138.31 80.2731 137.746 78.74 136.75 77.5431L126.153 64.8345C125.091 63.5569 123.611 62.7366 121.998 62.4945C121.675 62.4407 121.325 62.4138 120.989 62.4138H112.759V57.0345C112.759 54.8155 110.943 53 108.724 53H73.7586C71.5262 53 69.7241 54.8155 69.7241 57.0345V61.069H63V65.1034C63 68.8152 66.0124 71.8276 69.7241 71.8276V73.1724C69.7241 74.4903 70.3562 75.6603 71.3379 76.4C72.0104 76.911 72.8441 77.2069 73.7586 77.2069H75.1034V78.5517C75.1034 80.7841 76.9055 82.5862 79.1379 82.5862H89.8966V85.2759H92.5862V67.7931C92.5862 64.0814 89.5603 61.069 85.8621 61.069H72.4138V57.0345C72.4138 56.2948 73.0055 55.6897 73.7586 55.6897H108.724C109.464 55.6897 110.069 56.2948 110.069 57.0345V83.931H102V86.6207H110.069V89.3103H99.3103V92H110.069V94.6897H93.81C93.1645 90.8838 89.8428 87.9655 85.8621 87.9655C81.8679 87.9655 78.5462 90.8838 77.9141 94.6897H73.7586C73.0055 94.6897 72.4138 94.0845 72.4138 93.3448V79.8966H69.7241V89.3103C68.2314 89.3103 67.0345 90.5207 67.0345 92V94.6897C67.0345 96.169 68.2314 97.3793 69.7241 97.3793H77.9141C78.1965 99.1276 79.0707 100.701 80.3079 101.871C81.7469 103.256 83.7103 104.103 85.8621 104.103C88.0138 104.103 89.9638 103.256 91.4028 101.871C92.64 100.701 93.5141 99.1276 93.81 97.3793H115.569C115.852 99.1276 116.726 100.701 117.963 101.871C119.402 103.256 121.366 104.103 123.517 104.103C127.498 104.103 130.82 101.185 131.465 97.3793H138.31C139.79 97.3793 141 96.169 141 94.6897V92C141 90.5207 139.79 89.3103 138.31 89.3103ZM85.8621 63.7586C88.081 63.7586 89.8966 65.5741 89.8966 67.7931V79.8966H79.1379C78.3848 79.8966 77.7931 79.2914 77.7931 78.5517V77.2069H84.5172V74.5172H73.7586C73.0055 74.5172 72.4138 73.9121 72.4138 73.1724V71.8276H79.1379V69.1379H69.7241C67.4917 69.1379 65.6897 67.3359 65.6897 65.1034V63.7586H85.8621ZM85.8621 101.414C82.89 101.414 80.4828 99.0065 80.4828 96.0345C80.4828 93.0759 82.89 90.6552 85.8621 90.6552C88.8207 90.6552 91.2414 93.0759 91.2414 96.0345C91.2414 99.0065 88.8207 101.414 85.8621 101.414ZM123.517 101.414C122.993 101.414 122.482 101.333 121.998 101.199C119.765 100.54 118.138 98.4821 118.138 96.0345C118.138 93.6003 119.765 91.5293 121.998 90.8703C122.482 90.7359 122.993 90.6552 123.517 90.6552C126.476 90.6552 128.897 93.0759 128.897 96.0345C128.897 99.0065 126.476 101.414 123.517 101.414ZM135.621 93.3448C135.621 94.0845 135.016 94.6897 134.276 94.6897H131.465C130.82 90.8838 127.498 87.9655 123.517 87.9655C122.993 87.9655 122.495 88.0193 121.998 88.1134C118.703 88.7455 116.121 91.3814 115.569 94.6897H112.759V65.1034H120.989C121.339 65.1034 121.675 65.1438 121.998 65.2379C122.804 65.4397 123.544 65.9103 124.096 66.5559L134.679 79.2645C135.285 79.9907 135.621 80.9052 135.621 81.8466V93.3448Z" fill="#AA850E"/>
<path d="M128.614 78.5517H116.793C116.053 78.5517 115.448 77.9465 115.448 77.2069V69.1379C115.448 68.3983 116.053 67.7931 116.793 67.7931H121.554C121.944 67.7931 122.32 67.9545 122.576 68.2503L129.636 76.3193C130.389 77.1934 129.771 78.5517 128.614 78.5517Z" fill="#E0D5B8"/>
<path d="M123.517 90.6552C122.993 90.6552 122.482 90.7359 121.998 90.8704C119.765 91.5293 118.138 93.6004 118.138 96.0345C118.138 98.4821 119.765 100.54 121.998 101.199C122.482 101.333 122.993 101.414 123.517 101.414C126.476 101.414 128.897 99.0066 128.897 96.0345C128.897 93.0759 126.476 90.6552 123.517 90.6552ZM123.517 98.7241C122.024 98.7241 120.828 97.5138 120.828 96.0345C120.828 94.5417 122.024 93.3448 123.517 93.3448C124.997 93.3448 126.207 94.5417 126.207 96.0345C126.207 97.5138 124.997 98.7241 123.517 98.7241Z" fill="#E0D5B8"/>
<path d="M85.8621 90.6552C82.89 90.6552 80.4828 93.0759 80.4828 96.0345C80.4828 99.0066 82.89 101.414 85.8621 101.414C88.8207 101.414 91.2414 99.0066 91.2414 96.0345C91.2414 93.0759 88.8207 90.6552 85.8621 90.6552ZM85.8621 98.7241C84.3693 98.7241 83.1724 97.5273 83.1724 96.0345C83.1724 94.5552 84.3693 93.3448 85.8621 93.3448C87.3414 93.3448 88.5517 94.5552 88.5517 96.0345C88.5517 97.5273 87.3414 98.7241 85.8621 98.7241Z" fill="#E0D5B8"/>
<path d="M89.8966 67.7931V79.8965H79.1379C78.3848 79.8965 77.7931 79.2914 77.7931 78.5517V77.2069H84.5172V74.5172H73.7586C73.0055 74.5172 72.4138 73.9121 72.4138 73.1724V71.8276H79.1379V69.1379H69.7241C67.4917 69.1379 65.6897 67.3358 65.6897 65.1034V63.7586H85.8621C88.081 63.7586 89.8966 65.5741 89.8966 67.7931Z" fill="#E0D5B8"/>
<path d="M115.448 81.2414H120.828V83.931H115.448V81.2414Z" fill="#224E82"/>
</svg>
