<?xml version="1.0" encoding="utf-8"?>
<!-- Generator: Adobe Illustrator 25.2.1, SVG Export Plug-In . SVG Version: 6.00 Build 0)  -->
<svg version="1.1" id="Layer_1" xmlns="http://www.w3.org/2000/svg" xmlns:xlink="http://www.w3.org/1999/xlink" x="0px" y="0px"
	 viewBox="0 0 115 204" style="enable-background:new 0 0 115 204;" xml:space="preserve">
<style type="text/css">
	.st0{fill:#FFFFFF;}
	.st1{fill:#2E3192;}
	.st2{fill:none;}
	.st3{fill:#231F20;}
	.st4{fill:#F7941D;}
</style>
<g>
	<g>
		<g>
			<path class="st0" d="M97.5,201.5H17.4c-8.3,0-15-6.7-15-15V2.5h110.1v184C112.5,194.7,105.8,201.5,97.5,201.5z"/>
			<g>
				<path d="M97.5,199c-19.6,0-39.2,0-58.8,0c-7.1,0-14.3,0.3-21.4,0c-7.3-0.3-12.3-5.7-12.5-12.7c0-1.5,0-3,0-4.6c0-44,0-88,0-132
					c0-15.2,0-30.4,0-45.5C4.1,5,3.2,5.9,2.4,6.7c32.2,0,64.3,0,96.5,0c4.5,0,9.1,0,13.6,0c-0.8-0.8-1.7-1.7-2.5-2.5
					c0,22.1,0,44.1,0,66.2c0,33.2,0,66.3,0,99.5C110,180.4,113,198.3,97.5,199c-3.2,0.1-3.2,5.1,0,5c9.9-0.4,17.2-7.7,17.5-17.6
					c0.1-2.5,0-5.1,0-7.6c0-13.4,0-26.9,0-40.3c0-36,0-71.9,0-107.9c0-8.8,0-17.5,0-26.3c0-1.3-1.1-2.5-2.5-2.5
					c-32.2,0-64.3,0-96.5,0c-4.5,0-9.1,0-13.6,0c-1.3,0-2.5,1.1-2.5,2.5c0,39,0,78.1,0,117.1c0,19.8,0,39.6,0,59.4
					c0,6.4-0.1,12.5,4.7,17.6c6.4,6.8,15.6,5.6,24,5.6c23,0,45.9,0,68.9,0C100.8,204,100.8,199,97.5,199z"/>
			</g>
		</g>
		<g>
			<g>
				<g>
					<path class="st1" d="M27,3.6c0,6.4,0,12.7,0,19.1c0,7.3,0.5,17.8-9.9,17.7C6.7,40.4,7.2,30,7.2,22.7c0-6.4,0-12.7,0-19.1
						C6,4.8,4.8,6,3.6,7.2c9,0,18,0,27,0c4.7,0,4.7-7.2,0-7.2c-9,0-18,0-27,0C1.6,0,0,1.6,0,3.6c0,5.9,0,11.8,0,17.8
						C0,27.7-0.8,34.5,2.9,40c5.7,8.6,18.3,10.1,25.8,3c5.5-5.1,5.5-11.8,5.5-18.7c0-6.9,0-13.9,0-20.8C34.2-1.1,27-1.1,27,3.6z"/>
				</g>
			</g>
			<g>
				<g>
					<path class="st1" d="M53.9,3.6c0,6.4,0,12.7,0,19.1c0,7.3,0.5,17.8-9.9,17.7c-10.4,0-9.9-10.4-9.9-17.7c0-6.4,0-12.7,0-19.1
						C33,4.8,31.8,6,30.6,7.2c9,0,18,0,27,0c4.7,0,4.7-7.2,0-7.2c-9,0-18,0-27,0c-2,0-3.6,1.7-3.6,3.6c0,5.9,0,11.8,0,17.8
						c0,6.3-0.8,13.2,2.9,18.7c5.7,8.6,18.3,10.1,25.8,3c5.5-5.1,5.5-11.8,5.5-18.7c0-6.9,0-13.9,0-20.8C61.1-1.1,53.9-1.1,53.9,3.6
						z"/>
				</g>
			</g>
			<g>
				<g>
					<path class="st1" d="M80.9,3.6c0,6.4,0,12.7,0,19.1c0,7.3,0.5,17.8-9.9,17.7c-10.4,0-9.9-10.4-9.9-17.7c0-6.4,0-12.7,0-19.1
						c-1.2,1.2-2.4,2.4-3.6,3.6c9,0,18,0,27,0c4.7,0,4.7-7.2,0-7.2c-9,0-18,0-27,0c-2,0-3.6,1.7-3.6,3.6c0,5.9,0,11.8,0,17.8
						c0,6.3-0.8,13.2,2.9,18.7c5.7,8.6,18.3,10.1,25.8,3c5.5-5.1,5.5-11.8,5.5-18.7c0-6.9,0-13.9,0-20.8C88.1-1.1,80.9-1.1,80.9,3.6
						z"/>
				</g>
			</g>
			<g>
				<g>
					<path class="st1" d="M107.9,3.6c0,6.4,0,12.7,0,19.1c0,7.3,0.5,17.8-9.9,17.7c-10.4,0-9.9-10.4-9.9-17.7c0-6.4,0-12.7,0-19.1
						c-1.2,1.2-2.4,2.4-3.6,3.6c9,0,18,0,27,0c4.7,0,4.7-7.2,0-7.2c-9,0-18,0-27,0c-2,0-3.6,1.7-3.6,3.6c0,5.9,0,11.8,0,17.8
						c0,6.3-0.8,13.2,2.9,18.7c5.7,8.6,18.3,10.1,25.8,3c5.5-5.1,5.5-11.8,5.5-18.7c0-6.9,0-13.9,0-20.8
						C115.1-1.1,107.9-1.1,107.9,3.6z"/>
				</g>
			</g>
		</g>
		<g>
			<line class="st2" x1="43.6" y1="180" x2="71.4" y2="180"/>
			<g>
				<path d="M43.6,182.5c9.3,0,18.6,0,27.8,0c3.2,0,3.2-5,0-5c-9.3,0-18.5,0-27.8,0C40.3,177.5,40.3,182.5,43.6,182.5L43.6,182.5z"
					/>
			</g>
		</g>
	</g>
	<rect x="19.5" y="124.2" class="st3" width="10.7" height="45.2"/>
	<rect x="40.6" y="103.4" class="st1" width="10.7" height="66"/>
	<rect x="61.7" y="109.2" class="st3" width="10.7" height="60.3"/>
	<rect x="82.9" y="87.9" class="st1" width="10.7" height="81.5"/>
	<g>
		<g>
			<g>
				<polygon class="st4" points="25.5,105.1 24.2,102.9 24,103 45.6,78.3 66.6,86.3 87.1,57.8 89.3,59.4 67.6,89.5 46.4,81.4 
					25.5,105.1 				"/>
			</g>
		</g>
		<path class="st4" d="M28.8,104c0,2.2-1.8,4-4,4s-4-1.8-4-4c0-2.2,1.8-4,4-4S28.8,101.8,28.8,104z"/>
		<circle class="st4" cx="45.4" cy="80.7" r="4"/>
		<circle class="st4" cx="67.1" cy="87.5" r="4"/>
		<circle class="st4" cx="88.2" cy="59" r="4"/>
	</g>
</g>
</svg>
