<?xml version="1.0" encoding="utf-8"?>
<!-- Generator: Adobe Illustrator 25.2.1, SVG Export Plug-In . SVG Version: 6.00 Build 0)  -->
<svg version="1.1" id="Layer_1" xmlns="http://www.w3.org/2000/svg" xmlns:xlink="http://www.w3.org/1999/xlink" x="0px" y="0px"
	 viewBox="0 0 115 204" style="enable-background:new 0 0 115 204;" xml:space="preserve">
<style type="text/css">
	.st0{fill:#FFFFFF;}
	.st1{fill:#2E3192;}
	.st2{fill:none;}
	.st3{fill:#F7931E;}
</style>
<g>
	<g>
		<g>
			<path d="M42.3,182.7c10.1,0,20.3,0,30.4,0c3.2,0,3.2-5,0-5c-10.1,0-20.3,0-30.4,0C39.1,177.7,39.1,182.7,42.3,182.7L42.3,182.7z"
				/>
		</g>
	</g>
	<g>
		<g>
			<path class="st0" d="M97.5,201.6H17.3c-8.3,0-15-6.7-15-15V2.6h110.1v184C112.5,194.9,105.8,201.6,97.5,201.6z"/>
			<g>
				<path d="M97.5,199.2c-19.6,0-39.2,0-58.8,0c-7.1,0-14.2,0.3-21.3,0c-7.3-0.3-12.3-5.6-12.5-12.7c0-1.5,0-3,0-4.5
					c0-43.9,0-87.9,0-131.8c0-15.2,0-30.3,0-45.5C4,5.5,3.2,6.3,2.4,7.1c32.2,0,64.3,0,96.5,0c4.5,0,9.1,0,13.6,0
					c-0.8-0.8-1.7-1.7-2.5-2.5c0,22,0,44.1,0,66.1c0,33.1,0,66.3,0,99.4C110,180.6,113,198.5,97.5,199.2c-3.2,0.1-3.2,5.1,0,5
					c9.9-0.4,17.2-7.7,17.5-17.5c0.1-2.5,0-5.1,0-7.6c0-13.4,0-26.9,0-40.3c0-35.9,0-71.9,0-107.8c0-8.8,0-17.5,0-26.3
					c0-1.3-1.1-2.5-2.5-2.5c-32.2,0-64.3,0-96.5,0c-4.5,0-9.1,0-13.6,0C1,2.2-0.1,3.3-0.1,4.6c0,39,0,78,0,117c0,19.8,0,39.6,0,59.4
					c0,6.4-0.1,12.5,4.7,17.6c6.4,6.8,15.6,5.5,24,5.5c23,0,45.9,0,68.9,0C100.7,204.1,100.7,199.2,97.5,199.2z"/>
			</g>
		</g>
		<g>
			<g>
				<g>
					<path class="st1" d="M27,3.6c0,6.4,0,12.7,0,19.1c0,7.2,0.5,17.8-9.9,17.7C6.8,40.4,7.3,30,7.3,22.7c0-6.4,0-12.7,0-19.1
						C6.1,4.8,4.9,6,3.7,7.2c9,0,18,0,26.9,0c4.6,0,4.6-7.2,0-7.2c-9,0-18,0-26.9,0c-2,0-3.6,1.7-3.6,3.6c0,5.9,0,11.8,0,17.7
						C0.1,27.7-0.7,34.5,3,40c5.7,8.6,18.2,10.1,25.8,3c5.5-5.1,5.4-11.8,5.4-18.6c0-6.9,0-13.9,0-20.8C34.2-1,27-1,27,3.6z"/>
				</g>
			</g>
			<g>
				<g>
					<path class="st1" d="M53.9,3.6c0,6.4,0,12.7,0,19.1c0,7.2,0.5,17.8-9.9,17.7c-10.3,0-9.9-10.4-9.9-17.7c0-6.4,0-12.7,0-19.1
						C33,4.8,31.8,6,30.6,7.2c9,0,18,0,26.9,0c4.6,0,4.6-7.2,0-7.2c-9,0-18,0-26.9,0c-2,0-3.6,1.7-3.6,3.6c0,5.9,0,11.8,0,17.7
						c0,6.3-0.8,13.1,2.9,18.7c5.7,8.6,18.2,10.1,25.8,3c5.5-5.1,5.4-11.8,5.4-18.6c0-6.9,0-13.9,0-20.8C61.2-1,53.9-1,53.9,3.6z"/>
				</g>
			</g>
			<g>
				<g>
					<path class="st1" d="M80.9,3.6c0,6.4,0,12.7,0,19.1c0,7.2,0.5,17.8-9.9,17.7c-10.3,0-9.9-10.4-9.9-17.7c0-6.4,0-12.7,0-19.1
						c-1.2,1.2-2.4,2.4-3.6,3.6c9,0,18,0,26.9,0c4.6,0,4.6-7.2,0-7.2c-9,0-18,0-26.9,0c-2,0-3.6,1.7-3.6,3.6c0,5.9,0,11.8,0,17.7
						c0,6.3-0.8,13.1,2.9,18.7c5.7,8.6,18.2,10.1,25.8,3c5.5-5.1,5.4-11.8,5.4-18.6c0-6.9,0-13.9,0-20.8C88.1-1,80.9-1,80.9,3.6z"/>
				</g>
			</g>
			<g>
				<g>
					<path class="st1" d="M107.8,3.6c0,6.4,0,12.7,0,19.1c0,7.2,0.5,17.8-9.9,17.7c-10.3,0-9.9-10.4-9.9-17.7c0-6.4,0-12.7,0-19.1
						c-1.2,1.2-2.4,2.4-3.6,3.6c9,0,18,0,26.9,0c4.6,0,4.6-7.2,0-7.2c-9,0-18,0-26.9,0c-2,0-3.6,1.7-3.6,3.6c0,5.9,0,11.8,0,17.7
						c0,6.3-0.8,13.1,2.9,18.7c5.7,8.6,18.2,10.1,25.8,3c5.5-5.1,5.4-11.8,5.4-18.6c0-6.9,0-13.9,0-20.8C115-1,107.8-1,107.8,3.6z"
						/>
				</g>
			</g>
		</g>
		<g>
			<g>
				<line class="st2" x1="98.2" y1="101.1" x2="16.6" y2="101.1"/>
				<g>
					<path class="st3" d="M98.2,99.8c-27.2,0-54.4,0-81.6,0c-1.6,0-1.6,2.5,0,2.5c27.2,0,54.4,0,81.6,0
						C99.8,102.3,99.8,99.8,98.2,99.8L98.2,99.8z"/>
				</g>
			</g>
			<g>
				<g>
					<path class="st3" d="M87.3,101.8c-1.4,8.9-2.8,17.9-4.2,26.8c-0.7,4.4-1,9.2-2.1,13.6c-0.9,3.3-2.6,3.6-5.7,3.6
						c-11,0-21.9,0-32.9,0c-3,0-6.7,1-8.1-2.4c-1.3-3.2-1.2-7.9-1.7-11.3c-1.5-10.2-3.1-20.5-4.6-30.7c-0.2-1.6-2.7-0.9-2.4,0.7
						c1.5,9.8,3,19.6,4.4,29.4c0.6,4.2,0.8,8.7,1.9,12.8c0.9,3.5,3.5,4.1,6.7,4.1c11.5,0,23,0,34.5,0c3,0,7.4,0.8,9.4-2.1
						c1.6-2.4,1.5-6.7,1.9-9.4c1.8-11.4,3.6-22.9,5.4-34.3C89.9,100.9,87.5,100.3,87.3,101.8L87.3,101.8z"/>
				</g>
			</g>
			<g>
				<g>
					<path class="st3" d="M78.9,99.4c-2-8-4-16.1-6.1-24.1c-0.4-1.6-2.8-0.9-2.4,0.7c2,8,4,16,6.1,24.1
						C76.9,101.6,79.3,100.9,78.9,99.4L78.9,99.4z"/>
				</g>
			</g>
			<g>
				<g>
					<path class="st3" d="M38.4,100c2-8,4-16.1,6.1-24.1c0.4-1.6-2-2.2-2.4-0.7c-2,8-4,16-6.1,24.1C35.6,100.9,38,101.6,38.4,100
						L38.4,100z"/>
				</g>
			</g>
			<g>
				<g>
					<path class="st3" d="M69.8,113.2c0,8,0,16,0,24c0,1.6,2.5,1.6,2.5,0c0-8,0-16,0-24C72.3,111.6,69.8,111.6,69.8,113.2
						L69.8,113.2z"/>
				</g>
			</g>
			<g>
				<g>
					<path class="st3" d="M56.2,113.2c0,8,0,16,0,24c0,1.6,2.5,1.6,2.5,0c0-8,0-16,0-24C58.7,111.6,56.2,111.6,56.2,113.2
						L56.2,113.2z"/>
				</g>
			</g>
			<g>
				<g>
					<path class="st3" d="M42.6,113.2c0,8,0,16,0,24c0,1.6,2.5,1.6,2.5,0c0-8,0-16,0-24C45.1,111.6,42.6,111.6,42.6,113.2
						L42.6,113.2z"/>
				</g>
			</g>
		</g>
		<g>
			<line class="st2" x1="43.5" y1="180.2" x2="71.3" y2="180.2"/>
			<g>
				<path d="M43.5,182.7c9.3,0,18.6,0,27.8,0c3.2,0,3.2-5,0-5c-9.3,0-18.6,0-27.8,0C40.3,177.7,40.3,182.7,43.5,182.7L43.5,182.7z"
					/>
			</g>
		</g>
	</g>
</g>
</svg>
