<?xml version="1.0" encoding="utf-8"?>
<!-- Generator: Adobe Illustrator 25.2.1, SVG Export Plug-In . SVG Version: 6.00 Build 0)  -->
<svg version="1.1" id="Layer_1" xmlns="http://www.w3.org/2000/svg" xmlns:xlink="http://www.w3.org/1999/xlink" x="0px" y="0px"
	 viewBox="0 0 200 200" style="enable-background:new 0 0 200 200;" xml:space="preserve">
<style type="text/css">
	.st0{fill:#939393;}
	.st1{fill:none;stroke:#A7A9AC;stroke-width:5;stroke-linejoin:round;stroke-miterlimit:10;}
	.st2{fill:none;stroke:#A7A9AC;stroke-width:5;stroke-linecap:round;stroke-linejoin:round;stroke-miterlimit:10;}
	.st3{fill:#898989;}
	.st4{fill:none;stroke:#FFFFFF;stroke-width:15;stroke-miterlimit:10;}
</style>
<polygon class="st0" points="175.4,68.9 175.4,45.1 98.8,79.2 3.4,57.4 3.4,84.1 97.8,108.2 "/>
<g>
	<polygon class="st1" points="97.8,78.3 97.8,108.6 2.5,83.9 2.5,56.6 	"/>
	<polygon class="st1" points="97.8,78.3 97.8,108.6 176.5,70.2 176.5,43 	"/>
	<polyline class="st1" points="2.5,56.6 94.7,29.5 176.5,43 	"/>
	<polyline class="st1" points="10.6,86 10.6,140.9 100.2,170.1 	"/>
	<polygon class="st1" points="172.6,72.2 171.6,124.2 100.2,170.1 100.2,107.4 	"/>
	<line class="st2" x1="38.1" y1="105.2" x2="59.9" y2="111.2"/>
</g>
<g>
	<g>
		<circle class="st3" cx="161.6" cy="153.7" r="38.4"/>
	</g>
	<polyline class="st4" points="140.7,150.8 156.4,166.5 182.4,139 	"/>
</g>
</svg>
