<svg width="51" height="50" viewBox="0 0 51 50" fill="none" xmlns="http://www.w3.org/2000/svg">
<path d="M25.5 0.171875C11.8535 0.171875 0.796875 11.3281 0.796875 24.875C0.796875 38.5215 11.8535 49.5781 25.5 49.5781C39.0469 49.5781 50.2031 38.5215 50.2031 24.875C50.2031 11.3281 39.0469 0.171875 25.5 0.171875ZM25.5 46.3906C13.6465 46.3906 3.98438 36.8281 3.98438 24.875C3.98438 13.1211 13.5469 3.35938 25.5 3.35938C37.2539 3.35938 47.0156 13.0215 47.0156 24.875C47.0156 36.7285 37.3535 46.3906 25.5 46.3906ZM39.5449 19.0977C40.043 18.5996 40.043 17.8027 39.5449 17.4043L38.748 16.5078C38.25 16.0098 37.4531 16.0098 37.0547 16.5078L20.7188 32.6445L13.8457 25.7715C13.4473 25.2734 12.6504 25.2734 12.1523 25.7715L11.3555 26.5684C10.8574 27.0664 10.8574 27.7637 11.3555 28.2617L19.9219 36.9277C20.3203 37.3262 21.1172 37.3262 21.6152 36.9277L39.5449 19.0977Z" fill="#18CC6B"/>
</svg>
