<?xml version="1.0" encoding="utf-8"?>
<!-- Generator: Adobe Illustrator 25.2.1, SVG Export Plug-In . SVG Version: 6.00 Build 0)  -->
<svg version="1.1" id="Layer_1" xmlns="http://www.w3.org/2000/svg" xmlns:xlink="http://www.w3.org/1999/xlink" x="0px" y="0px"
	 viewBox="0 0 180 205" style="enable-background:new 0 0 180 205;" xml:space="preserve">
<style type="text/css">
	.st0{fill:#B3B3B3;}
	.st1{fill:#FFFFFF;}
	.st2{fill:#FFFFFF;stroke:#000000;stroke-width:0.75;stroke-miterlimit:10;}
	.st3{fill:#F2F2F2;}
	.st4{fill:#2E3192;}
	.st5{enable-background:new    ;}
	.st6{fill:#F7931E;}
	.st7{font-family:'Roboto-Thin';}
	.st8{font-size:28.7334px;}
	.st9{fill:none;stroke:#F7931E;stroke-miterlimit:10;}
</style>
<g>
	<g>
		<circle class="st0" cx="90.05" cy="103" r="90"/>
		<g>
			<path class="st1" d="M130.12,202H49.98c-8.28,0-15-6.72-15-15V58.07C34.98,27.65,59.64,3,90.05,3l0,0
				c30.41,0,55.07,24.65,55.07,55.07V187C145.12,195.28,138.4,202,130.12,202z"/>
			<g>
				<path d="M130.12,199.5c-14.51,0-29.03,0-43.54,0c-9.14,0-18.28,0-27.41,0c-6.36,0-13.7,1.08-18.45-4.13
					c-3.8-4.17-3.23-9.53-3.23-14.69c0-7.12,0-14.24,0-21.36c0-20.23,0-40.46,0-60.69c0-13.25-0.05-26.5,0-39.76
					C37.59,32.1,57.41,8.53,84.51,5.78c30.43-3.09,57.6,21,58.1,51.59c0.18,10.88,0.01,21.78,0.01,32.66c0,20.34,0,40.67,0,61.01
					c0,11.91,0.4,23.9,0,35.8C142.38,193.93,137.22,199.18,130.12,199.5c-3.2,0.14-3.22,5.14,0,5c10.37-0.47,17.38-8.29,17.5-18.49
					c0.07-5.41,0-10.83,0-16.25c0-21.01,0-42.02,0-63.03c0-15.67,0.03-31.33,0-47C147.57,35.12,133.41,12.8,110,4.07
					C82.3-6.26,50.2,7.05,37.83,33.87c-6.55,14.19-5.34,29.55-5.34,44.72c0,35.88-0.52,71.81,0,107.69
					c0.15,10.09,7.37,17.85,17.56,18.22c5.65,0.2,11.34,0,16.99,0c19.59,0,39.18,0,58.77,0c1.43,0,2.87,0,4.3,0
					C133.33,204.5,133.34,199.5,130.12,199.5z"/>
			</g>
		</g>
	</g>
	<circle class="st2" cx="90.05" cy="57.4" r="47"/>
	<circle class="st3" cx="90.05" cy="57.4" r="42.59"/>
	<g>
		<g>
			<g>
				<path d="M89.21,20.68c0,4.33,0,8.67,0,13c0,1.61,2.5,1.61,2.5,0c0-4.33,0-8.67,0-13C91.71,19.08,89.21,19.07,89.21,20.68
					L89.21,20.68z"/>
			</g>
		</g>
		<g>
			<g>
				<path class="st4" d="M115.55,29.7c-2.76,2.97-5.53,5.94-8.29,8.91c-1.09,1.18,0.67,2.95,1.77,1.77
					c2.76-2.97,5.53-5.94,8.29-8.91C118.41,30.3,116.65,28.52,115.55,29.7L115.55,29.7z"/>
			</g>
		</g>
		<g>
			<g>
				<path d="M127.83,54.49c-4.33,0-8.67,0-13,0c-1.61,0-1.61,2.5,0,2.5c4.33,0,8.67,0,13,0C129.44,56.99,129.45,54.49,127.83,54.49
					L127.83,54.49z"/>
			</g>
		</g>
		<g>
			<g>
				<path d="M118.81,80.01c-3.06-3.06-6.13-6.13-9.19-9.19c-1.14-1.14-2.91,0.63-1.77,1.77c3.06,3.06,6.13,6.13,9.19,9.19
					C118.19,82.91,119.95,81.14,118.81,80.01L118.81,80.01z"/>
			</g>
		</g>
		<g>
			<g>
				<path d="M63.61,31.47c3.06,3.06,6.13,6.13,9.19,9.19c1.14,1.14,2.91-0.63,1.77-1.77c-3.06-3.06-6.13-6.13-9.19-9.19
					C64.24,28.57,62.47,30.33,63.61,31.47L63.61,31.47z"/>
			</g>
		</g>
		<g>
			<g>
				<path d="M51.27,56.99c4.33,0,8.67,0,13,0c1.61,0,1.61-2.5,0-2.5c-4.33,0-8.67,0-13,0C49.67,54.49,49.66,56.99,51.27,56.99
					L51.27,56.99z"/>
			</g>
		</g>
		<g>
			<g>
				<path d="M61.84,81.77c3.06-3.06,6.13-6.13,9.19-9.19c1.14-1.14-0.63-2.91-1.77-1.77c-3.06,3.06-6.13,6.13-9.19,9.19
					C58.93,81.14,60.7,82.91,61.84,81.77L61.84,81.77z"/>
			</g>
		</g>
		<g>
			<g>
				<path d="M90.69,94.11c0-4.33,0-8.67,0-13c0-1.61-2.5-1.61-2.5,0c0,4.33,0,8.67,0,13C88.19,95.72,90.69,95.72,90.69,94.11
					L90.69,94.11z"/>
			</g>
		</g>
	</g>
	<g class="st5">
		<path class="st4" d="M86.8,118.11c-6.55,7.78-10.97,14.65-13.28,20.61c-2.3,5.96-3.45,12.63-3.45,20.04v5.66h-7.01v-5.66
			c0-7.83,1.44-14.88,4.32-21.16c2.88-6.28,7.05-12.77,12.51-19.49H52.42v-5.52H86.8V118.11z"/>
		<path class="st4" d="M127.52,164.41H95.35v-4.8l16.27-19.4c2.89-3.51,4.86-6.31,5.89-8.38s1.55-4.17,1.55-6.28
			c0-2.4-0.7-4.36-2.1-5.89c-1.4-1.53-3.33-2.29-5.8-2.29c-3.06,0-5.39,0.94-6.99,2.81c-1.6,1.88-2.4,4.21-2.4,7.01h-6.76
			l-0.07-0.21c-0.12-4.22,1.29-7.8,4.24-10.73c2.94-2.93,6.94-4.4,11.99-4.4c4.63,0,8.27,1.28,10.93,3.84
			c2.66,2.56,3.99,5.87,3.99,9.93c0,2.73-0.75,5.4-2.26,8.01c-1.51,2.61-3.8,5.88-6.89,9.82l-13.06,15.3l0.07,0.18h23.6V164.41z"/>
	</g>
	<g class="st5">
		<path d="M63.06,189.7h-0.53v-6.79h-9.08v6.79h-0.53v-14.22h0.53v6.9h9.08v-6.9h0.53V189.7z"/>
		<path d="M71.86,184.21c0-1.55,0.43-2.82,1.28-3.8s1.97-1.47,3.33-1.47c1.37,0,2.49,0.49,3.34,1.47s1.28,2.25,1.28,3.8v0.41
			c0,1.56-0.43,2.83-1.28,3.81s-1.96,1.47-3.33,1.47c-1.37,0-2.49-0.49-3.35-1.47s-1.29-2.25-1.29-3.81V184.21z M72.39,184.62
			c0,1.33,0.37,2.45,1.11,3.37s1.74,1.38,3,1.38c1.24,0,2.23-0.46,2.97-1.39s1.11-2.05,1.11-3.37v-0.41c0-1.3-0.37-2.41-1.12-3.34
			s-1.74-1.4-2.98-1.4c-1.24,0-2.24,0.47-2.98,1.4s-1.11,2.05-1.11,3.34V184.62z"/>
		<path d="M96.72,187.85c-0.33,0.65-0.8,1.16-1.42,1.52c-0.61,0.36-1.35,0.54-2.23,0.54c-1.09,0-1.94-0.39-2.55-1.16
			s-0.92-1.97-0.92-3.59v-6.03h0.53v6.04c0,1.43,0.26,2.49,0.79,3.17s1.24,1.03,2.14,1.03c1.07,0,1.91-0.26,2.5-0.79
			c0.59-0.52,0.97-1.22,1.15-2.08v-7.38h0.54v6.22h0.02c0,0.08,0,0.17-0.01,0.24c-0.01,0.08-0.01,0.17-0.01,0.27v3.83H96.8
			L96.72,187.85z"/>
		<path d="M111.24,179.52l-0.68-0.06c-0.94,0-1.71,0.3-2.3,0.91c-0.59,0.61-0.97,1.41-1.15,2.41v6.92h-0.53v-10.57h0.43l0.1,1.84
			v0.36c0.29-0.75,0.73-1.34,1.31-1.76c0.58-0.42,1.29-0.63,2.14-0.63c0.15,0,0.29,0.01,0.42,0.03s0.24,0.05,0.33,0.07
			L111.24,179.52z"/>
		<path d="M125.75,187.11c0-0.56-0.24-1.07-0.72-1.53s-1.31-0.82-2.5-1.08c-1.26-0.27-2.17-0.61-2.73-1.03
			c-0.56-0.42-0.84-1.04-0.84-1.87c0-0.75,0.32-1.39,0.96-1.9c0.64-0.51,1.5-0.77,2.58-0.77c1.17,0,2.08,0.27,2.75,0.82
			c0.67,0.55,0.99,1.26,0.96,2.14l-0.02,0.06h-0.45c0-0.69-0.29-1.28-0.87-1.76c-0.58-0.49-1.37-0.73-2.37-0.73
			c-0.99,0-1.74,0.21-2.25,0.64s-0.76,0.92-0.76,1.48c0,0.55,0.21,1.03,0.64,1.42s1.28,0.73,2.56,1.03
			c1.18,0.27,2.07,0.65,2.68,1.12c0.61,0.47,0.91,1.13,0.91,1.98c0,0.83-0.34,1.5-1.02,2.01c-0.68,0.51-1.58,0.77-2.7,0.77
			c-1.23,0-2.2-0.28-2.9-0.83c-0.7-0.55-1.03-1.22-0.98-2.01l0.02-0.06h0.43c0.05,0.83,0.41,1.44,1.07,1.81s1.45,0.56,2.35,0.56
			c0.98,0,1.75-0.23,2.32-0.68C125.46,188.24,125.75,187.71,125.75,187.11z"/>
	</g>
</g>
<text transform="matrix(1 0 0 1 82.1875 66.1562)" class="st6 st7 st8">$</text>
<g class="st5">
	<path class="st9" d="M95.43,61.33c0-1.22-0.37-2.18-1.11-2.88c-0.74-0.71-2.1-1.42-4.1-2.14c-2.01-0.66-3.47-1.39-4.37-2.19
		c-0.9-0.79-1.35-1.97-1.35-3.54c0-1.5,0.49-2.71,1.47-3.64c0.98-0.93,2.29-1.43,3.95-1.49v-2.62h0.77v2.62
		c1.69,0.09,3.01,0.66,3.95,1.69c0.94,1.03,1.4,2.45,1.37,4.26l-0.03,0.07h-0.66c0-1.55-0.44-2.82-1.33-3.81
		c-0.89-0.99-2.13-1.48-3.72-1.48c-1.63,0-2.87,0.43-3.73,1.28c-0.86,0.86-1.28,1.89-1.28,3.09c0,1.23,0.34,2.2,1.03,2.92
		c0.69,0.72,2.08,1.42,4.17,2.1c1.96,0.68,3.41,1.42,4.34,2.22c0.93,0.8,1.39,1.96,1.39,3.51c0,1.51-0.49,2.71-1.46,3.63
		c-0.97,0.91-2.27,1.41-3.89,1.51v2.64h-0.77v-2.62c-1.77-0.06-3.25-0.56-4.43-1.52c-1.19-0.95-1.76-2.43-1.71-4.43l0.03-0.08h0.65
		c0,1.86,0.57,3.21,1.7,4.04c1.14,0.83,2.49,1.25,4.06,1.25c1.52,0,2.75-0.43,3.68-1.29C94.96,63.56,95.43,62.53,95.43,61.33z"/>
</g>
</svg>
