<?xml version="1.0" encoding="utf-8"?>
<!-- Generator: Adobe Illustrator 25.2.1, SVG Export Plug-In . SVG Version: 6.00 Build 0)  -->
<svg version="1.1" id="Layer_1" xmlns="http://www.w3.org/2000/svg" xmlns:xlink="http://www.w3.org/1999/xlink" x="0px" y="0px"
	 viewBox="0 0 180 205" style="enable-background:new 0 0 180 205;" xml:space="preserve">
<style type="text/css">
	.st0{fill:#B4B4B4;}
	.st1{fill:#FFFFFF;}
	.st2{fill:#010101;}
	.st3{fill:#FFFFFF;stroke:#010101;stroke-width:0.75;stroke-miterlimit:10;}
	.st4{fill:#F3F3F3;}
	.st5{fill:#2E3690;}
	.st6{enable-background:new    ;}
	.st7{fill:#F79421;}
	.st8{fill:#E6E6E5;}
	.st9{fill:none;stroke:#4E4E4E;stroke-width:5;stroke-miterlimit:10;}
	.st10{font-family:'Roboto-Thin';}
	.st11{font-size:28.7334px;}
	.st12{fill:none;stroke:#2E3690;stroke-miterlimit:10;}
</style>
<g>
	<g>
		<g>
			<circle class="st0" cx="90.41" cy="103" r="90"/>
			<g>
				<path class="st1" d="M130.48,202H50.34c-8.28,0-15-6.72-15-15V58.07C35.34,27.65,60,3,90.41,3l0,0
					c30.41,0,55.07,24.65,55.07,55.07V187C145.48,195.28,138.76,202,130.48,202z"/>
				<g>
					<path class="st2" d="M130.48,199.5c-14.51,0-29.03,0-43.54,0c-9.14,0-18.28,0-27.41,0c-6.36,0-13.7,1.08-18.45-4.13
						c-3.8-4.17-3.23-9.53-3.23-14.69c0-7.12,0-14.24,0-21.36c0-20.23,0-40.46,0-60.69c0-13.25-0.05-26.5,0-39.76
						C37.95,32.1,57.77,8.53,84.87,5.78c30.43-3.09,57.6,21,58.1,51.59c0.18,10.88,0.01,21.78,0.01,32.66c0,20.34,0,40.67,0,61.01
						c0,11.91,0.4,23.9,0,35.8C142.74,193.93,137.58,199.18,130.48,199.5c-3.2,0.14-3.22,5.14,0,5c10.37-0.47,17.38-8.29,17.5-18.49
						c0.07-5.41,0-10.83,0-16.25c0-21.01,0-42.02,0-63.03c0-15.67,0.03-31.33,0-47c-0.05-24.61-14.21-46.93-37.62-55.66
						c-27.7-10.33-59.8,2.98-72.17,29.8c-6.55,14.19-5.34,29.55-5.34,44.72c0,35.88-0.52,71.81,0,107.69
						c0.15,10.09,7.37,17.85,17.56,18.22c5.65,0.2,11.34,0,16.99,0c19.59,0,39.18,0,58.77,0c1.43,0,2.87,0,4.3,0
						C133.69,204.5,133.7,199.5,130.48,199.5z"/>
				</g>
			</g>
		</g>
		<circle class="st3" cx="90" cy="57.4" r="47"/>
		<circle class="st4" cx="90" cy="57.4" r="42.59"/>
		<g>
			<g>
				<g>
					<path d="M89.16,20.68c0,4.33,0,8.67,0,13c0,1.61,2.5,1.61,2.5,0c0-4.33,0-8.67,0-13C91.66,19.08,89.16,19.07,89.16,20.68
						L89.16,20.68z"/>
				</g>
			</g>
			<g>
				<g>
					<path class="st5" d="M115.5,29.7c-2.76,2.97-5.53,5.94-8.29,8.91c-1.09,1.18,0.67,2.95,1.77,1.77
						c2.76-2.97,5.53-5.94,8.29-8.91C118.36,30.3,116.6,28.52,115.5,29.7L115.5,29.7z"/>
				</g>
			</g>
			<g>
				<g>
					<path d="M127.78,54.49c-4.33,0-8.67,0-13,0c-1.61,0-1.61,2.5,0,2.5c4.33,0,8.67,0,13,0C129.39,56.99,129.4,54.49,127.78,54.49
						L127.78,54.49z"/>
				</g>
			</g>
			<g>
				<g>
					<path d="M118.76,80.01c-3.06-3.06-6.13-6.13-9.19-9.19c-1.14-1.14-2.91,0.63-1.77,1.77c3.06,3.06,6.13,6.13,9.19,9.19
						C118.14,82.91,119.9,81.14,118.76,80.01L118.76,80.01z"/>
				</g>
			</g>
			<g>
				<g>
					<path d="M63.56,31.47c3.06,3.06,6.13,6.13,9.19,9.19c1.14,1.14,2.91-0.63,1.77-1.77c-3.06-3.06-6.13-6.13-9.19-9.19
						C64.19,28.57,62.42,30.33,63.56,31.47L63.56,31.47z"/>
				</g>
			</g>
			<g>
				<g>
					<path d="M51.22,56.99c4.33,0,8.67,0,13,0c1.61,0,1.61-2.5,0-2.5c-4.33,0-8.67,0-13,0C49.62,54.49,49.61,56.99,51.22,56.99
						L51.22,56.99z"/>
				</g>
			</g>
			<g>
				<g>
					<path d="M61.79,81.77c3.06-3.06,6.13-6.13,9.19-9.19c1.14-1.14-0.63-2.91-1.77-1.77c-3.06,3.06-6.13,6.13-9.19,9.19
						C58.88,81.14,60.65,82.91,61.79,81.77L61.79,81.77z"/>
				</g>
			</g>
			<g>
				<g>
					<path d="M90.64,94.11c0-4.33,0-8.67,0-13c0-1.61-2.5-1.61-2.5,0c0,4.33,0,8.67,0,13C88.14,95.72,90.64,95.72,90.64,94.11
						L90.64,94.11z"/>
				</g>
			</g>
		</g>
		<g class="st6">
			<path class="st5" d="M82.2,118.33c-6.63,7.87-11.1,14.83-13.43,20.85c-2.33,6.03-3.49,12.78-3.49,20.28v5.73h-7.09v-5.73
				c0-7.92,1.46-15.06,4.38-21.41c2.92-6.35,7.14-12.92,12.66-19.72h-27.8v-5.58H82.2V118.33z"/>
		</g>
		<g class="st6">
			<path class="st2" d="M57.71,184.41c0-1.67,0.35-3,1.05-3.99s1.68-1.48,2.93-1.48c0.82,0,1.53,0.18,2.13,0.55s1.08,0.87,1.44,1.51
				v-6.53h0.53v7.92c0,0.01,0,0.02,0,0.03s0,0.01,0.01,0.01v4.31c-0.01,0.01-0.01,0.02-0.01,0.03s0,0.01,0,0.02v2.92h-0.51
				l-0.02-1.63c-0.35,0.57-0.83,1.01-1.45,1.34s-1.33,0.49-2.15,0.49c-1.24,0-2.22-0.48-2.92-1.43s-1.05-2.24-1.05-3.87V184.41z
				 M58.25,184.61c0,1.46,0.29,2.62,0.86,3.48s1.42,1.29,2.54,1.29c0.92,0,1.68-0.21,2.29-0.62s1.04-0.96,1.32-1.66v-5
				c-0.26-0.75-0.67-1.38-1.24-1.88s-1.35-0.76-2.35-0.76c-1.12,0-1.97,0.46-2.55,1.37s-0.87,2.1-0.87,3.57V184.61z"/>
			<path class="st2" d="M84.77,187.75c-0.36,0.64-0.91,1.16-1.63,1.56s-1.6,0.6-2.63,0.6c-0.98,0-1.75-0.27-2.31-0.81
				s-0.84-1.26-0.84-2.17c0-0.89,0.42-1.63,1.25-2.23s1.88-0.9,3.14-0.9h3.02v-1.54c0-0.88-0.28-1.56-0.84-2.06
				s-1.36-0.74-2.38-0.74c-0.96,0-1.73,0.23-2.31,0.69s-0.87,1.06-0.87,1.79l-0.44-0.02l-0.02-0.05c-0.04-0.82,0.28-1.52,0.96-2.08
				s1.57-0.85,2.69-0.85c1.13,0,2.04,0.29,2.72,0.86s1.03,1.4,1.03,2.48v5.29c0,0.37,0.02,0.73,0.06,1.08s0.11,0.7,0.21,1.04h-0.59
				c-0.08-0.46-0.14-0.81-0.17-1.04s-0.04-0.48-0.04-0.75V187.75z M80.52,189.39c1.05,0,1.94-0.23,2.66-0.69s1.26-1.12,1.6-1.98
				v-2.37h-2.99c-1.09,0-2.02,0.25-2.77,0.76s-1.13,1.13-1.13,1.87c0,0.71,0.24,1.29,0.72,1.74S79.72,189.39,80.52,189.39z"/>
			<path class="st2" d="M100.35,187.79l0.39,1.05h0.06l0.06-0.16l3.65-9.55h0.59l-4.7,12.32c-0.29,0.74-0.62,1.35-1,1.81
				s-0.99,0.7-1.82,0.7c-0.12,0-0.26-0.01-0.41-0.03c-0.15-0.02-0.26-0.05-0.33-0.07l0.09-0.5c0.07,0.02,0.18,0.04,0.32,0.06
				c0.14,0.02,0.25,0.03,0.33,0.03c0.6,0,1.07-0.18,1.4-0.53c0.33-0.35,0.63-0.87,0.89-1.56l0.63-1.72l-4.21-10.51h0.58
				L100.35,187.79z"/>
			<path class="st2" d="M122.58,187.11c0-0.56-0.24-1.07-0.72-1.53s-1.31-0.82-2.5-1.08c-1.26-0.27-2.17-0.61-2.73-1.03
				c-0.56-0.42-0.84-1.04-0.84-1.87c0-0.75,0.32-1.39,0.96-1.9c0.64-0.51,1.5-0.77,2.58-0.77c1.17,0,2.08,0.27,2.75,0.82
				c0.67,0.55,0.99,1.26,0.96,2.14l-0.02,0.06h-0.45c0-0.69-0.29-1.28-0.87-1.76c-0.58-0.49-1.37-0.73-2.37-0.73
				c-0.99,0-1.74,0.21-2.25,0.64s-0.76,0.92-0.76,1.48c0,0.55,0.21,1.03,0.64,1.42s1.28,0.73,2.56,1.03
				c1.18,0.27,2.07,0.65,2.68,1.12c0.61,0.47,0.91,1.13,0.91,1.98c0,0.83-0.34,1.5-1.02,2.01c-0.68,0.51-1.58,0.77-2.7,0.77
				c-1.23,0-2.2-0.28-2.9-0.83c-0.7-0.55-1.03-1.22-0.98-2.01l0.02-0.06h0.43c0.05,0.83,0.41,1.44,1.07,1.81s1.45,0.56,2.35,0.56
				c0.98,0,1.75-0.23,2.32-0.68C122.29,188.24,122.58,187.71,122.58,187.11z"/>
		</g>
		<g>
			<path class="st7" d="M129.9,100.96l0.41,2.01c0.79,3.89,5.85,4.97,8.16,1.73l1.19-1.67c1.67-2.34,5.34-0.7,4.72,2.1l-0.44,2
				c-0.86,3.88,3.32,6.92,6.75,4.9l1.76-1.04c2.47-1.46,5.16,1.53,3.45,3.84l-1.22,1.65c-2.36,3.19,0.22,7.67,4.17,7.22l2.03-0.23
				c2.85-0.32,4.09,3.5,1.6,4.91l-1.78,1.01c-3.46,1.96-2.92,7.1,0.87,8.29l1.95,0.62c2.74,0.86,2.32,4.86-0.54,5.13l-2.04,0.2
				c-3.96,0.38-5.55,5.3-2.58,7.93l1.53,1.36c2.15,1.9,0.14,5.38-2.58,4.47l-1.94-0.65c-3.77-1.26-7.23,2.58-5.58,6.2l0.85,1.86
				c1.19,2.61-2.06,4.97-4.18,3.03l-1.51-1.38c-2.93-2.68-7.65-0.58-7.62,3.39l0.02,2.05c0.03,2.87-3.91,3.71-5.05,1.07l-0.82-1.88
				c-1.58-3.64-6.75-3.64-8.34,0l-0.82,1.88c-1.14,2.63-5.07,1.8-5.05-1.07l0.02-2.05c0.03-3.97-4.69-6.08-7.62-3.39l-1.51,1.38
				c-2.12,1.94-5.37-0.42-4.18-3.03l0.85-1.86c1.65-3.62-1.81-7.46-5.58-6.2l-1.94,0.65c-2.72,0.91-4.73-2.57-2.58-4.47l1.53-1.36
				c2.98-2.63,1.38-7.55-2.58-7.93l-2.04-0.2c-2.86-0.28-3.28-4.27-0.54-5.13l1.95-0.62c3.79-1.2,4.33-6.34,0.87-8.29l-1.78-1.01
				c-2.5-1.41-1.26-5.23,1.6-4.91l2.03,0.23c3.95,0.45,6.53-4.03,4.17-7.22l-1.22-1.65c-1.71-2.31,0.98-5.29,3.45-3.84l1.76,1.04
				c3.42,2.02,7.61-1.02,6.75-4.9l-0.44-2c-0.62-2.8,3.05-4.44,4.72-2.1l1.19,1.67c2.31,3.24,7.36,2.16,8.16-1.73l0.41-2.01
				C125.31,98.15,129.33,98.15,129.9,100.96z"/>
			<circle class="st8" cx="127.59" cy="137" r="22"/>
			<polyline class="st9" points="114.59,138 124.59,148 141.09,130.5 			"/>
		</g>
	</g>
	<text transform="matrix(1 0 0 1 82.1892 66.1563)" class="st5 st10 st11">$</text>
	<g class="st6">
		<path class="st12" d="M95.48,61.33c0-1.22-0.37-2.18-1.11-2.88c-0.74-0.71-2.1-1.42-4.1-2.14c-2.01-0.66-3.47-1.39-4.37-2.19
			c-0.9-0.79-1.35-1.97-1.35-3.54c0-1.5,0.49-2.71,1.47-3.64c0.98-0.93,2.29-1.43,3.95-1.49v-2.62h0.77v2.62
			c1.69,0.09,3.01,0.66,3.95,1.69c0.94,1.03,1.4,2.45,1.37,4.26l-0.03,0.07h-0.66c0-1.55-0.44-2.82-1.33-3.81
			c-0.89-0.99-2.13-1.48-3.72-1.48c-1.63,0-2.87,0.43-3.73,1.28c-0.86,0.86-1.28,1.89-1.28,3.09c0,1.23,0.34,2.2,1.03,2.92
			c0.69,0.72,2.08,1.42,4.17,2.1c1.96,0.68,3.41,1.42,4.34,2.22c0.93,0.8,1.39,1.96,1.39,3.51c0,1.51-0.49,2.71-1.46,3.63
			c-0.97,0.91-2.27,1.41-3.89,1.51v2.64h-0.77v-2.62c-1.77-0.06-3.25-0.56-4.43-1.52c-1.19-0.95-1.76-2.43-1.71-4.43L84,60.42h0.65
			c0,1.86,0.57,3.21,1.7,4.04c1.14,0.83,2.49,1.25,4.06,1.25c1.52,0,2.75-0.43,3.68-1.29C95.01,63.56,95.48,62.53,95.48,61.33z"/>
	</g>
</g>
</svg>
