<?xml version="1.0" encoding="utf-8"?>
<!-- Generator: Adobe Illustrator 25.2.1, SVG Export Plug-In . SVG Version: 6.00 Build 0)  -->
<svg version="1.1" id="Layer_1" xmlns="http://www.w3.org/2000/svg" xmlns:xlink="http://www.w3.org/1999/xlink" x="0px" y="0px"
	 viewBox="0 0 180 205" style="enable-background:new 0 0 180 205;" xml:space="preserve">
<style type="text/css">
	.st0{fill:#B4B4B4;}
	.st1{fill:#FFFFFF;}
	.st2{fill:#010101;}
	.st3{fill:#2E3690;}
	.st4{fill:#676767;}
	.st5{fill:#F79421;}
</style>
<g>
	<g>
		<circle class="st0" cx="90.25" cy="102.7" r="90"/>
		<g>
			<path class="st1" d="M130.31,201.7H50.18c-8.28,0-15-6.72-15-15V2.7h110.13v184C145.31,194.99,138.6,201.7,130.31,201.7z"/>
			<g>
				<path class="st2" d="M130.31,199.2c-19.59,0-39.18,0-58.76,0c-7.1,0-14.25,0.26-21.35,0c-7.26-0.27-12.3-5.7-12.52-12.85
					c-0.05-1.53,0-3.06,0-4.59c0-44.38,0-88.75,0-133.13c0-15.31,0-30.62,0-45.94c-0.83,0.83-1.67,1.67-2.5,2.5
					c32.17,0,64.33,0,96.5,0c4.54,0,9.09,0,13.63,0c-0.83-0.83-1.67-1.67-2.5-2.5c0,22.26,0,44.53,0,66.79c0,33.46,0,66.92,0,100.38
					C142.81,180.47,145.8,198.51,130.31,199.2c-3.2,0.14-3.22,5.14,0,5c9.9-0.44,17.18-7.8,17.5-17.72c0.08-2.56,0-5.13,0-7.69
					c0-13.56,0-27.12,0-40.69c0-36.29,0-72.58,0-108.87c0-8.84,0-17.69,0-26.53c0-1.35-1.15-2.5-2.5-2.5c-32.17,0-64.33,0-96.5,0
					c-4.54,0-9.09,0-13.63,0c-1.35,0-2.5,1.15-2.5,2.5c0,39.39,0,78.78,0,118.17c0,19.99,0,39.98,0,59.97
					c0,6.43-0.12,12.62,4.69,17.76c6.39,6.83,15.61,5.6,24.05,5.6c22.96,0,45.92,0,68.89,0C133.53,204.2,133.53,199.2,130.31,199.2z
					"/>
			</g>
		</g>
		<g>
			<g>
				<g>
					<path class="st3" d="M58.61,3.78c0,6.61,0,13.22,0,19.84c0,7.53,0.5,18.46-10.25,18.41C37.61,41.98,38.11,31.2,38.11,23.61
						c0-6.61,0-13.22,0-19.84c-1.25,1.25-2.5,2.5-3.75,3.75c9.33,0,18.67,0,28,0c4.83,0,4.83-7.5,0-7.5c-9.33,0-18.67,0-28,0
						c-2.03,0-3.75,1.72-3.75,3.75c0,6.14,0,12.29,0,18.43c0,6.58-0.84,13.66,3,19.41c5.96,8.92,18.96,10.49,26.84,3.15
						c5.71-5.33,5.66-12.24,5.66-19.37c0-7.2,0-14.41,0-21.61C66.11-1.05,58.61-1.06,58.61,3.78z"/>
				</g>
			</g>
			<g>
				<g>
					<path class="st3" d="M86.61,3.78c0,6.61,0,13.22,0,19.84c0,7.53,0.5,18.46-10.25,18.41C65.61,41.98,66.11,31.2,66.11,23.61
						c0-6.61,0-13.22,0-19.84c-1.25,1.25-2.5,2.5-3.75,3.75c9.33,0,18.67,0,28,0c4.83,0,4.83-7.5,0-7.5c-9.33,0-18.67,0-28,0
						c-2.03,0-3.75,1.72-3.75,3.75c0,6.14,0,12.29,0,18.43c0,6.58-0.84,13.66,3,19.41c5.96,8.92,18.96,10.49,26.84,3.15
						c5.71-5.33,5.66-12.24,5.66-19.37c0-7.2,0-14.41,0-21.61C94.11-1.05,86.61-1.06,86.61,3.78z"/>
				</g>
			</g>
			<g>
				<g>
					<path class="st3" d="M114.61,3.78c0,6.61,0,13.22,0,19.84c0,7.53,0.5,18.46-10.25,18.41C93.61,41.98,94.11,31.2,94.11,23.61
						c0-6.61,0-13.22,0-19.84c-1.25,1.25-2.5,2.5-3.75,3.75c9.33,0,18.67,0,28,0c4.83,0,4.83-7.5,0-7.5c-9.33,0-18.67,0-28,0
						c-2.03,0-3.75,1.72-3.75,3.75c0,6.14,0,12.29,0,18.43c0,6.58-0.84,13.66,3,19.41c5.96,8.92,18.96,10.49,26.84,3.15
						c5.71-5.33,5.66-12.24,5.66-19.37c0-7.2,0-14.41,0-21.61C122.11-1.05,114.61-1.06,114.61,3.78z"/>
				</g>
			</g>
			<g>
				<g>
					<path class="st3" d="M142.61,3.78c0,6.61,0,13.22,0,19.84c0,7.53,0.5,18.46-10.25,18.41c-10.76-0.05-10.25-10.83-10.25-18.41
						c0-6.61,0-13.22,0-19.84c-1.25,1.25-2.5,2.5-3.75,3.75c9.33,0,18.67,0,28,0c4.83,0,4.83-7.5,0-7.5c-9.33,0-18.67,0-28,0
						c-2.03,0-3.75,1.72-3.75,3.75c0,6.14,0,12.29,0,18.43c0,6.58-0.84,13.66,3,19.41c5.96,8.92,18.96,10.49,26.84,3.15
						c5.71-5.33,5.66-12.24,5.66-19.37c0-7.2,0-14.41,0-21.61C150.11-1.05,142.61-1.06,142.61,3.78z"/>
				</g>
			</g>
		</g>
		<g>
			<line class="st4" x1="76.33" y1="180.3" x2="104.16" y2="180.3"/>
			<g>
				<path class="st2" d="M76.33,182.8c9.28,0,18.55,0,27.83,0c3.22,0,3.22-5,0-5c-9.28,0-18.55,0-27.83,0
					C73.12,177.8,73.11,182.8,76.33,182.8L76.33,182.8z"/>
			</g>
		</g>
	</g>
	<g>
		<path class="st5" d="M60.58,148.52V77.36c0-2.63,2.14-4.77,4.77-4.77h30.48c4.25,0,6.38,5.14,3.37,8.14l-3.97,3.97
			c-0.89,0.89-1.4,2.11-1.4,3.37v54.67c0,2.2-1.51,4.12-3.64,4.64l-23.72,5.76C63.48,153.88,60.58,151.61,60.58,148.52z"/>
		<circle class="st5" cx="77.91" cy="62.06" r="6.35"/>
	</g>
	<g>
		<path class="st3" d="M120.18,164.04v-54.99c0-2.63-2.14-4.77-4.77-4.77H84.92c-4.25,0-6.38,5.14-3.37,8.14l3.97,3.97
			c0.89,0.89,1.4,2.11,1.4,3.37v38.5c0,2.2,1.51,4.12,3.64,4.64l23.72,5.76C117.29,169.4,120.18,167.13,120.18,164.04z"/>
		<circle class="st3" cx="101.7" cy="92.73" r="6.35"/>
	</g>
</g>
</svg>
