<?xml version="1.0" encoding="utf-8"?>
<!-- Generator: Adobe Illustrator 25.2.1, SVG Export Plug-In . SVG Version: 6.00 Build 0)  -->
<svg version="1.1" id="Layer_1" xmlns="http://www.w3.org/2000/svg" xmlns:xlink="http://www.w3.org/1999/xlink" x="0px" y="0px"
	 viewBox="0 0 180 205" style="enable-background:new 0 0 180 205;" xml:space="preserve">
<style type="text/css">
	.st0{fill:#B3B3B3;}
	.st1{fill:#FFFFFF;}
	.st2{fill:#2E3192;}
	.st3{fill:#F7931E;}
	.st4{fill:#666666;}
</style>
<g>
	<g>
		<path d="M74.9,183.55c10.14,0,20.29,0,30.43,0c3.22,0,3.22-5,0-5c-10.14,0-20.29,0-30.43,0C71.68,178.55,71.68,183.55,74.9,183.55
			L74.9,183.55z"/>
	</g>
</g>
<g>
	<circle class="st0" cx="90" cy="103.46" r="90"/>
	<g>
		<path class="st1" d="M130.07,202.46H49.93c-8.28,0-15-6.72-15-15v-184h110.13v184C145.07,195.74,138.35,202.46,130.07,202.46z"/>
		<g>
			<path d="M130.07,199.96c-19.59,0-39.18,0-58.76,0c-7.1,0-14.25,0.26-21.35,0c-7.26-0.27-12.3-5.7-12.52-12.85
				c-0.05-1.53,0-3.06,0-4.59c0-44.38,0-88.75,0-133.13c0-15.31,0-30.62,0-45.94c-0.83,0.83-1.67,1.67-2.5,2.5
				c32.17,0,64.33,0,96.5,0c4.54,0,9.09,0,13.63,0c-0.83-0.83-1.67-1.67-2.5-2.5c0,22.26,0,44.53,0,66.79c0,33.46,0,66.92,0,100.38
				C142.57,181.23,145.55,199.26,130.07,199.96c-3.2,0.14-3.22,5.14,0,5c9.9-0.44,17.18-7.8,17.5-17.72c0.08-2.56,0-5.13,0-7.69
				c0-13.56,0-27.12,0-40.69c0-36.29,0-72.58,0-108.87c0-8.84,0-17.69,0-26.53c0-1.35-1.15-2.5-2.5-2.5c-32.17,0-64.33,0-96.5,0
				c-4.54,0-9.09,0-13.63,0c-1.35,0-2.5,1.15-2.5,2.5c0,39.39,0,78.78,0,118.17c0,19.99,0,39.98,0,59.97
				c0,6.43-0.12,12.62,4.69,17.76c6.39,6.83,15.61,5.6,24.05,5.6c22.96,0,45.92,0,68.89,0
				C133.28,204.96,133.29,199.96,130.07,199.96z"/>
		</g>
	</g>
	<g>
		<g>
			<g>
				<path class="st2" d="M58.37,4.35c0,6.61,0,13.22,0,19.84c0,7.53,0.5,18.46-10.25,18.41c-10.76-0.05-10.25-10.83-10.25-18.41
					c0-6.61,0-13.22,0-19.84c-1.25,1.25-2.5,2.5-3.75,3.75c9.33,0,18.67,0,28,0c4.83,0,4.83-7.5,0-7.5c-9.33,0-18.67,0-28,0
					c-2.03,0-3.75,1.72-3.75,3.75c0,6.14,0,12.29,0,18.43c0,6.58-0.84,13.66,3,19.41c5.96,8.92,18.96,10.49,26.84,3.15
					c5.71-5.33,5.66-12.24,5.66-19.37c0-7.2,0-14.41,0-21.61C65.87-0.48,58.37-0.49,58.37,4.35z"/>
			</g>
		</g>
		<g>
			<g>
				<path class="st2" d="M86.37,4.35c0,6.61,0,13.22,0,19.84c0,7.53,0.5,18.46-10.25,18.41c-10.76-0.05-10.25-10.83-10.25-18.41
					c0-6.61,0-13.22,0-19.84c-1.25,1.25-2.5,2.5-3.75,3.75c9.33,0,18.67,0,28,0c4.83,0,4.83-7.5,0-7.5c-9.33,0-18.67,0-28,0
					c-2.03,0-3.75,1.72-3.75,3.75c0,6.14,0,12.29,0,18.43c0,6.58-0.84,13.66,3,19.41c5.96,8.92,18.96,10.49,26.84,3.15
					c5.71-5.33,5.66-12.24,5.66-19.37c0-7.2,0-14.41,0-21.61C93.87-0.48,86.37-0.49,86.37,4.35z"/>
			</g>
		</g>
		<g>
			<g>
				<path class="st2" d="M114.37,4.35c0,6.61,0,13.22,0,19.84c0,7.53,0.5,18.46-10.25,18.41c-10.76-0.05-10.25-10.83-10.25-18.41
					c0-6.61,0-13.22,0-19.84c-1.25,1.25-2.5,2.5-3.75,3.75c9.33,0,18.67,0,28,0c4.83,0,4.83-7.5,0-7.5c-9.33,0-18.67,0-28,0
					c-2.03,0-3.75,1.72-3.75,3.75c0,6.14,0,12.29,0,18.43c0,6.58-0.84,13.66,3,19.41c5.96,8.92,18.96,10.49,26.84,3.15
					c5.71-5.33,5.66-12.24,5.66-19.37c0-7.2,0-14.41,0-21.61C121.87-0.48,114.37-0.49,114.37,4.35z"/>
			</g>
		</g>
		<g>
			<g>
				<path class="st2" d="M142.37,4.35c0,6.61,0,13.22,0,19.84c0,7.53,0.5,18.46-10.25,18.41c-10.76-0.05-10.25-10.83-10.25-18.41
					c0-6.61,0-13.22,0-19.84c-1.25,1.25-2.5,2.5-3.75,3.75c9.33,0,18.67,0,28,0c4.83,0,4.83-7.5,0-7.5c-9.33,0-18.67,0-28,0
					c-2.03,0-3.75,1.72-3.75,3.75c0,6.14,0,12.29,0,18.43c0,6.58-0.84,13.66,3,19.41c5.96,8.92,18.96,10.49,26.84,3.15
					c5.71-5.33,5.66-12.24,5.66-19.37c0-7.2,0-14.41,0-21.61C149.87-0.48,142.37-0.49,142.37,4.35z"/>
			</g>
		</g>
	</g>
	<g>
		<g>
			<line class="st1" x1="130.82" y1="101.91" x2="49.18" y2="101.91"/>
			<g>
				<path class="st3" d="M130.82,100.66c-27.21,0-54.43,0-81.64,0c-1.61,0-1.61,2.5,0,2.5c27.21,0,54.43,0,81.64,0
					C132.43,103.16,132.43,100.66,130.82,100.66L130.82,100.66z"/>
			</g>
		</g>
		<g>
			<g>
				<path class="st3" d="M119.86,102.67c-1.4,8.94-2.8,17.88-4.2,26.83c-0.69,4.43-0.97,9.22-2.12,13.56
					c-0.88,3.3-2.62,3.57-5.72,3.57c-10.97,0-21.94,0-32.92,0c-2.98,0-6.72,0.99-8.09-2.45c-1.29-3.23-1.19-7.85-1.71-11.27
					c-1.55-10.23-3.1-20.46-4.64-30.69c-0.24-1.59-2.65-0.91-2.41,0.66c1.48,9.78,2.96,19.56,4.44,29.35
					c0.63,4.17,0.83,8.74,1.94,12.82c0.95,3.49,3.47,4.09,6.66,4.09c11.51,0,23.02,0,34.53,0c3.02,0,7.38,0.81,9.36-2.1
					c1.63-2.39,1.5-6.68,1.93-9.41c1.79-11.43,3.58-22.85,5.37-34.28C122.52,101.76,120.11,101.08,119.86,102.67L119.86,102.67z"/>
			</g>
		</g>
		<g>
			<g>
				<path class="st3" d="M111.46,100.2c-2.02-8.02-4.03-16.05-6.05-24.07c-0.39-1.56-2.8-0.9-2.41,0.66
					c2.02,8.02,4.03,16.05,6.05,24.07C109.44,102.42,111.86,101.76,111.46,100.2L111.46,100.2z"/>
			</g>
		</g>
		<g>
			<g>
				<path class="st3" d="M71.02,100.86c2.02-8.02,4.03-16.05,6.05-24.07c0.39-1.56-2.02-2.23-2.41-0.66
					c-2.02,8.02-4.03,16.05-6.05,24.07C68.22,101.76,70.63,102.43,71.02,100.86L71.02,100.86z"/>
			</g>
		</g>
		<g>
			<g>
				<path class="st3" d="M102.41,113.99c0,7.99,0,15.98,0,23.96c0,1.61,2.5,1.61,2.5,0c0-7.99,0-15.98,0-23.96
					C104.91,112.38,102.41,112.38,102.41,113.99L102.41,113.99z"/>
			</g>
		</g>
		<g>
			<g>
				<path class="st3" d="M88.78,113.99c0,7.99,0,15.98,0,23.96c0,1.61,2.5,1.61,2.5,0c0-7.99,0-15.98,0-23.96
					C91.28,112.38,88.78,112.38,88.78,113.99L88.78,113.99z"/>
			</g>
		</g>
		<g>
			<g>
				<path class="st3" d="M75.14,113.99c0,7.99,0,15.98,0,23.96c0,1.61,2.5,1.61,2.5,0c0-7.99,0-15.98,0-23.96
					C77.64,112.38,75.14,112.38,75.14,113.99L75.14,113.99z"/>
			</g>
		</g>
	</g>
	<g>
		<line class="st4" x1="76.09" y1="181.05" x2="103.91" y2="181.05"/>
		<g>
			<path d="M76.09,183.55c9.28,0,18.55,0,27.83,0c3.22,0,3.22-5,0-5c-9.28,0-18.55,0-27.83,0
				C72.87,178.55,72.86,183.55,76.09,183.55L76.09,183.55z"/>
		</g>
	</g>
</g>
</svg>
