<?xml version="1.0" encoding="utf-8"?>
<!-- Generator: Adobe Illustrator 25.2.1, SVG Export Plug-In . SVG Version: 6.00 Build 0)  -->
<svg version="1.1" id="Layer_1" xmlns="http://www.w3.org/2000/svg" xmlns:xlink="http://www.w3.org/1999/xlink" x="0px" y="0px"
	 viewBox="0 0 180 205" style="enable-background:new 0 0 180 205;" xml:space="preserve">
<style type="text/css">
	.st0{fill:#B4B4B4;}
	.st1{fill:#FFFFFF;}
	.st2{fill:#010101;}
	.st3{fill:#FFFFFF;stroke:#010101;stroke-width:0.75;stroke-miterlimit:10;}
	.st4{fill:#F3F3F3;}
	.st5{fill:#2E3690;}
	.st6{fill:#F79421;}
	.st7{fill:none;stroke:#F3F3F3;stroke-width:5;stroke-miterlimit:10;}
</style>
<g>
	<g>
		<g>
			<circle class="st0" cx="90" cy="101.85" r="90"/>
			<g>
				<path class="st1" d="M49.93,2.85h80.13c8.28,0,15,6.72,15,15v128.93c0,30.41-24.65,55.07-55.07,55.07h0
					c-30.41,0-55.07-24.65-55.07-55.07V17.85C34.93,9.57,41.65,2.85,49.93,2.85z"/>
				<g>
					<path class="st2" d="M49.93,5.35c14.51,0,29.03,0,43.54,0c9.14,0,18.28,0,27.41,0c6.36,0,13.7-1.08,18.45,4.13
						c3.8,4.17,3.23,9.53,3.23,14.69c0,7.12,0,14.24,0,21.36c0,20.23,0,40.46,0,60.69c0,13.25,0.05,26.5,0,39.76
						c-0.11,26.77-19.93,50.34-47.02,53.1c-30.43,3.09-57.6-21-58.1-51.59c-0.18-10.88-0.01-21.78-0.01-32.66
						c0-20.34,0-40.67,0-61.01c0-11.91-0.4-23.9,0-35.8C37.67,10.92,42.83,5.67,49.93,5.35c3.2-0.14,3.22-5.14,0-5
						c-10.37,0.47-17.38,8.29-17.5,18.49c-0.07,5.41,0,10.83,0,16.25c0,21.01,0,42.02,0,63.03c0,15.67-0.03,31.33,0,47
						c0.05,24.61,14.21,46.93,37.62,55.66c27.7,10.33,59.8-2.98,72.17-29.8c6.55-14.19,5.34-29.55,5.34-44.72
						c0-35.88,0.52-71.81,0-107.69C147.42,8.49,140.19,0.72,130,0.35c-5.65-0.2-11.34,0-16.99,0c-19.59,0-39.18,0-58.77,0
						c-1.43,0-2.87,0-4.3,0C46.72,0.35,46.71,5.35,49.93,5.35z"/>
				</g>
			</g>
		</g>
		<circle class="st3" cx="90" cy="147.46" r="47"/>
		<circle class="st4" cx="90" cy="147.46" r="42.59"/>
		<path class="st5" d="M121.14,59.18L89.41,90.92L57.67,59.18c-8.36-8.36-8.36-21.91,0-30.26l6.37-6.37
			c5.62-5.62,14.72-5.62,20.34,0l5.02,5.02l5.02-5.02c5.62-5.62,14.72-5.62,20.34,0l6.37,6.37C129.5,37.28,129.5,50.83,121.14,59.18
			z"/>
	</g>
	<g>
		<g>
			<line class="st1" x1="120.96" y1="139.87" x2="59.04" y2="139.87"/>
			<g>
				<path class="st6" d="M120.96,138.62c-20.64,0-41.27,0-61.91,0c-1.61,0-1.61,2.5,0,2.5c20.64,0,41.27,0,61.91,0
					C122.56,141.12,122.57,138.62,120.96,138.62L120.96,138.62z"/>
			</g>
		</g>
		<g>
			<g>
				<path class="st6" d="M112.36,140.36c-1.03,6.59-2.06,13.19-3.1,19.78c-0.54,3.43-0.73,7.17-1.65,10.52
					c-0.65,2.38-1.46,2.81-3.95,2.81c-8.18,0-16.37,0-24.55,0c-2.15,0-5.28,0.79-6.38-1.54c-1.03-2.18-0.89-5.88-1.25-8.24
					c-1.19-7.89-2.39-15.79-3.58-23.68c-0.24-1.59-2.65-0.91-2.41,0.66c1.15,7.6,2.3,15.19,3.45,22.79
					c0.77,5.11,0.02,12.25,6.56,12.51c8.84,0.35,17.76,0,26.61,0c2.28,0,5.4,0.54,6.99-1.55c1.32-1.74,1.24-5.06,1.56-7.09
					c1.37-8.77,2.75-17.54,4.12-26.31C115.01,139.45,112.6,138.78,112.36,140.36L112.36,140.36z"/>
			</g>
		</g>
		<g>
			<g>
				<path class="st6" d="M106.57,138.49c-1.53-6.09-3.06-12.17-4.58-18.26c-0.39-1.56-2.8-0.9-2.41,0.66
					c1.53,6.09,3.06,12.17,4.58,18.26C104.55,140.72,106.96,140.06,106.57,138.49L106.57,138.49z"/>
			</g>
		</g>
		<g>
			<g>
				<path class="st6" d="M75.9,139.16c1.53-6.09,3.06-12.17,4.58-18.26c0.39-1.56-2.02-2.23-2.41-0.66
					c-1.53,6.09-3.06,12.17-4.58,18.26C73.1,140.05,75.51,140.72,75.9,139.16L75.9,139.16z"/>
			</g>
		</g>
		<g>
			<g>
				<path class="st6" d="M99.11,149.03c0,6.06,0,12.12,0,18.17c0,1.61,2.5,1.61,2.5,0c0-6.06,0-12.12,0-18.17
					C101.61,147.42,99.11,147.42,99.11,149.03L99.11,149.03z"/>
			</g>
		</g>
		<g>
			<g>
				<path class="st6" d="M88.77,149.03c0,6.06,0,12.12,0,18.17c0,1.61,2.5,1.61,2.5,0c0-6.06,0-12.12,0-18.17
					C91.27,147.42,88.77,147.42,88.77,149.03L88.77,149.03z"/>
			</g>
		</g>
		<g>
			<g>
				<path class="st6" d="M78.43,149.03c0,6.06,0,12.12,0,18.17c0,1.61,2.5,1.61,2.5,0c0-6.06,0-12.12,0-18.17
					C80.93,147.42,78.43,147.42,78.43,149.03L78.43,149.03z"/>
			</g>
		</g>
	</g>
</g>
<polyline class="st7" points="76.42,50.84 86.42,60.84 102.92,43.34 "/>
</svg>
