<?xml version="1.0" encoding="utf-8"?>
<!-- Generator: Adobe Illustrator 25.2.1, SVG Export Plug-In . SVG Version: 6.00 Build 0)  -->
<svg version="1.1" id="Layer_1" xmlns="http://www.w3.org/2000/svg" xmlns:xlink="http://www.w3.org/1999/xlink" x="0px" y="0px"
	 viewBox="0 0 100 100" style="enable-background:new 0 0 100 100;" xml:space="preserve">
<style type="text/css">
	.st0{fill:url(#SVGID_1_);}
	.st1{fill:url(#SVGID_2_);}
	.st2{fill:#0E4D80;}
</style>
<radialGradient id="SVGID_1_" cx="58.2613" cy="58.7114" r="22.3172" gradientUnits="userSpaceOnUse">
	<stop  offset="0.3787" style="stop-color:#E845AA"/>
	<stop  offset="0.5525" style="stop-color:#E540A6"/>
	<stop  offset="0.7703" style="stop-color:#DB309A"/>
	<stop  offset="1" style="stop-color:#CD1887"/>
</radialGradient>
<path class="st0" d="M33.2,75.6c0.1-0.1,0.1-0.2,0.2-0.3c0.2-0.2,0.3-0.5,0.5-0.7c5.8-6.7,14.9,3.1,18.4-0.9
	c1.6-1.8,0.1-4.6,0.6-5.4c0.5-0.8,2.1-1.6,2.1-2.4c-0.1-0.8-2.2-1.2-2-1.5c0.2-0.3,3.6-0.8,3.1-1.9c-0.8-1.8-1.9-2-1.7-2.9
	c0.4-1.4,2.9-1,4.1-2.3c1.5-1.7-0.5-1.5-2.7-4.8c-1.5-2.2-3.5-5.3-2.2-7.8c0.6-1.1-0.1-3.2-0.1-4.4c0-6.5-5.7-12.6-13.6-11.8
	c-6.5,0.7-19.8,24.3-16,33.9c3.8,9.6,8.4,13.5,8.4,13.5L33.2,75.6z"/>
<radialGradient id="SVGID_2_" cx="49.1037" cy="56.4393" r="35.4075" gradientUnits="userSpaceOnUse">
	<stop  offset="0.3787" style="stop-color:#FC4BB9"/>
	<stop  offset="0.538" style="stop-color:#F946B5"/>
	<stop  offset="0.7377" style="stop-color:#F136A9"/>
	<stop  offset="0.9582" style="stop-color:#E41D96"/>
	<stop  offset="1" style="stop-color:#E11792"/>
</radialGradient>
<path class="st1" d="M60.9,90.1c-3.9,1.6-8.2,2.5-12.7,2.5c-18.5,0-33.5-15-33.5-33.5c0-18.5,15-33.5,33.5-33.5
	c2.1,0,4.1,0.2,6.1,0.6c2,1.1,2.9,6.2,1.1,9.5c-0.7,1.3-3.6,3.2-5,4.5c-7,6.1-14.5,7.9-13.1,15.2c1.3,7.3,10.2,30.1,26.4,32.9
	C66,88.7,60.1,89.4,60.9,90.1z"/>
<g>
	<g>
		<path class="st2" d="M51.4,100C28.2,100.8,8.6,82.9,7.8,60.2C7.1,37.9,24.6,19.1,47.1,17.6c-0.4-0.6-0.8-1.2-1.2-1.7
			c-3-4.1-5.9-6.8-7.6-8.1c-0.8-0.6-0.9-1.8-0.4-2.6l1.7-2.5c0.6-0.9,2-1.1,2.8-0.4c2.4,2,7,6.2,11.3,12.9C57.5,9,59.5,3.9,60.5,1.4
			c0.4-1,1.4-1.6,2.5-1.3l2.8,0.8c1.1,0.3,1.8,1.5,1.4,2.6c-1,2.9-3.2,8.4-7.2,15.1c4.5,1.1,8.8,2.8,12.6,5.2c1,0.6,1.2,2.1,0.4,3
			l-3.4,3.7C69,31.3,68,31.4,67.1,31c-2.1-1.3-4.5-2.3-6.9-3.1c1.5,4.1,2.7,8.7,3.4,13.8c0.2,1.1-0.6,2.1-1.7,2.2l-3,0.4
			c-1,0.1-2-0.6-2.2-1.7c-0.7-4.9-2-9.6-3.8-14.1c-3.5,4.5-7.8,9.1-13,13.6c-0.9,0.7-2.2,0.6-2.9-0.3l-1.8-2.2
			c-0.7-0.9-0.6-2.1,0.2-2.9c3.9-3.3,7.2-6.8,10-10.2c-16.7,2.2-29.4,16.5-28.9,33.2c0.6,17.8,16,31.8,34.4,31.2
			c18.3-0.6,32.8-15.6,32.2-33.5c-0.2-6.1-2.2-11.8-5.4-16.6c-0.5-0.8-0.4-1.9,0.3-2.5l3.6-3.5c0.9-0.8,2.3-0.7,3,0.3
			c4.4,6.3,7.2,13.8,7.4,22C92.9,80,74.7,99.2,51.4,100z"/>
	</g>
</g>
</svg>
