<?xml version="1.0" encoding="utf-8"?>
<!-- Generator: Adobe Illustrator 25.2.1, SVG Export Plug-In . SVG Version: 6.00 Build 0)  -->
<svg version="1.1" id="Layer_1" xmlns="http://www.w3.org/2000/svg" xmlns:xlink="http://www.w3.org/1999/xlink" x="0px" y="0px"
	 viewBox="0 0 100 100" style="enable-background:new 0 0 100 100;" xml:space="preserve">
<style type="text/css">
	.st0{fill:url(#SVGID_1_);}
	.st1{fill:url(#SVGID_2_);}
	.st2{fill:url(#SVGID_3_);}
</style>
<radialGradient id="SVGID_1_" cx="70.3764" cy="46.7196" r="46.9019" gradientUnits="userSpaceOnUse">
	<stop  offset="0.3787" style="stop-color:#FCA400"/>
	<stop  offset="0.5438" style="stop-color:#F9A405"/>
	<stop  offset="0.7508" style="stop-color:#F0A415"/>
	<stop  offset="0.9793" style="stop-color:#E2A42E"/>
	<stop  offset="1" style="stop-color:#E1A431"/>
</radialGradient>
<circle class="st0" cx="53.9" cy="50" r="41.9"/>
<radialGradient id="SVGID_2_" cx="65.5947" cy="49.504" r="31.4244" gradientUnits="userSpaceOnUse">
	<stop  offset="0.3787" style="stop-color:#E845AA"/>
	<stop  offset="0.5525" style="stop-color:#E540A6"/>
	<stop  offset="0.7703" style="stop-color:#DB309A"/>
	<stop  offset="1" style="stop-color:#CD1887"/>
</radialGradient>
<path class="st1" d="M30.3,73.3c0.1-0.2,0.2-0.3,0.3-0.5c0.2-0.3,0.5-0.6,0.7-1c8.1-9.4,21,4.4,26-1.3c2.2-2.6,0.1-6.5,0.8-7.5
	c0.7-1.1,3-2.3,2.9-3.4c-0.1-1.1-3.1-1.7-2.8-2.1c0.3-0.5,5-1.1,4.3-2.7c-1.1-2.6-2.7-2.8-2.3-4.1c0.5-2,4.1-1.4,5.8-3.3
	c2.2-2.4-0.7-2.1-3.8-6.7c-2.1-3.2-5-7.5-3-11c0.8-1.6-0.2-4.5-0.2-6.2c0-9.2-8-17.7-19.1-16.6c-9.2,0.9-27.8,34.3-22.5,47.7
	c5.3,13.5,11.8,19.1,11.8,19.1L30.3,73.3z"/>
<radialGradient id="SVGID_3_" cx="52.4912" cy="46.3046" r="49.8249" gradientUnits="userSpaceOnUse">
	<stop  offset="0.3787" style="stop-color:#9937AF"/>
	<stop  offset="0.5741" style="stop-color:#9532AB"/>
	<stop  offset="0.8186" style="stop-color:#8922A0"/>
	<stop  offset="1" style="stop-color:#7D1294"/>
</radialGradient>
<path class="st2" d="M73.6,93.3c-5.5,2.3-15.9,4-22.3,4C25.3,97.2,4.1,76.1,4.1,50c0-26.1,21.1-47.2,47.2-47.2
	c2.9,0,5.8,0.3,8.6,0.8c1.2,4.7,1.4,9.7-1.1,14.4c-1,1.8-2.4,3.6-4.4,5.4C44.6,31.9,34.1,34.5,36,44.7c1.9,10.3,8.7,43.2,31.4,47.2
	C70.8,92.5,72.5,92.2,73.6,93.3z"/>
</svg>
