<svg width="834" height="500" viewBox="0 0 834 500" fill="none" xmlns="http://www.w3.org/2000/svg">
<path d="M748.667 283.5C748.667 300.667 734.833 314.667 717.667 314.833C715.667 314.833 713.833 314.833 711.833 314.833C429.5 319.5 488.333 463.833 300.167 406C205.667 377 176.5 339.5 102 317.333C91.8333 314.333 84.6667 305 84.6667 294.333V290.667C84.6667 285 89.1667 280.5 94.8333 280.5H616.833H617H625.333C625.5 280.5 625.833 280.5 626 280.5H683.5C683.667 280.5 684 280.5 684.167 280.5H731.667C731.833 280.5 732.167 280.5 732.333 280.5H744.667H744.833H745.5C747.333 280.5 748.667 281.833 748.667 283.5Z" fill="#E0D5B8"/>
<path d="M234.833 258.833C234.333 258.833 234 259.167 234 259.667V263C234 263.5 234.333 263.833 234.833 263.833C235.333 263.833 235.667 263.5 235.667 263V259.667C235.667 259.167 235.167 258.833 234.833 258.833Z" fill="#224E82"/>
<path d="M299.333 227.5C299.833 227.5 300.167 227.167 300.167 226.667V223.333C300.167 222.833 299.833 222.5 299.333 222.5C298.833 222.5 298.5 222.833 298.5 223.333V226.667C298.5 227.167 298.833 227.5 299.333 227.5Z" fill="#224E82"/>
<path d="M315 235.667C313.167 235.667 311.667 237.167 311.667 239C311.667 240.833 313.167 242.333 315 242.333C316.833 242.333 318.333 240.833 318.333 239C318.333 237.167 316.833 235.667 315 235.667ZM315 240.667C314.167 240.667 313.333 240 313.333 239C313.333 238.167 314 237.333 315 237.333C316 237.333 316.667 238 316.667 239C316.667 240 315.833 240.667 315 240.667Z" fill="#224E82"/>
<path d="M281.5 231.5C281.5 231 281 230.667 280.5 230.833L270.833 232.333L270.667 232.167L265.333 229.167C265.167 228.333 264.333 227.667 263.5 227.833C263 227.833 262.667 228.167 262.333 228.5C262.167 228.833 262 229.333 262 229.667L257.833 234.333L249 235.833C248.833 235.833 248.667 236 248.5 236.167C248.333 236.333 248.333 236.5 248.333 236.833L249.833 245C249.833 245.333 250.167 245.667 250.667 245.667H250.833L282.333 240.667C282.5 240.667 282.667 240.5 282.833 240.333C283 240.167 283 240 283 239.667L281.5 231.5ZM263.167 231.167C263.333 231.167 263.5 231.333 263.667 231.333C263.667 231.333 263.833 231.333 264 231.333C264.333 231.333 264.5 231.167 264.667 231L268.333 233L260.5 234.333L263.167 231.167ZM251.333 244L250.167 237.333L280.167 232.5L281.333 239L251.333 244Z" fill="#224E82"/>
<path d="M235.167 234.333C235 234.333 234.833 234.5 234.667 234.5C234.5 234.5 234.333 234.5 234.167 234.333C234.167 234.333 234 234.333 234 234.167V254.667C234 255.167 234.333 255.5 234.833 255.5C235.333 255.5 235.667 255.167 235.667 254.667V234C235.5 234.167 235.333 234.333 235.167 234.333ZM235.167 234.333C235 234.333 234.833 234.5 234.667 234.5C234.5 234.5 234.333 234.5 234.167 234.333C234.167 234.333 234 234.333 234 234.167V254.667C234 255.167 234.333 255.5 234.833 255.5C235.333 255.5 235.667 255.167 235.667 254.667V234C235.5 234.167 235.333 234.333 235.167 234.333ZM331.5 272.167H328.167V215.667C330.833 214.167 332.5 211.167 332.5 208C332.5 207.5 332.5 206.833 332.5 206.333C332.5 206.167 332.5 206 332.5 205.833L329.833 180.167V176.167C329.833 174.667 329.167 173.5 328.167 172.5C326.833 154.333 307.5 138.333 278.667 131.667H278.333L278 131.833C249.167 138.5 229.667 154.667 228.5 173V173.167C227.833 174 227.333 175.167 227.333 176.333V178.833L223.833 205.667V205.833V206C223.833 206.667 223.833 207.333 223.833 208C223.833 211 225 213.167 227.333 214.5V272.167H225.667C224.833 272.167 224 272.833 224 273.833V278.833C224 279.667 224.667 280.5 225.667 280.5H331.5H331.667C332.5 280.5 333.167 279.667 333.167 278.833V273.833C333.167 272.833 332.333 272.167 331.5 272.167ZM329.167 208C329.167 209.5 328.5 211 327.5 212C326.833 212.333 326.167 212.667 325.333 212.667H324.667C322.167 212.667 320.167 210.5 319.833 207.667H329.167V208ZM329.167 205.833L319.833 206C319.833 205.667 319.833 205.5 319.833 205.167C319.833 205 319.833 205 319.833 204.833V182.833H326.333L327.5 190.5L329.167 205.833ZM278.333 135C304.667 141.167 322.5 155.167 324.667 171.333H232C234.167 155.167 252 141.167 278.333 135ZM230.667 179V178.833V176.333C230.667 175.5 231.5 174.667 232.333 174.667H324.833C325.833 174.667 326.5 175.333 326.5 176.333V180.5V180.667V181.333H230.167L230.667 179ZM308.333 206C308.333 205.667 308.333 205.5 308.333 205.167C308.333 205 308.333 205 308.333 204.833V182.833H318.333V206H308.333ZM318.167 207.667C318 210.5 316.167 212.667 313.833 212.667H313C310.5 212.667 308.5 210.5 308.167 207.667H318.167ZM296.833 206C296.833 205.667 296.833 205.5 296.833 205.167V205V182.833H306.833V206H296.833ZM306.667 207.667C306.333 210.5 304.667 212.667 302.5 212.667H301.667C299.333 212.667 297.333 210.5 296.833 207.667H306.667ZM293.833 211C293.667 211 293.667 211.167 293.5 211.333C292.833 212.167 291.833 212.5 290.667 212.5H290C287.5 212.5 285.5 210.333 285.167 207.5H295C295 209 294.667 210.167 293.833 211ZM285.167 206C285.167 205.667 285.167 205.5 285.167 205.167C285.167 205 285.167 205 285.167 204.833V182.833H295.167V206H285.167ZM273.667 206C273.667 205.667 273.667 205.5 273.667 205.167C273.667 205 273.667 205 273.667 204.833V182.833H283.667V206H273.667ZM283.5 207.667C283.333 210.5 281.5 212.667 279.167 212.667H278.333C275.833 212.667 273.833 210.5 273.5 207.667H283.5ZM262 206C262 205.667 262 205.5 262 205.167C262 205 262 205 262 204.833V182.833H272V206H262ZM272 207.667C271.833 210.5 270 212.667 267.667 212.667H266.833C264.333 212.667 262.333 210.5 262 207.667H272ZM250.5 206C250.5 205.667 250.5 205.5 250.5 205.167C250.5 205 250.5 205 250.5 204.833V182.833H260.5V206H250.5ZM260.333 207.667C260.167 210.5 258.333 212.667 256 212.667H255.167C252.667 212.667 250.667 210.5 250.333 207.667H260.333ZM238.833 206C238.833 205.667 238.833 205.5 238.833 205.167C238.833 205 238.833 205 238.833 204.833V182.833H248.833V206H238.833ZM248.833 207.667C248.667 210.5 246.833 212.667 244.5 212.667H243.667C241.167 212.667 239.167 210.5 238.833 207.667H248.833ZM228.5 195.5L230.667 182.833H237.167V206H227L228.5 195.5ZM227 208V207.667H237.167C237 210.5 234.5 212.667 232.167 212.667H231.167C230.833 212.667 230.667 212.667 230.333 212.5C230.167 212.167 229.833 212 229.5 211.833C227.833 211.167 227 210 227 208ZM230.667 214.167C230.833 214.167 231 214.167 231.167 214.167H232.167C232.833 214.167 233.333 214 234 213.833V254.667C234 255.167 234.333 255.5 234.833 255.5C235.333 255.5 235.667 255.167 235.667 254.667V213.333V213.167C236.667 212.5 237.667 211.5 238.167 210.5C239.333 212.667 241.333 214.333 243.833 214.333H244.667C247 214.333 248.833 212.833 249.833 210.833C251 213 253 214.333 255.5 214.333H256.333C258.667 214.333 260.5 212.833 261.5 210.833C262.667 213 264.667 214.333 267.167 214.333H268C270.333 214.333 272.167 212.833 273.167 210.833C274.333 213 276.333 214.333 278.833 214.333H279.667C282 214.333 283.833 212.833 284.833 210.833C286 213 288 214.333 290.5 214.333H291.333C292.333 214.333 293.167 214 294 213.667V267.333H237C236.5 267.333 236.167 267.667 236.167 268.167C236.167 268.667 236.5 269 237 269H294.833C295.333 269 295.667 268.667 295.667 268.167V212.333C296 211.833 296.333 211.333 296.667 210.667C297.167 211.833 298 212.667 299 213.333V213.5V220.167C299 220.667 299.333 221 299.833 221C300.333 221 300.667 220.667 300.667 220.167V214.167C301.167 214.333 301.667 214.5 302.167 214.5H303C305.167 214.5 307.167 213 308.167 210.833C309.333 213 311.333 214.5 313.833 214.5H314.667C317 214.5 318.833 213 319.833 211C320 211.333 320.333 211.833 320.5 212.167V267.5H300V231.667C300 231.167 299.667 230.833 299.167 230.833C298.667 230.833 298.333 231.167 298.333 231.667V268C298.333 268.5 298.667 268.833 299.167 268.833H320.667C321 268.833 321.333 268.667 321.5 268.333C321.5 268.333 321.5 268.167 321.5 268V213.333C322.5 214 323.5 214.333 324.667 214.333H324.833V272.167H230.5V214.167H230.667ZM227.333 277V275.333H329.833V277H227.333ZM235.167 234.333C235 234.333 234.833 234.5 234.667 234.5C234.5 234.5 234.333 234.5 234.167 234.333C234.167 234.333 234 234.333 234 234.167V254.667C234 255.167 234.333 255.5 234.833 255.5C235.333 255.5 235.667 255.167 235.667 254.667V234C235.5 234.167 235.333 234.333 235.167 234.333Z" fill="#224E82"/>
<path d="M329.833 275.333H227.333V277H329.833V275.333Z" fill="white"/>
<path d="M329.333 207.667V208C329.333 209.5 328.667 211 327.667 212C327 212.333 326.333 212.667 325.5 212.667H324.833C322.333 212.667 320.333 210.5 320 207.667H329.333Z" fill="#A9C0D8"/>
<path d="M329.167 205.833L319.833 206C319.833 205.667 319.833 205.5 319.833 205.167C319.833 205 319.833 205 319.833 204.833V182.833H326.333L327.5 190.5L329.167 205.833Z" fill="#A9C0D8"/>
<path d="M306.667 207.667C306.333 210.5 304.667 212.667 302.5 212.667H301.667C299.333 212.667 297.333 210.5 296.833 207.667H306.667Z" fill="#A9C0D8"/>
<path d="M306.667 182.833V206H296.667C296.667 205.667 296.667 205.5 296.667 205.167V205V182.833H306.667Z" fill="#A9C0D8"/>
<path d="M283.5 207.667C283.333 210.5 281.5 212.667 279.167 212.667H278.333C275.833 212.667 273.833 210.5 273.5 207.667H283.5Z" fill="#A9C0D8"/>
<path d="M283.5 182.833V206H273.667C273.667 205.667 273.667 205.5 273.667 205.167C273.667 205 273.667 205 273.667 204.833V182.833H283.5Z" fill="#A9C0D8"/>
<path d="M260.333 207.667C260.167 210.5 258.333 212.667 256 212.667H255.167C252.667 212.667 250.667 210.5 250.333 207.667H260.333Z" fill="#A9C0D8"/>
<path d="M260.333 182.833V206H250.5C250.5 205.667 250.5 205.5 250.5 205.167C250.5 205 250.5 205 250.5 204.833V182.833H260.333Z" fill="#A9C0D8"/>
<path d="M237.167 207.667C237 210.5 234.5 212.667 232.167 212.667H231.167C230.833 212.667 230.667 212.667 230.333 212.5C230.167 212.167 229.833 212 229.5 211.833C227.667 211.167 227 210 227 207.833V207.5H237.167V207.667Z" fill="#A9C0D8"/>
<path d="M237.167 182.833V206H227L228.333 195.5L230.5 182.833H237.167Z" fill="#A9C0D8"/>
<path d="M315 240.667C315.833 240.667 316.667 240 316.667 239C316.667 238.167 316 237.333 315 237.333C314.167 237.333 313.333 238 313.333 239C313.333 240 314 240.667 315 240.667Z" fill="#A9C0D8"/>
<path d="M281.167 239.167L251.167 244L250 237.333L280 232.5L281.167 239.167Z" fill="#A9C0D8"/>
<path d="M284.5 148.333C284.333 148.167 284.167 148.167 284 148.333L283.333 149C283.167 149.167 283.167 149.333 283.333 149.5C284 150.5 284.333 151.5 284.333 152.833C284.5 156.333 281.667 159.167 278 159.333C274.333 159.5 271.333 156.667 271.333 153.167C271.167 149.833 273.667 147.167 277 146.667C276.5 147.333 275.833 148 275 148.667C274.833 148.833 274.833 149 275 149.167L275.333 149.667C275.5 149.833 275.667 149.833 275.833 149.667C276.833 148.833 277.667 147.833 278.333 147C278.667 147.833 279 148.833 279 149.667C279 149.833 279.167 150 279.5 150H280C280.167 150 280.333 149.833 280.333 149.5C280.167 148.5 280 147.667 279.667 146.833C280.167 147 280.667 147.167 281 147.333C281.167 147.5 281.333 147.333 281.5 147.333L282.167 146.667C282.333 146.5 282.333 146.167 282.167 146.167C281.5 145.667 280.667 145.333 279.667 145.167C280.5 143.833 280.833 142.833 281 142.167C281 142 281 141.667 280.667 141.667L280.167 141.5C280 141.5 279.833 141.5 279.667 141.667C279.5 142.167 279.167 143.167 278.333 144.333C277.5 143 276.5 142.167 276.167 141.833C276 141.667 275.667 141.667 275.667 141.833L275.333 142.333C275.167 142.5 275.333 142.667 275.333 142.833C275.667 143.167 276.167 143.667 276.833 144.5C276.833 144.667 277 144.667 277 144.833C272.667 145.167 269.167 148.833 269.333 153.167C269.5 157.667 273.333 161.167 277.833 161C282.333 160.833 286 157.167 285.833 152.667C286 151 285.333 149.5 284.5 148.333Z" fill="#224E82"/>
<path d="M194.833 247.833C192.667 241 186.5 232.167 181.167 226.333C181.833 226.5 182.333 226.5 183 226.667C183.5 226.833 184.167 226.833 184.667 227C187.333 227.5 190 227.833 192.667 228.167C193.333 228.167 194 228.333 194.667 228.333C195.167 228.333 195.833 228.5 196.333 228.5C197.667 230 198.667 231.5 199.167 233.167C201.833 240.667 196.833 248 196.667 248.333C196.5 248.667 196.167 248.833 195.833 248.833H195.667C195.333 248.5 195 248.167 194.833 247.833Z" fill="#C8D9E8"/>
<path d="M200.333 228.667C201 228.667 201.667 228.833 202.333 228.833C203 228.833 203.667 228.833 204.167 229C204.333 229 204.333 229 204.5 229C204.833 229 205.333 229 205.667 229C206 229 206.5 229 206.833 229C207.667 231.167 208.167 232.833 208.167 233C208.333 233.5 208.167 234 207.667 234.333C207.5 234.5 207.333 234.5 207.167 234.5C206.833 234.5 206.667 234.333 206.5 234.167C204.5 232 202.5 230.167 200.333 228.667Z" fill="#C8D9E8"/>
<path d="M180.5 186.333C180.667 186.333 180.833 186.167 180.833 186C180.833 184 179.167 182.333 177.167 182.333C177.167 182.333 176 182.333 175.167 182.5C175 182.5 174.833 182.833 174.833 183C174.833 183.167 175.167 183.333 175.333 183.333C176 183.167 177.167 183.167 177.167 183.167C178.667 183.167 180 184.5 180 186C180 186.167 180.167 186.333 180.5 186.333ZM191.667 193C191.167 193 190.833 193.333 190.833 193.833C190.833 194.333 191.167 194.667 191.667 194.667C192.167 194.667 192.5 194.333 192.5 193.833C192.5 193.333 192.167 193 191.667 193Z" fill="#224E82"/>
<path d="M177.5 194.667H183.333C183.833 194.667 184.167 194.333 184.167 193.833C184.167 193.333 183.833 193 183.333 193H177.5C174.833 193 172.5 190.833 172.5 188C172.5 185.5 174.333 183.5 176.833 183.167C177 183.167 177.167 183 177.333 182.833C177.5 182.667 177.5 182.5 177.5 182.167C177.5 182 177.5 181.667 177.5 181.333C177.5 178.667 179.667 176.333 182.5 176.333C183.833 176.333 185.167 176.833 186.167 178C186.333 178.167 186.667 178.333 187 178.167C187.333 178.167 187.5 177.833 187.667 177.5C188.167 174.833 190.667 173 193.333 173C196.5 173 199.167 175.667 199.167 178.833C199.167 179 199.167 179.333 199.167 179.5C199.167 179.833 199.333 180.167 199.5 180.333C199.833 180.5 200.167 180.5 200.5 180.333C201.167 179.833 201.833 179.667 202.5 179.667C204.167 179.667 205.5 180.833 205.667 182.333C205.667 182.833 206.167 183 206.667 183C206.833 183 207.167 183 207.5 183C210.167 183 212.5 185.167 212.5 188C212.5 190.667 210.333 193 207.5 193H195C194.5 193 194.167 193.333 194.167 193.833C194.167 194.333 194.5 194.667 195 194.667H207.333C211 194.667 214 191.667 214 188C214 184.333 211 181.333 207.333 181.333C207.167 181.333 207.167 181.333 207 181.333C206.333 179.333 204.5 178 202.333 178C201.833 178 201.167 178.167 200.667 178.333C200.333 174.5 197.167 171.5 193.167 171.5C190.167 171.5 187.5 173.333 186.333 176C185.167 175.167 183.833 174.667 182.5 174.667C178.833 174.667 175.833 177.667 175.833 181.333V181.5C173 182.167 170.833 184.833 170.833 187.833C171 191.667 174 194.667 177.5 194.667Z" fill="#224E82"/>
<path d="M186.667 193C187 193 188 193 188.333 193C188.833 193 189.167 193.333 189.167 193.833C189.167 194.333 188.833 194.667 188.333 194.667C188 194.667 187 194.667 186.667 194.667C186.167 194.667 185.833 194.333 185.833 193.833C185.833 193.333 186.167 193 186.667 193Z" fill="#224E82"/>
<path d="M207.333 269.5C207.333 269.5 181.5 258.5 178.667 222.333C174.333 222.333 175.833 222.333 175.833 222.333C175.833 222.333 177.333 256.833 194.5 271C201.5 271 207.333 269.5 207.333 269.5Z" fill="#E0D5B8"/>
<path d="M207.667 268.333C207.667 268.333 205 267.167 201.5 264.5C194.167 259.167 182.833 247.333 180.167 226C180.167 225.667 180 225.167 180 224.833C180 224.333 179.833 223.667 179.833 223C179.833 222.667 179.833 222.5 179.833 222.167C179.833 222 179.833 222 179.833 221.833C179.667 221.333 179.333 221 178.833 221H175.667C175.167 221 174.833 221.333 174.667 221.833C174.667 222 174.667 222 174.667 222.167V222.333C174.667 222.5 174.833 222.667 174.833 222.833C174.833 223.167 174.833 223.5 174.833 223.833C174.833 224.167 174.833 224.333 174.833 224.667C174.833 225 174.833 225.167 174.833 225.5C175.5 233.167 178.167 251.333 187 264.167C189 267 191.167 269.5 193.667 271.667C193.833 271.833 194 271.833 194.333 271.833C201.5 271.833 207.333 270.333 207.5 270.167C208 270 208.333 269.667 208.333 269.167C208.333 269 208.167 268.5 207.667 268.333ZM194.667 269.833C192.833 268.333 191.167 266.5 189.667 264.5C180.333 252.167 177.667 233 177 225.5C177 224.667 176.833 224 176.833 223.5H177.667C177.667 224.167 177.833 225 177.833 225.667C180.333 246.167 190.333 258.167 197.833 264.5C200.167 266.5 202.333 268 204 269C201.833 269.333 198.5 269.833 194.667 269.833Z" fill="#224E82"/>
<path d="M207.333 233.333C207.333 233.333 198.667 200.333 177.167 220.833C185.833 220.833 197.333 222.333 207.333 233.333Z" fill="white"/>
<path d="M208.333 233C208.333 232.833 207.833 231.167 207 229C205 224 201 215.833 194 213.667C188.833 212 183.167 213.833 177.167 219.333C177 219.5 176.833 219.667 176.667 219.833L176.5 220C176.5 220 176.5 220 176.5 220.167C176.5 220.167 176.333 220.333 176.333 220.5C176.333 220.667 176.333 220.833 176.333 221V221.167V221.333C176.333 221.333 176.333 221.333 176.333 221.5C176.333 221.5 176.333 221.667 176.5 221.667C176.5 221.667 176.5 221.833 176.667 221.833C176.833 222 177 222 177.167 222H177.667C178 222 178.167 222 178.5 222C178.833 222 179.167 222 179.667 222C180.833 222 182.167 222.167 183.333 222.333C185.333 222.5 187.5 223 189.833 223.667C193.333 224.667 196.833 226.167 200.333 228.667C202.5 230.167 204.5 232 206.667 234.167C206.833 234.333 207.167 234.5 207.333 234.5C207.5 234.5 207.667 234.5 207.833 234.333C208.333 234 208.5 233.5 208.333 233ZM204.833 229.333C204.667 229.167 204.5 229 204.333 228.833C196 221.667 187.167 220 180.167 219.667C183.833 216.667 187.167 215.333 190.333 215.333C191.333 215.333 192.333 215.5 193.333 215.833C199 217.667 202.667 224.333 204.5 229C204.667 229 204.833 229.167 204.833 229.333Z" fill="#224E82"/>
<path d="M195.833 247.5C195.833 247.5 210.167 227 177.167 220.833C183 225.5 193 238 195.833 247.5Z" fill="white"/>
<path d="M199.167 233C198.5 231.333 197.667 229.667 196.333 228.333C194.667 226.5 192.5 225 189.833 223.667C188 222.667 185.833 221.833 183.5 221.167C181.833 220.667 180 220.167 178.167 219.833C178 219.833 177.833 219.833 177.667 219.667H177.5C177.333 219.667 177.333 219.667 177.167 219.667C177 219.667 177 219.667 176.833 219.667C176.667 219.667 176.5 219.833 176.333 220C176.333 220 176.167 220.167 176.167 220.333C176.167 220.5 176.167 220.667 176.167 220.833V221V221.167C176.167 221.167 176.167 221.167 176.167 221.333C176.167 221.333 176.167 221.5 176.333 221.5C176.333 221.5 176.333 221.667 176.5 221.667L176.667 221.833C176.833 222 177 222.167 177.167 222.167C177.667 222.5 178 223 178.5 223.5C178.833 223.833 179.333 224.333 179.667 224.667C180.167 225.167 180.5 225.5 181 226C186.333 231.833 192.5 240.667 194.667 247.5C194.833 247.833 195.167 248.167 195.5 248.333H195.667C196 248.333 196.333 248.167 196.5 247.833C196.833 247.833 201.833 240.667 199.167 233ZM196 244.833C193.667 238.833 189 232 184.5 226.833C183.333 225.333 182 224 180.833 222.833C185.833 224.167 189.667 225.833 192.5 228C194.667 229.667 196.333 231.667 197 234C198.833 238.167 197.167 242.5 196 244.833Z" fill="#224E82"/>
<path d="M148.5 233.333C148.5 233.333 155.667 200.333 177.167 220.833C168.5 220.833 158.5 222.333 148.5 233.333Z" fill="white"/>
<path d="M178.167 220.5C178.167 220.333 178.167 220.333 178 220.167C178 220.167 178 220 177.833 220C177.833 220 177.833 220 177.667 219.833L177.5 219.667C177.333 219.5 177.167 219.333 177 219.167C170.833 213.667 165.333 211.667 160.333 213.5C157.333 214.5 155 216.833 153.167 219.333C149 225 147.333 232.5 147.167 233C147 233.5 147.333 234 147.667 234.333C147.833 234.333 148 234.5 148.167 234.5C148.5 234.5 148.667 234.333 148.833 234.167C154.5 228 160 224.833 165.333 223.333C165.667 223.167 166 223.167 166.167 223.167C167.833 222.667 169.333 222.5 170.833 222.333C172 222.167 173 222.167 174 222C174.667 222 175.167 222 175.833 222C176 222 176.167 222 176.333 222H176.667C177 222 177.333 221.833 177.5 221.667C177.5 221.667 177.667 221.5 177.667 221.333V221.167V221C178.167 220.667 178.167 220.5 178.167 220.5ZM162.5 222C158.667 223.5 154.667 225.833 150.833 229.5C151.833 226.667 153.333 223 155.667 220C157.167 218 159 216.5 161.333 215.667C165.167 214.333 169.5 215.667 174.333 219.5C170.5 219.833 166.5 220.5 162.5 222Z" fill="#224E82"/>
<path d="M161.333 247.5C161.333 247.5 147.667 226.333 177.167 220.833C173 226.167 165.667 238.667 161.333 247.5Z" fill="white"/>
<path d="M178.167 220.5C178.167 220.333 178.167 220.333 178 220.167C178 220.167 178 220 177.833 220C177.833 220 177.833 220 177.667 219.833C177.5 219.667 177.5 219.667 177.333 219.667C177.167 219.667 177.167 219.667 177 219.667H176.833C176.833 219.667 176.833 219.667 176.667 219.667H176.5C176.333 219.667 176.167 219.667 176 219.833C174.167 220.167 172.5 220.667 171 221.167C169.167 221.667 167.667 222.333 166.167 223.167C166 223.333 165.833 223.333 165.5 223.5C161.667 225.667 159.167 228.333 157.833 231.667C154.833 239.667 160 247.833 160.167 248.167C160.333 248.5 160.667 248.667 161 248.667C161.333 248.667 161.667 248.333 161.833 248C165 241.5 170.333 232.167 174.5 225.833C174.667 225.667 174.833 225.333 175 225.167C175.167 225 175.333 224.667 175.5 224.5C176 223.833 176.5 223 177 222.5C177.167 222.333 177.167 222.167 177.333 222.167C177.5 222 177.5 221.833 177.667 221.833C177.667 221.833 177.833 221.667 177.833 221.5V221.333V221.167C178.167 220.667 178.167 220.5 178.167 220.5ZM160 232.5C161.333 228.833 164.667 226 169.833 224C171.167 223.5 172.667 223 174.333 222.667C174.333 222.667 174.333 222.667 174.5 222.667C174.5 222.667 174.5 222.667 174.5 222.833C174 223.5 173.667 224.167 173.167 224.833C169.333 230.667 164.667 239 161.333 245.333C160.167 242.5 158.167 237.333 160 232.5Z" fill="#224E82"/>
<path d="M213.667 264.5H178.333V277.167H213.667V264.5Z" fill="white" stroke="#224E82" stroke-width="2" stroke-miterlimit="10" stroke-linejoin="round"/>
<path d="M250.5 278.667C250.5 279.5 249.833 280.333 249 280.333H148.5C147.667 280.333 147 279.667 147 278.667C147 277.833 147.667 277 148.5 277H249C249.667 277 250.5 277.833 250.5 278.667Z" fill="#224E82"/>
<path d="M608.167 121.5C608.167 123.167 607.833 124.333 607 125.167C606.167 126 605 126.5 603.333 126.5C602.667 126.5 602 126.333 601.333 126C600.833 125.667 600.333 125.167 599.833 124.667C599 126 597.667 126.5 595.667 126.5C594.667 126.5 593.833 126.167 593 125.5V126C593 127 592.833 127.833 592.5 128.667C592.167 129.5 591.833 130.333 591.167 131C590.5 131.667 589.833 132.333 588.833 132.667C587.833 133.167 586.833 133.333 585.5 133.333H581C579.833 133.333 578.833 133.167 577.833 133C577 132.667 576.167 132.333 575.5 131.667C574.833 131 574.333 130.333 574.167 129.333C573.833 128.333 573.667 127.167 573.667 125.833V120H576.667V126.167C576.667 127.667 577 128.667 577.833 129.5C578.667 130.333 579.833 130.667 581.333 130.667H585.167C586.667 130.667 587.833 130.333 588.667 129.5C589.5 128.667 589.833 127.667 589.833 126.167V117.167H592.833V121.667C592.833 122.333 593 122.833 593.5 123.167C594 123.5 594.5 123.667 595.167 123.667C595.667 123.667 596.167 123.5 596.667 123.167C597.167 122.833 597.333 122.333 597.333 121.667V117.167H600.333V121.667C600.333 122.333 600.5 122.833 601 123.167C601.5 123.5 602 123.667 602.667 123.667C603.333 123.667 603.833 123.5 604.167 123.167C604.667 122.833 604.833 122.333 604.833 121.667V117.167H607.833V121.5H608.167ZM594.5 112.333C594.5 111.833 594.667 111.333 595 111C595.333 110.667 595.833 110.5 596.333 110.5C596.833 110.5 597.333 110.667 597.667 111C598 111.333 598.167 111.833 598.167 112.333C598.167 112.833 598 113.333 597.667 113.667C597.333 114 596.833 114.167 596.333 114.167C595.833 114.167 595.333 114 595 113.667C594.667 113.333 594.5 112.833 594.5 112.333ZM597 108.333C597 107.833 597.167 107.333 597.5 107C597.833 106.667 598.333 106.5 598.833 106.5C599.333 106.5 599.833 106.667 600.167 107C600.5 107.333 600.667 107.833 600.667 108.333C600.667 108.833 600.5 109.333 600.167 109.667C599.833 110 599.333 110.167 598.833 110.167C598.333 110.167 597.833 110 597.5 109.667C597.167 109.333 597 108.833 597 108.333ZM599.667 112.333C599.667 111.833 599.833 111.333 600.167 111C600.5 110.667 601 110.5 601.5 110.5C602 110.5 602.5 110.667 602.833 111C603.167 111.333 603.333 111.833 603.333 112.333C603.333 112.833 603.167 113.333 602.833 113.667C602.5 114 602 114.167 601.5 114.167C601 114.167 600.5 114 600.167 113.667C600 113.333 599.667 112.833 599.667 112.333Z" fill="#0E4D80"/>
<path d="M607 131C608.833 131 610.167 130.667 611 129.833C611.833 129.167 612.333 128 612.333 126.667V117.333H615.5V126C615.5 127.167 615.333 128.167 615 129.167C614.667 130.167 614.167 131 613.5 131.667C612.833 132.333 612.167 133 611.167 133.333C610.333 133.667 609.167 134 608.167 133.833H605.833L605.333 130.833H607V131ZM612 112.333C612 111.833 612.167 111.333 612.5 111C612.833 110.667 613.333 110.5 613.833 110.5C614.333 110.5 614.833 110.667 615.167 111C615.5 111.333 615.667 111.833 615.667 112.333C615.667 112.833 615.5 113.333 615.167 113.667C614.833 114 614.333 114.167 613.833 114.167C613.333 114.167 612.833 114 612.5 113.667C612.167 113.333 612 112.833 612 112.333Z" fill="#0E4D80"/>
<path d="M629.667 126.5C629.667 127.5 629.333 128.333 629 129.167C628.667 130 628.167 130.833 627.5 131.5C626.833 132.167 626.167 132.833 625.167 133.167C624.333 133.667 623.333 133.833 622.167 133.833H618.333L617.833 130.833H621.833C623.333 130.833 624.333 130.5 625.333 129.667C626.167 128.833 626.667 127.833 626.667 126.333C625.333 126.333 624.333 126.333 623.333 126.167C622.333 126 621.667 125.833 621 125.333C620.333 125 620 124.333 619.667 123.667C619.333 123 619.167 122 619.167 120.833C619.167 118.833 619.5 117.333 620.333 116.167C621.167 115 622.333 114.5 624.167 114.5C625.333 114.5 626.167 114.667 626.833 115C627.5 115.333 628 115.833 628.5 116.333C628.833 117 629.167 117.667 629.333 118.333C629.5 119.167 629.5 120 629.5 120.833V123.167H631V126.167H629.667V126.5ZM626.667 120.667C626.667 118.667 625.833 117.833 624.333 117.833C623.5 117.833 623 118.167 622.667 118.667C622.333 119.167 622.167 119.667 622.167 120.333V121.167C622.167 121.667 622.167 122.167 622.333 122.5C622.5 122.833 622.667 123.167 623 123.333C623.333 123.5 623.833 123.667 624.333 123.667C624.833 123.667 625.667 123.833 626.5 123.833V120.667H626.667Z" fill="#0E4D80"/>
<path d="M630.167 123.833C630.167 123.667 630.333 123.667 630.5 123.667C630.667 123.667 630.833 123.667 631.167 123.667H636.833C637.333 123.667 637.667 123.667 638 123.5C638.333 123.333 638.5 123.167 638.667 123C638.833 122.833 639 122.5 639 122.333C639 122 639 121.833 639 121.5V117.5H642V122C642 123.5 641.667 124.667 641 125.5C640.333 126.333 639.167 126.833 637.833 126.833H631.167C631 126.833 630.833 126.833 630.5 126.833C630.333 126.833 630.167 126.667 630.167 126.667V123.833ZM631.167 131.5C631.167 131 631.333 130.5 631.667 130.167C632 129.833 632.5 129.667 633 129.667C633.5 129.667 634 129.833 634.333 130.167C634.667 130.5 634.833 131 634.833 131.5C634.833 132 634.667 132.5 634.333 132.833C634 133.167 633.5 133.333 633 133.333C632.5 133.333 632 133.167 631.667 132.833C631.5 132.5 631.167 132.167 631.167 131.5ZM633.667 135.667C633.667 135.167 633.833 134.667 634.167 134.333C634.5 134 635 133.833 635.5 133.833C636 133.833 636.5 134 636.833 134.333C637.167 134.667 637.333 135.167 637.333 135.667C637.333 136.167 637.167 136.667 636.833 137C636.5 137.333 636 137.5 635.5 137.5C635 137.5 634.5 137.333 634.167 137C633.833 136.667 633.667 136.167 633.667 135.667ZM636.167 131.5C636.167 131 636.333 130.5 636.667 130.167C637 129.833 637.5 129.667 638 129.667C638.5 129.667 639 129.833 639.333 130.167C639.667 130.5 639.833 131 639.833 131.5C639.833 132 639.667 132.5 639.333 132.833C639 133.167 638.5 133.333 638 133.333C637.5 133.333 637 133.167 636.667 132.833C636.333 132.5 636.167 132.167 636.167 131.5Z" fill="#0E4D80"/>
<path d="M665.833 117.167H668.833V122.333C669 122.833 669.167 123 669.667 123.333C670.167 123.5 670.667 123.667 671.5 123.667C671.833 122.833 672.333 121.833 672.833 120.833C673.333 119.833 674 119 674.833 118.167C675.5 117.333 676.333 116.667 677.167 116.167C678 115.667 679 115.333 679.833 115.333C680.667 115.333 681.5 115.5 682 115.833C682.5 116.167 683.167 116.667 683.5 117.167C683.833 117.667 684.167 118.333 684.333 119C684.5 119.667 684.667 120.5 684.667 121.167C684.667 123 684.167 124.333 683.333 125.333C682.5 126.333 681.167 126.667 679.5 126.667H671.5C670.833 126.667 670.167 126.5 669.667 126.333C669.167 126.167 668.833 125.833 668.5 125.5V126C668.5 127 668.333 127.833 668 128.667C667.667 129.5 667.333 130.333 666.667 131C666 131.667 665.333 132.333 664.333 132.667C663.333 133.167 662.333 133.333 661 133.333H656.5C655.333 133.333 654.333 133.167 653.333 133C652.5 132.667 651.667 132.333 651 131.667C650.333 131 649.833 130.333 649.667 129.333C649.333 128.333 649.167 127.167 649.167 125.833V120H652.167V126.167C652.167 127.667 652.5 128.667 653.333 129.5C654.167 130.333 655.333 130.667 656.833 130.667H660.667C662.167 130.667 663.333 130.333 664.167 129.5C665 128.667 665.333 127.667 665.333 126.167V117.167H665.833ZM670.167 111.167C670.167 110.667 670.333 110.167 670.667 109.833C671 109.5 671.5 109.333 672 109.333C672.5 109.333 673 109.5 673.333 109.833C673.667 110.167 673.833 110.667 673.833 111.167C673.833 111.667 673.667 112.167 673.333 112.5C673 112.833 672.5 113 672 113C671.5 113 671 112.833 670.667 112.5C670.333 112.167 670.167 111.667 670.167 111.167ZM680.167 123.5C680.833 123.5 681.167 123.167 681.5 122.667C681.833 122.167 682 121.5 682 120.833C682 119.833 681.833 119.167 681.5 118.833C681.167 118.333 680.667 118.167 680.167 118.167C679.5 118.167 679 118.333 678.333 118.833C677.833 119.167 677.167 119.667 676.833 120.333C676.333 120.833 675.833 121.5 675.5 122.167C675.167 122.833 674.833 123.333 674.667 123.667H680.167V123.5Z" fill="#0E4D80"/>
<path d="M694.667 126.5C694.167 126.5 693.667 126.333 693.167 126.167C692.833 126 692.5 125.667 692.167 125.167V126C692.167 127.167 692 128.167 691.667 129.167C691.333 130.167 690.833 131 690.167 131.667C689.5 132.333 688.833 133 687.833 133.333C687 133.667 685.833 134 684.833 133.833H682.5L682 130.833H683.833C685.667 130.833 687 130.5 687.833 129.667C688.667 129 689.167 127.833 689.167 126.5V117.167H692.333V122C692.5 122.5 692.667 122.833 693.167 123C693.667 123.167 694.167 123.333 694.833 123.333H695.667V126.333H694.667V126.5Z" fill="#0E4D80"/>
<path d="M694.667 123.833C694.667 123.667 694.833 123.667 695 123.667C695.167 123.667 695.333 123.667 695.667 123.667H699.167C698.833 123 698.667 122.5 698.5 121.833C698.333 121.167 698.333 120.667 698.333 120C698.333 119.333 698.5 118.5 698.667 117.833C698.833 117.167 699.167 116.667 699.667 116.167C700.167 115.667 700.667 115.333 701.167 115C701.667 114.667 702.5 114.667 703.167 114.667C704 114.667 705 114.833 706 115.167C707 115.5 707.833 116.167 708.667 117L707.167 119.333C705.667 118.167 704.333 117.5 703.333 117.5C703 117.5 702.5 117.667 702.333 117.833C702 118 701.833 118.167 701.667 118.5C701.5 118.833 701.333 119 701.333 119.333C701.167 119.667 701.167 120 701.167 120.333C701.167 120.667 701.167 121 701.333 121.5C701.5 121.833 701.5 122.167 701.833 122.5C702 122.833 702.333 123 702.5 123.333C702.833 123.5 703.167 123.667 703.5 123.667H709.333L709.833 126.667H695.667C695.5 126.667 695.333 126.667 695 126.667C694.833 126.667 694.667 126.5 694.667 126.5V123.833Z" fill="#0E4D80"/>
<path d="M722.167 126.5C720.667 126.5 719.5 126.167 718.667 125.333C717.833 124.5 717.333 123.333 717.333 121.667V107.667H720.333V121.167C720.333 122.167 720.5 122.833 721 123C721.333 123.333 722 123.5 722.667 123.5H723.333V126.5H722.167Z" fill="#0E4D80"/>
<path d="M722.333 123.833C722.333 123.667 722.5 123.667 722.667 123.667C722.833 123.667 723 123.667 723.333 123.667H727.167C727.667 123.667 728 123.667 728.333 123.5C728.667 123.333 728.833 123.167 729 123C729.167 122.833 729.333 122.5 729.333 122.333C729.333 122 729.333 121.833 729.333 121.5V117.5H732.333V122C732.333 123.5 732 124.667 731.333 125.5C730.667 126.333 729.5 126.833 728 126.833H723.167C723 126.833 722.833 126.833 722.5 126.833C722.333 126.833 722.167 126.667 722.167 126.667V123.833H722.333ZM724 131.667C724 131.167 724.167 130.667 724.5 130.333C724.833 130 725.333 129.833 725.833 129.833C726.333 129.833 726.833 130 727.167 130.333C727.5 130.667 727.667 131.167 727.667 131.667C727.667 132.167 727.5 132.667 727.167 133C726.833 133.333 726.333 133.5 725.833 133.5C725.333 133.5 724.833 133.333 724.5 133C724.167 132.667 724 132.167 724 131.667Z" fill="#0E4D80"/>
<path d="M383.167 183C382 183 381.167 182.833 380.667 182.5C380.167 182.167 379.5 181.833 379 181.333C378.5 181.833 378 182.167 377.333 182.5C376.667 182.833 376 183 375 183H365.333L364.833 178.667H375C375.167 178.667 375.333 178.667 375.5 178.5C375.667 178.333 375.667 178.333 375.667 178.167C375.667 178 375.667 177.833 375.5 177.667L368.667 170.333L371.833 167.167L381 177C381.5 177.5 382 178 382.333 178.167C382.667 178.333 383.167 178.5 383.5 178.5H383.833V182.833H383.167V183Z" fill="#0E4D80"/>
<path d="M381.333 188.667C381.333 188 381.5 187.5 382 187C382.5 186.5 383 186.333 383.667 186.333C384.333 186.333 384.833 186.5 385.333 187C385.833 187.5 386 188 386 188.667C386 189.333 385.833 189.833 385.333 190.333C384.833 190.833 384.333 191 383.667 191C383 191 382.5 190.833 382 190.333C381.5 189.833 381.333 189.333 381.333 188.667ZM382.5 178.833C382.5 178.667 382.667 178.667 382.833 178.667C383 178.667 383.167 178.667 383.5 178.667H387.833C388.667 178.667 389.167 178.167 389.167 177.333V172.667H393.5V177.833C393.5 178.5 393.333 179.167 393.167 179.833C393 180.5 392.667 181 392.167 181.5C391.667 182 391.167 182.333 390.667 182.667C390.167 183 389.5 183.167 388.833 183.167H383.333C383.167 183.167 383 183.167 382.667 183.167C382.5 183.167 382.333 183 382.333 183V178.833H382.5ZM386.833 188.667C386.833 188 387 187.5 387.5 187C388 186.5 388.5 186.333 389.167 186.333C389.833 186.333 390.333 186.5 390.833 187C391.333 187.5 391.5 188 391.5 188.667C391.5 189.333 391.333 189.833 390.833 190.333C390.333 190.833 389.833 191 389.167 191C388.5 191 388 190.833 387.5 190.333C387 189.833 386.833 189.333 386.833 188.667Z" fill="#0E4D80"/>
<path d="M396.667 183L396.167 178.667H406.333C406.5 178.667 406.667 178.667 406.833 178.5C407 178.333 407 178.333 407 178.167C407 178 407 177.833 406.833 177.667L400 170.333L403.167 167.167L410 174.333C410.667 175 411 175.667 411.333 176.333C411.667 177 411.667 177.833 411.667 178.5C411.667 179.167 411.5 179.667 411.333 180.167C411.167 180.667 410.833 181.167 410.333 181.667C409.833 182 409.333 182.333 408.833 182.667C408.167 182.833 407.5 183 406.667 183H396.667Z" fill="#0E4D80"/>
<path d="M426.167 183C426.167 184 425.833 185 425.333 185.833C424.833 186.667 424.333 187.5 423.5 188.167C422.833 188.833 422 189.333 421 189.667C420 190 419.167 190.167 418.167 190.167H415L414.5 185.833H417.833C418.833 185.833 419.667 185.667 420.333 185.167C421.167 184.667 421.667 184 421.833 183C420.667 183 419.667 182.833 418.833 182.667C418 182.5 417.167 182.167 416.5 181.667C415.833 181.167 415.333 180.5 415 179.667C414.667 178.833 414.5 177.833 414.5 176.667C414.5 174.333 415 172.667 415.833 171.5C416.833 170.333 418.167 169.667 420.167 169.667C421 169.667 421.833 169.833 422.5 170.167C423.167 170.5 423.833 170.833 424.333 171.5C424.833 172.167 425.333 172.833 425.5 173.833C425.833 174.833 426 175.833 426 177.167V178.667H427.5V183H426.167ZM421.667 178.5V176C421.667 175.333 421.5 174.667 421.167 174.333C420.833 174 420.5 173.833 420 173.833C419.333 173.833 419 174 418.833 174.333C418.667 174.667 418.5 175.167 418.5 175.667C418.5 176.5 418.667 177.167 419.167 177.5C419.667 178 420.333 178.167 421.333 178.167H421.667V178.5Z" fill="#0E4D80"/>
<path d="M426.833 178.833C426.833 178.667 427 178.667 427.167 178.667C427.333 178.667 427.5 178.667 427.833 178.667H432.167C433 178.667 433.5 178.167 433.5 177.333V172.667H437.833V177.833C437.833 178.5 437.667 179.167 437.5 179.833C437.333 180.5 437 181 436.5 181.5C436 182 435.5 182.333 435 182.667C434.5 183 433.833 183.167 433.167 183.167H427.833C427.667 183.167 427.5 183.167 427.167 183.167C427 183.167 426.833 183 426.833 183V178.833ZM431.333 188.667C431.333 188 431.5 187.5 432 187C432.5 186.5 433 186.333 433.667 186.333C434.333 186.333 434.833 186.5 435.333 187C435.833 187.5 436 188 436 188.667C436 189.333 435.833 189.833 435.333 190.333C434.833 190.833 434.333 191 433.667 191C433 191 432.5 190.833 432 190.333C431.5 189.833 431.333 189.333 431.333 188.667Z" fill="#0E4D80"/>
<path d="M464.833 182.5C464.833 183.667 464.667 184.667 464.167 185.5C463.667 186.5 463.167 187.167 462.5 188C461.833 188.667 461 189.167 460 189.667C459 190 458 190.167 457 190.167H452C450.833 190.167 449.833 190 449 189.5C448.167 189 447.333 188.5 446.833 187.833C446.333 187.167 445.833 186.333 445.5 185.333C445.167 184.333 445 183.333 445 182.333V175.333H449.333V182.167C449.333 182.667 449.5 183 449.667 183.5C449.833 184 450.167 184.333 450.5 184.667C450.833 185 451.167 185.333 451.667 185.5C452.167 185.667 452.667 185.833 453.167 185.833H456.5C457.833 185.833 458.833 185.5 459.5 184.833C460.167 184.167 460.5 183.333 460.5 182.167V172.5H464.833V182.5ZM452.333 173C452.333 172.333 452.5 171.833 453 171.333C453.5 170.833 454 170.667 454.667 170.667C455.333 170.667 455.833 170.833 456.333 171.333C456.833 171.833 457 172.333 457 173C457 173.667 456.833 174.167 456.333 174.667C455.833 175.167 455.333 175.333 454.667 175.333C454 175.333 453.5 175.167 453 174.667C452.5 174.167 452.333 173.667 452.333 173Z" fill="#0E4D80"/>
<path d="M475.833 160.167H469.5C468.667 160.167 468 160.167 467.5 160.333C467 160.5 466.667 160.667 466.333 160.833C466 161 465.833 161.333 465.667 161.5C465.5 161.833 465.333 162 465.333 162.333L462.333 161.167C462.667 160.333 463 159.667 463.5 159.167C464 158.667 464.333 158.167 464.833 157.833C465.333 157.5 465.833 157.333 466.5 157.167C467.167 157 467.833 157 468.667 157H475.833V160.167ZM468 183V163.167H472.333V183H468Z" fill="#0E4D80"/>
<path d="M499 163.167V182.5C499 183.667 498.833 184.667 498.333 185.5C497.833 186.5 497.333 187.167 496.667 188C496 188.667 495.167 189.167 494.167 189.667C493.167 190 492.167 190.167 491.167 190.167H487.333C486.167 190.167 485.167 190 484.333 189.5C483.5 189 482.667 188.5 482.167 187.833C481.667 187.167 481.167 186.333 480.833 185.333C480.5 184.333 480.333 183.333 480.333 182.333V175.333H484.667V182.167C484.667 182.667 484.833 183 485 183.5C485.167 184 485.5 184.333 485.833 184.667C486.167 185 486.5 185.333 487 185.5C487.5 185.667 488 185.833 488.5 185.833H490.667C492 185.833 493 185.5 493.667 184.833C494.333 184.167 494.833 183.333 494.833 182.167V163.167H499Z" fill="#0E4D80"/>
<path d="M506.333 183C504.833 183 503.833 182.5 503.167 181.667C502.5 180.833 502.167 179.5 502.167 177.833V163.167H506.5V177C506.5 177.667 506.667 178.167 506.833 178.333C507 178.5 507.5 178.667 508.167 178.667H508.833V183H506.333Z" fill="#0E4D80"/>
<path d="M518.667 183C518 183 517.333 182.667 516.667 182.167C516.333 182.5 516 182.667 515.667 182.833C515.333 183 515 183 514.5 183H508.667C508.5 183 508.333 183 508 183C507.833 183 507.667 182.833 507.667 182.833V179C507.667 178.833 507.833 178.833 508 178.833C508.167 178.833 508.333 178.833 508.667 178.833H513C513.833 178.833 514.333 178.333 514.333 177.5V172.833H518.667V177.5C518.667 178.5 519.167 178.833 520 178.833H520.667V183.167H518.667V183ZM512.5 188.667C512.5 188 512.667 187.5 513.167 187C513.667 186.5 514.167 186.333 514.833 186.333C515.5 186.333 516 186.5 516.5 187C517 187.5 517.167 188 517.167 188.667C517.167 189.333 517 189.833 516.5 190.333C516 190.833 515.5 191 514.833 191C514.167 191 513.667 190.833 513.167 190.333C512.667 189.833 512.5 189.333 512.5 188.667Z" fill="#0E4D80"/>
<path d="M519.833 178.833C519.833 178.667 520 178.667 520.167 178.667C520.333 178.667 520.5 178.667 520.833 178.667H525.167C526 178.667 526.5 178.167 526.5 177.333V172.667H530.833V177.833C530.833 178.5 530.667 179.167 530.5 179.833C530.333 180.5 530 181 529.5 181.5C529 182 528.5 182.333 528 182.667C527.5 183 526.833 183.167 526.167 183.167H520.833C520.667 183.167 520.5 183.167 520.167 183.167C520 183.167 519.833 183 519.833 183V178.833ZM523.5 167.167C523.5 166.5 523.667 166 524.167 165.5C524.667 165 525.167 164.833 525.833 164.833C526.5 164.833 527 165 527.5 165.5C528 166 528.167 166.5 528.167 167.167C528.167 167.833 528 168.333 527.5 168.833C527 169.333 526.5 169.5 525.833 169.5C525.167 169.5 524.667 169.333 524.167 168.833C523.667 168.333 523.5 167.833 523.5 167.167Z" fill="#0E4D80"/>
<path d="M534.167 183L533.667 178.667H543.833C544 178.667 544.167 178.667 544.333 178.5C544.5 178.333 544.5 178.333 544.5 178.167C544.5 178 544.5 177.833 544.333 177.667L537.5 170.333L540.667 167.167L547.5 174.333C548.167 175 548.5 175.667 548.833 176.333C549.167 177 549.167 177.833 549.167 178.5C549.167 179.167 549 179.667 548.833 180.167C548.667 180.667 548.333 181.167 547.833 181.667C547.333 182 546.833 182.333 546.333 182.667C545.667 182.833 545 183 544.167 183H534.167Z" fill="#0E4D80"/>
<path d="M571.333 183C571 183 570.5 183 570.167 182.833C569.667 182.667 569.333 182.333 569 182L567.667 180.667C567.167 181.5 566.5 182.167 565.5 182.667C564.667 183.167 563.5 183.5 562.167 183.5C561.167 183.5 560.167 183.333 559.5 183C558.833 182.667 558 182.167 557.5 181.5C557 180.833 556.5 180.167 556.333 179.5C556 178.833 556 178 556 177.333C556 176.667 556.167 175.833 556.333 175.167C556.5 174.5 556.833 173.833 557.333 173.333L559.167 171.333L558.167 170.333L561.167 167.333L571 177.667C571.333 178 571.667 178.167 572 178.333C572.333 178.5 572.667 178.667 573.167 178.667H573.5V183H571.333ZM561.833 173.667L560.833 174.667C560.333 175.167 560 175.5 559.833 175.833C559.667 176.167 559.667 176.5 559.667 176.667C559.667 177.167 559.833 177.667 560.167 178.167C560.5 178.667 561.167 178.833 561.833 178.833C562.5 178.833 563 178.667 563.5 178.333C563.833 178 564 177.5 564 177C564 176.667 563.833 176.333 563.667 176C563.5 175.667 563.167 175.167 562.667 174.667L561.833 173.667Z" fill="#0E4D80"/>
<path d="M572.333 178.833C572.333 178.667 572.5 178.667 572.667 178.667C572.833 178.667 573 178.667 573.333 178.667H577.667C578.5 178.667 579 178.167 579 177.333V172.667H583.333V177.833C583.333 178.5 583.167 179.167 583 179.833C582.833 180.5 582.5 181 582 181.5C581.5 182 581 182.333 580.5 182.667C580 183 579.333 183.167 578.667 183.167H573.333C573.167 183.167 573 183.167 572.667 183.167C572.5 183.167 572.333 183 572.333 183V178.833ZM574 188.667C574 188 574.167 187.5 574.667 187C575.167 186.5 575.667 186.333 576.333 186.333C577 186.333 577.5 186.5 578 187C578.5 187.5 578.667 188 578.667 188.667C578.667 189.333 578.5 189.833 578 190.333C577.5 190.833 577 191 576.333 191C575.667 191 575.167 190.833 574.667 190.333C574.333 189.833 574 189.333 574 188.667Z" fill="#0E4D80"/>
<path d="M606 183C605.667 183 605.167 183 604.833 182.833C604.333 182.667 604 182.333 603.667 182L602.333 180.667C601.833 181.5 601.167 182.167 600.167 182.667C599.333 183.167 598.167 183.5 596.833 183.5C595.833 183.5 594.833 183.333 594.167 183C593.5 182.667 592.667 182.167 592.167 181.5C591.667 180.833 591.167 180.167 591 179.5C590.667 178.833 590.667 178 590.667 177.333C590.667 176.667 590.833 175.833 591 175.167C591.167 174.5 591.5 173.833 592 173.333L593.833 171.333L592.833 170.333L595.833 167.333L605.667 177.667C606 178 606.333 178.167 606.667 178.333C607 178.5 607.333 178.667 607.833 178.667H608.167V183H606ZM596.5 173.667L595.5 174.667C595 175.167 594.667 175.5 594.5 175.833C594.333 176.167 594.333 176.5 594.333 176.667C594.333 177.167 594.5 177.667 594.833 178.167C595.167 178.667 595.833 178.833 596.5 178.833C597.167 178.833 597.667 178.667 598.167 178.333C598.5 178 598.667 177.5 598.667 177C598.667 176.667 598.5 176.333 598.333 176C598.167 175.667 597.833 175.167 597.333 174.667L596.5 173.667Z" fill="#0E4D80"/>
<path d="M607 178.833C607 178.667 607.167 178.667 607.333 178.667C607.5 178.667 607.667 178.667 608 178.667H616C616.5 178.667 616.833 178.5 616.833 178C616.833 177.833 616.667 177.667 616.5 177.5L609 169.667L608.5 165.667L620.333 161.333L621 165.667L614 168.333L620 174.667C620.5 175.167 620.833 175.833 621.167 176.5C621.5 177.167 621.5 177.833 621.5 178.5C621.5 179.167 621.333 179.667 621.167 180.167C621 180.667 620.667 181.167 620.167 181.667C619.667 182.167 619.167 182.5 618.5 182.667C617.833 183 617 183 616.167 183H608C607.833 183 607.667 183 607.333 183C607.167 183 607 182.833 607 182.833V178.833Z" fill="#0E4D80"/>
<path d="M648.167 182C648.167 183.167 648 184.167 647.5 185.167C647.167 186.167 646.5 187 645.833 187.833C645.167 188.5 644.333 189.167 643.333 189.667C642.333 190.167 641.333 190.333 640.167 190.333H635.833C634.5 190.333 633.333 190.167 632.5 189.833C631.667 189.5 630.833 188.833 630.167 188.167C629.5 187.5 629 186.667 628.833 185.667C628.5 184.667 628.333 183.667 628.333 182.5V175.333H632.667V182.5C632.667 183 632.833 183.5 633 183.833C633.167 184.167 633.5 184.667 633.833 184.833C634.167 185 634.5 185.333 635 185.5C635.5 185.667 635.833 185.833 636.333 185.833H640C640.5 185.833 640.833 185.833 641.333 185.667C641.833 185.5 642.167 185.333 642.667 185C643 184.667 643.333 184.333 643.667 184C643.833 183.667 644 183.167 644 182.833C644 182.333 643.833 182 643.667 181.667C643.5 181.333 643 181.167 642.5 181.167H637.167V176C637.167 175.167 637.333 174.333 637.667 173.667C638 173 638.5 172.333 639 171.833C639.5 171.333 640.167 170.833 640.833 170.5C641.5 170.167 642.333 170 643 170H647.333V174.333H643.333C642.333 174.333 641.667 175 641.667 176.167V177.167H643.667C645.333 177.167 646.5 177.667 647.167 178.5C647.833 179.333 648.167 180.5 648.167 182Z" fill="#0E4D80"/>
<path d="M651.333 183V163.167H655.667V183H651.333Z" fill="#0E4D80"/>
<path d="M669 183.333C668 183.333 667 183.167 666.333 182.833C665.667 182.5 665 182 664.333 181.333C663.833 180.667 663.5 180 663.167 179.333C662.833 178.667 662.833 177.833 662.833 177.167C662.833 176.5 663 175.667 663.167 175C663.333 174.333 663.667 173.667 664.167 173.167L666 171.167L665 170.167L668 167.167L673.833 173.5C674.333 174 674.667 174.667 675 175.333C675.167 176 675.333 176.667 675.333 177.333C675.333 178 675.167 178.833 674.833 179.5C674.5 180.167 674.167 180.833 673.667 181.5C673.167 182 672.5 182.5 671.667 182.833C670.833 183.167 670 183.333 669 183.333ZM667.667 174.667C667.167 175.167 666.833 175.5 666.833 175.833C666.667 176.167 666.667 176.5 666.667 176.667C666.667 177.167 666.833 177.667 667.167 178.167C667.5 178.667 668.167 178.833 668.833 178.833C669.5 178.833 670 178.667 670.5 178.333C670.833 178 671 177.5 671 177C671 176.667 670.833 176.333 670.667 176C670.5 175.667 670.167 175.167 669.667 174.667L668.667 173.667L667.667 174.667Z" fill="#0E4D80"/>
<path d="M684.667 183C684.167 183 683.667 182.833 683.333 182.5C683.333 183.833 683.167 184.833 682.667 185.833C682.167 186.833 681.5 187.5 680.833 188.167C680.167 188.833 679.167 189.333 678.333 189.667C677.333 190 676.5 190.167 675.5 190.167H673.833L673.167 185.833H674C675 185.833 675.667 185.667 676.333 185.5C677 185.333 677.5 185 677.833 184.667C678.167 184.333 678.5 184 678.667 183.5C678.833 183.167 679 182.667 679 182.167V172.333H683.333V177.5C683.333 178.167 683.833 178.5 684.667 178.5H685.333V182.833H684.667V183Z" fill="#0E4D80"/>
<path d="M701.667 183C699.5 183 697.833 182 696.833 180.167L695.667 180.833C694.333 181.5 693.167 182.167 692.167 182.5C691.167 182.833 689.833 183 688.5 183H685.167C685 183 684.833 183 684.5 183C684.333 183 684.167 182.833 684.167 182.833V179C684.167 178.833 684.333 178.833 684.5 178.833C684.667 178.833 684.833 178.833 685.167 178.833H687.667C688.667 178.833 689.5 178.833 690.167 178.667C690.833 178.5 691.5 178.333 692.167 178.167C692.333 178.167 692.833 177.833 693.667 177.333C694.5 176.833 695.667 176.167 697.167 175.5C697 175.167 696.833 174.833 696.5 174.5C696.167 174.167 695.5 174.167 694.5 174.167H687.833L687.167 169.833H695.167C697.333 169.833 699 170.5 700.167 171.833C701.167 173.167 701.833 175 701.833 177.5L700 178.333C700.167 178.5 700.5 178.5 701 178.5H702.833V182.833H701.667V183ZM690.833 188.667C690.833 188 691 187.5 691.5 187C692 186.5 692.5 186.333 693.167 186.333C693.833 186.333 694.333 186.5 694.833 187C695.333 187.5 695.5 188 695.5 188.667C695.5 189.333 695.333 189.833 694.833 190.333C694.333 190.833 693.833 191 693.167 191C692.5 191 692 190.833 691.5 190.333C691.167 189.833 690.833 189.333 690.833 188.667Z" fill="#0E4D80"/>
<path d="M702 178.833C702 178.667 702.167 178.667 702.333 178.667C702.5 178.667 702.667 178.667 703 178.667H705.5C706.5 178.667 707.333 178.667 708 178.5C708.667 178.333 709.333 178.167 710 178C710.167 178 710.667 177.667 711.5 177.167C712.333 176.667 713.5 176 715 175.333C714.833 175 714.667 174.667 714.333 174.333C714 174 713.333 174 712.333 174H705.667L705 169.667H713C715.167 169.667 716.833 170.333 718 171.667C719 173 719.667 174.833 719.667 177.333L713.167 181C711.833 181.667 710.667 182.333 709.667 182.667C708.667 183 707.333 183.167 706 183.167H702.667C702.5 183.167 702.333 183.167 702 183.167C701.833 183.167 701.667 183 701.667 183V178.833H702Z" fill="#0E4D80"/>
<path d="M723.667 168.667L722.833 164.5V160.833H726.667V164.5L726 168.667H723.667ZM729.667 168.667L728.833 164.5V160.833H732.667V164.5L732 168.667H729.667Z" fill="#0E4D80"/>
<path d="M496 225L495.167 220.833V217.167H499V220.833L498.333 225H496ZM502 225L501.167 220.833V217.167H505V220.833L504.333 225H502Z" fill="#0E4D80"/>
<path d="M532.667 239.333C531.667 239.333 531 239 530.667 238.5C530.333 238.833 530 239.167 529.5 239.167C529.167 239.333 528.667 239.333 528 239.333H512.833C511.167 239.333 510 238.833 509.333 237.833C508.5 236.833 508.167 235.5 508.167 234V228.833H512.5V233.5C512.5 234.5 513 234.833 513.833 234.833H526.667C527.833 234.833 528.333 234.333 528.333 233.333V228.667H532.833V233.333C532.833 234.333 533.167 234.667 533.833 234.667H534.833V239H532.667V239.333ZM515.333 225C515.333 224.333 515.5 223.833 516 223.333C516.5 222.833 517 222.667 517.667 222.667C518.333 222.667 518.833 222.833 519.333 223.333C519.833 223.833 520 224.333 520 225C520 225.667 519.833 226.167 519.333 226.667C518.833 227.167 518.333 227.333 517.667 227.333C517 227.333 516.5 227.167 516 226.667C515.667 226.167 515.333 225.667 515.333 225ZM520.833 225C520.833 224.333 521 223.833 521.5 223.333C522 222.833 522.5 222.667 523.167 222.667C523.833 222.667 524.333 222.833 524.833 223.333C525.333 223.833 525.5 224.333 525.5 225C525.5 225.667 525.333 226.167 524.833 226.667C524.333 227.167 523.833 227.333 523.167 227.333C522.5 227.333 522 227.167 521.5 226.667C521 226.167 520.833 225.667 520.833 225Z" fill="#0E4D80"/>
<path d="M533.833 235.167C533.833 235 534 235 534.167 235C534.333 235 534.5 235 534.833 235H537.667C538.5 235 538.833 234.5 538.833 233.667V228.833H543.333V233.667C543.333 234.167 543.5 234.667 543.833 234.833C544.167 235.167 544.5 235.167 544.833 235.167C545.167 235.167 545.5 235 545.833 234.833C546.167 234.5 546.333 234.167 546.333 233.667V228.833H550.667V233.667C550.667 234.167 550.833 234.667 551.167 234.833C551.5 235.167 551.833 235.167 552.167 235.167C552.5 235.167 552.833 235 553.167 234.833C553.5 234.5 553.667 234.167 553.667 233.667V228.833H558.167V234C558.167 234.833 558 235.667 557.833 236.333C557.667 237 557.333 237.667 556.833 238.167C556.5 238.667 555.833 239.167 555.333 239.333C554.667 239.667 554 239.833 553.167 239.833C551.5 239.833 550.167 239.167 549.333 238C548.833 238.667 548.333 239 547.5 239.333C546.833 239.667 546.167 239.833 545.5 239.833C544.833 239.833 544 239.667 543.5 239.333C542.833 239 542.333 238.5 542 238C541.667 238.333 541.167 238.667 540.5 239C539.833 239.333 539.167 239.333 538.167 239.333H535.167C535 239.333 534.833 239.333 534.5 239.333C534.333 239.333 534.167 239.167 534.167 239.167V235.167H533.833Z" fill="#0E4D80"/>
<path d="M560.833 239.333V219.5H565.167V239.333H560.833Z" fill="#0E4D80"/>
<path d="M578 239.667C577 239.667 576 239.5 575.333 239.167C574.667 238.833 574 238.333 573.333 237.667C572.833 237 572.5 236.333 572.167 235.667C571.833 235 571.833 234.167 571.833 233.5C571.833 232.833 572 232 572.167 231.333C572.333 230.667 572.667 230 573.167 229.5L575 227.5L574 226.5L577 223.5L582.833 229.833C583.333 230.333 583.667 231 584 231.667C584.167 232.333 584.333 233 584.333 233.667C584.333 234.333 584.167 235.167 583.833 235.833C583.5 236.5 583.167 237.167 582.667 237.833C582.167 238.333 581.5 238.833 580.667 239.167C579.833 239.5 579 239.667 578 239.667ZM576.667 231C576.167 231.5 575.833 231.833 575.833 232.167C575.667 232.5 575.667 232.833 575.667 233C575.667 233.5 575.833 234 576.167 234.5C576.5 235 577.167 235.167 577.833 235.167C578.5 235.167 579 235 579.5 234.667C579.833 234.333 580 233.833 580 233.333C580 233 579.833 232.667 579.667 232.333C579.5 232 579.167 231.5 578.667 231L577.667 230L576.667 231Z" fill="#0E4D80"/>
<path d="M605.333 239.333C604.167 239.333 603.333 239.167 602.833 238.833C602.167 238.5 601.667 238.167 601.167 237.667C600.667 238.167 600.167 238.5 599.5 238.833C598.833 239.167 598.167 239.333 597.167 239.333H587.5L587 235H597.167C597.333 235 597.5 235 597.667 234.833C597.833 234.667 597.833 234.667 597.833 234.5C597.833 234.333 597.833 234.167 597.667 234L590.833 226.667L594 223.5L603.167 233.333C603.667 233.833 604.167 234.333 604.5 234.5C604.833 234.667 605.333 234.833 605.667 234.833H606V239.167H605.333V239.333Z" fill="#0E4D80"/>
<path d="M604.667 235.167C604.667 235 604.833 235 605 235C605.167 235 605.333 235 605.667 235H608.5C609.333 235 609.667 234.5 609.667 233.667V228.833H614.167V233.667C614.167 234.167 614.333 234.667 614.667 234.833C615 235.167 615.333 235.167 615.667 235.167C616 235.167 616.333 235 616.667 234.833C617 234.5 617.167 234.167 617.167 233.667V228.833H621.5V233.667C621.5 234.167 621.667 234.667 622 234.833C622.333 235.167 622.667 235.167 623 235.167C623.333 235.167 623.667 235 624 234.833C624.333 234.5 624.5 234.167 624.5 233.667V228.833H629V234C629 234.833 628.833 235.667 628.667 236.333C628.5 237 628.167 237.667 627.667 238.167C627.333 238.667 626.667 239.167 626.167 239.333C625.5 239.667 624.833 239.833 624 239.833C622.333 239.833 621 239.167 620.167 238C619.667 238.667 619.167 239 618.333 239.333C617.667 239.667 617 239.833 616.333 239.833C615.667 239.833 614.833 239.667 614.333 239.333C613.667 239 613.167 238.5 612.833 238C612.5 238.333 612 238.667 611.333 239C610.667 239.333 610 239.333 609 239.333H606C605.833 239.333 605.667 239.333 605.333 239.333C605.167 239.333 605 239.167 605 239.167V235.167H604.667ZM614 223.5C614 222.833 614.167 222.333 614.667 221.833C615.167 221.333 615.667 221.167 616.333 221.167C617 221.167 617.5 221.333 618 221.833C618.5 222.333 618.667 222.833 618.667 223.5C618.667 224.167 618.5 224.667 618 225.167C617.5 225.667 617 225.833 616.333 225.833C615.667 225.833 615.167 225.667 614.667 225.167C614.167 224.833 614 224.167 614 223.5ZM616.667 218.833C616.667 218.167 616.833 217.667 617.333 217.167C617.833 216.667 618.333 216.5 619 216.5C619.667 216.5 620.167 216.667 620.667 217.167C621.167 217.667 621.333 218.167 621.333 218.833C621.333 219.5 621.167 220 620.667 220.5C620.167 221 619.667 221.167 619 221.167C618.333 221.167 617.833 221 617.333 220.5C616.833 220.167 616.667 219.5 616.667 218.833ZM619.333 223.5C619.333 222.833 619.5 222.333 620 221.833C620.5 221.333 621 221.167 621.667 221.167C622.333 221.167 622.833 221.333 623.333 221.833C623.833 222.333 624 222.833 624 223.5C624 224.167 623.833 224.667 623.333 225.167C622.833 225.667 622.333 225.833 621.667 225.833C621 225.833 620.5 225.667 620 225.167C619.667 224.833 619.333 224.167 619.333 223.5Z" fill="#0E4D80"/>
<path d="M653.833 219.5V238.833C653.833 240 653.667 241 653.167 241.833C652.667 242.833 652.167 243.5 651.5 244.333C650.833 245 650 245.5 649 246C648 246.333 647 246.5 646 246.5H642.167C641 246.5 640 246.333 639.167 245.833C638.333 245.333 637.5 244.833 637 244.167C636.5 243.5 636 242.667 635.667 241.667C635.333 240.667 635.167 239.667 635.167 238.667V231.667H639.5V238.5C639.5 239 639.667 239.333 639.833 239.833C640 240.333 640.333 240.667 640.667 241C641 241.333 641.333 241.667 641.833 241.833C642.333 242 642.833 242.167 643.333 242.167H645.5C646.833 242.167 647.833 241.833 648.5 241.167C649.167 240.5 649.667 239.667 649.667 238.5V219.5H653.833Z" fill="#0E4D80"/>
<path d="M661.167 239.333C659.667 239.333 658.667 238.833 658 238C657.333 237.167 657 235.833 657 234.167V219.5H661.333V233.333C661.333 234 661.5 234.5 661.667 234.667C661.833 234.833 662.333 235 663 235H663.667V239.333H661.167Z" fill="#0E4D80"/>
<path d="M677.833 239.333C677 239.333 676.167 239.333 675.667 239.167C675.167 239 674.5 239 674 238.833C673.5 238.667 673 238.5 672.667 238.333C672.333 238.167 671.833 237.833 671.5 237.5C670.667 238 669.667 238.5 668.667 238.833C667.667 239.167 666.5 239.333 665.167 239.333H663.667C663.5 239.333 663.333 239.333 663 239.333C662.833 239.333 662.667 239.167 662.667 239.167V235.333C662.667 235.167 662.833 235.167 663 235.167C663.167 235.167 663.333 235.167 663.667 235.167H666.333C667 235.167 667.5 235 668 234.833C667.5 234.5 667 234 666.5 233.333C666 232.667 665.167 232 664.167 231L666.5 226.333H673.167C673.833 226.333 674.5 226.5 675.167 226.667C675.833 226.833 676.333 227.167 676.667 227.667C677.167 228.167 677.5 228.667 677.667 229.167C677.833 229.667 678 230.333 678 231C678 231.833 677.833 232.667 677.333 233.167C676.833 233.667 676.333 234.333 675.667 234.833C675.833 234.833 676 234.833 676.167 234.833C676.333 234.833 676.5 234.833 676.667 234.833H678.333V239.167H677.833V239.333ZM669.333 230.667C669.833 231.167 670.333 231.667 670.667 232C671 232.333 671.333 232.667 671.5 232.833C672 232.5 672.333 232.333 672.833 232C673.167 231.667 673.333 231.333 673.333 231.167C673.333 230.833 673.167 230.667 672.833 230.667H669.333Z" fill="#0E4D80"/>
<path d="M677.5 235.167C677.5 235 677.667 235 677.833 235C678 235 678.167 235 678.5 235H687C687.333 235 687.667 234.833 688 234.333C686.5 234.333 685.333 234.167 684.333 234.167C683.333 234.167 682.833 234 682.5 233.833C681.833 233.667 681.167 233.167 680.833 232.333C680.5 231.667 680.167 230.667 680.167 229.667C680.167 227.833 680.833 226.333 682 225.167C683.167 224 684.667 223.5 686.667 223.5C687.5 223.5 688.333 223.667 689 224C689.667 224.333 690.333 224.833 690.833 225.333C691.333 225.833 691.667 226.5 692 227.167C692.333 227.833 692.5 228.667 692.667 229.333C692.833 229.833 692.833 230.333 692.833 231.167C692.833 231.833 692.833 232.667 692.833 233.5C692.833 234.333 692.667 235.167 692.333 236C692 236.667 691.5 237.333 690.833 237.833C690.167 238.333 689.5 238.667 688.667 239C687.833 239.333 687 239.5 686.167 239.5H678.667C678.5 239.5 678.333 239.5 678 239.5C677.833 239.5 677.667 239.333 677.667 239.333V235.167H677.5ZM683.167 219C683.167 218.333 683.333 217.833 683.833 217.333C684.333 216.833 684.833 216.667 685.5 216.667C686.167 216.667 686.667 216.833 687.167 217.333C687.667 217.833 687.833 218.333 687.833 219C687.833 219.667 687.667 220.167 687.167 220.667C686.667 221.167 686.167 221.333 685.5 221.333C684.833 221.333 684.333 221.167 683.833 220.667C683.333 220.167 683.167 219.667 683.167 219ZM688.167 230.667C688.167 229.833 687.833 229.167 687.333 228.667C686.833 228.167 686.167 227.833 685.333 227.833C684.667 227.833 684.167 228 683.833 228.167C683.5 228.5 683.333 228.667 683.333 229.167C683.333 229.667 683.5 230 683.833 230.167C684.167 230.333 684.5 230.5 685 230.5L688.167 230.667Z" fill="#0E4D80"/>
<path d="M702 239.333C701.5 239.333 701 239.167 700.667 238.833C700.667 240.167 700.5 241.167 700 242.167C699.5 243.167 698.833 243.833 698.167 244.5C697.5 245.167 696.5 245.667 695.667 246C694.667 246.333 693.833 246.5 692.833 246.5H691.167L690.5 242.167H691.333C692.333 242.167 693 242 693.667 241.833C694.333 241.667 694.833 241.333 695.167 241C695.5 240.667 695.833 240.333 696 239.833C696.167 239.5 696.333 239 696.333 238.5V228.667H700.667V233.833C700.667 234.5 701.167 234.833 702 234.833H702.667V239.167H702V239.333Z" fill="#0E4D80"/>
<path d="M712.5 239.333C711.833 239.333 711.167 239 710.5 238.5C710.167 238.833 709.833 239 709.5 239.167C709.167 239.333 708.833 239.333 708.333 239.333H702.5C702.333 239.333 702.167 239.333 701.833 239.333C701.667 239.333 701.5 239.167 701.5 239.167V235.333C701.5 235.167 701.667 235.167 701.833 235.167C702 235.167 702.167 235.167 702.5 235.167H706.833C707.667 235.167 708.167 234.667 708.167 233.833V229.167H712.5V233.833C712.5 234.833 713 235.167 713.833 235.167H714.5V239.5H712.5V239.333ZM703.5 245C703.5 244.333 703.667 243.833 704.167 243.333C704.667 242.833 705.167 242.667 705.833 242.667C706.5 242.667 707 242.833 707.5 243.333C708 243.833 708.167 244.333 708.167 245C708.167 245.667 708 246.167 707.5 246.667C707 247.167 706.5 247.333 705.833 247.333C705.167 247.333 704.667 247.167 704.167 246.667C703.833 246.167 703.5 245.667 703.5 245ZM709 245C709 244.333 709.167 243.833 709.667 243.333C710.167 242.833 710.667 242.667 711.333 242.667C712 242.667 712.5 242.833 713 243.333C713.5 243.833 713.667 244.333 713.667 245C713.667 245.667 713.5 246.167 713 246.667C712.5 247.167 712 247.333 711.333 247.333C710.667 247.333 710.167 247.167 709.667 246.667C709.167 246.167 709 245.667 709 245Z" fill="#0E4D80"/>
<path d="M713.667 235.167C713.667 235 713.833 235 714 235C714.167 235 714.333 235 714.667 235H716.833C716.5 234 716.333 233 716.333 232.167C716.333 231.333 716.5 230.667 716.833 229.833C717.167 229 717.5 228.5 718 228C718.5 227.5 719.167 227 719.833 226.667C720.5 226.333 721.333 226.167 722.333 226.167C723.5 226.167 724.667 226.333 725.667 226.833C726.667 227.333 727.667 228 728.667 228.833L726.333 232.5C726 232.333 725.667 232 725.333 231.833C725 231.667 724.667 231.333 724.333 231.167C724 231 723.667 230.833 723.333 230.667C723 230.5 722.833 230.5 722.5 230.5C721.833 230.5 721.333 230.667 721.167 231.167C720.833 231.667 720.667 232.167 720.667 232.833C720.667 233.333 720.833 233.833 721 234.167C721.333 234.667 721.667 234.833 722.167 234.833H728.667L729.167 239.167H714.667C714.5 239.167 714.333 239.167 714 239.167C713.833 239.167 713.667 239 713.667 239V235.167ZM720 221.333C720 220.667 720.167 220.167 720.667 219.667C721.167 219.167 721.667 219 722.333 219C723 219 723.5 219.167 724 219.667C724.5 220.167 724.667 220.667 724.667 221.333C724.667 222 724.5 222.5 724 223C723.5 223.5 723 223.667 722.333 223.667C721.667 223.667 721.167 223.5 720.667 223C720.167 222.5 720 222 720 221.333Z" fill="#0E4D80"/>
<path d="M255.269 238.371L255.009 238.413C254.982 238.341 254.944 238.28 254.897 238.23C254.85 238.179 254.796 238.139 254.736 238.11C254.675 238.079 254.611 238.06 254.542 238.051C254.474 238.042 254.404 238.044 254.333 238.055C254.203 238.076 254.091 238.128 253.996 238.211C253.902 238.293 253.835 238.404 253.793 238.541C253.753 238.679 253.747 238.84 253.778 239.026C253.808 239.211 253.864 239.363 253.946 239.481C254.029 239.598 254.128 239.681 254.243 239.73C254.359 239.778 254.482 239.792 254.612 239.771C254.683 239.759 254.75 239.738 254.812 239.708C254.874 239.678 254.929 239.639 254.977 239.592C255.025 239.544 255.063 239.489 255.092 239.426C255.121 239.363 255.137 239.293 255.14 239.216L255.399 239.174C255.398 239.287 255.378 239.391 255.341 239.485C255.303 239.58 255.251 239.664 255.184 239.738C255.117 239.81 255.039 239.87 254.948 239.917C254.858 239.963 254.759 239.996 254.651 240.013C254.469 240.043 254.299 240.025 254.142 239.959C253.985 239.893 253.853 239.784 253.744 239.633C253.636 239.481 253.563 239.293 253.527 239.067C253.49 238.841 253.499 238.639 253.554 238.461C253.608 238.283 253.7 238.138 253.827 238.026C253.955 237.913 254.11 237.842 254.293 237.812C254.401 237.795 254.505 237.794 254.605 237.81C254.706 237.826 254.799 237.858 254.886 237.906C254.972 237.953 255.048 238.016 255.114 238.094C255.18 238.172 255.231 238.264 255.269 238.371ZM255.928 239.775L255.579 237.633L255.838 237.591L256.15 239.503L257.145 239.341L257.183 239.571L255.928 239.775ZM259.134 238.154C259.171 238.38 259.162 238.582 259.107 238.759C259.052 238.937 258.961 239.082 258.833 239.195C258.706 239.307 258.55 239.378 258.368 239.408C258.185 239.438 258.015 239.42 257.859 239.354C257.702 239.288 257.569 239.179 257.461 239.028C257.352 238.876 257.28 238.688 257.243 238.462C257.206 238.236 257.215 238.034 257.27 237.856C257.325 237.678 257.416 237.533 257.544 237.421C257.672 237.308 257.827 237.237 258.009 237.207C258.192 237.178 258.362 237.196 258.519 237.262C258.675 237.328 258.808 237.437 258.916 237.588C259.025 237.739 259.097 237.928 259.134 238.154ZM258.883 238.195C258.853 238.009 258.796 237.858 258.714 237.74C258.631 237.623 258.532 237.54 258.416 237.491C258.301 237.443 258.179 237.429 258.049 237.45C257.919 237.471 257.807 237.523 257.712 237.606C257.619 237.688 257.551 237.799 257.51 237.936C257.469 238.074 257.464 238.235 257.494 238.421C257.524 238.606 257.58 238.758 257.663 238.876C257.745 238.993 257.844 239.076 257.96 239.125C258.076 239.173 258.199 239.187 258.328 239.165C258.458 239.144 258.57 239.093 258.664 239.01C258.758 238.927 258.826 238.817 258.867 238.679C258.908 238.542 258.913 238.38 258.883 238.195ZM260.655 237.357C260.625 237.253 260.561 237.179 260.462 237.135C260.363 237.09 260.249 237.079 260.119 237.1C260.024 237.116 259.944 237.144 259.878 237.187C259.812 237.229 259.764 237.28 259.733 237.34C259.703 237.4 259.693 237.464 259.704 237.533C259.713 237.59 259.735 237.637 259.769 237.674C259.803 237.709 259.844 237.738 259.892 237.758C259.94 237.777 259.989 237.792 260.039 237.801C260.089 237.81 260.135 237.817 260.176 237.821L260.403 237.844C260.462 237.85 260.527 237.86 260.599 237.874C260.673 237.889 260.744 237.913 260.814 237.948C260.885 237.982 260.946 238.029 260.999 238.092C261.051 238.154 261.086 238.236 261.102 238.336C261.121 238.452 261.107 238.561 261.062 238.665C261.017 238.768 260.941 238.856 260.835 238.93C260.729 239.004 260.593 239.054 260.429 239.081C260.275 239.106 260.138 239.103 260.018 239.072C259.898 239.04 259.799 238.986 259.721 238.908C259.643 238.829 259.59 238.732 259.563 238.617L259.831 238.573C259.851 238.653 259.889 238.715 259.945 238.761C260.001 238.805 260.068 238.834 260.146 238.848C260.224 238.861 260.305 238.861 260.391 238.847C260.49 238.831 260.576 238.8 260.649 238.755C260.723 238.71 260.778 238.654 260.815 238.589C260.851 238.523 260.863 238.451 260.85 238.373C260.839 238.302 260.809 238.247 260.762 238.209C260.715 238.171 260.657 238.143 260.588 238.125C260.518 238.108 260.444 238.095 260.366 238.086L260.09 238.054C259.914 238.033 259.771 237.986 259.659 237.913C259.546 237.839 259.479 237.731 259.455 237.586C259.436 237.466 259.451 237.356 259.501 237.257C259.552 237.156 259.629 237.072 259.731 237.004C259.834 236.936 259.953 236.891 260.09 236.869C260.228 236.846 260.355 236.851 260.47 236.883C260.586 236.914 260.682 236.967 260.758 237.042C260.835 237.117 260.885 237.208 260.906 237.316L260.655 237.357ZM261.623 238.848L261.274 236.706L262.567 236.495L262.605 236.726L261.571 236.894L261.689 237.618L262.656 237.46L262.693 237.69L261.726 237.848L261.845 238.576L262.895 238.405L262.933 238.635L261.623 238.848ZM264.045 238.454L263.383 238.561L263.035 236.419L263.725 236.307C263.933 236.273 264.118 236.287 264.279 236.349C264.441 236.41 264.574 236.514 264.679 236.66C264.784 236.807 264.854 236.991 264.89 237.212C264.927 237.435 264.918 237.634 264.865 237.808C264.812 237.981 264.716 238.124 264.578 238.235C264.44 238.345 264.262 238.418 264.045 238.454ZM263.605 238.289L263.99 238.226C264.167 238.198 264.309 238.14 264.414 238.052C264.519 237.965 264.59 237.854 264.627 237.718C264.664 237.582 264.668 237.428 264.639 237.253C264.611 237.08 264.559 236.936 264.482 236.82C264.405 236.704 264.305 236.622 264.182 236.573C264.058 236.524 263.913 236.512 263.746 236.54L263.332 236.607L263.605 238.289Z" fill="#224E82"/>
<path d="M144.667 85.8334C145.333 85.8334 146 85.1667 146 84.5V75C146 74.3334 145.333 73.6667 144.667 73.6667C143.833 73.6667 143.333 74.3334 143.333 75V84.5C143.333 85.1667 143.833 85.8334 144.667 85.8334ZM111.833 88L118.833 95C119.167 95.3334 119.5 95.3334 119.833 95.3334C120.167 95.3334 120.5 95.1667 120.833 95C121.333 94.5 121.333 93.6667 120.833 93L113.833 86C113.5 85.6667 113.167 85.6667 112.833 85.6667C112.5 85.6667 112.167 85.8333 111.833 86C111.333 86.6667 111.333 87.5 111.833 88ZM168.167 95.3334C168.5 95.6667 168.833 95.6667 169.167 95.6667C169.5 95.6667 169.833 95.5 170.167 95.3334L177 88.5C177.5 88 177.5 87.1667 177 86.5C176.667 86.1667 176.333 86.1667 176 86.1667C175.667 86.1667 175.333 86.3334 175 86.5L168.167 93.3334C167.667 93.8334 167.667 94.6667 168.167 95.3334ZM137.333 97C137.333 97.3334 137.667 97.5 137.833 97.5C138 97.5 138 97.5 138.167 97.5C138.5 97.3334 138.833 97.3334 139.167 97.1667C139.5 97.1667 139.833 96.6667 139.667 96.3334C139.667 96 139.333 95.8334 139 95.8334H138.833C138.5 95.8334 138.167 96 137.667 96.1667C137.5 96.1667 137.167 96.6667 137.333 97ZM132.667 99L133 99.5C134 98.8334 134.5 98.6667 135.667 98.3334C136 98.1667 136.167 97.8334 136 97.5C135.833 97.1667 135.667 97 135.333 97H135.167C134 97.5 133.5 97.6667 132.333 98.3334L132.667 99ZM99.6666 119.833H109.167C109.833 119.833 110.5 119.167 110.5 118.5C110.5 117.833 109.833 117.167 109.167 117.167H99.6666C98.8333 117.167 98.3333 117.833 98.3333 118.5C98.3333 119.167 99 119.833 99.6666 119.833ZM180 119.833H189.5C190.167 119.833 190.833 119.167 190.833 118.5C190.833 117.833 190.167 117.167 189.5 117.167H180C179.167 117.167 178.667 117.833 178.667 118.5C178.667 119.167 179.167 119.833 180 119.833ZM128.833 137.5C129.333 138 129.833 138.333 130.5 138.667C130.667 138.833 130.833 138.833 131 138.833C131.167 138.833 131.333 138.667 131.5 138.5C131.667 138.167 131.667 137.833 131.333 137.5C130.833 137.167 130.333 136.833 129.833 136.333C129.667 136.167 129.5 136.167 129.333 136.167C129.167 136.167 129 136.333 128.833 136.5C128.5 136.833 128.5 137.167 128.833 137.5ZM132.667 140C136.167 141.833 140 142.833 144 142.833C157.167 142.833 167.833 132.167 167.833 119C167.833 105.833 157.167 95.1667 144 95.1667C143.667 95.1667 143.333 95.5 143.333 95.8334C143.333 96.1667 143.667 96.5 144 96.5C156.333 96.5 166.5 106.5 166.5 119C166.5 131.333 156.5 141.5 144 141.5C140.333 141.5 136.667 140.5 133.333 138.833C133 138.667 132.667 138.833 132.5 139.167C132.167 139.5 132.333 139.833 132.667 140ZM128.833 137.5C129.333 138 129.833 138.333 130.5 138.667C130.667 138.833 130.833 138.833 131 138.833C131.167 138.833 131.333 138.667 131.5 138.5C131.667 138.167 131.667 137.833 131.333 137.5C130.833 137.167 130.333 136.833 129.833 136.333C129.667 136.167 129.5 136.167 129.333 136.167C129.167 136.167 129 136.333 128.833 136.5C128.5 136.833 128.5 137.167 128.833 137.5ZM132.667 140C136.167 141.833 140 142.833 144 142.833C157.167 142.833 167.833 132.167 167.833 119C167.833 105.833 157.167 95.1667 144 95.1667C143.667 95.1667 143.333 95.5 143.333 95.8334C143.333 96.1667 143.667 96.5 144 96.5C156.333 96.5 166.5 106.5 166.5 119C166.5 131.333 156.5 141.5 144 141.5C140.333 141.5 136.667 140.5 133.333 138.833C133 138.667 132.667 138.833 132.5 139.167C132.167 139.5 132.333 139.833 132.667 140ZM133 99.5C134 98.8334 134.5 98.6667 135.667 98.3334C136 98.1667 136.167 97.8334 136 97.5C135.833 97.1667 135.667 97 135.333 97H135.167C134 97.5 133.5 97.6667 132.333 98.3334L132.667 99L133 99.5ZM137.833 97.5C138 97.5 138 97.5 138.167 97.5C138.5 97.3334 138.833 97.3334 139.167 97.1667C139.5 97.1667 139.833 96.6667 139.667 96.3334C139.667 96 139.333 95.8334 139 95.8334H138.833C138.5 95.8334 138.167 96 137.667 96.1667C137.333 96.3334 137 96.6667 137.167 97C137.333 97.1667 137.667 97.5 137.833 97.5ZM144 149.667C160.833 149.667 174.667 136 174.667 119C174.667 102.167 161 88.3334 144 88.3334C127 88.5 113.333 102.333 113.333 119.167C113.333 136 127 149.667 144 149.667ZM144 91.3334C159.333 91.3334 171.833 103.833 171.833 119.167C171.833 134.5 159.333 147 144 147C128.667 147 116.167 134.5 116.167 119.167C116 103.833 128.5 91.3334 144 91.3334ZM130.333 138.667C130.5 138.833 130.667 138.833 130.833 138.833C131 138.833 131.167 138.667 131.333 138.5C131.5 138.167 131.5 137.833 131.167 137.5C130.667 137.167 130.167 136.833 129.667 136.333C129.5 136.167 129.333 136.167 129.167 136.167C129 136.167 128.833 136.333 128.667 136.5C128.5 136.833 128.5 137.167 128.833 137.5C129.333 137.833 129.833 138.333 130.333 138.667ZM132.667 140C136.167 141.833 140 142.833 144 142.833C157.167 142.833 167.833 132.167 167.833 119C167.833 105.833 157.167 95.1667 144 95.1667C143.667 95.1667 143.333 95.5 143.333 95.8334C143.333 96.1667 143.667 96.5 144 96.5C156.333 96.5 166.5 106.5 166.5 119C166.5 131.333 156.5 141.5 144 141.5C140.333 141.5 136.667 140.5 133.333 138.833C133 138.667 132.667 138.833 132.5 139.167C132.167 139.5 132.333 139.833 132.667 140ZM133 99.5C134 98.8334 134.5 98.6667 135.667 98.3334C136 98.1667 136.167 97.8334 136 97.5C135.833 97.1667 135.667 97 135.333 97H135.167C134 97.5 133.5 97.6667 132.333 98.3334L132.667 99L133 99.5ZM137.833 97.5C138 97.5 138 97.5 138.167 97.5C138.5 97.3334 138.833 97.3334 139.167 97.1667C139.5 97.1667 139.833 96.6667 139.667 96.3334C139.667 96 139.333 95.8334 139 95.8334H138.833C138.5 95.8334 138.167 96 137.667 96.1667C137.333 96.3334 137 96.6667 137.167 97C137.333 97.1667 137.667 97.5 137.833 97.5ZM112.333 151C112.667 151.333 113 151.333 113.333 151.333C113.667 151.333 114 151.167 114.333 151L121.167 144.167C121.667 143.667 121.667 142.833 121.167 142.167C120.833 141.833 120.5 141.833 120.167 141.833C119.833 141.833 119.5 142 119.167 142.167L112.333 149C111.833 149.667 111.833 150.5 112.333 151ZM168.5 144.5L175.5 151.5C175.833 151.833 176.167 151.833 176.5 151.833C176.833 151.833 177.167 151.667 177.5 151.5C178 151 178 150.167 177.5 149.5L170.5 142.5C170.167 142.167 169.833 142.167 169.5 142.167C169.167 142.167 168.833 142.333 168.5 142.5C167.833 143.167 167.833 144 168.5 144.5ZM144.667 164.667C145.333 164.667 146 164 146 163.333V153.833C146 153.167 145.333 152.5 144.667 152.5C143.833 152.5 143.333 153.167 143.333 153.833V163.333C143.333 164 143.833 164.667 144.667 164.667Z" fill="#AA850E"/>
<path d="M144 147C159.333 147 171.833 134.5 171.833 119.167C171.833 103.833 159.333 91.3333 144 91.3333C128.667 91.3333 116.167 103.833 116.167 119.167C116 134.5 128.5 147 144 147ZM137.833 96.1667C138.167 96 138.5 96 139 95.8333H139.167C139.5 95.8333 139.833 96 139.833 96.3333C139.833 96.6667 139.667 97 139.333 97.1667C139 97.1667 138.667 97.3333 138.333 97.5C138.333 97.5 138.167 97.5 138 97.5C137.667 97.5 137.5 97.3333 137.5 97C137.167 96.6667 137.5 96.1667 137.833 96.1667ZM135.167 97H135.333C135.667 97 135.833 97.1667 136 97.5C136.167 97.8333 136 98.1667 135.667 98.3333C134.5 98.6667 134.167 99 133 99.5L132.667 99L132.333 98.3333C133.333 97.8333 134 97.5 135.167 97ZM132.333 139.167C132.5 138.833 133 138.667 133.167 138.833C136.5 140.667 140.167 141.5 143.833 141.5C156.167 141.5 166.333 131.5 166.333 119C166.333 106.667 156.333 96.5 143.833 96.5C143.5 96.5 143.167 96.1667 143.167 95.8333C143.167 95.5 143.5 95.1667 143.833 95.1667C157 95.1667 167.667 105.833 167.667 119C167.667 132.167 157 142.833 143.833 142.833C139.833 142.833 136 141.833 132.5 140C132.333 139.833 132.167 139.5 132.333 139.167ZM128.667 136.5C128.833 136.333 129 136.167 129.167 136.167C129.333 136.167 129.5 136.167 129.667 136.333C130.167 136.667 130.667 137.167 131.167 137.5C131.5 137.667 131.5 138.167 131.333 138.5C131.167 138.667 131 138.833 130.833 138.833C130.667 138.833 130.5 138.833 130.333 138.667C129.833 138.333 129.167 137.833 128.667 137.5C128.5 137.167 128.5 136.833 128.667 136.5Z" fill="#E0D5B8"/>
</svg>
