<svg width="834" height="500" viewBox="0 0 834 500" fill="none" xmlns="http://www.w3.org/2000/svg">
<path d="M84.6667 282.5C84.6667 299.667 98.5 313.667 115.667 313.833C117.667 313.833 119.5 313.833 121.5 313.833C403.833 318.5 345 462.833 533.167 405C627.667 376 656.833 338.5 731.333 316.333C741.5 313.333 748.667 304 748.667 293.333V289.667C748.667 284 744.167 279.5 738.5 279.5H216.5H216.333H208C207.833 279.5 207.5 279.5 207.333 279.5H149.833C149.667 279.5 149.333 279.5 149.167 279.5H101.667C101.5 279.5 101.167 279.5 101 279.5H88.6667H88.5H87.8333C86 279.5 84.6667 280.833 84.6667 282.5Z" fill="#E0D5B8"/>
<path d="M329.833 274.5H227.333V276.167H329.833V274.5Z" fill="white"/>
<path d="M236.167 123.167C236.333 123.167 236.5 123 236.5 122.833C236.5 120.833 234.833 119.167 232.833 119.167C232.833 119.167 231.667 119.167 230.833 119.333C230.667 119.333 230.5 119.667 230.5 119.833C230.5 120 230.833 120.167 231 120.167C231.667 120 232.833 120 232.833 120C234.333 120 235.667 121.333 235.667 122.833C235.833 123 236 123.167 236.167 123.167ZM247.333 129.833C246.833 129.833 246.5 130.167 246.5 130.667C246.5 131.167 246.833 131.5 247.333 131.5C247.833 131.5 248.167 131.167 248.167 130.667C248.167 130.167 247.833 129.833 247.333 129.833Z" fill="#224E82"/>
<path d="M233.333 131.5H239.167C239.667 131.5 240 131.167 240 130.667C240 130.167 239.667 129.833 239.167 129.833H233.333C230.667 129.833 228.333 127.667 228.333 124.833C228.333 122.333 230.167 120.333 232.667 120C232.833 120 233 119.833 233.167 119.667C233.333 119.5 233.333 119.333 233.333 119C233.333 118.833 233.333 118.5 233.333 118.167C233.333 115.5 235.5 113.167 238.333 113.167C239.667 113.167 241 113.667 242 114.833C242.167 115 242.5 115.167 242.833 115C243.167 115 243.333 114.667 243.5 114.333C244 111.667 246.5 109.833 249.167 109.833C252.333 109.833 255 112.5 255 115.667C255 115.833 255 116.167 255 116.333C255 116.667 255.167 117 255.333 117.167C255.667 117.333 256 117.333 256.333 117.167C257 116.667 257.667 116.5 258.333 116.5C260 116.5 261.333 117.667 261.5 119.167C261.5 119.667 262 119.833 262.5 119.833C262.667 119.833 263 119.833 263.333 119.833C266 119.833 268.333 122 268.333 124.833C268.333 127.667 266.167 129.833 263.333 129.833H251C250.5 129.833 250.167 130.167 250.167 130.667C250.167 131.167 250.5 131.5 251 131.5H263.333C267 131.5 270 128.5 270 124.833C270 121.167 267 118.167 263.333 118.167C263.167 118.167 263.167 118.167 263 118.167C262.333 116.167 260.5 114.833 258.333 114.833C257.833 114.833 257.167 115 256.667 115.167C256.333 111.333 253.167 108.333 249.167 108.333C246.167 108.333 243.5 110.167 242.333 112.833C241.167 112 239.833 111.5 238.5 111.5C234.833 111.5 231.833 114.5 231.833 118.167V118.333C229 119 226.833 121.667 226.833 124.667C226.667 128.5 229.667 131.5 233.333 131.5Z" fill="#224E82"/>
<path d="M242.333 129.833C242.667 129.833 243.667 129.833 244 129.833C244.5 129.833 244.833 130.167 244.833 130.667C244.833 131.167 244.5 131.5 244 131.5C243.667 131.5 242.667 131.5 242.333 131.5C241.833 131.5 241.5 131.167 241.5 130.667C241.5 130.167 242 129.833 242.333 129.833Z" fill="#224E82"/>
<path d="M161.833 93.4999C162.5 93.4999 163.167 92.8333 163.167 92.1666V82.6666C163.167 81.9999 162.5 81.3333 161.833 81.3333C161 81.3333 160.5 81.9999 160.5 82.6666V92.1666C160.333 92.8333 161 93.4999 161.833 93.4999ZM129 95.6666L136 102.667C136.333 103 136.667 103 137 103C137.333 103 137.667 102.833 138 102.667C138.5 102.167 138.5 101.333 138 100.667L131 93.6666C130.667 93.4999 130.333 93.3333 130 93.3333C129.667 93.3333 129.333 93.4999 129 93.6666C128.5 94.1666 128.5 94.9999 129 95.6666ZM185.333 102.833C185.667 103.167 186 103.167 186.333 103.167C186.667 103.167 187 103 187.333 102.833L194.167 95.9999C194.667 95.4999 194.667 94.6666 194.167 93.9999C193.833 93.6666 193.5 93.6666 193.167 93.6666C192.833 93.6666 192.5 93.8333 192.167 93.9999L185.333 100.833C184.667 101.5 184.667 102.333 185.333 102.833ZM154.5 104.667C154.5 105 154.833 105.167 155 105.167C155.167 105.167 155.167 105.167 155.333 105.167C155.667 105 156 105 156.333 104.833C156.667 104.833 157 104.333 156.833 104C156.833 103.667 156.5 103.5 156.167 103.5H156C155.667 103.5 155.333 103.667 154.833 103.833C154.667 103.833 154.333 104.167 154.5 104.667ZM149.833 106.667L150.167 107.167C151.167 106.5 151.667 106.333 152.833 106C153.167 105.833 153.333 105.5 153.167 105.167C153 104.833 152.833 104.667 152.5 104.667H152.333C151.167 105.167 150.667 105.333 149.5 106L149.833 106.667ZM116.833 127.5H126.333C127 127.5 127.667 126.833 127.667 126.167C127.667 125.5 127 124.833 126.333 124.833H116.833C116 124.833 115.5 125.5 115.5 126.167C115.5 126.833 116.167 127.5 116.833 127.5ZM197.167 127.5H206.667C207.333 127.5 208 126.833 208 126.167C208 125.5 207.333 124.833 206.667 124.833H197.167C196.333 124.833 195.833 125.5 195.833 126.167C195.833 126.833 196.333 127.5 197.167 127.5ZM146 145.167C146.5 145.667 147 146 147.667 146.333C147.833 146.5 148 146.5 148.167 146.5C148.333 146.5 148.5 146.333 148.667 146.167C148.833 145.833 148.833 145.5 148.5 145.167C148 144.833 147.5 144.5 147 144C146.833 143.833 146.667 143.833 146.5 143.833C146.333 143.833 146.167 144 146 144.167C145.667 144.5 145.667 144.833 146 145.167ZM149.833 147.667C153.333 149.5 157.167 150.5 161.167 150.5C174.333 150.5 185 139.833 185 126.667C185 113.5 174.333 102.833 161.167 102.833C160.833 102.833 160.5 103.167 160.5 103.5C160.5 103.833 160.833 104.167 161.167 104.167C173.5 104.167 183.667 114.167 183.667 126.667C183.667 139 173.667 149.167 161.167 149.167C157.5 149.167 153.833 148.167 150.5 146.5C150.167 146.333 149.833 146.5 149.667 146.833C149.333 147.167 149.5 147.5 149.833 147.667ZM146 145.167C146.5 145.667 147 146 147.667 146.333C147.833 146.5 148 146.5 148.167 146.5C148.333 146.5 148.5 146.333 148.667 146.167C148.833 145.833 148.833 145.5 148.5 145.167C148 144.833 147.5 144.5 147 144C146.833 143.833 146.667 143.833 146.5 143.833C146.333 143.833 146.167 144 146 144.167C145.667 144.5 145.667 144.833 146 145.167ZM149.833 147.667C153.333 149.5 157.167 150.5 161.167 150.5C174.333 150.5 185 139.833 185 126.667C185 113.5 174.333 102.833 161.167 102.833C160.833 102.833 160.5 103.167 160.5 103.5C160.5 103.833 160.833 104.167 161.167 104.167C173.5 104.167 183.667 114.167 183.667 126.667C183.667 139 173.667 149.167 161.167 149.167C157.5 149.167 153.833 148.167 150.5 146.5C150.167 146.333 149.833 146.5 149.667 146.833C149.333 147.167 149.5 147.5 149.833 147.667ZM150.167 107.167C151.167 106.5 151.667 106.333 152.833 106C153.167 105.833 153.333 105.5 153.167 105.167C153 104.833 152.833 104.667 152.5 104.667H152.333C151.167 105.167 150.667 105.333 149.5 106L149.833 106.667L150.167 107.167ZM155 105.167C155.167 105.167 155.167 105.167 155.333 105.167C155.667 105 156 105 156.333 104.833C156.667 104.833 157 104.333 156.833 104C156.833 103.667 156.5 103.5 156.167 103.5H156C155.667 103.5 155.333 103.667 154.833 103.833C154.5 104 154.167 104.333 154.333 104.667C154.5 104.833 154.833 105 155 105.167ZM161.167 157.333C178 157.333 191.833 143.667 191.833 126.667C191.833 109.833 178.167 95.9999 161.167 95.9999C144.333 95.9999 130.5 109.667 130.5 126.667C130.5 143.667 144.167 157.333 161.167 157.333ZM161.167 98.8333C176.5 98.8333 189 111.333 189 126.667C189 142 176.5 154.5 161.167 154.5C145.833 154.5 133.333 142 133.333 126.667C133.167 111.333 145.667 98.8333 161.167 98.8333ZM147.5 146.333C147.667 146.5 147.833 146.5 148 146.5C148.167 146.5 148.333 146.333 148.5 146.167C148.667 145.833 148.667 145.5 148.333 145.167C147.833 144.833 147.333 144.5 146.833 144C146.667 143.833 146.5 143.833 146.333 143.833C146.167 143.833 146 144 145.833 144.167C145.667 144.5 145.667 144.833 146 145.167C146.5 145.5 147 146 147.5 146.333ZM149.833 147.667C153.333 149.5 157.167 150.5 161.167 150.5C174.333 150.5 185 139.833 185 126.667C185 113.5 174.333 102.833 161.167 102.833C160.833 102.833 160.5 103.167 160.5 103.5C160.5 103.833 160.833 104.167 161.167 104.167C173.5 104.167 183.667 114.167 183.667 126.667C183.667 139 173.667 149.167 161.167 149.167C157.5 149.167 153.833 148.167 150.5 146.5C150.167 146.333 149.833 146.5 149.667 146.833C149.333 147.167 149.5 147.5 149.833 147.667ZM150.167 107.167C151.167 106.5 151.667 106.333 152.833 106C153.167 105.833 153.333 105.5 153.167 105.167C153 104.833 152.833 104.667 152.5 104.667H152.333C151.167 105.167 150.667 105.333 149.5 106L149.833 106.667L150.167 107.167ZM155 105.167C155.167 105.167 155.167 105.167 155.333 105.167C155.667 105 156 105 156.333 104.833C156.667 104.833 157 104.333 156.833 104C156.833 103.667 156.5 103.5 156.167 103.5H156C155.667 103.5 155.333 103.667 154.833 103.833C154.5 104 154.167 104.333 154.333 104.667C154.5 104.833 154.833 105 155 105.167ZM129.5 158.667C129.833 159 130.167 159 130.5 159C130.833 159 131.167 158.833 131.5 158.667L138.333 151.833C138.833 151.333 138.833 150.5 138.333 149.833C138 149.5 137.667 149.5 137.333 149.5C137 149.5 136.667 149.667 136.333 149.833L129.5 156.667C129 157.333 129 158.167 129.5 158.667ZM185.667 152.167L192.667 159.167C193 159.5 193.333 159.5 193.667 159.5C194 159.5 194.333 159.333 194.667 159.167C195.167 158.667 195.167 157.833 194.667 157.167L187.667 150.167C187.333 149.833 187 149.833 186.667 149.833C186.333 149.833 186 150 185.667 150.167C185 150.667 185 151.5 185.667 152.167ZM161.833 172.333C162.5 172.333 163.167 171.667 163.167 171V161.5C163.167 160.833 162.5 160.167 161.833 160.167C161 160.167 160.5 160.833 160.5 161.5V171C160.333 171.667 161 172.333 161.833 172.333Z" fill="#AA850E"/>
<path d="M161.167 154.667C176.5 154.667 189 142.167 189 126.833C189 111.5 176.5 99 161.167 99C145.833 99 133.333 111.5 133.333 126.833C133.167 142.167 145.667 154.667 161.167 154.667ZM155 103.833C155.333 103.667 155.667 103.667 156.167 103.5H156.333C156.667 103.5 157 103.667 157 104C157 104.333 156.833 104.667 156.5 104.833C156.167 104.833 155.833 105 155.5 105.167C155.5 105.167 155.333 105.167 155.167 105.167C154.833 105.167 154.667 105 154.667 104.667C154.333 104.167 154.667 103.833 155 103.833ZM152.333 104.667H152.5C152.833 104.667 153 104.833 153.167 105.167C153.333 105.5 153.167 105.833 152.833 106C151.667 106.333 151.333 106.667 150.167 107.167L149.833 106.667L149.5 106C150.5 105.333 151 105 152.333 104.667ZM149.5 146.833C149.667 146.5 150.167 146.333 150.333 146.5C153.667 148.333 157.333 149.167 161 149.167C173.333 149.167 183.5 139.167 183.5 126.667C183.5 114.333 173.5 104.167 161 104.167C160.667 104.167 160.333 103.833 160.333 103.5C160.333 103.167 160.667 102.833 161 102.833C174.167 102.833 184.833 113.5 184.833 126.667C184.833 139.833 174.167 150.5 161 150.5C157 150.5 153.167 149.5 149.667 147.667C149.5 147.5 149.333 147.167 149.5 146.833ZM145.833 144.167C146 144 146.167 143.833 146.333 143.833C146.5 143.833 146.667 143.833 146.833 144C147.333 144.333 147.833 144.833 148.333 145.167C148.667 145.333 148.667 145.833 148.5 146.167C148.333 146.333 148.167 146.5 148 146.5C147.833 146.5 147.667 146.5 147.5 146.333C147 146 146.333 145.5 145.833 145.167C145.667 144.833 145.667 144.5 145.833 144.167Z" fill="#E0D5B8"/>
<path d="M274 217.5C274 218.5 274.667 219.167 275.667 219.167H321.833V226.5C321.833 227.5 322.5 228.167 323.5 228.167C324.5 228.167 325.167 227.5 325.167 226.5V215.833H275.667C274.833 215.833 274 216.5 274 217.5ZM321.833 236V276.167H245.5V219.167H247.333C248.333 219.167 249 218.5 249 217.5C249 216.5 248.333 215.833 247.333 215.833H242.167V279.5H325.167V236C325.167 235 324.5 234.333 323.5 234.333C322.667 234.333 321.833 235 321.833 236Z" fill="#0E4D80"/>
<path d="M202.167 276.167V260.667C202.167 259.667 201.5 259 200.5 259C199.5 259 198.833 259.667 198.833 260.667V279.5H209C210 279.5 210.667 278.833 210.667 277.833C210.667 276.833 210 276.167 209 276.167H202.167ZM198.833 215.833V243.167C198.833 244.167 199.5 244.833 200.5 244.833C201.5 244.833 202.167 244.167 202.167 243.167V219.167H236V276.167H220C219 276.167 218.333 276.833 218.333 277.833C218.333 278.833 219 279.5 220 279.5H239.167V215.833H198.833Z" fill="#0E4D80"/>
<path d="M230.5 185H190.167L193.333 194.333C193.5 195 194.167 195.5 194.833 195.5C196 195.5 196.833 194.333 196.333 193.333L194.667 188.333H228L234.5 207.833H201.167L200 204.5C199.833 203.833 199.167 203.333 198.5 203.333C197.333 203.333 196.5 204.5 197 205.5L198.833 211.167H239.333L230.5 185Z" fill="#0E4D80"/>
<path d="M282 186.667C282 187.667 282.667 188.333 283.667 188.333H329.333L323 207.833H247.167L253 188.333H266.333C267.333 188.333 268 187.667 268 186.667C268 185.667 267.333 185 266.333 185H250.5L242.667 211.167H325.333L333.833 185H283.667C282.667 185 282 185.667 282 186.667Z" fill="#0E4D80"/>
<path d="M272.167 185H278C279 185 279.667 185.667 279.667 186.667C279.667 187.667 279 188.333 278 188.333H272.167C271.167 188.333 270.5 187.667 270.5 186.667C270.5 185.667 271.333 185 272.167 185Z" fill="#0E4D80"/>
<path d="M253.167 215.833H269.333C270.333 215.833 271 216.5 271 217.5C271 218.5 270.333 219.167 269.333 219.167H253.167C252.167 219.167 251.5 218.5 251.5 217.5C251.5 216.5 252.333 215.833 253.167 215.833Z" fill="#0E4D80"/>
<path d="M198.667 255.5V248.833C198.667 247.833 199.333 247.167 200.333 247.167C201.333 247.167 202 247.833 202 248.833V255.5C202 256.5 201.333 257.167 200.333 257.167C199.5 257.167 198.667 256.5 198.667 255.5Z" fill="#0E4D80"/>
<path d="M214.833 279.5H214.167C213.167 279.5 212.5 278.833 212.5 277.833C212.5 276.833 213.167 276.167 214.167 276.167H214.833C215.833 276.167 216.5 276.833 216.5 277.833C216.5 278.667 215.667 279.5 214.833 279.5Z" fill="#0E4D80"/>
<path d="M197.667 197.167L198.667 200.333C199 201.167 198.5 202.167 197.5 202.5C196.667 202.833 195.667 202.333 195.333 201.333L194.333 198.167C194 197.333 194.5 196.333 195.5 196C196.5 195.833 197.333 196.333 197.667 197.167Z" fill="#0E4D80"/>
<path d="M628.5 125C628.5 124.5 628.667 124 629 123.667C629.333 123.333 629.833 123.167 630.333 123.167C630.833 123.167 631.333 123.333 631.667 123.667C632 124 632.167 124.5 632.167 125C632.167 125.5 632 126 631.667 126.333C631.333 126.667 630.833 126.833 630.333 126.833C629.833 126.833 629.333 126.667 629 126.333C628.667 126 628.5 125.5 628.5 125ZM632 113.333L631.333 120.667H629.667L628.833 113.333V106.333H632V113.333Z" fill="#0E4D80"/>
<path d="M654.333 126.833C653.333 126.833 652.5 126.667 651.833 126.5C651.167 126.333 650.833 125.667 650.5 125C650 125.667 649.5 126.167 648.667 126.5C647.833 126.833 647.167 127 646.167 127C644.333 127 643 126.5 642 125.5C641.167 124.5 640.667 123.167 640.667 121.333V117.5H640.167C639 117.5 638.333 117.833 637.833 118.333C637.333 118.833 637.167 119.667 637.167 120.667V134.5H634V121C634 120 634.167 119.167 634.5 118.333C634.833 117.5 635.167 116.833 635.667 116.167C636.167 115.5 636.833 115.167 637.667 114.833C638.5 114.5 639.333 114.333 640.167 114.333H645.5C647.333 114.333 648.833 114.833 649.667 115.833C650.667 116.833 651 118.167 651 120V121.833C651 122.333 651.333 122.833 651.833 123C652.333 123.167 653 123.5 653.833 123.5H654.167V126.667H654.333V126.833ZM644 117.667V122C644 122.667 644.167 123.167 644.667 123.5C645.167 123.833 645.667 124 646.333 124C647 124 647.5 123.833 648 123.5C648.5 123.167 648.667 122.667 648.667 122V120.833C648.667 118.833 647.667 117.833 645.833 117.833H644V117.667Z" fill="#0E4D80"/>
<path d="M663.667 126.833C662.833 126.833 662.333 126.833 661.833 126.667C661.333 126.5 661 126.167 660.667 125.667C660.333 126.167 659.833 126.5 659.333 126.667C658.833 126.833 658.333 126.833 657.5 126.833H654.667C654.5 126.833 654.167 126.833 654 126.833C653.833 126.833 653.667 126.667 653.667 126.667V124.167C653.667 124 653.833 124 654 124C654.167 124 654.5 124 654.667 124H657C657.667 124 658 123.833 658.333 123.5C658.667 123.167 658.833 122.5 658.833 121.667V117.5H662V121.667C662 122.5 662.167 123.167 662.5 123.5C662.833 123.833 663.333 124 664 124V127.167H663.667V126.833ZM654.833 132C654.833 131.5 655 131 655.333 130.667C655.667 130.333 656.167 130.167 656.833 130.167C657.5 130.167 657.833 130.333 658.333 130.667C658.833 131 658.833 131.5 658.833 132C658.833 132.5 658.667 133 658.333 133.5C658 133.833 657.5 134.167 656.833 134.167C656.167 134.167 655.833 134 655.333 133.5C655 133.167 654.833 132.667 654.833 132ZM659.833 132C659.833 131.5 660 131 660.333 130.667C660.667 130.333 661.167 130.167 661.833 130.167C662.333 130.167 662.833 130.333 663.167 130.667C663.5 131 663.667 131.5 663.667 132C663.667 132.5 663.5 133 663.167 133.5C662.833 133.833 662.333 134.167 661.833 134.167C661.167 134.167 660.833 134 660.333 133.5C660 133.167 659.833 132.667 659.833 132Z" fill="#0E4D80"/>
<path d="M677.167 126.833C675.833 126.833 674.833 126.833 673.833 126.667C672.833 126.667 672 126.5 671.167 126.167C669.833 126.5 668.667 126.667 667.5 126.667H664C663.833 126.667 663.5 126.667 663.333 126.667C663.167 126.667 663 126.5 663 126.5V124C663 123.833 663.167 123.833 663.333 123.833C663.5 123.833 663.833 123.833 664 123.833H667.167C666.667 123.333 666.333 122.667 666 122.167C665.667 121.5 665.667 120.833 665.667 120.167C665.667 119.5 665.833 118.667 666.167 118C666.5 117.333 666.833 116.833 667.333 116.333C667.833 115.833 668.5 115.5 669 115.167C669.667 114.833 670.333 114.833 671 114.833C671.667 114.833 672.5 115 673.167 115.333C673.833 115.667 674.333 116 674.833 116.5C675.333 117 675.667 117.5 675.833 118.167C676 118.833 676.167 119.5 676.167 120.167C676.167 121 676 121.667 675.833 122.333C675.667 123 675.333 123.5 674.833 124H677.5V127.167H677.167V126.833ZM668.667 120C668.667 120.667 668.833 121.333 669.333 121.833C669.833 122.333 670.333 122.667 671 123C671.667 122.667 672.333 122.333 672.667 121.833C673.167 121.333 673.333 120.667 673.333 120C673.333 119.333 673.167 118.833 672.667 118.333C672.167 117.833 671.667 117.667 671 117.667C670.333 117.667 669.667 117.833 669.333 118.333C668.833 118.667 668.667 119.167 668.667 120ZM669.167 109.667C669.167 109.167 669.333 108.667 669.667 108.167C670 107.833 670.5 107.5 671.167 107.5C671.667 107.5 672.167 107.667 672.5 108.167C672.833 108.5 673 109 673 109.667C673 110.167 672.833 110.667 672.5 111C672.167 111.333 671.667 111.5 671.167 111.5C670.5 111.5 670.167 111.333 669.667 111C669.167 110.667 669.167 110.167 669.167 109.667Z" fill="#0E4D80"/>
<path d="M676.833 124C676.833 123.833 677 123.833 677.167 123.833C677.333 123.833 677.667 123.833 677.833 123.833H680.667C681.333 123.833 681.667 123.667 682.167 123.333C682.5 123 682.833 122.5 682.833 121.667V117H686V121.667C686 122.333 686.333 123 686.833 123.333C687.333 123.667 687.833 123.833 688.5 123.833C689.167 123.833 689.667 123.667 690.167 123.333C690.667 123 690.833 122.5 690.833 121.667V117H694V121.667C694 122.333 694.333 123 694.833 123.333C695.333 123.667 696 123.833 696.5 123.833C697.167 123.833 697.667 123.667 698.167 123.333C698.667 123 698.833 122.5 698.833 121.667V117H702V121.667C702 123.333 701.5 124.667 700.667 125.5C699.833 126.333 698.5 126.833 696.833 126.833C696 126.833 695.333 126.667 694.667 126.333C694 126 693.5 125.5 693.167 124.833C692.333 126.167 691 126.833 689 126.833C688.167 126.833 687.5 126.667 687 126.333C686.333 126 685.833 125.5 685.5 124.833C684.667 126.167 683.167 126.833 681.167 126.833H678.333C678.167 126.833 677.833 126.833 677.667 126.833C677.5 126.833 677.333 126.667 677.333 126.667V124H676.833Z" fill="#0E4D80"/>
<path d="M708.667 126.833C707.167 126.833 705.833 126.5 705 125.667C704.167 124.833 703.667 123.667 703.667 121.833V107.333H706.667V121.333C706.667 122.333 706.833 123 707.333 123.333C707.667 123.667 708.333 123.833 709 123.833H709.667V127H708.667V126.833Z" fill="#0E4D80"/>
<path d="M718.667 126.833C717.833 126.833 717.333 126.833 716.833 126.667C716.333 126.5 716 126.167 715.667 125.667C715.333 126.167 714.833 126.5 714.333 126.667C713.833 126.833 713.333 126.833 712.5 126.833H709.667C709.5 126.833 709.167 126.833 709 126.833C708.833 126.833 708.667 126.667 708.667 126.667V124.167C708.667 124 708.833 124 709 124C709.167 124 709.5 124 709.667 124H712C712.667 124 713 123.833 713.333 123.5C713.667 123.167 713.833 122.5 713.833 121.667V117.5H717V121.667C717 122.5 717.167 123.167 717.5 123.5C717.833 123.833 718.333 124 719 124V127.167H718.667V126.833ZM709.667 112.333C709.667 111.833 709.833 111.333 710.167 110.833C710.5 110.5 711 110.167 711.667 110.167C712.167 110.167 712.667 110.333 713 110.833C713.333 111.167 713.5 111.667 713.5 112.333C713.5 112.833 713.333 113.333 713 113.667C712.667 114 712.167 114.167 711.667 114.167C711 114.167 710.667 114 710.167 113.667C709.833 113.333 709.667 112.833 709.667 112.333ZM715 112.333C715 111.833 715.167 111.333 715.5 110.833C715.833 110.5 716.333 110.167 717 110.167C717.5 110.167 718 110.333 718.5 110.833C718.833 111.167 719 111.667 719 112.333C719 112.833 718.833 113.333 718.5 113.667C718.167 114 717.667 114.167 717 114.167C716.5 114.167 716 114 715.5 113.667C715.333 113.333 715 112.833 715 112.333Z" fill="#0E4D80"/>
<path d="M718.167 124C718.167 123.833 718.333 123.833 718.5 123.833C718.667 123.833 719 123.833 719.167 123.833H719.5C720 123.833 720.5 123.833 720.667 123.667C721 123.5 721.167 123.333 721.333 123.167C721.5 123 721.5 122.667 721.5 122.333C721.5 122 721.5 121.667 721.5 121.167C721.5 120.333 721.667 119.5 721.833 118.667C722 117.833 722.333 117.167 722.833 116.5C723.167 115.833 723.833 115.333 724.5 115C725.167 114.667 726 114.5 726.833 114.5C727.667 114.5 728.333 114.667 729 115C729.667 115.333 730.167 115.833 730.667 116.5C731.167 117.167 731.5 117.833 731.667 118.667C732 119.5 732 120.333 732 121.333C732 123.333 731.5 124.833 730.5 126C729.5 127.167 728.167 127.5 726.667 127.5C725.833 127.5 725 127.333 724.333 126.833C723.667 126.5 723 125.833 722.5 125.167C722.333 125.667 721.833 126.167 721.5 126.5C721.167 126.833 720.333 127 719.333 127H719C718.833 127 718.5 127 718.333 127C718.167 127 718 126.833 718 126.833V124H718.167ZM729.5 121C729.5 119.833 729.333 119 728.833 118.5C728.333 118 727.667 117.667 727 117.667C726.167 117.667 725.5 118 725 118.5C724.5 119 724.333 119.833 724.333 121C724.333 122.167 724.5 123 725 123.5C725.5 124 726.167 124.333 727 124.333C727.833 124.333 728.5 124 728.833 123.5C729.167 123 729.5 122.167 729.5 121Z" fill="#0E4D80"/>
<path d="M346.5 183C346.5 182.333 346.667 181.667 347.167 181.333C347.667 180.833 348.167 180.667 348.833 180.667C349.5 180.667 350 180.833 350.5 181.333C351 181.833 351.167 182.333 351.167 183C351.167 183.667 351 184.167 350.5 184.667C350 185.167 349.5 185.333 348.833 185.333C348.167 185.333 347.667 185.167 347.167 184.667C346.667 184.333 346.5 183.667 346.5 183Z" fill="#0E4D80"/>
<path d="M377.333 185.5C376.333 185.5 375.667 185.167 375.333 184.667C375 185 374.667 185.167 374.333 185.333C374 185.5 373.5 185.5 372.833 185.5H358.5C357 185.5 355.833 185 355.167 184.167C354.5 183.167 354.167 182 354.167 180.5V175.667H358.333V180.167C358.333 181 358.667 181.5 359.5 181.5H371.667C372.667 181.5 373.333 181 373.333 180.167V175.833H377.5V180.333C377.5 181.167 377.833 181.667 378.5 181.667H379.333V185.833H377.333V185.5ZM361.167 172C361.167 171.333 361.333 170.833 361.833 170.5C362.333 170 362.833 169.833 363.333 169.833C364 169.833 364.5 170 364.833 170.5C365.333 171 365.5 171.5 365.5 172C365.5 172.667 365.333 173.167 364.833 173.5C364.333 174 363.833 174.167 363.333 174.167C362.667 174.167 362.167 174 361.833 173.5C361.333 173.167 361.167 172.667 361.167 172ZM366.333 172C366.333 171.333 366.5 170.833 367 170.5C367.333 170 368 169.833 368.5 169.833C369.167 169.833 369.667 170 370 170.5C370.5 171 370.667 171.5 370.667 172C370.667 172.667 370.5 173.167 370 173.5C369.5 174 369 174.167 368.5 174.167C367.833 174.167 367.333 174 367 173.5C366.5 173.167 366.333 172.667 366.333 172Z" fill="#0E4D80"/>
<path d="M402.167 185.5C401 185.5 400.167 185.167 399.667 184.667C399.333 185 398.833 185.333 398.333 185.667C397.833 185.833 397.167 186 396.5 186C394.833 186 393.667 185.5 392.833 184.333C392.333 184.833 391.833 185.333 391.167 185.667C390.5 186 389.833 186.166 389.167 186.166C388.5 186.166 387.833 186 387.167 185.667C386.5 185.333 386 185 385.667 184.333C385.333 184.666 384.833 185 384.333 185.333C383.833 185.666 383 185.667 382.167 185.667H379.333C379.167 185.667 379 185.667 378.833 185.667C378.667 185.667 378.5 185.5 378.5 185.5V181.667C378.5 181.5 378.667 181.5 378.833 181.5C379 181.5 379.167 181.5 379.333 181.5H382C382.833 181.5 383.167 181.166 383.167 180.333V175.667H387.333V180.333C387.333 180.833 387.5 181.167 387.667 181.5C388 181.833 388.167 181.833 388.5 181.833C388.833 181.833 389.167 181.667 389.5 181.5C389.833 181.333 390 180.833 390 180.333V175.667H394.167V180.333C394.167 180.833 394.333 181.167 394.667 181.5C395 181.833 395.333 181.833 395.667 181.833C396 181.833 396.333 181.667 396.5 181.5C396.833 181.167 396.833 180.833 396.833 180.333V175.667H401V180.667C401 181.167 401.333 181.5 402.167 181.5H404V185.667H402.167V185.5Z" fill="#0E4D80"/>
<path d="M413.333 185.5C412.667 185.5 412 185.167 411.5 184.667C411.167 185 411 185.166 410.667 185.333C410.333 185.5 410 185.5 409.5 185.5H404C403.833 185.5 403.667 185.5 403.5 185.5C403.333 185.5 403.167 185.333 403.167 185.333V181.667C403.167 181.5 403.333 181.5 403.5 181.5C403.667 181.5 403.833 181.5 404 181.5H408.167C409 181.5 409.333 181 409.333 180.166V175.667H413.5V180.166C413.5 181 413.833 181.5 414.667 181.5H415.333V185.667H413.333V185.5ZM404.833 190.833C404.833 190.167 405 189.666 405.5 189.333C406 188.833 406.5 188.666 407 188.666C407.667 188.666 408.167 188.833 408.5 189.333C409 189.833 409.167 190.333 409.167 190.833C409.167 191.333 409 192 408.5 192.333C408 192.833 407.5 193 407 193C406.333 193 405.833 192.833 405.5 192.333C405.167 192 404.833 191.5 404.833 190.833ZM410 190.833C410 190.167 410.167 189.666 410.667 189.333C411 188.833 411.667 188.666 412.167 188.666C412.833 188.666 413.333 188.833 413.667 189.333C414.167 189.833 414.333 190.333 414.333 190.833C414.333 191.333 414.167 192 413.667 192.333C413.167 192.833 412.667 193 412.167 193C411.5 193 411 192.833 410.667 192.333C410.167 192 410 191.5 410 190.833Z" fill="#0E4D80"/>
<path d="M414.5 181.667C414.5 181.5 414.667 181.5 414.833 181.5C415 181.5 415.167 181.5 415.333 181.5H419.333C420.167 181.5 420.667 181 420.667 180.167V175.667H424.833V180.5C424.833 181.167 424.667 181.833 424.5 182.333C424.333 183 424 183.5 423.5 184C423 184.5 422.667 184.833 422 185.167C421.5 185.5 420.833 185.667 420.167 185.667H415.167C415 185.667 414.833 185.667 414.667 185.667C414.5 185.667 414.333 185.5 414.333 185.5V181.667H414.5ZM418 170.667C418 170 418.167 169.5 418.667 169.167C419.167 168.667 419.667 168.5 420.167 168.5C420.833 168.5 421.333 168.667 421.667 169.167C422.167 169.667 422.333 170.167 422.333 170.667C422.333 171.167 422.167 171.833 421.667 172.167C421.167 172.667 420.667 172.833 420.167 172.833C419.5 172.833 419 172.667 418.667 172.167C418.167 171.833 418 171.167 418 170.667Z" fill="#0E4D80"/>
<path d="M463.833 175.5V180.333C463.833 181.167 463.667 181.833 463.5 182.5C463.333 183.167 463 183.667 462.667 184.167C462.333 184.667 461.833 185 461.167 185.333C460.667 185.667 460 185.833 459.167 185.833C457.5 185.833 456.333 185.333 455.5 184.167C455 184.667 454.5 185.167 453.833 185.5C453.167 185.833 452.5 186 451.833 186C451.5 186 451.167 186 450.833 185.833C450.5 185.833 450.167 185.667 450 185.5C450 186.5 449.667 187.333 449.333 188.167C448.833 189 448.333 189.667 447.667 190.333C447 191 446.167 191.333 445.333 191.667C444.5 192 443.5 192.167 442.667 192.167H438C437 192.167 436 192 435.167 191.5C434.333 191.167 433.667 190.5 433 189.833C432.5 189.167 432 188.333 431.667 187.5C431.333 186.667 431.167 185.667 431.167 184.667V178.167H435.333V184.667C435.333 185.167 435.5 185.5 435.667 186C435.833 186.333 436 186.833 436.333 187.167C436.667 187.5 437 187.667 437.5 188C438 188.167 438.333 188.333 439 188.333H442.167C443.333 188.333 444.333 188 445 187.333C445.667 186.667 446 185.833 446 184.833V175.667H450.167V180.333C450.167 180.833 450.333 181.333 450.667 181.5C451 181.667 451.167 181.833 451.5 181.833C451.833 181.833 452.167 181.667 452.5 181.5C452.833 181.333 453 180.833 453 180.333V175.667H457.167V180.333C457.167 180.833 457.333 181.167 457.5 181.5C457.833 181.833 458 181.833 458.333 181.833C458.667 181.833 459 181.667 459.333 181.5C459.667 181.333 459.833 180.833 459.833 180.333V175.667H463.833V175.5Z" fill="#0E4D80"/>
<path d="M472.667 185.5C472.167 185.5 471.667 185.333 471.333 185C471.333 186.167 471.167 187.167 470.667 188.167C470.167 189 469.667 189.833 469 190.5C468.333 191.167 467.5 191.5 466.667 191.833C465.833 192.167 464.833 192.333 464 192.333H462.5L461.833 188.333H462.667C463.5 188.333 464.333 188.167 464.833 188C465.5 187.833 465.833 187.5 466.333 187.333C466.667 187 467 186.667 467.167 186.333C467.333 186 467.5 185.5 467.5 185.167V175.833H471.667V180.667C471.667 181.333 472.167 181.5 473 181.5H473.667V185.667H472.667V185.5Z" fill="#0E4D80"/>
<path d="M482.5 185.5C481.833 185.5 481.167 185.167 480.667 184.667C480.333 185 480.167 185.167 479.833 185.333C479.5 185.5 479.167 185.5 478.667 185.5H473.167C473 185.5 472.833 185.5 472.667 185.5C472.5 185.5 472.333 185.333 472.333 185.333V181.667C472.333 181.5 472.5 181.5 472.667 181.5C472.833 181.5 473 181.5 473.167 181.5H477.333C478.167 181.5 478.5 181 478.5 180.167V175.667H482.667V180.167C482.667 181 483 181.5 483.833 181.5H484.5V185.667H482.5V185.5ZM474.167 170.667C474.167 170 474.333 169.5 474.833 169.167C475.333 168.667 475.833 168.5 476.333 168.5C477 168.5 477.5 168.667 478 169.167C478.5 169.667 478.667 170.167 478.667 170.667C478.667 171.167 478.5 171.833 478 172.167C477.5 172.667 477 172.833 476.333 172.833C475.667 172.833 475.167 172.667 474.833 172.167C474.333 171.833 474.167 171.167 474.167 170.667ZM479.167 170.667C479.167 170 479.333 169.5 479.833 169.167C480.167 168.667 480.833 168.5 481.333 168.5C482 168.5 482.5 168.667 482.833 169.167C483.333 169.667 483.5 170.167 483.5 170.667C483.5 171.167 483.333 171.833 482.833 172.167C482.333 172.667 481.833 172.833 481.333 172.833C480.667 172.833 480.167 172.667 479.833 172.167C479.5 171.833 479.167 171.167 479.167 170.667Z" fill="#0E4D80"/>
<path d="M483.667 181.667C483.667 181.5 483.833 181.5 484 181.5C484.167 181.5 484.333 181.5 484.5 181.5H487.167C488 181.5 488.333 181.166 488.333 180.333V175.667H492.5V180.333C492.5 180.833 492.667 181.167 492.833 181.5C493 181.833 493.333 181.833 493.667 181.833C494 181.833 494.333 181.667 494.667 181.5C495 181.333 495.167 180.833 495.167 180.333V175.667H499.333V180.333C499.333 180.833 499.5 181.167 499.833 181.5C500.167 181.833 500.5 181.833 500.833 181.833C501.167 181.833 501.5 181.667 501.667 181.5C501.833 181.333 502 180.833 502 180.333V175.667H506.167V180.5C506.167 181.333 506 182 505.833 182.666C505.667 183.333 505.333 183.833 505 184.333C504.667 184.833 504.167 185.167 503.5 185.5C503 185.833 502.167 186 501.5 186C499.833 186 498.667 185.5 497.833 184.333C497.333 184.833 496.833 185.333 496.167 185.667C495.5 186 494.833 186.166 494.167 186.166C493.5 186.166 492.833 186 492.167 185.667C491.5 185.333 491 185 490.667 184.333C490.333 184.666 489.833 185 489.333 185.333C488.833 185.5 488 185.667 487.167 185.667H484.333C484.167 185.667 484 185.667 483.833 185.667C483.667 185.667 483.5 185.5 483.5 185.5V181.667H483.667Z" fill="#0E4D80"/>
<path d="M509.333 185.5L508.833 181.333H518.333C518.5 181.333 518.667 181.333 518.667 181.167C518.833 181 518.833 181 518.833 180.833C518.833 180.667 518.833 180.5 518.667 180.333L512.167 173.5L515 170.5L521.5 177.333C522 177.833 522.5 178.5 522.667 179.167C522.833 179.833 523 180.5 523 181.167C523 181.667 522.833 182.333 522.667 182.833C522.5 183.333 522.167 183.833 521.833 184.167C521.5 184.5 521 184.833 520.333 185C519.667 185.167 519 185.333 518.333 185.333H509.333V185.5Z" fill="#0E4D80"/>
<path d="M526.167 188.167H527C527.833 188.167 528.667 188 529.167 187.833C529.833 187.666 530.167 187.333 530.667 187.167C531 186.833 531.333 186.5 531.5 186.166C531.667 185.833 531.833 185.333 531.833 185V175.667H536V184.333C536 185.5 535.833 186.5 535.5 187.5C535.167 188.5 534.667 189.333 534 190C533.333 190.667 532.667 191.333 531.667 191.667C530.667 192 529.667 192.333 528.5 192.333H527L526.167 188.167Z" fill="#0E4D80"/>
<path d="M538.833 185.5L538.333 181.333H547.833C548 181.333 548.167 181.333 548.167 181.167C548.333 181 548.333 181 548.333 180.833C548.333 180.667 548.333 180.5 548.167 180.333L541.667 173.5L544.5 170.5L551 177.333C551.5 177.833 552 178.5 552.167 179.167C552.333 179.833 552.5 180.5 552.5 181.167C552.5 181.667 552.333 182.333 552.167 182.833C552 183.333 551.667 183.833 551.333 184.167C551 184.5 550.5 184.833 549.833 185C549.167 185.167 548.5 185.333 547.833 185.333H538.833V185.5Z" fill="#0E4D80"/>
<path d="M566.667 185.5C566.167 185.5 565.667 185.333 565.333 185C565.333 186.167 565.167 187.167 564.667 188.167C564.167 189 563.667 189.833 563 190.5C562.333 191.167 561.5 191.5 560.667 191.833C559.833 192.167 558.833 192.333 558 192.333H556.5L555.833 188.333H556.667C557.5 188.333 558.333 188.167 558.833 188C559.5 187.833 559.833 187.5 560.333 187.333C560.667 187 561 186.667 561.167 186.333C561.333 186 561.5 185.5 561.5 185.167V175.833H565.667V180.667C565.667 181.333 566.167 181.5 567 181.5H567.667V185.667H566.667V185.5Z" fill="#0E4D80"/>
<path d="M582.667 185.5C582 185.5 581.333 185.5 580.833 185.333C580.333 185.166 579.667 184.833 579.167 184.167C578.833 184.5 578.167 184.833 577.667 185.166C577 185.333 576.333 185.5 575.5 185.5H567.333C567.167 185.5 567 185.5 566.833 185.5C566.667 185.5 566.5 185.333 566.5 185.333V181.667C566.5 181.5 566.667 181.5 566.833 181.5C567 181.5 567.167 181.5 567.333 181.5H575.167C575.667 181.5 576 181.333 576 181C576 180.833 575.833 180.667 575.667 180.5L568.667 173.167L568.167 169.333L579.333 165.333L580 169.5L573.333 172.167L581.833 181.333C582 181.5 582.167 181.667 582.5 181.667C582.667 181.667 583 181.833 583.167 181.833V186H582.667V185.5ZM578.5 163.833L568 167.5L567.833 166L578.333 162.167L578.5 163.833Z" fill="#0E4D80"/>
<path d="M581.333 190.833C581.333 190.167 581.5 189.666 582 189.333C582.5 188.833 583 188.666 583.5 188.666C584.167 188.666 584.667 188.833 585.167 189.333C585.667 189.833 585.833 190.333 585.833 190.833C585.833 191.333 585.667 192 585.167 192.333C584.667 192.833 584.167 193 583.5 193C582.833 193 582.333 192.833 582 192.333C581.5 192 581.333 191.5 581.333 190.833ZM582.333 181.667C582.333 181.5 582.5 181.5 582.667 181.5C582.833 181.5 583 181.5 583.167 181.5H587.167C588 181.5 588.5 181 588.5 180.166V175.667H592.667V180.5C592.667 181.167 592.5 181.833 592.333 182.333C592.167 183 591.833 183.5 591.333 184C590.833 184.5 590.5 184.833 589.833 185.166C589.333 185.5 588.667 185.667 588 185.667H583C582.833 185.667 582.667 185.667 582.5 185.667C582.333 185.667 582.167 185.5 582.167 185.5V181.667H582.333ZM586.333 190.833C586.333 190.167 586.5 189.666 587 189.333C587.333 188.833 588 188.666 588.5 188.666C589.167 188.666 589.667 188.833 590 189.333C590.5 189.833 590.667 190.333 590.667 190.833C590.667 191.333 590.5 192 590 192.333C589.5 192.833 589 193 588.5 193C587.833 193 587.333 192.833 587 192.333C586.667 192 586.333 191.5 586.333 190.833Z" fill="#0E4D80"/>
<path d="M595.833 185.5L595.333 181.333H604.833C605 181.333 605.167 181.333 605.167 181.167C605.333 181 605.333 181 605.333 180.833C605.333 180.667 605.333 180.5 605.167 180.333L598.667 173.5L601.5 170.5L608 177.333C608.5 177.833 609 178.5 609.167 179.167C609.333 179.833 609.5 180.5 609.5 181.167C609.5 181.667 609.333 182.333 609.167 182.833C609 183.333 608.667 183.833 608.333 184.167C608 184.5 607.5 184.833 606.833 185C606.167 185.167 605.5 185.333 604.833 185.333H595.833V185.5Z" fill="#0E4D80"/>
<path d="M630.5 185.5C630.167 185.5 629.667 185.5 629.333 185.333C629 185.166 628.5 184.833 628.167 184.5L626.833 183.167C626.333 184 625.667 184.666 624.833 185.166C624 185.666 623 186 621.667 186C620.667 186 619.833 185.833 619.167 185.5C618.5 185.167 617.833 184.667 617.333 184.167C616.833 183.667 616.5 183 616.167 182.333C616 181.667 615.833 181 615.833 180.166C615.833 179.5 616 178.833 616.167 178.167C616.333 177.5 616.667 177 617.167 176.5L618.833 174.5L618 173.5L620.833 170.667L630 180.5C630.333 180.667 630.5 181 630.833 181.166C631.167 181.333 631.5 181.5 632 181.5H632.333V185.667H630.5V185.5ZM621.5 176.667L620.667 177.666C620.167 178 619.833 178.5 619.833 178.666C619.667 179 619.667 179.333 619.667 179.5C619.667 180 619.833 180.5 620.167 180.833C620.5 181.333 621 181.5 621.833 181.5C622.5 181.5 623 181.333 623.333 181C623.667 180.666 623.833 180.167 623.833 179.833C623.833 179.5 623.667 179.167 623.5 178.833C623.333 178.5 623 178 622.5 177.5L621.5 176.667Z" fill="#0E4D80"/>
<path d="M648 185.5C646 185.5 644.5 184.667 643.333 182.833L642.167 183.5C641 184.167 639.833 184.667 638.833 185C637.833 185.333 636.667 185.5 635.5 185.5H632.333C632.167 185.5 632 185.5 631.833 185.5C631.667 185.5 631.5 185.333 631.5 185.333V181.667C631.5 181.5 631.667 181.5 631.833 181.5C632 181.5 632.167 181.5 632.333 181.5H634.667C635.667 181.5 636.333 181.5 637.167 181.333C637.833 181.167 638.5 181 639 180.833C639.167 180.833 639.667 180.5 640.333 180.167C641.167 179.667 642.167 179.167 643.667 178.333C643.5 178 643.333 177.667 643 177.5C642.667 177.333 642 177.167 641.167 177.167H635L634.5 173H642C644.167 173 645.667 173.667 646.667 174.833C647.667 176.167 648.167 177.833 648.167 180.167L646.167 181.333C646.333 181.5 646.667 181.5 647 181.5H648.833V185.667H648V185.5Z" fill="#0E4D80"/>
<path d="M660.167 185.5C659.667 185.5 659 185.5 658.5 185.333C658 185.167 657.333 185.167 656.667 184.833C656 185 655.333 185.167 654.667 185.333C654 185.5 653.167 185.5 652.333 185.5H649C648.833 185.5 648.667 185.5 648.5 185.5C648.333 185.5 648.167 185.333 648.167 185.333V181.667C648.167 181.5 648.333 181.5 648.5 181.5C648.667 181.5 648.833 181.5 649 181.5H651.333C650.833 180.667 650.5 179.667 650.5 178.667C650.5 177.833 650.667 177.167 651 176.333C651.333 175.667 651.667 175 652.333 174.5C653 174 653.5 173.5 654.167 173.333C654.833 173 655.5 172.833 656.333 172.833C657.167 172.833 657.833 173 658.5 173.333C659.167 173.667 659.833 174 660.333 174.5C660.833 175 661.333 175.667 661.667 176.333C662 177 662.167 177.833 662.167 178.667C662.167 179.667 662 180.667 661.5 181.5H663.5V185.667H660.167V185.5ZM654 168.5C654 167.833 654.167 167.333 654.667 167C655.167 166.5 655.667 166.333 656.167 166.333C656.833 166.333 657.333 166.5 657.667 167C658.167 167.5 658.333 168 658.333 168.5C658.333 169.167 658.167 169.667 657.667 170C657.167 170.5 656.667 170.667 656.167 170.667C655.5 170.667 655 170.5 654.667 170C654.333 169.5 654 169 654 168.5ZM654.333 178.667C654.333 179.333 654.5 179.833 654.833 180.167C655.167 180.5 655.667 180.833 656.333 181C657 180.833 657.5 180.5 657.833 180.167C658.167 179.833 658.167 179.333 658.333 178.833C658.333 178.333 658.167 177.833 657.833 177.5C657.5 177.167 657 177 656.333 177C655.833 177 655.333 177.167 655 177.5C654.5 177.667 654.333 178 654.333 178.667Z" fill="#0E4D80"/>
<path d="M662.5 181.667C662.5 181.5 662.667 181.5 662.833 181.5C663 181.5 663.167 181.5 663.333 181.5H666C666.667 181.5 667.167 181.166 667.167 180.333V175.667H671.333V180.333C671.333 180.666 671.5 181 671.667 181.166C671.833 181.333 672.167 181.5 672.833 181.5C673.333 180.667 673.833 179.666 674.333 178.666C674.833 177.666 675.5 176.833 676.167 176C676.833 175.166 677.667 174.5 678.333 174C679 173.5 680 173.167 681 173.167C681.667 173.167 682.333 173.333 683 173.5C683.667 173.833 684.167 174.167 684.5 174.667C685 175.167 685.333 176 685.5 176.833C685.833 177.666 685.833 178.667 685.833 180C685.833 181.667 685.333 183 684.333 183.833C683.333 184.833 681.833 185.333 679.5 185.333H673.5C672.5 185.333 671.833 185.167 671.167 185C670.5 184.667 670 184.333 669.667 183.833C669.333 184.333 668.833 184.667 668.333 185C667.833 185.333 667.333 185.5 666.667 185.5H663.333C663.167 185.5 663 185.5 662.833 185.5C662.667 185.5 662.5 185.333 662.5 185.333V181.667ZM681 181.333C681.5 181.333 681.667 181.167 681.833 180.833C682 180.5 682 180.167 682 179.833C682 179.667 682 179.333 682 179C682 178.667 681.833 178.5 681.833 178.333C681.667 178.167 681.5 177.833 681.333 177.833C681.167 177.666 680.833 177.666 680.667 177.666C680.333 177.666 679.833 177.833 679.5 178.167C679.167 178.5 678.833 178.833 678.5 179.333C678.167 179.833 677.833 180.167 677.667 180.667C677.5 181.167 677.167 181.5 677 181.833H681V181.333Z" fill="#0E4D80"/>
<path d="M712.333 185.5C711.833 185.5 711.5 185.333 711 185C711 186 710.833 187 710.333 187.833C710 188.667 709.333 189.5 708.667 190.167C708 190.833 707.167 191.333 706.333 191.667C705.5 192 704.5 192.167 703.667 192.167H699C698 192.167 697 192 696.167 191.5C695.333 191.167 694.667 190.5 694 189.833C693.5 189.167 693 188.333 692.667 187.5C692.333 186.667 692.167 185.667 692.167 184.667V178.167H696.333V184.667C696.333 185.167 696.5 185.5 696.667 186C696.833 186.333 697 186.833 697.333 187.167C697.667 187.5 698 187.667 698.5 188C699 188.167 699.333 188.333 700 188.333H703.167C704.333 188.333 705.333 188 706 187.333C706.667 186.667 707 185.833 707 184.833V175.667H711.167V180.333C711.167 180.833 711.333 181.167 711.5 181.333C711.833 181.5 712.167 181.5 712.5 181.5H712.833V185.667H712.333V185.5ZM699.5 176C699.5 175.333 699.667 174.833 700.167 174.5C700.667 174 701.167 173.833 701.667 173.833C702.333 173.833 702.833 174 703.167 174.5C703.667 175 703.833 175.5 703.833 176C703.833 176.5 703.667 177.167 703.167 177.5C702.667 178 702.167 178.167 701.667 178.167C701 178.167 700.5 178 700.167 177.5C699.667 177.167 699.5 176.667 699.5 176Z" fill="#0E4D80"/>
<path d="M711 190.833C711 190.167 711.167 189.666 711.667 189.333C712.167 188.833 712.667 188.666 713.167 188.666C713.833 188.666 714.333 188.833 714.833 189.333C715.333 189.833 715.5 190.333 715.5 190.833C715.5 191.333 715.333 192 714.833 192.333C714.333 192.833 713.833 193 713.167 193C712.5 193 712 192.833 711.667 192.333C711.167 192 711 191.5 711 190.833ZM712 181.667C712 181.5 712.167 181.5 712.333 181.5C712.5 181.5 712.667 181.5 712.833 181.5H716.833C717.667 181.5 718.167 181 718.167 180.166V175.667H722.333V180.5C722.333 181.167 722.167 181.833 722 182.333C721.833 183 721.5 183.5 721 184C720.5 184.5 720.167 184.833 719.5 185.166C719 185.5 718.333 185.667 717.667 185.667H712.667C712.5 185.667 712.333 185.667 712.167 185.667C712 185.667 711.833 185.5 711.833 185.5V181.667H712ZM716 190.833C716 190.167 716.167 189.666 716.667 189.333C717 188.833 717.667 188.666 718.167 188.666C718.833 188.666 719.333 188.833 719.667 189.333C720.167 189.833 720.333 190.333 720.333 190.833C720.333 191.333 720.167 192 719.667 192.333C719.167 192.833 718.667 193 718.167 193C717.5 193 717 192.833 716.667 192.333C716.333 192 716 191.5 716 190.833Z" fill="#0E4D80"/>
<path d="M725.333 185.5V166.833H729.5V185.5H725.333Z" fill="#0E4D80"/>
<path d="M356.167 223.833C356.167 223.5 356.333 223.167 356.5 222.833C356.833 222.5 357.167 222.5 357.5 222.5C357.833 222.5 358.167 222.667 358.5 222.833C358.833 223.167 358.833 223.5 358.833 223.833C358.833 224.167 358.667 224.5 358.5 224.833C358.167 225.167 357.833 225.333 357.5 225.333C357.167 225.333 356.833 225.167 356.5 224.833C356.333 224.667 356.167 224.333 356.167 223.833Z" fill="#0E4D80"/>
<path d="M372.167 225.333C371.833 225.333 371.5 225.333 371.333 225.167C371.167 225 370.833 225 370.667 224.833C370.5 224.667 370.333 224.667 370.167 224.5C370 224.333 369.833 224.167 369.667 224C369.5 224.333 369.167 224.667 368.833 224.833C368.5 225 368 225.167 367.333 225.167H361.667L361.5 223.333H367.5C367.833 223.333 368 223.333 368.167 223.167C368.333 223 368.333 222.833 368.333 222.667C368.333 222.5 368.167 222.167 368 222L363.833 217.667L365 216.333L370.5 222.167C370.833 222.5 371 222.667 371.333 223C371.667 223.167 372 223.333 372.5 223.333H372.667V225.167H372.167V225.333Z" fill="#0E4D80"/>
<path d="M378 225.333C377.5 225.333 377.167 225.333 376.833 225.167C376.5 225 376.333 224.833 376 224.667C375.833 225 375.5 225.167 375.167 225.167C374.833 225.167 374.5 225.333 374 225.333H372.333C372.167 225.333 372 225.333 372 225.333C372 225.333 371.833 225.333 371.833 225.167V223.666C371.833 223.666 371.833 223.5 372 223.5C372.167 223.5 372.333 223.5 372.333 223.5H373.833C374.167 223.5 374.5 223.333 374.667 223.166C374.833 223 375 222.667 375 222.167V219.667H376.833V222.167C376.833 222.667 377 223 377.167 223.166C377.333 223.333 377.667 223.5 378 223.5V225.333ZM372.667 228.5C372.667 228.167 372.833 227.833 373 227.667C373.167 227.5 373.5 227.333 373.833 227.333C374.167 227.333 374.5 227.5 374.667 227.667C374.833 227.833 375 228.167 375 228.5C375 228.833 374.833 229.167 374.667 229.333C374.5 229.5 374.167 229.667 373.833 229.667C373.5 229.667 373.167 229.5 373 229.333C372.833 229.167 372.667 228.833 372.667 228.5ZM375.833 228.5C375.833 228.167 376 227.833 376.167 227.667C376.333 227.5 376.667 227.333 377 227.333C377.333 227.333 377.667 227.5 377.833 227.667C378 227.833 378.167 228.167 378.167 228.5C378.167 228.833 378 229.167 377.833 229.333C377.667 229.5 377.333 229.667 377 229.667C376.667 229.667 376.333 229.5 376.167 229.333C376 229.167 375.833 228.833 375.833 228.5Z" fill="#0E4D80"/>
<path d="M383.833 225.333C383.333 225.333 383 225.333 382.667 225.167C382.333 225 382.167 224.833 381.833 224.667C381.667 225 381.333 225.167 381 225.167C380.667 225.167 380.333 225.333 379.833 225.333H378.167C378 225.333 377.833 225.333 377.833 225.333C377.833 225.333 377.667 225.333 377.667 225.167V223.667C377.667 223.667 377.667 223.5 377.833 223.5C378 223.5 378.167 223.5 378.167 223.5H379.667C380 223.5 380.333 223.333 380.5 223.167C380.667 223 380.833 222.667 380.833 222.167V219.667H382.667V222.167C382.667 222.667 382.833 223 383 223.167C383.167 223.333 383.5 223.5 383.833 223.5V225.333ZM380 216.5C380 216.167 380.167 215.833 380.333 215.667C380.5 215.5 380.833 215.333 381.167 215.333C381.5 215.333 381.833 215.5 382 215.667C382.167 215.833 382.333 216.167 382.333 216.5C382.333 216.833 382.167 217.167 382 217.333C381.833 217.5 381.5 217.667 381.167 217.667C380.833 217.667 380.5 217.5 380.333 217.333C380 217.167 380 216.833 380 216.5Z" fill="#0E4D80"/>
<path d="M383.5 223.667C383.5 223.667 383.5 223.5 383.667 223.5C383.833 223.5 384 223.5 384 223.5H388.333C388.667 223.5 388.833 223.5 389 223.333C389.167 223.167 389.167 223 389.167 222.833C389.167 222.667 389.167 222.5 389.167 222.5C389.167 222.333 389 222.333 389 222.167L384.167 217.167L384 215L390.667 212.5L391 214.333L386.167 216.167L390.5 220.833C391.167 221.5 391.333 222.167 391.333 222.833C391.333 223.5 391 224.167 390.5 224.667C390 225.167 389.333 225.5 388.333 225.5H383.833C383.667 225.5 383.5 225.5 383.5 225.5C383.5 225.5 383.333 225.5 383.333 225.333V223.667H383.5Z" fill="#0E4D80"/>
<path d="M402.5 225.333C402.5 225.833 402.333 226.5 402 227C401.833 227.5 401.5 228 401 228.5C400.667 229 400.167 229.333 399.5 229.5C399 229.833 398.333 229.833 397.667 229.833H395.333L395 228H397.5C398.333 228 399.167 227.667 399.667 227.167C400.167 226.667 400.5 226 400.5 225.167C399.667 225.167 399 225.167 398.5 225C398 224.833 397.5 224.667 397 224.5C396.667 224.167 396.333 223.833 396.167 223.5C396 223 395.833 222.5 395.833 221.667C395.833 220.5 396 219.5 396.5 218.833C397 218.167 397.833 217.833 399 217.833C399.667 217.833 400.333 218 400.667 218.167C401.167 218.333 401.5 218.667 401.667 219C401.833 219.333 402 219.833 402.167 220.333C402.333 220.833 402.333 221.333 402.333 221.833V223.333H403.333V225.167H402.5V225.333ZM400.667 221.667C400.667 220.5 400.167 219.833 399.167 219.833C398.667 219.833 398.333 220 398.167 220.333C398 220.667 397.833 221 397.833 221.333V221.833C397.833 222.167 397.833 222.5 398 222.667C398.167 222.833 398.167 223 398.5 223.167C398.667 223.333 399 223.333 399.333 223.333C399.667 223.333 400.167 223.333 400.667 223.333V221.667Z" fill="#0E4D80"/>
<path d="M414 225.333C413.167 225.333 412.667 225.167 412.167 224.833C411.667 224.5 411.333 224 411.167 223.167L408.667 224.667C408.167 225 407.5 225.167 407 225.167C406.5 225.167 406.167 225.333 405.833 225.333H403.333C403.167 225.333 403 225.333 403 225.333C403 225.333 402.833 225.333 402.833 225.167V223.667C402.833 223.667 402.833 223.5 403 223.5C403.167 223.5 403.333 223.5 403.333 223.5H405.833C406.167 223.5 406.5 223.5 406.833 223.333C407.167 223.167 407.667 223 408 222.833L411.5 220.833C411.167 220.167 410.667 219.667 409.833 219.667H405.5L405.333 217.833H409.833C412.333 217.833 413.5 219.167 413.667 221.667L412 222.667C412.167 223 412.5 223.167 412.833 223.167C413.167 223.333 413.5 223.333 414.167 223.333V225.333H414ZM408.167 228.5C408.167 228.167 408.333 227.833 408.5 227.667C408.667 227.5 409 227.333 409.333 227.333C409.667 227.333 410 227.5 410.167 227.667C410.333 227.833 410.5 228.167 410.5 228.5C410.5 228.833 410.333 229.167 410.167 229.333C410 229.5 409.667 229.667 409.333 229.667C409 229.667 408.667 229.5 408.5 229.333C408.333 229.167 408.167 228.833 408.167 228.5Z" fill="#0E4D80"/>
<path d="M419.5 225.333C419 225.333 418.667 225.333 418.333 225.167C418 225 417.833 224.833 417.5 224.667C417.333 225 417 225.167 416.667 225.167C416.333 225.167 416 225.333 415.5 225.333H413.833C413.667 225.333 413.5 225.333 413.5 225.333C413.5 225.333 413.333 225.333 413.333 225.167V223.667C413.333 223.667 413.333 223.5 413.5 223.5C413.667 223.5 413.833 223.5 413.833 223.5H415.333C415.667 223.5 416 223.333 416.167 223.167C416.333 223 416.5 222.667 416.5 222.167V219.667H418.5V222.167C418.5 222.667 418.667 223 418.833 223.167C419 223.333 419.333 223.5 419.667 223.5V225.333H419.5ZM414 216.5C414 216.167 414.167 215.833 414.333 215.667C414.5 215.5 414.833 215.333 415.167 215.333C415.5 215.333 415.833 215.5 416 215.667C416.167 215.833 416.333 216.167 416.333 216.5C416.333 216.833 416.167 217.167 416 217.333C415.833 217.5 415.5 217.667 415.167 217.667C414.833 217.667 414.5 217.5 414.333 217.333C414.167 217.167 414 216.833 414 216.5ZM417.333 216.5C417.333 216.167 417.5 215.833 417.667 215.667C417.833 215.5 418.167 215.333 418.5 215.333C418.833 215.333 419.167 215.5 419.333 215.667C419.5 215.833 419.667 216.167 419.667 216.5C419.667 216.833 419.5 217.167 419.333 217.333C419.167 217.5 418.833 217.667 418.5 217.667C418.167 217.667 417.833 217.5 417.667 217.333C417.333 217.167 417.333 216.833 417.333 216.5Z" fill="#0E4D80"/>
<path d="M434.667 225C434.333 224.833 434 224.5 433.833 224.167C433.333 225 432.5 225.333 431.167 225.333C430.667 225.333 430.333 225.167 429.833 225C429.5 224.833 429.167 224.5 429 224.167C428.5 225 427.667 225.333 426.333 225.333C425.833 225.333 425.5 225.167 425 225C424.667 224.833 424.333 224.5 424.167 224.167C423.667 225 422.833 225.333 421.5 225.333H419.667C419.5 225.333 419.333 225.333 419.333 225.333C419.167 225.333 419.167 225.333 419.167 225.167V223.667C419.167 223.667 419.167 223.5 419.333 223.5C419.5 223.5 419.667 223.5 419.667 223.5H421.5C421.833 223.5 422.167 223.333 422.333 223.167C422.5 223 422.667 222.667 422.667 222.167V219.333H424.5V222.167C424.5 222.667 424.667 223 425 223.167C425.333 223.333 425.667 223.5 426 223.5C426.333 223.5 426.667 223.333 427 223.167C427.333 223 427.5 222.667 427.5 222.167V219.333H429.333V222.167C429.333 222.667 429.5 223 429.833 223.167C430.167 223.333 430.5 223.5 430.833 223.5C431.167 223.5 431.5 223.333 431.833 223.167C432.167 223 432.333 222.667 432.333 222.167V219.333H434.167V222.167C434.167 222.667 434.333 223 434.667 223.167C435 223.333 435.333 223.5 435.667 223.5V225.333C435.333 225.333 435 225.167 434.667 225Z" fill="#0E4D80"/>
<path d="M435.167 223.667C435.167 223.667 435.167 223.5 435.333 223.5C435.5 223.5 435.667 223.5 435.667 223.5H438.167C438.833 223.5 439.5 223.333 440.333 222.833L443.833 220.833C443.5 220.167 443 219.667 442.167 219.667H437.833L437.667 217.833H442.167C444.667 217.833 445.833 219.167 446 221.667L440.833 224.5C440.333 224.833 439.667 225 439.167 225C438.667 225 438.333 225.167 438 225.167H435.667C435.5 225.167 435.333 225.167 435.333 225.167C435.167 225.167 435.167 225.167 435.167 225V223.667ZM440.5 228.5C440.5 228.167 440.667 227.833 440.833 227.667C441 227.5 441.333 227.333 441.667 227.333C442 227.333 442.333 227.5 442.5 227.667C442.667 227.833 442.833 228.167 442.833 228.5C442.833 228.833 442.667 229.167 442.5 229.333C442.333 229.5 442 229.667 441.667 229.667C441.333 229.667 441 229.5 440.833 229.333C440.667 229.167 440.5 228.833 440.5 228.5Z" fill="#0E4D80"/>
<path d="M456 225.333C455.667 225.333 455.333 225.333 455.167 225.167C455 225 454.667 224.833 454.5 224.5V225C454.5 225.666 454.333 226.333 454.167 227C454 227.666 453.667 228.166 453.167 228.666C452.833 229.166 452.333 229.5 451.667 229.667C451.167 230 450.5 230 449.667 230H448.167L447.833 228.166H449C450.167 228.166 451 228 451.5 227.5C452 227 452.333 226.333 452.333 225.5V219.667H454.333V222.667C454.333 223 454.5 223.166 454.833 223.333C455.167 223.5 455.5 223.5 455.833 223.5H456.333V225.333H456Z" fill="#0E4D80"/>
<path d="M466.167 225.333C465.667 225.333 465 225.167 464.667 225C464.167 224.667 463.833 224.5 463.5 224C463.333 224.333 463 224.667 462.5 225C462 225.333 461.5 225.333 461 225.333H456.5C456.333 225.333 456.167 225.333 456.167 225.333C456 225.333 456 225.333 456 225.167V223.666C456 223.666 456 223.5 456.167 223.5C456.333 223.5 456.5 223.5 456.5 223.5H460.833C461.167 223.5 461.333 223.5 461.5 223.333C461.667 223.167 461.667 223 461.667 222.833C461.667 222.5 461.5 222.333 461.333 222.167L456.5 217.167L456.333 215L463 212.5L463.333 214.333L458.5 216.166L464.833 222.833C465 223 465.333 223.167 465.5 223.333C465.667 223.5 466 223.5 466.167 223.5H466.5V225.333H466.167ZM463 211.333L456.5 213.666L456.333 213L462.833 210.667L463 211.333Z" fill="#0E4D80"/>
<path d="M465.333 228.5C465.333 228.167 465.5 227.833 465.667 227.667C465.833 227.5 466.167 227.333 466.5 227.333C466.833 227.333 467.167 227.5 467.333 227.667C467.5 227.833 467.667 228.167 467.667 228.5C467.667 228.833 467.5 229.167 467.333 229.333C467.167 229.5 466.833 229.667 466.5 229.667C466.167 229.667 465.833 229.5 465.667 229.333C465.5 229.167 465.333 228.833 465.333 228.5ZM465.833 223.667C465.833 223.667 465.833 223.5 466 223.5C466.167 223.5 466.333 223.5 466.333 223.5H468.833C469.167 223.5 469.333 223.5 469.5 223.333C469.667 223.333 469.833 223.167 470 223C470.167 222.833 470.167 222.667 470.167 222.5C470.167 222.333 470.167 222.167 470.167 222V219.5H472V222.333C472 223.167 471.833 224 471.333 224.5C470.833 225 470.167 225.333 469.333 225.333H466.333C466.167 225.333 466 225.333 466 225.333C465.833 225.333 465.833 225.333 465.833 225.167V223.667ZM468.5 228.5C468.5 228.167 468.667 227.833 468.833 227.667C469 227.5 469.333 227.333 469.667 227.333C470 227.333 470.333 227.5 470.5 227.667C470.667 227.833 470.833 228.167 470.833 228.5C470.833 228.833 470.667 229.167 470.5 229.333C470.333 229.5 470 229.667 469.667 229.667C469.333 229.667 469 229.5 468.833 229.333C468.667 229.167 468.5 228.833 468.5 228.5Z" fill="#0E4D80"/>
<path d="M474.667 225.333L474.5 223.5H480.5C480.833 223.5 481 223.5 481.167 223.333C481.333 223.167 481.333 223 481.333 222.833C481.333 222.667 481.167 222.333 481 222.167L476.833 217.833L478 216.5L482.167 220.833C482.5 221.167 482.667 221.5 482.833 221.833C483 222.167 483 222.5 483 223C483 223.667 482.833 224.167 482.333 224.667C481.833 225.167 481.167 225.333 480.333 225.333H474.667Z" fill="#0E4D80"/>
<path d="M499.5 225.5C499.5 226 499.333 226.667 499.167 227.167C499 227.667 498.667 228.167 498.333 228.667C498 229.167 497.5 229.5 497 229.667C496.5 229.833 495.833 230 495.167 230H491.833C491.167 230 490.5 229.833 490 229.667C489.5 229.5 489 229.167 488.5 228.833C488.167 228.5 487.833 228 487.5 227.333C487.167 226.667 487.167 226 487.167 225.167V221.333H489V225.333C489 225.833 489.167 226.167 489.333 226.5C489.5 226.833 489.667 227.167 490 227.333C490.333 227.5 490.667 227.833 491 227.833C491.333 228 491.667 228 492.167 228H495C495.667 228 496.333 227.833 496.833 227.333C497.333 226.833 497.5 226.333 497.5 225.5C497.5 225.167 497.333 224.833 497 224.5C496.667 224.167 496.167 224.167 495.5 224.167H493.167V221C493.167 220.5 493.333 220 493.5 219.667C493.667 219.167 493.833 218.833 494.167 218.5C494.5 218.167 494.833 218 495.167 217.833C495.5 217.667 496 217.5 496.5 217.5H498.833V219.333H496.667C496.167 219.333 495.833 219.5 495.667 219.833C495.5 220.167 495.333 220.5 495.333 220.833V222.333H496.5C496.833 222.333 497.333 222.333 497.667 222.5C498 222.667 498.333 222.833 498.667 223C499 223.167 499.167 223.5 499.333 223.833C499.5 224.667 499.5 225 499.5 225.5Z" fill="#0E4D80"/>
<path d="M505 225.333C504 225.333 503.333 225.167 502.833 224.667C502.333 224.167 502 223.5 502 222.333V213.5H503.833V222C503.833 222.667 504 223 504.167 223.167C504.5 223.333 504.833 223.5 505.167 223.5H505.667V225.333H505Z" fill="#0E4D80"/>
<path d="M505 223.667C505 223.667 505 223.5 505.167 223.5C505.333 223.5 505.5 223.5 505.5 223.5H507.5C507.5 223.5 507.5 223.5 507.667 223.5H507.833C507.5 223.167 507.167 222.833 507 222.333C506.833 222 506.667 221.5 506.667 221C506.667 220.667 506.667 220.167 506.833 219.833C507 219.5 507.167 219.167 507.5 218.833C507.833 218.5 508.167 218.333 508.5 218.167C508.833 218 509.167 218 509.667 218C510 218 510.333 218 510.667 218.167C511 218.333 511.333 218.5 511.667 218.833L510.667 217.833L512 216.5L515.333 220.167C516.167 221 516.5 221.833 516.5 222.833C516.5 223.167 516.5 223.667 516.333 224C516.167 224.333 516 224.667 515.667 225C515.333 225.333 515 225.5 514.667 225.667C514.333 225.833 514 226 513.5 226C513 226 512.5 225.833 511.667 225.667C511 225.5 510.333 225.167 509.5 224.667C509 224.833 508.667 225 508.167 225.167C507.667 225.333 507.333 225.333 506.833 225.333H505.167C505 225.333 504.833 225.333 504.833 225.333C504.667 225.333 504.667 225.333 504.667 225.167V223.667H505ZM508.667 221C508.667 221.5 508.833 221.833 509.167 222.167C509.5 222.5 509.833 222.667 510.167 222.833C510.167 222.833 510.167 222.833 510.333 222.833C510.667 222.667 511 222.333 511.167 222.167C511.333 221.833 511.5 221.5 511.5 221.167C511.5 220.833 511.333 220.5 511.167 220.333C511 220.167 510.667 219.833 510.167 219.833C509.667 219.833 509.5 220 509.167 220.167C508.833 220.333 508.667 220.667 508.667 221ZM512.5 219.333C512.667 219.667 512.833 219.833 513 220.167C513 220.5 513.167 220.833 513.167 221.167C513.167 221.667 513.167 222 513 222.5C512.833 222.833 512.667 223.167 512.333 223.5L512.167 223.667C512.5 223.833 512.833 224 513.167 224C513.5 224 513.833 224.167 514 224.167C514.333 224.167 514.667 224 515 223.833C515.333 223.667 515.333 223.333 515.333 223C515.333 222.667 515.167 222.5 515 222.167C514.833 221.833 514.5 221.5 514.167 221.167L512.5 219.333Z" fill="#0E4D80"/>
<path d="M523 217.667L524.333 216.333L527.5 219.5C527.833 219.833 528.167 220.333 528.333 220.667C528.5 221 528.5 221.5 528.5 222C528.5 222.5 528.333 222.833 528.167 223.333C528 223.833 527.667 224.167 527.5 224.5C527.167 224.833 526.833 225.167 526.333 225.333C525.833 225.5 525.5 225.667 525 225.667C524.5 225.667 524 225.5 523.5 225.333C523 225.167 522.667 225 522.333 224.667C522 224.333 521.833 224 521.667 223.5C521.5 223 521.333 222.5 521.333 222C521.333 221.5 521.5 221.167 521.667 220.667C521.833 220.167 522.167 219.833 522.5 219.333L523.5 218.167L523 217.667ZM524.833 219.5L523.667 220.833C523.333 221.167 523.167 221.667 523.167 222C523.167 222.5 523.333 222.833 523.667 223.167C524 223.5 524.333 223.667 524.833 223.667C525.333 223.667 525.833 223.5 526.167 223.167C526.5 222.833 526.667 222.5 526.667 222C526.667 221.667 526.5 221.167 526.167 220.833L524.833 219.5Z" fill="#0E4D80"/>
<path d="M534.667 225.333C534.333 225.333 534 225.333 533.833 225.167C533.667 225 533.333 224.833 533.167 224.5V225C533.167 225.666 533 226.333 532.833 227C532.667 227.666 532.333 228.166 531.833 228.666C531.5 229.166 531 229.5 530.333 229.667C529.833 230 529.167 230 528.333 230H526.833L526.5 228.166H527.667C528.833 228.166 529.667 228 530.167 227.5C530.667 227 531 226.333 531 225.5V219.667H533V222.667C533 223 533.167 223.166 533.5 223.333C533.833 223.5 534.167 223.5 534.5 223.5H535V225.333H534.667Z" fill="#0E4D80"/>
<path d="M545.833 225.333C545 225.333 544.5 225.167 544 224.833C543.5 224.5 543.167 224 543 223.167L540.5 224.667C540 225 539.333 225.167 538.833 225.167C538.333 225.167 538 225.333 537.667 225.333H535.333C535.167 225.333 535 225.333 535 225.333C534.833 225.333 534.833 225.333 534.833 225.167V223.667C534.833 223.667 534.833 223.5 535 223.5C535.167 223.5 535.333 223.5 535.333 223.5H537.833C538.167 223.5 538.5 223.5 538.833 223.333C539.167 223.167 539.667 223 540 222.833L543.5 220.833C543.167 220.167 542.667 219.667 541.833 219.667H537.5L537.333 217.833H541.833C544.333 217.833 545.5 219.167 545.667 221.667L544 222.667C544.167 223 544.5 223.167 544.833 223.167C545.167 223.333 545.5 223.333 546.167 223.333V225.333H545.833ZM540 228.5C540 228.167 540.167 227.833 540.333 227.667C540.5 227.5 540.833 227.333 541.167 227.333C541.5 227.333 541.833 227.5 542 227.667C542.167 227.833 542.333 228.167 542.333 228.5C542.333 228.833 542.167 229.167 542 229.333C541.833 229.5 541.5 229.667 541.167 229.667C540.833 229.667 540.5 229.5 540.333 229.333C540.167 229.167 540 228.833 540 228.5Z" fill="#0E4D80"/>
<path d="M545.167 223.667C545.167 223.667 545.167 223.5 545.333 223.5C545.5 223.5 545.667 223.5 545.667 223.5H548.167C548.833 223.5 549.5 223.333 550.333 222.833L553.833 220.833C553.5 220.167 553 219.667 552.167 219.667H547.833L547.667 217.833H552.167C554.667 217.833 555.833 219.167 556 221.667L550.833 224.5C550.333 224.833 549.667 225 549.167 225C548.667 225 548.333 225.167 548 225.167H545.667C545.5 225.167 545.333 225.167 545.333 225.167C545.167 225.167 545.167 225.167 545.167 225V223.667Z" fill="#0E4D80"/>
<path d="M561.667 227.333C562.167 226.833 562.5 226.167 562.5 225.333V219.5H564.5V225C564.5 225.667 564.333 226.333 564.167 227C564 227.667 563.667 228.167 563.167 228.667C562.833 229.167 562.333 229.5 561.667 229.667C561.167 230 560.5 230 559.667 230H558.167L557.833 228.167H559C560.333 228.167 561.167 227.833 561.667 227.333Z" fill="#0E4D80"/>
<path d="M566.833 225.333L566.667 223.5H572.667C573 223.5 573.167 223.5 573.333 223.333C573.5 223.167 573.5 223 573.5 222.833C573.5 222.667 573.333 222.333 573.167 222.167L569 217.833L570.167 216.5L574.333 220.833C574.667 221.167 574.833 221.5 575 221.833C575.167 222.167 575.167 222.5 575.167 223C575.167 223.667 575 224.167 574.5 224.667C574 225.167 573.333 225.333 572.5 225.333H566.833Z" fill="#0E4D80"/>
<path d="M580 225.333V213.5H581.833V225.333H580Z" fill="#0E4D80"/>
<path d="M583.5 227.333C584 226.833 584.333 226.167 584.333 225.333V219.5H586.333V225C586.333 225.667 586.167 226.333 586 227C585.833 227.667 585.5 228.167 585 228.667C584.667 229.167 584.167 229.5 583.5 229.667C583 230 582.333 230 581.5 230H580L579.667 228.167H580.833C582.167 228.167 583 227.833 583.5 227.333Z" fill="#0E4D80"/>
<path d="M601 219.333H602.833V225C602.833 225.5 602.667 226.167 602.5 226.667C602.333 227.167 602 227.667 601.667 228.167C601.333 228.667 600.833 229 600.167 229.167C599.5 229.333 598.833 229.5 598.167 229.5H595.333C594.667 229.5 594 229.333 593.333 229.167C592.667 229 592.333 228.667 591.833 228.333C591.5 228 591.167 227.5 591 226.833C590.833 226.167 590.667 225.5 590.667 224.667V220.833H592.5V224.667C592.5 225.667 592.833 226.333 593.333 226.833C593.833 227.333 594.5 227.5 595.5 227.5H598C599 227.5 599.667 227.333 600.167 226.833C600.667 226.333 600.833 225.667 600.833 224.667V219.333H601ZM595.5 219.5C595.5 219.167 595.667 218.833 595.833 218.667C596 218.5 596.333 218.333 596.667 218.333C597 218.333 597.333 218.5 597.5 218.667C597.667 218.833 597.833 219.167 597.833 219.5C597.833 219.833 597.667 220.167 597.5 220.333C597.333 220.5 597 220.667 596.667 220.667C596.333 220.667 596 220.5 595.833 220.333C595.667 220.167 595.5 219.833 595.5 219.5Z" fill="#0E4D80"/>
<path d="M608.333 225.333C607.333 225.333 606.667 225.167 606.167 224.667C605.667 224.167 605.333 223.5 605.333 222.333V213.5H607.167V222C607.167 222.667 607.333 223 607.5 223.167C607.833 223.333 608.167 223.5 608.5 223.5H609V225.333H608.333Z" fill="#0E4D80"/>
<path d="M608.5 223.667C608.5 223.667 608.5 223.5 608.667 223.5C608.833 223.5 609 223.5 609 223.5H611.5C611.833 223.5 612 223.5 612.167 223.333C612.333 223.333 612.5 223.167 612.667 223C612.833 222.833 612.833 222.667 612.833 222.5C612.833 222.333 612.833 222.167 612.833 222V219.5H614.667V222.333C614.667 223.167 614.5 224 614 224.5C613.5 225 612.833 225.333 612 225.333H609C608.833 225.333 608.667 225.333 608.667 225.333C608.5 225.333 608.5 225.333 608.5 225.167V223.667ZM610.167 216.5C610.167 216.167 610.333 215.833 610.5 215.667C610.667 215.5 611 215.333 611.333 215.333C611.667 215.333 612 215.5 612.167 215.667C612.333 215.833 612.5 216.167 612.5 216.5C612.5 216.833 612.333 217.167 612.167 217.333C612 217.5 611.667 217.667 611.333 217.667C611 217.667 610.667 217.5 610.5 217.333C610.333 217.167 610.167 216.833 610.167 216.5ZM613.5 216.5C613.5 216.167 613.667 215.833 613.833 215.667C614 215.5 614.333 215.333 614.667 215.333C615 215.333 615.333 215.5 615.5 215.667C615.667 215.833 615.833 216.167 615.833 216.5C615.833 216.833 615.667 217.167 615.5 217.333C615.333 217.5 615 217.667 614.667 217.667C614.333 217.667 614 217.5 613.833 217.333C613.667 217.167 613.5 216.833 613.5 216.5Z" fill="#0E4D80"/>
<path d="M620.833 225.333C620.5 225.333 620.167 225.333 620 225.167C619.833 225 619.5 224.833 619.333 224.5V225C619.333 225.666 619.167 226.333 619 227C618.833 227.666 618.5 228.166 618 228.666C617.667 229.166 617.167 229.5 616.5 229.667C616 230 615.333 230 614.5 230H613L612.667 228.166H613.833C615 228.166 615.833 228 616.333 227.5C616.833 227 617.167 226.333 617.167 225.5V219.667H619.167V222.667C619.167 223 619.333 223.166 619.667 223.333C620 223.5 620.333 223.5 620.667 223.5H621.167V225.333H620.833Z" fill="#0E4D80"/>
<path d="M621.333 225.333C621.167 225.333 621 225.333 621 225.333C620.833 225.333 620.833 225.333 620.833 225.167V223.667C620.833 223.667 620.833 223.5 621 223.5C621.167 223.5 621.333 223.5 621.333 223.5H622.833V213.5H624.667V220.333C625.167 219.5 625.833 219 626.333 218.667C626.833 218.333 627.5 218.167 628 218.167C628.5 218.167 629 218.333 629.333 218.5C629.667 218.667 630 219 630.333 219.5C630.667 220 630.833 220.333 630.833 220.667C631 221.167 631 221.5 631 222C631 222.5 630.833 223 630.667 223.333H631.5V225.167H621.333V225.333ZM628.167 223.5C628.5 223.5 628.833 223.333 629 223C629.167 222.667 629.333 222.333 629.333 221.833C629.333 221.333 629.167 220.833 629 220.5C628.833 220.167 628.5 220 628.167 220C627.833 220 627.333 220.167 627 220.333C626.667 220.5 626.333 220.833 626 221.167C625.667 221.5 625.5 221.833 625.167 222.333C624.833 222.833 624.667 223 624.667 223.333H628.167V223.5ZM626.833 215C626.833 214.667 627 214.333 627.167 214.167C627.333 214 627.667 213.833 628 213.833C628.333 213.833 628.667 214 628.833 214.167C629 214.333 629.167 214.667 629.167 215C629.167 215.333 629 215.667 628.833 215.833C628.667 216 628.333 216.167 628 216.167C627.667 216.167 627.333 216 627.167 215.833C627 215.667 626.833 215.167 626.833 215Z" fill="#0E4D80"/>
<path d="M631.167 223.667C631.167 223.667 631.167 223.5 631.333 223.5C631.5 223.5 631.667 223.5 631.667 223.5H634.167C634.5 223.5 634.667 223.5 634.833 223.333C635 223.333 635.167 223.167 635.333 223C635.5 222.833 635.5 222.667 635.5 222.5C635.5 222.333 635.5 222.167 635.5 222V219.5H637.333V222.333C637.333 223.167 637.167 224 636.667 224.5C636.167 225 635.5 225.333 634.667 225.333H631.667C631.5 225.333 631.333 225.333 631.333 225.333C631.167 225.333 631.167 225.333 631.167 225.167V223.667ZM634.5 216.5C634.5 216.167 634.667 215.833 634.833 215.667C635 215.5 635.333 215.333 635.667 215.333C636 215.333 636.333 215.5 636.5 215.667C636.667 215.833 636.833 216.167 636.833 216.5C636.833 216.833 636.667 217.167 636.5 217.333C636.333 217.5 636 217.667 635.667 217.667C635.333 217.667 635 217.5 634.833 217.333C634.5 217.167 634.5 216.833 634.5 216.5Z" fill="#0E4D80"/>
<path d="M642 225.333L641.833 223.5H647.833C648.167 223.5 648.333 223.5 648.5 223.333C648.667 223.167 648.667 223 648.667 222.833C648.667 222.667 648.5 222.333 648.333 222.167L644.167 217.833L645.333 216.5L649.5 220.833C649.833 221.167 650 221.5 650.167 221.833C650.333 222.167 650.333 222.5 650.333 223C650.333 223.667 650.167 224.167 649.667 224.667C649.167 225.167 648.5 225.333 647.667 225.333H642Z" fill="#0E4D80"/>
<path d="M652.333 227.333C652.833 226.833 653.167 226.167 653.167 225.333V219.5H655.167V225C655.167 225.667 655 226.333 654.833 227C654.667 227.667 654.333 228.167 653.833 228.667C653.5 229.167 653 229.5 652.333 229.667C651.833 230 651.167 230 650.333 230H648.833L648.5 228.167H649.667C650.833 228.167 651.667 227.833 652.333 227.333Z" fill="#0E4D80"/>
<path d="M664 225.333C664 225.833 663.833 226.5 663.5 227C663.333 227.5 663 228 662.5 228.5C662.167 229 661.667 229.333 661 229.5C660.333 229.667 659.833 229.833 659.167 229.833H656.833L656.5 228H659C659.833 228 660.667 227.667 661.167 227.167C661.667 226.667 662 226 662 225.167C661.167 225.167 660.5 225.167 660 225C659.5 224.833 659 224.667 658.5 224.5C658.167 224.167 657.833 223.833 657.667 223.5C657.5 223 657.333 222.5 657.333 221.667C657.333 220.5 657.5 219.5 658 218.833C658.5 218.167 659.333 217.833 660.5 217.833C661.167 217.833 661.833 218 662.167 218.167C662.667 218.333 663 218.667 663.167 219C663.333 219.333 663.5 219.833 663.667 220.333C663.833 220.833 663.833 221.333 663.833 221.833V223.333H664.833V225.167H664V225.333ZM662.167 221.667C662.167 220.5 661.667 219.833 660.667 219.833C660.167 219.833 659.833 220 659.667 220.333C659.5 220.667 659.333 221 659.333 221.333V221.833C659.333 222.167 659.333 222.5 659.5 222.667C659.667 222.833 659.667 223 660 223.167C660.333 223.333 660.5 223.333 660.833 223.333C661.167 223.333 661.667 223.333 662.167 223.333V221.667Z" fill="#0E4D80"/>
<path d="M664.333 223.667C664.333 223.667 664.333 223.5 664.5 223.5C664.667 223.5 664.833 223.5 664.833 223.5H665C665.333 223.5 665.5 223.5 665.667 223.333C665.833 223.333 666 223.167 666 223C666 222.833 666.167 222.667 666.167 222.5C666.167 222.333 666.167 222 666.167 221.833C666.167 221.333 666.167 220.833 666.333 220.333C666.5 219.833 666.667 219.333 666.833 219C667.167 218.667 667.333 218.333 667.833 218.167C668.333 218 668.667 217.833 669.333 217.833C669.833 217.833 670.333 218 670.667 218.167C671 218.333 671.333 218.667 671.667 219C672 219.333 672.167 219.833 672.333 220.333C672.5 220.833 672.5 221.333 672.5 221.833C672.5 223 672.167 224 671.667 224.667C671 225.333 670.333 225.667 669.333 225.667C668.833 225.667 668.333 225.5 667.833 225.333C667.333 225.167 667 224.833 666.667 224.333C666.5 224.667 666.333 224.833 666 225.167C665.667 225.333 665.333 225.5 664.667 225.5H665C664.833 225.5 664.667 225.5 664.667 225.5C664.5 225.5 664.5 225.5 664.5 225.333V223.667H664.333ZM671.167 221.833C671.167 221.167 671 220.667 670.667 220.333C670.333 220 670 219.833 669.5 219.833C669 219.833 668.667 220 668.333 220.333C668 220.667 667.833 221.167 667.833 221.833C667.833 222.5 668 223 668.333 223.333C668.667 223.667 669 223.833 669.5 223.833C670 223.833 670.333 223.667 670.667 223.333C671 223 671.167 222.5 671.167 221.833Z" fill="#0E4D80"/>
<path d="M688.833 213.5V224.667C688.833 226.167 688.5 227.5 687.667 228.333C686.833 229.333 685.667 229.667 684.167 229.667H682C681.333 229.667 680.667 229.5 680 229.333C679.333 229.167 679 228.833 678.5 228.5C678.167 228.167 677.833 227.667 677.667 227C677.5 226.333 677.333 225.667 677.333 224.833V221H679.167V224.833C679.167 225.833 679.5 226.5 680 227C680.5 227.5 681.167 227.667 682.167 227.667H683.833C684.833 227.667 685.5 227.5 686 227C686.5 226.5 686.833 225.833 686.833 224.833V213.333H688.833V213.5Z" fill="#0E4D80"/>
<path d="M697.667 225.333C697.667 225.833 697.5 226.5 697.167 227C697 227.5 696.667 228 696.167 228.5C695.833 229 695.333 229.333 694.667 229.5C694 229.667 693.5 229.833 692.833 229.833H690.5L690.167 228H692.667C693.5 228 694.333 227.667 694.833 227.167C695.333 226.667 695.667 226 695.667 225.167C694.833 225.167 694.167 225.167 693.667 225C693.167 224.833 692.667 224.667 692.167 224.5C691.833 224.167 691.5 223.833 691.333 223.5C691.167 223 691 222.5 691 221.667C691 220.5 691.167 219.5 691.667 218.833C692.167 218.167 693 217.833 694.167 217.833C694.833 217.833 695.5 218 695.833 218.167C696.333 218.333 696.667 218.667 696.833 219C697 219.333 697.167 219.833 697.333 220.333C697.5 220.833 697.5 221.333 697.5 221.833V223.333H698.5V225.167H697.667V225.333ZM695.833 221.667C695.833 220.5 695.333 219.833 694.333 219.833C693.833 219.833 693.5 220 693.333 220.333C693.167 220.667 693 221 693 221.333V221.833C693 222.167 693 222.5 693.167 222.667C693.333 222.833 693.333 223 693.667 223.167C694 223.333 694.167 223.333 694.5 223.333C694.833 223.333 695.333 223.333 695.833 223.333V221.667Z" fill="#0E4D80"/>
<path d="M705.667 225.333C704.167 225.333 703 224.833 702.667 223.833C702.167 224.833 701.5 225.333 700.5 225.333H698.667C698.5 225.333 698.333 225.333 698.333 225.333C698.167 225.333 698.167 225.333 698.167 225.167V223.667C698.167 223.667 698.167 223.5 698.333 223.5C698.5 223.5 698.667 223.5 698.667 223.5H700.333C701.167 223.5 701.667 223 701.667 222V219.667H703.5V222C703.5 223 704.167 223.5 705.333 223.5C706 221.667 706.833 220.333 707.667 219.5C708.5 218.667 709.333 218.167 710.333 218.167C710.833 218.167 711.333 218.333 711.833 218.5C712.167 218.667 712.5 219 712.833 219.333C713.167 219.667 713.333 220 713.5 220.5C713.667 220.833 713.667 221.333 713.667 221.833C713.667 222.167 713.667 222.5 713.667 222.833C713.667 223.167 713.5 223.5 713.5 223.667H714.833V225.5H705.667V225.333ZM710.5 223.5C710.833 223.5 711.167 223.333 711.333 223C711.5 222.667 711.667 222.333 711.667 221.833C711.667 221.333 711.5 220.833 711.333 220.5C711.167 220.167 710.833 220 710.5 220C710.167 220 709.833 220.167 709.333 220.333C709 220.667 708.667 220.833 708.333 221.167C708 221.5 707.833 221.833 707.5 222.333C707.167 222.833 707 223 707 223.333H710.5V223.5Z" fill="#0E4D80"/>
<path d="M723.333 224.833C722.833 224.5 722.5 224 722.333 223.167L719.833 224.667C719.333 225 718.667 225.167 718.167 225.167C717.667 225.167 717.333 225.333 717 225.333H714.667C714.5 225.333 714.333 225.333 714.333 225.333C714.167 225.333 714.167 225.333 714.167 225.167V223.667C714.167 223.667 714.167 223.5 714.333 223.5C714.5 223.5 714.667 223.5 714.667 223.5H717.167C717.5 223.5 717.833 223.5 718.167 223.333C718.5 223.167 719 223 719.333 222.833L722.833 220.833C722.5 220.167 722 219.667 721.167 219.667H716.833L716.667 217.833H721.167C723.667 217.833 724.833 219.167 725 221.667L723.333 222.667C723.5 223 723.833 223.167 724.167 223.167C724.5 223.333 724.833 223.333 725.5 223.333V225.167C724.5 225.333 723.833 225.167 723.333 224.833Z" fill="#0E4D80"/>
<path d="M724.667 223.667C724.667 223.667 724.667 223.5 724.833 223.5C725 223.5 725.167 223.5 725.167 223.5H725.333C725.667 223.5 725.833 223.5 726 223.333C726.167 223.333 726.333 223.167 726.333 223C726.333 222.833 726.5 222.667 726.5 222.5C726.5 222.333 726.5 222 726.5 221.833C726.5 221.333 726.5 220.833 726.667 220.333C726.833 219.833 727 219.333 727.167 219C727.5 218.667 727.667 218.333 728.167 218.167C728.667 218 729 217.833 729.667 217.833C730.167 217.833 730.667 218 731 218.167C731.333 218.333 731.667 218.667 732 219C732.333 219.333 732.5 219.833 732.667 220.333C732.833 220.833 732.833 221.333 732.833 221.833C732.833 223 732.5 224 732 224.667C731.333 225.333 730.667 225.667 729.667 225.667C729.167 225.667 728.667 225.5 728.167 225.333C727.667 225.167 727.333 224.833 727 224.333C726.833 224.667 726.667 224.833 726.333 225.167C726 225.333 725.667 225.5 725 225.5H724.833C724.667 225.5 724.5 225.5 724.5 225.5C724.333 225.5 724.333 225.5 724.333 225.333V223.667H724.667ZM731.5 221.833C731.5 221.167 731.333 220.667 731 220.333C730.667 220 730.333 219.833 729.833 219.833C729.333 219.833 729 220 728.667 220.333C728.333 220.667 728.167 221.167 728.167 221.833C728.167 222.5 728.333 223 728.667 223.333C729 223.667 729.333 223.833 729.833 223.833C730.333 223.833 730.667 223.667 731 223.333C731.333 223 731.5 222.5 731.5 221.833Z" fill="#0E4D80"/>
</svg>
